G04 #@! TF.FileFunction,Legend,Bot*
%FSLAX46Y46*%
G04 Gerber Fmt 4.6, Leading zero omitted, Abs format (unit mm)*
G04 Created by KiCad (PCBNEW 0.201412111631+5320~19~ubuntu14.04.1-product) date Tue 23 Dec 2014 02:00:02 PM PST*
%MOMM*%
G01*
G04 APERTURE LIST*
%ADD10C,0.100000*%
%ADD11C,0.150000*%
%ADD12C,0.050000*%
%ADD13C,0.075000*%
G04 APERTURE END LIST*
D10*
D11*
X103455810Y-75070000D02*
G75*
G03X103455810Y-75070000I-915810J0D01*
G01*
X103455810Y-105550000D02*
G75*
G03X103455810Y-105550000I-915810J0D01*
G01*
X161070751Y-109678618D02*
G75*
G03X161070751Y-109678618I-127000J0D01*
G01*
X161751974Y-108870395D02*
X161033554Y-109588815D01*
X161033554Y-109588815D02*
X162111185Y-110666446D01*
X162111185Y-110666446D02*
X162829605Y-109948026D01*
X163548026Y-109229605D02*
X164266446Y-108511185D01*
X164266446Y-108511185D02*
X163188815Y-107433554D01*
X163188815Y-107433554D02*
X162470395Y-108151974D01*
X168889000Y-123699000D02*
G75*
G03X168889000Y-123699000I-127000J0D01*
G01*
X168762000Y-124842000D02*
X168762000Y-123826000D01*
X168762000Y-123826000D02*
X167238000Y-123826000D01*
X167238000Y-123826000D02*
X167238000Y-124842000D01*
X167238000Y-125858000D02*
X167238000Y-126874000D01*
X167238000Y-126874000D02*
X168762000Y-126874000D01*
X168762000Y-126874000D02*
X168762000Y-125858000D01*
X166276000Y-114938000D02*
G75*
G03X166276000Y-114938000I-127000J0D01*
G01*
X167292000Y-114938000D02*
X166276000Y-114938000D01*
X166276000Y-114938000D02*
X166276000Y-116462000D01*
X166276000Y-116462000D02*
X167292000Y-116462000D01*
X168308000Y-116462000D02*
X169324000Y-116462000D01*
X169324000Y-116462000D02*
X169324000Y-114938000D01*
X169324000Y-114938000D02*
X168308000Y-114938000D01*
X143728000Y-116862000D02*
G75*
G03X143728000Y-116862000I-127000J0D01*
G01*
X142458000Y-116862000D02*
X143474000Y-116862000D01*
X143474000Y-116862000D02*
X143474000Y-115338000D01*
X143474000Y-115338000D02*
X142458000Y-115338000D01*
X141442000Y-115338000D02*
X140426000Y-115338000D01*
X140426000Y-115338000D02*
X140426000Y-116862000D01*
X140426000Y-116862000D02*
X141442000Y-116862000D01*
D12*
X162865499Y-109517529D02*
X162865499Y-109544467D01*
X162892437Y-109598341D01*
X162919374Y-109625279D01*
X162973248Y-109652216D01*
X163027123Y-109652216D01*
X163067530Y-109638747D01*
X163134873Y-109598342D01*
X163175279Y-109557936D01*
X163215685Y-109490592D01*
X163229154Y-109450185D01*
X163229154Y-109396311D01*
X163202216Y-109342436D01*
X163175279Y-109315499D01*
X163121404Y-109288561D01*
X163094466Y-109288561D01*
X162986717Y-109180812D02*
X162986717Y-109153874D01*
X162973249Y-109113468D01*
X162905905Y-109046125D01*
X162865499Y-109032656D01*
X162838561Y-109032657D01*
X162798155Y-109046125D01*
X162771218Y-109073062D01*
X162744281Y-109126937D01*
X162744281Y-109450185D01*
X162569188Y-109275092D01*
X162757750Y-108897969D02*
X162582657Y-108722876D01*
X162569188Y-108924906D01*
X162528782Y-108884501D01*
X162488375Y-108871032D01*
X162461438Y-108871032D01*
X162421032Y-108884501D01*
X162353688Y-108951844D01*
X162340220Y-108992250D01*
X162340219Y-109019188D01*
X162353689Y-109059594D01*
X162434501Y-109140405D01*
X162474907Y-109153875D01*
X162501844Y-109153874D01*
X162488376Y-108628595D02*
X162299814Y-108440033D01*
X162138190Y-108844095D01*
D10*
X161514483Y-110920388D02*
X161676108Y-111082013D01*
X161595296Y-111001201D02*
X161878139Y-110718358D01*
X161864670Y-110785701D01*
X161864670Y-110839576D01*
X161878139Y-110879983D01*
X161420203Y-110772233D02*
X161393265Y-110772233D01*
X161393266Y-110799170D01*
X161420203Y-110799171D01*
X161420203Y-110772233D01*
X161393266Y-110799170D01*
X161527952Y-110422048D02*
X161527952Y-110395110D01*
X161514484Y-110354703D01*
X161447141Y-110287360D01*
X161406734Y-110273891D01*
X161379797Y-110273892D01*
X161339390Y-110287360D01*
X161312453Y-110314297D01*
X161285516Y-110368172D01*
X161285516Y-110691421D01*
X161110423Y-110516328D01*
X161312454Y-110152673D02*
X160935330Y-110341235D01*
X161123892Y-109964111D01*
D12*
X168497618Y-125492857D02*
X168516666Y-125511905D01*
X168573809Y-125530952D01*
X168611904Y-125530952D01*
X168669047Y-125511905D01*
X168707142Y-125473810D01*
X168726190Y-125435714D01*
X168745238Y-125359524D01*
X168745238Y-125302381D01*
X168726190Y-125226190D01*
X168707142Y-125188095D01*
X168669047Y-125150000D01*
X168611904Y-125130952D01*
X168573809Y-125130952D01*
X168516666Y-125150000D01*
X168497618Y-125169048D01*
X168345238Y-125169048D02*
X168326190Y-125150000D01*
X168288095Y-125130952D01*
X168192857Y-125130952D01*
X168154761Y-125150000D01*
X168135714Y-125169048D01*
X168116666Y-125207143D01*
X168116666Y-125245238D01*
X168135714Y-125302381D01*
X168364285Y-125530952D01*
X168116666Y-125530952D01*
X167983333Y-125130952D02*
X167735714Y-125130952D01*
X167869047Y-125283333D01*
X167811905Y-125283333D01*
X167773809Y-125302381D01*
X167754762Y-125321429D01*
X167735714Y-125359524D01*
X167735714Y-125454762D01*
X167754762Y-125492857D01*
X167773809Y-125511905D01*
X167811905Y-125530952D01*
X167926190Y-125530952D01*
X167964286Y-125511905D01*
X167983333Y-125492857D01*
X167507143Y-125302381D02*
X167545238Y-125283333D01*
X167564286Y-125264286D01*
X167583334Y-125226190D01*
X167583334Y-125207143D01*
X167564286Y-125169048D01*
X167545238Y-125150000D01*
X167507143Y-125130952D01*
X167430953Y-125130952D01*
X167392857Y-125150000D01*
X167373810Y-125169048D01*
X167354762Y-125207143D01*
X167354762Y-125226190D01*
X167373810Y-125264286D01*
X167392857Y-125283333D01*
X167430953Y-125302381D01*
X167507143Y-125302381D01*
X167545238Y-125321429D01*
X167564286Y-125340476D01*
X167583334Y-125378571D01*
X167583334Y-125454762D01*
X167564286Y-125492857D01*
X167545238Y-125511905D01*
X167507143Y-125530952D01*
X167430953Y-125530952D01*
X167392857Y-125511905D01*
X167373810Y-125492857D01*
X167354762Y-125454762D01*
X167354762Y-125378571D01*
X167373810Y-125340476D01*
X167392857Y-125321429D01*
X167430953Y-125302381D01*
D13*
X169285714Y-124092857D02*
X169285714Y-123921429D01*
X169285714Y-124007143D02*
X168985714Y-124007143D01*
X169028571Y-123978572D01*
X169057143Y-123950000D01*
X169071429Y-123921429D01*
X169257143Y-124221429D02*
X169271429Y-124235714D01*
X169285714Y-124221429D01*
X169271429Y-124207143D01*
X169257143Y-124221429D01*
X169285714Y-124221429D01*
X168985714Y-124507143D02*
X168985714Y-124364286D01*
X169128571Y-124350000D01*
X169114286Y-124364286D01*
X169100000Y-124392857D01*
X169100000Y-124464286D01*
X169114286Y-124492857D01*
X169128571Y-124507143D01*
X169157143Y-124521428D01*
X169228571Y-124521428D01*
X169257143Y-124507143D01*
X169271429Y-124492857D01*
X169285714Y-124464286D01*
X169285714Y-124392857D01*
X169271429Y-124364286D01*
X169257143Y-124350000D01*
X168985714Y-124607142D02*
X169285714Y-124707142D01*
X168985714Y-124807142D01*
D12*
X167992857Y-115252382D02*
X168011905Y-115233334D01*
X168030952Y-115176191D01*
X168030952Y-115138096D01*
X168011905Y-115080953D01*
X167973810Y-115042858D01*
X167935714Y-115023810D01*
X167859524Y-115004762D01*
X167802381Y-115004762D01*
X167726190Y-115023810D01*
X167688095Y-115042858D01*
X167650000Y-115080953D01*
X167630952Y-115138096D01*
X167630952Y-115176191D01*
X167650000Y-115233334D01*
X167669048Y-115252382D01*
X167669048Y-115404762D02*
X167650000Y-115423810D01*
X167630952Y-115461905D01*
X167630952Y-115557143D01*
X167650000Y-115595239D01*
X167669048Y-115614286D01*
X167707143Y-115633334D01*
X167745238Y-115633334D01*
X167802381Y-115614286D01*
X168030952Y-115385715D01*
X168030952Y-115633334D01*
X167630952Y-115766667D02*
X167630952Y-116014286D01*
X167783333Y-115880953D01*
X167783333Y-115938095D01*
X167802381Y-115976191D01*
X167821429Y-115995238D01*
X167859524Y-116014286D01*
X167954762Y-116014286D01*
X167992857Y-115995238D01*
X168011905Y-115976191D01*
X168030952Y-115938095D01*
X168030952Y-115823810D01*
X168011905Y-115785714D01*
X167992857Y-115766667D01*
X168030952Y-116204762D02*
X168030952Y-116280952D01*
X168011905Y-116319047D01*
X167992857Y-116338095D01*
X167935714Y-116376190D01*
X167859524Y-116395238D01*
X167707143Y-116395238D01*
X167669048Y-116376190D01*
X167650000Y-116357143D01*
X167630952Y-116319047D01*
X167630952Y-116242857D01*
X167650000Y-116204762D01*
X167669048Y-116185714D01*
X167707143Y-116166666D01*
X167802381Y-116166666D01*
X167840476Y-116185714D01*
X167859524Y-116204762D01*
X167878571Y-116242857D01*
X167878571Y-116319047D01*
X167859524Y-116357143D01*
X167840476Y-116376190D01*
X167802381Y-116395238D01*
D13*
X167107143Y-116935714D02*
X167278571Y-116935714D01*
X167192857Y-116935714D02*
X167192857Y-116635714D01*
X167221428Y-116678571D01*
X167250000Y-116707143D01*
X167278571Y-116721429D01*
X166978571Y-116907143D02*
X166964286Y-116921429D01*
X166978571Y-116935714D01*
X166992857Y-116921429D01*
X166978571Y-116907143D01*
X166978571Y-116935714D01*
X166792857Y-116764286D02*
X166821429Y-116750000D01*
X166835714Y-116735714D01*
X166850000Y-116707143D01*
X166850000Y-116692857D01*
X166835714Y-116664286D01*
X166821429Y-116650000D01*
X166792857Y-116635714D01*
X166735714Y-116635714D01*
X166707143Y-116650000D01*
X166692857Y-116664286D01*
X166678572Y-116692857D01*
X166678572Y-116707143D01*
X166692857Y-116735714D01*
X166707143Y-116750000D01*
X166735714Y-116764286D01*
X166792857Y-116764286D01*
X166821429Y-116778571D01*
X166835714Y-116792857D01*
X166850000Y-116821429D01*
X166850000Y-116878571D01*
X166835714Y-116907143D01*
X166821429Y-116921429D01*
X166792857Y-116935714D01*
X166735714Y-116935714D01*
X166707143Y-116921429D01*
X166692857Y-116907143D01*
X166678572Y-116878571D01*
X166678572Y-116821429D01*
X166692857Y-116792857D01*
X166707143Y-116778571D01*
X166735714Y-116764286D01*
X166592858Y-116635714D02*
X166492858Y-116935714D01*
X166392858Y-116635714D01*
D12*
X142092857Y-115652382D02*
X142111905Y-115633334D01*
X142130952Y-115576191D01*
X142130952Y-115538096D01*
X142111905Y-115480953D01*
X142073810Y-115442858D01*
X142035714Y-115423810D01*
X141959524Y-115404762D01*
X141902381Y-115404762D01*
X141826190Y-115423810D01*
X141788095Y-115442858D01*
X141750000Y-115480953D01*
X141730952Y-115538096D01*
X141730952Y-115576191D01*
X141750000Y-115633334D01*
X141769048Y-115652382D01*
X141769048Y-115804762D02*
X141750000Y-115823810D01*
X141730952Y-115861905D01*
X141730952Y-115957143D01*
X141750000Y-115995239D01*
X141769048Y-116014286D01*
X141807143Y-116033334D01*
X141845238Y-116033334D01*
X141902381Y-116014286D01*
X142130952Y-115785715D01*
X142130952Y-116033334D01*
X141864286Y-116376191D02*
X142130952Y-116376191D01*
X141711905Y-116280953D02*
X141997619Y-116185714D01*
X141997619Y-116433334D01*
X141730952Y-116661905D02*
X141730952Y-116700000D01*
X141750000Y-116738095D01*
X141769048Y-116757143D01*
X141807143Y-116776190D01*
X141883333Y-116795238D01*
X141978571Y-116795238D01*
X142054762Y-116776190D01*
X142092857Y-116757143D01*
X142111905Y-116738095D01*
X142130952Y-116700000D01*
X142130952Y-116661905D01*
X142111905Y-116623809D01*
X142092857Y-116604762D01*
X142054762Y-116585714D01*
X141978571Y-116566666D01*
X141883333Y-116566666D01*
X141807143Y-116585714D01*
X141769048Y-116604762D01*
X141750000Y-116623809D01*
X141730952Y-116661905D01*
D13*
X143442857Y-114785714D02*
X143257143Y-114785714D01*
X143357143Y-114900000D01*
X143314285Y-114900000D01*
X143285714Y-114914286D01*
X143271428Y-114928571D01*
X143257143Y-114957143D01*
X143257143Y-115028571D01*
X143271428Y-115057143D01*
X143285714Y-115071429D01*
X143314285Y-115085714D01*
X143400000Y-115085714D01*
X143428571Y-115071429D01*
X143442857Y-115057143D01*
X143128571Y-115057143D02*
X143114286Y-115071429D01*
X143128571Y-115085714D01*
X143142857Y-115071429D01*
X143128571Y-115057143D01*
X143128571Y-115085714D01*
X143014286Y-114785714D02*
X142828572Y-114785714D01*
X142928572Y-114900000D01*
X142885714Y-114900000D01*
X142857143Y-114914286D01*
X142842857Y-114928571D01*
X142828572Y-114957143D01*
X142828572Y-115028571D01*
X142842857Y-115057143D01*
X142857143Y-115071429D01*
X142885714Y-115085714D01*
X142971429Y-115085714D01*
X143000000Y-115071429D01*
X143014286Y-115057143D01*
X142742858Y-114785714D02*
X142642858Y-115085714D01*
X142542858Y-114785714D01*
M02*
