G04 #@! TF.FileFunction,Paste,Top*
%FSLAX46Y46*%
G04 Gerber Fmt 4.6, Leading zero omitted, Abs format (unit mm)*
G04 Created by KiCad (PCBNEW 0.201501300117+5396~20~ubuntu14.04.1-product) date Fri 30 Jan 2015 09:08:00 PM PST*
%MOMM*%
G01*
G04 APERTURE LIST*
%ADD10C,0.100000*%
%ADD11R,0.762000X0.508000*%
%ADD12C,0.450000*%
%ADD13R,0.398780X0.599440*%
%ADD14R,0.599440X0.398780*%
%ADD15C,1.000000*%
%ADD16R,0.797560X0.797560*%
%ADD17R,0.599440X0.248920*%
%ADD18R,0.248920X0.599440*%
%ADD19R,5.150000X5.150000*%
%ADD20R,1.000000X0.600000*%
%ADD21R,0.600000X0.600000*%
%ADD22R,1.050000X2.200000*%
%ADD23R,1.000000X1.050000*%
%ADD24R,0.889000X1.397000*%
%ADD25R,1.397000X0.889000*%
%ADD26R,0.635000X1.143000*%
%ADD27R,0.800100X1.000760*%
%ADD28R,1.500000X0.200000*%
%ADD29R,0.200000X1.500000*%
%ADD30R,1.143000X0.635000*%
%ADD31R,4.000000X1.500000*%
%ADD32R,1.000000X0.350000*%
%ADD33R,0.508000X0.762000*%
%ADD34R,0.600000X1.000000*%
%ADD35R,0.400000X1.350000*%
%ADD36R,1.100000X1.500000*%
G04 APERTURE END LIST*
D10*
D11*
X167527955Y-92633842D03*
X167527955Y-90728842D03*
X164987955Y-92633842D03*
X167527955Y-91681342D03*
X164987955Y-90728842D03*
D12*
X160164336Y-99796323D03*
X159598651Y-100362008D03*
X159032965Y-100927694D03*
X156770224Y-103190435D03*
X156204538Y-103756121D03*
X155638853Y-104321806D03*
X155073167Y-102624750D03*
X155638853Y-102059065D03*
X157901595Y-99796323D03*
X158467280Y-99230637D03*
X159032965Y-98664952D03*
X159032965Y-99796323D03*
X158467280Y-100362008D03*
X156204538Y-102624750D03*
X155638853Y-103190435D03*
X155073167Y-103756121D03*
X152810426Y-101493379D03*
X153376111Y-100927694D03*
X153941797Y-100362008D03*
X156204538Y-98099267D03*
X156770224Y-97533581D03*
X156770224Y-96402210D03*
X156204538Y-96967896D03*
X155638853Y-97533581D03*
X153376111Y-99796323D03*
X152810426Y-100362008D03*
X153941797Y-101493379D03*
X154507482Y-100927694D03*
X156770224Y-98664952D03*
X157335909Y-98099267D03*
X157901595Y-97533581D03*
X157901595Y-98664952D03*
X157335909Y-99230637D03*
X155073167Y-101493379D03*
X154507482Y-102059065D03*
X153941797Y-102624750D03*
X157901595Y-106584548D03*
X158467280Y-106018863D03*
X159032965Y-105453177D03*
X161295707Y-103190435D03*
X161861393Y-102624750D03*
X162427078Y-102059065D03*
X161861393Y-101493379D03*
X161295707Y-102059065D03*
X160730022Y-102624750D03*
X158467280Y-104887492D03*
X157901595Y-105453177D03*
X157335909Y-106018863D03*
X156204538Y-104887492D03*
X156770224Y-104321806D03*
X157335909Y-103756121D03*
X159598651Y-101493379D03*
X160164336Y-100927694D03*
X160730022Y-100362008D03*
X161295707Y-100927694D03*
X160730022Y-101493379D03*
X160164336Y-102059065D03*
X157901595Y-104321806D03*
X157335909Y-104887492D03*
X156770224Y-105453177D03*
X159032965Y-107715919D03*
X159598651Y-107150233D03*
X160164336Y-106584548D03*
X162427078Y-104321806D03*
X162992763Y-103756121D03*
X163558449Y-103190435D03*
X162992763Y-102624750D03*
X162427078Y-103190435D03*
X161861393Y-103756121D03*
X159598651Y-106018863D03*
X159032965Y-106584548D03*
X158467280Y-107150233D03*
X159598651Y-108281604D03*
X160164336Y-107715919D03*
X160730022Y-107150233D03*
X162992763Y-104887492D03*
X163558449Y-104321806D03*
X164124134Y-103756121D03*
X164689820Y-104321806D03*
X164124134Y-104887492D03*
X163558449Y-105453177D03*
X161295707Y-107715919D03*
X160730022Y-108281604D03*
X160164336Y-108847290D03*
D10*
G36*
X151679110Y-106406319D02*
X152102978Y-106830187D01*
X151820998Y-107112167D01*
X151397130Y-106688299D01*
X151679110Y-106406319D01*
X151679110Y-106406319D01*
G37*
G36*
X152314912Y-105770517D02*
X152738780Y-106194385D01*
X152456800Y-106476365D01*
X152032932Y-106052497D01*
X152314912Y-105770517D01*
X152314912Y-105770517D01*
G37*
D13*
X153652755Y-122313802D03*
X154551915Y-122313802D03*
D14*
X153594335Y-121493382D03*
X153594335Y-120594222D03*
D15*
X147241955Y-118633342D03*
D16*
X155499335Y-120802502D03*
X155499335Y-122301102D03*
D10*
G36*
X139415219Y-119070063D02*
X139259656Y-119225626D01*
X138976813Y-118942783D01*
X139132376Y-118787220D01*
X139415219Y-119070063D01*
X139415219Y-119070063D01*
G37*
G36*
X139768772Y-118716510D02*
X139613209Y-118872073D01*
X139330366Y-118589230D01*
X139485929Y-118433667D01*
X139768772Y-118716510D01*
X139768772Y-118716510D01*
G37*
G36*
X140122325Y-118362956D02*
X139966762Y-118518519D01*
X139683919Y-118235676D01*
X139839482Y-118080113D01*
X140122325Y-118362956D01*
X140122325Y-118362956D01*
G37*
G36*
X140475879Y-118009403D02*
X140320316Y-118164966D01*
X140037473Y-117882123D01*
X140193036Y-117726560D01*
X140475879Y-118009403D01*
X140475879Y-118009403D01*
G37*
G36*
X140829432Y-117655850D02*
X140673869Y-117811413D01*
X140391026Y-117528570D01*
X140546589Y-117373007D01*
X140829432Y-117655850D01*
X140829432Y-117655850D01*
G37*
G36*
X141182985Y-117302296D02*
X141027422Y-117457859D01*
X140744579Y-117175016D01*
X140900142Y-117019453D01*
X141182985Y-117302296D01*
X141182985Y-117302296D01*
G37*
G36*
X141536539Y-116948743D02*
X141380976Y-117104306D01*
X141098133Y-116821463D01*
X141253696Y-116665900D01*
X141536539Y-116948743D01*
X141536539Y-116948743D01*
G37*
G36*
X141890092Y-116595189D02*
X141734529Y-116750752D01*
X141451686Y-116467909D01*
X141607249Y-116312346D01*
X141890092Y-116595189D01*
X141890092Y-116595189D01*
G37*
G36*
X142243646Y-116241636D02*
X142088083Y-116397199D01*
X141805240Y-116114356D01*
X141960803Y-115958793D01*
X142243646Y-116241636D01*
X142243646Y-116241636D01*
G37*
G36*
X142597199Y-115888083D02*
X142441636Y-116043646D01*
X142158793Y-115760803D01*
X142314356Y-115605240D01*
X142597199Y-115888083D01*
X142597199Y-115888083D01*
G37*
G36*
X142950752Y-115534529D02*
X142795189Y-115690092D01*
X142512346Y-115407249D01*
X142667909Y-115251686D01*
X142950752Y-115534529D01*
X142950752Y-115534529D01*
G37*
G36*
X143304306Y-115180976D02*
X143148743Y-115336539D01*
X142865900Y-115053696D01*
X143021463Y-114898133D01*
X143304306Y-115180976D01*
X143304306Y-115180976D01*
G37*
G36*
X143657859Y-114827422D02*
X143502296Y-114982985D01*
X143219453Y-114700142D01*
X143375016Y-114544579D01*
X143657859Y-114827422D01*
X143657859Y-114827422D01*
G37*
G36*
X144011413Y-114473869D02*
X143855850Y-114629432D01*
X143573007Y-114346589D01*
X143728570Y-114191026D01*
X144011413Y-114473869D01*
X144011413Y-114473869D01*
G37*
G36*
X144364966Y-114120316D02*
X144209403Y-114275879D01*
X143926560Y-113993036D01*
X144082123Y-113837473D01*
X144364966Y-114120316D01*
X144364966Y-114120316D01*
G37*
G36*
X144718519Y-113766762D02*
X144562956Y-113922325D01*
X144280113Y-113639482D01*
X144435676Y-113483919D01*
X144718519Y-113766762D01*
X144718519Y-113766762D01*
G37*
G36*
X145072073Y-113413209D02*
X144916510Y-113568772D01*
X144633667Y-113285929D01*
X144789230Y-113130366D01*
X145072073Y-113413209D01*
X145072073Y-113413209D01*
G37*
G36*
X145425626Y-113059656D02*
X145270063Y-113215219D01*
X144987220Y-112932376D01*
X145142783Y-112776813D01*
X145425626Y-113059656D01*
X145425626Y-113059656D01*
G37*
G36*
X138778822Y-118787220D02*
X138623259Y-118942783D01*
X138340416Y-118659940D01*
X138495979Y-118504377D01*
X138778822Y-118787220D01*
X138778822Y-118787220D01*
G37*
G36*
X139132376Y-118433667D02*
X138976813Y-118589230D01*
X138693970Y-118306387D01*
X138849533Y-118150824D01*
X139132376Y-118433667D01*
X139132376Y-118433667D01*
G37*
G36*
X139485929Y-118080114D02*
X139330366Y-118235677D01*
X139047523Y-117952834D01*
X139203086Y-117797271D01*
X139485929Y-118080114D01*
X139485929Y-118080114D01*
G37*
G36*
X139839483Y-117726560D02*
X139683920Y-117882123D01*
X139401077Y-117599280D01*
X139556640Y-117443717D01*
X139839483Y-117726560D01*
X139839483Y-117726560D01*
G37*
G36*
X140193036Y-117373007D02*
X140037473Y-117528570D01*
X139754630Y-117245727D01*
X139910193Y-117090164D01*
X140193036Y-117373007D01*
X140193036Y-117373007D01*
G37*
G36*
X140546589Y-117019453D02*
X140391026Y-117175016D01*
X140108183Y-116892173D01*
X140263746Y-116736610D01*
X140546589Y-117019453D01*
X140546589Y-117019453D01*
G37*
G36*
X140900143Y-116665900D02*
X140744580Y-116821463D01*
X140461737Y-116538620D01*
X140617300Y-116383057D01*
X140900143Y-116665900D01*
X140900143Y-116665900D01*
G37*
G36*
X141253696Y-116312347D02*
X141098133Y-116467910D01*
X140815290Y-116185067D01*
X140970853Y-116029504D01*
X141253696Y-116312347D01*
X141253696Y-116312347D01*
G37*
G36*
X141607250Y-115958793D02*
X141451687Y-116114356D01*
X141168844Y-115831513D01*
X141324407Y-115675950D01*
X141607250Y-115958793D01*
X141607250Y-115958793D01*
G37*
G36*
X141960803Y-115605240D02*
X141805240Y-115760803D01*
X141522397Y-115477960D01*
X141677960Y-115322397D01*
X141960803Y-115605240D01*
X141960803Y-115605240D01*
G37*
G36*
X142314356Y-115251687D02*
X142158793Y-115407250D01*
X141875950Y-115124407D01*
X142031513Y-114968844D01*
X142314356Y-115251687D01*
X142314356Y-115251687D01*
G37*
G36*
X142667910Y-114898133D02*
X142512347Y-115053696D01*
X142229504Y-114770853D01*
X142385067Y-114615290D01*
X142667910Y-114898133D01*
X142667910Y-114898133D01*
G37*
G36*
X143021463Y-114544580D02*
X142865900Y-114700143D01*
X142583057Y-114417300D01*
X142738620Y-114261737D01*
X143021463Y-114544580D01*
X143021463Y-114544580D01*
G37*
G36*
X143375016Y-114191026D02*
X143219453Y-114346589D01*
X142936610Y-114063746D01*
X143092173Y-113908183D01*
X143375016Y-114191026D01*
X143375016Y-114191026D01*
G37*
G36*
X143728570Y-113837473D02*
X143573007Y-113993036D01*
X143290164Y-113710193D01*
X143445727Y-113554630D01*
X143728570Y-113837473D01*
X143728570Y-113837473D01*
G37*
G36*
X144082123Y-113483920D02*
X143926560Y-113639483D01*
X143643717Y-113356640D01*
X143799280Y-113201077D01*
X144082123Y-113483920D01*
X144082123Y-113483920D01*
G37*
G36*
X144435677Y-113130366D02*
X144280114Y-113285929D01*
X143997271Y-113003086D01*
X144152834Y-112847523D01*
X144435677Y-113130366D01*
X144435677Y-113130366D01*
G37*
G36*
X144789230Y-112776813D02*
X144633667Y-112932376D01*
X144350824Y-112649533D01*
X144506387Y-112493970D01*
X144789230Y-112776813D01*
X144789230Y-112776813D01*
G37*
G36*
X145142783Y-112423259D02*
X144987220Y-112578822D01*
X144704377Y-112295979D01*
X144859940Y-112140416D01*
X145142783Y-112423259D01*
X145142783Y-112423259D01*
G37*
G36*
X137223187Y-104857217D02*
X137067624Y-105012780D01*
X136784781Y-104729937D01*
X136940344Y-104574374D01*
X137223187Y-104857217D01*
X137223187Y-104857217D01*
G37*
G36*
X136869634Y-105210770D02*
X136714071Y-105366333D01*
X136431228Y-105083490D01*
X136586791Y-104927927D01*
X136869634Y-105210770D01*
X136869634Y-105210770D01*
G37*
G36*
X136516081Y-105564324D02*
X136360518Y-105719887D01*
X136077675Y-105437044D01*
X136233238Y-105281481D01*
X136516081Y-105564324D01*
X136516081Y-105564324D01*
G37*
G36*
X136162527Y-105917877D02*
X136006964Y-106073440D01*
X135724121Y-105790597D01*
X135879684Y-105635034D01*
X136162527Y-105917877D01*
X136162527Y-105917877D01*
G37*
G36*
X135808974Y-106271430D02*
X135653411Y-106426993D01*
X135370568Y-106144150D01*
X135526131Y-105988587D01*
X135808974Y-106271430D01*
X135808974Y-106271430D01*
G37*
G36*
X135455421Y-106624984D02*
X135299858Y-106780547D01*
X135017015Y-106497704D01*
X135172578Y-106342141D01*
X135455421Y-106624984D01*
X135455421Y-106624984D01*
G37*
G36*
X135101867Y-106978537D02*
X134946304Y-107134100D01*
X134663461Y-106851257D01*
X134819024Y-106695694D01*
X135101867Y-106978537D01*
X135101867Y-106978537D01*
G37*
G36*
X134748314Y-107332091D02*
X134592751Y-107487654D01*
X134309908Y-107204811D01*
X134465471Y-107049248D01*
X134748314Y-107332091D01*
X134748314Y-107332091D01*
G37*
G36*
X134394760Y-107685644D02*
X134239197Y-107841207D01*
X133956354Y-107558364D01*
X134111917Y-107402801D01*
X134394760Y-107685644D01*
X134394760Y-107685644D01*
G37*
G36*
X134041207Y-108039197D02*
X133885644Y-108194760D01*
X133602801Y-107911917D01*
X133758364Y-107756354D01*
X134041207Y-108039197D01*
X134041207Y-108039197D01*
G37*
G36*
X133687654Y-108392751D02*
X133532091Y-108548314D01*
X133249248Y-108265471D01*
X133404811Y-108109908D01*
X133687654Y-108392751D01*
X133687654Y-108392751D01*
G37*
G36*
X133334100Y-108746304D02*
X133178537Y-108901867D01*
X132895694Y-108619024D01*
X133051257Y-108463461D01*
X133334100Y-108746304D01*
X133334100Y-108746304D01*
G37*
G36*
X132980547Y-109099858D02*
X132824984Y-109255421D01*
X132542141Y-108972578D01*
X132697704Y-108817015D01*
X132980547Y-109099858D01*
X132980547Y-109099858D01*
G37*
G36*
X132626993Y-109453411D02*
X132471430Y-109608974D01*
X132188587Y-109326131D01*
X132344150Y-109170568D01*
X132626993Y-109453411D01*
X132626993Y-109453411D01*
G37*
G36*
X132273440Y-109806964D02*
X132117877Y-109962527D01*
X131835034Y-109679684D01*
X131990597Y-109524121D01*
X132273440Y-109806964D01*
X132273440Y-109806964D01*
G37*
G36*
X131919887Y-110160518D02*
X131764324Y-110316081D01*
X131481481Y-110033238D01*
X131637044Y-109877675D01*
X131919887Y-110160518D01*
X131919887Y-110160518D01*
G37*
G36*
X131566333Y-110514071D02*
X131410770Y-110669634D01*
X131127927Y-110386791D01*
X131283490Y-110231228D01*
X131566333Y-110514071D01*
X131566333Y-110514071D01*
G37*
G36*
X131212780Y-110867624D02*
X131057217Y-111023187D01*
X130774374Y-110740344D01*
X130929937Y-110584781D01*
X131212780Y-110867624D01*
X131212780Y-110867624D01*
G37*
G36*
X130859226Y-111221178D02*
X130703663Y-111376741D01*
X130420820Y-111093898D01*
X130576383Y-110938335D01*
X130859226Y-111221178D01*
X130859226Y-111221178D01*
G37*
G36*
X137859584Y-105140060D02*
X137704021Y-105295623D01*
X137421178Y-105012780D01*
X137576741Y-104857217D01*
X137859584Y-105140060D01*
X137859584Y-105140060D01*
G37*
G36*
X137506030Y-105493613D02*
X137350467Y-105649176D01*
X137067624Y-105366333D01*
X137223187Y-105210770D01*
X137506030Y-105493613D01*
X137506030Y-105493613D01*
G37*
G36*
X137152477Y-105847166D02*
X136996914Y-106002729D01*
X136714071Y-105719886D01*
X136869634Y-105564323D01*
X137152477Y-105847166D01*
X137152477Y-105847166D01*
G37*
G36*
X136798923Y-106200720D02*
X136643360Y-106356283D01*
X136360517Y-106073440D01*
X136516080Y-105917877D01*
X136798923Y-106200720D01*
X136798923Y-106200720D01*
G37*
G36*
X136445370Y-106554273D02*
X136289807Y-106709836D01*
X136006964Y-106426993D01*
X136162527Y-106271430D01*
X136445370Y-106554273D01*
X136445370Y-106554273D01*
G37*
G36*
X136091817Y-106907827D02*
X135936254Y-107063390D01*
X135653411Y-106780547D01*
X135808974Y-106624984D01*
X136091817Y-106907827D01*
X136091817Y-106907827D01*
G37*
G36*
X135738263Y-107261380D02*
X135582700Y-107416943D01*
X135299857Y-107134100D01*
X135455420Y-106978537D01*
X135738263Y-107261380D01*
X135738263Y-107261380D01*
G37*
G36*
X135384710Y-107614933D02*
X135229147Y-107770496D01*
X134946304Y-107487653D01*
X135101867Y-107332090D01*
X135384710Y-107614933D01*
X135384710Y-107614933D01*
G37*
G36*
X135031156Y-107968487D02*
X134875593Y-108124050D01*
X134592750Y-107841207D01*
X134748313Y-107685644D01*
X135031156Y-107968487D01*
X135031156Y-107968487D01*
G37*
G36*
X134677603Y-108322040D02*
X134522040Y-108477603D01*
X134239197Y-108194760D01*
X134394760Y-108039197D01*
X134677603Y-108322040D01*
X134677603Y-108322040D01*
G37*
G36*
X134324050Y-108675593D02*
X134168487Y-108831156D01*
X133885644Y-108548313D01*
X134041207Y-108392750D01*
X134324050Y-108675593D01*
X134324050Y-108675593D01*
G37*
G36*
X133970496Y-109029147D02*
X133814933Y-109184710D01*
X133532090Y-108901867D01*
X133687653Y-108746304D01*
X133970496Y-109029147D01*
X133970496Y-109029147D01*
G37*
G36*
X133616943Y-109382700D02*
X133461380Y-109538263D01*
X133178537Y-109255420D01*
X133334100Y-109099857D01*
X133616943Y-109382700D01*
X133616943Y-109382700D01*
G37*
G36*
X133263390Y-109736254D02*
X133107827Y-109891817D01*
X132824984Y-109608974D01*
X132980547Y-109453411D01*
X133263390Y-109736254D01*
X133263390Y-109736254D01*
G37*
G36*
X132909836Y-110089807D02*
X132754273Y-110245370D01*
X132471430Y-109962527D01*
X132626993Y-109806964D01*
X132909836Y-110089807D01*
X132909836Y-110089807D01*
G37*
G36*
X132556283Y-110443360D02*
X132400720Y-110598923D01*
X132117877Y-110316080D01*
X132273440Y-110160517D01*
X132556283Y-110443360D01*
X132556283Y-110443360D01*
G37*
G36*
X132202729Y-110796914D02*
X132047166Y-110952477D01*
X131764323Y-110669634D01*
X131919886Y-110514071D01*
X132202729Y-110796914D01*
X132202729Y-110796914D01*
G37*
G36*
X131849176Y-111150467D02*
X131693613Y-111306030D01*
X131410770Y-111023187D01*
X131566333Y-110867624D01*
X131849176Y-111150467D01*
X131849176Y-111150467D01*
G37*
G36*
X145425626Y-110740344D02*
X145142783Y-111023187D01*
X144987220Y-110867624D01*
X145270063Y-110584781D01*
X145425626Y-110740344D01*
X145425626Y-110740344D01*
G37*
G36*
X145072073Y-110386791D02*
X144789230Y-110669634D01*
X144633667Y-110514071D01*
X144916510Y-110231228D01*
X145072073Y-110386791D01*
X145072073Y-110386791D01*
G37*
G36*
X144718519Y-110033238D02*
X144435676Y-110316081D01*
X144280113Y-110160518D01*
X144562956Y-109877675D01*
X144718519Y-110033238D01*
X144718519Y-110033238D01*
G37*
G36*
X144364966Y-109679684D02*
X144082123Y-109962527D01*
X143926560Y-109806964D01*
X144209403Y-109524121D01*
X144364966Y-109679684D01*
X144364966Y-109679684D01*
G37*
G36*
X144011413Y-109326131D02*
X143728570Y-109608974D01*
X143573007Y-109453411D01*
X143855850Y-109170568D01*
X144011413Y-109326131D01*
X144011413Y-109326131D01*
G37*
G36*
X143657859Y-108972578D02*
X143375016Y-109255421D01*
X143219453Y-109099858D01*
X143502296Y-108817015D01*
X143657859Y-108972578D01*
X143657859Y-108972578D01*
G37*
G36*
X143304306Y-108619024D02*
X143021463Y-108901867D01*
X142865900Y-108746304D01*
X143148743Y-108463461D01*
X143304306Y-108619024D01*
X143304306Y-108619024D01*
G37*
G36*
X142950752Y-108265471D02*
X142667909Y-108548314D01*
X142512346Y-108392751D01*
X142795189Y-108109908D01*
X142950752Y-108265471D01*
X142950752Y-108265471D01*
G37*
G36*
X142597199Y-107911917D02*
X142314356Y-108194760D01*
X142158793Y-108039197D01*
X142441636Y-107756354D01*
X142597199Y-107911917D01*
X142597199Y-107911917D01*
G37*
G36*
X142243646Y-107558364D02*
X141960803Y-107841207D01*
X141805240Y-107685644D01*
X142088083Y-107402801D01*
X142243646Y-107558364D01*
X142243646Y-107558364D01*
G37*
G36*
X141890092Y-107204811D02*
X141607249Y-107487654D01*
X141451686Y-107332091D01*
X141734529Y-107049248D01*
X141890092Y-107204811D01*
X141890092Y-107204811D01*
G37*
G36*
X141536539Y-106851257D02*
X141253696Y-107134100D01*
X141098133Y-106978537D01*
X141380976Y-106695694D01*
X141536539Y-106851257D01*
X141536539Y-106851257D01*
G37*
G36*
X141182985Y-106497704D02*
X140900142Y-106780547D01*
X140744579Y-106624984D01*
X141027422Y-106342141D01*
X141182985Y-106497704D01*
X141182985Y-106497704D01*
G37*
G36*
X140829432Y-106144150D02*
X140546589Y-106426993D01*
X140391026Y-106271430D01*
X140673869Y-105988587D01*
X140829432Y-106144150D01*
X140829432Y-106144150D01*
G37*
G36*
X140475879Y-105790597D02*
X140193036Y-106073440D01*
X140037473Y-105917877D01*
X140320316Y-105635034D01*
X140475879Y-105790597D01*
X140475879Y-105790597D01*
G37*
G36*
X140122325Y-105437044D02*
X139839482Y-105719887D01*
X139683919Y-105564324D01*
X139966762Y-105281481D01*
X140122325Y-105437044D01*
X140122325Y-105437044D01*
G37*
G36*
X139768772Y-105083490D02*
X139485929Y-105366333D01*
X139330366Y-105210770D01*
X139613209Y-104927927D01*
X139768772Y-105083490D01*
X139768772Y-105083490D01*
G37*
G36*
X139415219Y-104729937D02*
X139132376Y-105012780D01*
X138976813Y-104857217D01*
X139259656Y-104574374D01*
X139415219Y-104729937D01*
X139415219Y-104729937D01*
G37*
G36*
X145142783Y-111376741D02*
X144859940Y-111659584D01*
X144704377Y-111504021D01*
X144987220Y-111221178D01*
X145142783Y-111376741D01*
X145142783Y-111376741D01*
G37*
G36*
X144789230Y-111023187D02*
X144506387Y-111306030D01*
X144350824Y-111150467D01*
X144633667Y-110867624D01*
X144789230Y-111023187D01*
X144789230Y-111023187D01*
G37*
G36*
X144435677Y-110669634D02*
X144152834Y-110952477D01*
X143997271Y-110796914D01*
X144280114Y-110514071D01*
X144435677Y-110669634D01*
X144435677Y-110669634D01*
G37*
G36*
X144082123Y-110316080D02*
X143799280Y-110598923D01*
X143643717Y-110443360D01*
X143926560Y-110160517D01*
X144082123Y-110316080D01*
X144082123Y-110316080D01*
G37*
G36*
X143728570Y-109962527D02*
X143445727Y-110245370D01*
X143290164Y-110089807D01*
X143573007Y-109806964D01*
X143728570Y-109962527D01*
X143728570Y-109962527D01*
G37*
G36*
X143375016Y-109608974D02*
X143092173Y-109891817D01*
X142936610Y-109736254D01*
X143219453Y-109453411D01*
X143375016Y-109608974D01*
X143375016Y-109608974D01*
G37*
G36*
X143021463Y-109255420D02*
X142738620Y-109538263D01*
X142583057Y-109382700D01*
X142865900Y-109099857D01*
X143021463Y-109255420D01*
X143021463Y-109255420D01*
G37*
G36*
X142667910Y-108901867D02*
X142385067Y-109184710D01*
X142229504Y-109029147D01*
X142512347Y-108746304D01*
X142667910Y-108901867D01*
X142667910Y-108901867D01*
G37*
G36*
X142314356Y-108548313D02*
X142031513Y-108831156D01*
X141875950Y-108675593D01*
X142158793Y-108392750D01*
X142314356Y-108548313D01*
X142314356Y-108548313D01*
G37*
G36*
X141960803Y-108194760D02*
X141677960Y-108477603D01*
X141522397Y-108322040D01*
X141805240Y-108039197D01*
X141960803Y-108194760D01*
X141960803Y-108194760D01*
G37*
G36*
X141607250Y-107841207D02*
X141324407Y-108124050D01*
X141168844Y-107968487D01*
X141451687Y-107685644D01*
X141607250Y-107841207D01*
X141607250Y-107841207D01*
G37*
G36*
X141253696Y-107487653D02*
X140970853Y-107770496D01*
X140815290Y-107614933D01*
X141098133Y-107332090D01*
X141253696Y-107487653D01*
X141253696Y-107487653D01*
G37*
G36*
X140900143Y-107134100D02*
X140617300Y-107416943D01*
X140461737Y-107261380D01*
X140744580Y-106978537D01*
X140900143Y-107134100D01*
X140900143Y-107134100D01*
G37*
G36*
X140546589Y-106780547D02*
X140263746Y-107063390D01*
X140108183Y-106907827D01*
X140391026Y-106624984D01*
X140546589Y-106780547D01*
X140546589Y-106780547D01*
G37*
G36*
X140193036Y-106426993D02*
X139910193Y-106709836D01*
X139754630Y-106554273D01*
X140037473Y-106271430D01*
X140193036Y-106426993D01*
X140193036Y-106426993D01*
G37*
G36*
X139839483Y-106073440D02*
X139556640Y-106356283D01*
X139401077Y-106200720D01*
X139683920Y-105917877D01*
X139839483Y-106073440D01*
X139839483Y-106073440D01*
G37*
G36*
X139485929Y-105719886D02*
X139203086Y-106002729D01*
X139047523Y-105847166D01*
X139330366Y-105564323D01*
X139485929Y-105719886D01*
X139485929Y-105719886D01*
G37*
G36*
X139132376Y-105366333D02*
X138849533Y-105649176D01*
X138693970Y-105493613D01*
X138976813Y-105210770D01*
X139132376Y-105366333D01*
X139132376Y-105366333D01*
G37*
G36*
X138778822Y-105012780D02*
X138495979Y-105295623D01*
X138340416Y-105140060D01*
X138623259Y-104857217D01*
X138778822Y-105012780D01*
X138778822Y-105012780D01*
G37*
G36*
X130859226Y-112578822D02*
X130576383Y-112861665D01*
X130420820Y-112706102D01*
X130703663Y-112423259D01*
X130859226Y-112578822D01*
X130859226Y-112578822D01*
G37*
G36*
X131212780Y-112932376D02*
X130929937Y-113215219D01*
X130774374Y-113059656D01*
X131057217Y-112776813D01*
X131212780Y-112932376D01*
X131212780Y-112932376D01*
G37*
G36*
X131566333Y-113285929D02*
X131283490Y-113568772D01*
X131127927Y-113413209D01*
X131410770Y-113130366D01*
X131566333Y-113285929D01*
X131566333Y-113285929D01*
G37*
G36*
X131919887Y-113639482D02*
X131637044Y-113922325D01*
X131481481Y-113766762D01*
X131764324Y-113483919D01*
X131919887Y-113639482D01*
X131919887Y-113639482D01*
G37*
G36*
X132273440Y-113993036D02*
X131990597Y-114275879D01*
X131835034Y-114120316D01*
X132117877Y-113837473D01*
X132273440Y-113993036D01*
X132273440Y-113993036D01*
G37*
G36*
X132626993Y-114346589D02*
X132344150Y-114629432D01*
X132188587Y-114473869D01*
X132471430Y-114191026D01*
X132626993Y-114346589D01*
X132626993Y-114346589D01*
G37*
G36*
X132980547Y-114700142D02*
X132697704Y-114982985D01*
X132542141Y-114827422D01*
X132824984Y-114544579D01*
X132980547Y-114700142D01*
X132980547Y-114700142D01*
G37*
G36*
X133334100Y-115053696D02*
X133051257Y-115336539D01*
X132895694Y-115180976D01*
X133178537Y-114898133D01*
X133334100Y-115053696D01*
X133334100Y-115053696D01*
G37*
G36*
X133687654Y-115407249D02*
X133404811Y-115690092D01*
X133249248Y-115534529D01*
X133532091Y-115251686D01*
X133687654Y-115407249D01*
X133687654Y-115407249D01*
G37*
G36*
X134041207Y-115760803D02*
X133758364Y-116043646D01*
X133602801Y-115888083D01*
X133885644Y-115605240D01*
X134041207Y-115760803D01*
X134041207Y-115760803D01*
G37*
G36*
X134394760Y-116114356D02*
X134111917Y-116397199D01*
X133956354Y-116241636D01*
X134239197Y-115958793D01*
X134394760Y-116114356D01*
X134394760Y-116114356D01*
G37*
G36*
X134748314Y-116467909D02*
X134465471Y-116750752D01*
X134309908Y-116595189D01*
X134592751Y-116312346D01*
X134748314Y-116467909D01*
X134748314Y-116467909D01*
G37*
G36*
X135101867Y-116821463D02*
X134819024Y-117104306D01*
X134663461Y-116948743D01*
X134946304Y-116665900D01*
X135101867Y-116821463D01*
X135101867Y-116821463D01*
G37*
G36*
X135455421Y-117175016D02*
X135172578Y-117457859D01*
X135017015Y-117302296D01*
X135299858Y-117019453D01*
X135455421Y-117175016D01*
X135455421Y-117175016D01*
G37*
G36*
X135808974Y-117528570D02*
X135526131Y-117811413D01*
X135370568Y-117655850D01*
X135653411Y-117373007D01*
X135808974Y-117528570D01*
X135808974Y-117528570D01*
G37*
G36*
X136162527Y-117882123D02*
X135879684Y-118164966D01*
X135724121Y-118009403D01*
X136006964Y-117726560D01*
X136162527Y-117882123D01*
X136162527Y-117882123D01*
G37*
G36*
X136516081Y-118235676D02*
X136233238Y-118518519D01*
X136077675Y-118362956D01*
X136360518Y-118080113D01*
X136516081Y-118235676D01*
X136516081Y-118235676D01*
G37*
G36*
X136869634Y-118589230D02*
X136586791Y-118872073D01*
X136431228Y-118716510D01*
X136714071Y-118433667D01*
X136869634Y-118589230D01*
X136869634Y-118589230D01*
G37*
G36*
X137223187Y-118942783D02*
X136940344Y-119225626D01*
X136784781Y-119070063D01*
X137067624Y-118787220D01*
X137223187Y-118942783D01*
X137223187Y-118942783D01*
G37*
G36*
X131849176Y-112649533D02*
X131566333Y-112932376D01*
X131410770Y-112776813D01*
X131693613Y-112493970D01*
X131849176Y-112649533D01*
X131849176Y-112649533D01*
G37*
G36*
X132202729Y-113003086D02*
X131919886Y-113285929D01*
X131764323Y-113130366D01*
X132047166Y-112847523D01*
X132202729Y-113003086D01*
X132202729Y-113003086D01*
G37*
G36*
X132556283Y-113356640D02*
X132273440Y-113639483D01*
X132117877Y-113483920D01*
X132400720Y-113201077D01*
X132556283Y-113356640D01*
X132556283Y-113356640D01*
G37*
G36*
X132909836Y-113710193D02*
X132626993Y-113993036D01*
X132471430Y-113837473D01*
X132754273Y-113554630D01*
X132909836Y-113710193D01*
X132909836Y-113710193D01*
G37*
G36*
X133263390Y-114063746D02*
X132980547Y-114346589D01*
X132824984Y-114191026D01*
X133107827Y-113908183D01*
X133263390Y-114063746D01*
X133263390Y-114063746D01*
G37*
G36*
X133616943Y-114417300D02*
X133334100Y-114700143D01*
X133178537Y-114544580D01*
X133461380Y-114261737D01*
X133616943Y-114417300D01*
X133616943Y-114417300D01*
G37*
G36*
X133970496Y-114770853D02*
X133687653Y-115053696D01*
X133532090Y-114898133D01*
X133814933Y-114615290D01*
X133970496Y-114770853D01*
X133970496Y-114770853D01*
G37*
G36*
X134324050Y-115124407D02*
X134041207Y-115407250D01*
X133885644Y-115251687D01*
X134168487Y-114968844D01*
X134324050Y-115124407D01*
X134324050Y-115124407D01*
G37*
G36*
X134677603Y-115477960D02*
X134394760Y-115760803D01*
X134239197Y-115605240D01*
X134522040Y-115322397D01*
X134677603Y-115477960D01*
X134677603Y-115477960D01*
G37*
G36*
X135031156Y-115831513D02*
X134748313Y-116114356D01*
X134592750Y-115958793D01*
X134875593Y-115675950D01*
X135031156Y-115831513D01*
X135031156Y-115831513D01*
G37*
G36*
X135384710Y-116185067D02*
X135101867Y-116467910D01*
X134946304Y-116312347D01*
X135229147Y-116029504D01*
X135384710Y-116185067D01*
X135384710Y-116185067D01*
G37*
G36*
X135738263Y-116538620D02*
X135455420Y-116821463D01*
X135299857Y-116665900D01*
X135582700Y-116383057D01*
X135738263Y-116538620D01*
X135738263Y-116538620D01*
G37*
G36*
X136091817Y-116892173D02*
X135808974Y-117175016D01*
X135653411Y-117019453D01*
X135936254Y-116736610D01*
X136091817Y-116892173D01*
X136091817Y-116892173D01*
G37*
G36*
X136445370Y-117245727D02*
X136162527Y-117528570D01*
X136006964Y-117373007D01*
X136289807Y-117090164D01*
X136445370Y-117245727D01*
X136445370Y-117245727D01*
G37*
G36*
X136798923Y-117599280D02*
X136516080Y-117882123D01*
X136360517Y-117726560D01*
X136643360Y-117443717D01*
X136798923Y-117599280D01*
X136798923Y-117599280D01*
G37*
G36*
X137152477Y-117952834D02*
X136869634Y-118235677D01*
X136714071Y-118080114D01*
X136996914Y-117797271D01*
X137152477Y-117952834D01*
X137152477Y-117952834D01*
G37*
G36*
X137506030Y-118306387D02*
X137223187Y-118589230D01*
X137067624Y-118433667D01*
X137350467Y-118150824D01*
X137506030Y-118306387D01*
X137506030Y-118306387D01*
G37*
G36*
X137859584Y-118659940D02*
X137576741Y-118942783D01*
X137421178Y-118787220D01*
X137704021Y-118504377D01*
X137859584Y-118659940D01*
X137859584Y-118659940D01*
G37*
G36*
X142201219Y-111900000D02*
X138100000Y-116001219D01*
X133998781Y-111900000D01*
X138100000Y-107798781D01*
X142201219Y-111900000D01*
X142201219Y-111900000D01*
G37*
D17*
X112171480Y-105201720D03*
X112171480Y-105702100D03*
X112171480Y-106202480D03*
X112171480Y-106702860D03*
X112171480Y-107200700D03*
X112171480Y-107701080D03*
X112171480Y-108201460D03*
X112171480Y-108701840D03*
X112171480Y-109202220D03*
X112171480Y-109702600D03*
X112171480Y-110202980D03*
X112171480Y-110700820D03*
X118968520Y-106697780D03*
X118968520Y-106199940D03*
X118968520Y-105699560D03*
X118968520Y-105199180D03*
D18*
X114820700Y-111351060D03*
X115320000Y-111350000D03*
X115818920Y-111351060D03*
X116319300Y-111351060D03*
X116819680Y-111351060D03*
X117320060Y-111351060D03*
X117820440Y-111351060D03*
X118320820Y-111351060D03*
X112821720Y-111351060D03*
X113322100Y-111351060D03*
X113822480Y-111351060D03*
X114320320Y-111351060D03*
D17*
X118968520Y-110698280D03*
X118971060Y-110197900D03*
X118971060Y-109700060D03*
X118971060Y-109199680D03*
X118971060Y-108699300D03*
X118971060Y-108198920D03*
X118971060Y-107698540D03*
X118971060Y-107198160D03*
D18*
X118320820Y-104551480D03*
X117820440Y-104551480D03*
X117320060Y-104551480D03*
X116822220Y-104551480D03*
X116321840Y-104551480D03*
X115821460Y-104551480D03*
X115321080Y-104551480D03*
X114820700Y-104551480D03*
X114320320Y-104551480D03*
X113819940Y-104551480D03*
X113322100Y-104551480D03*
X112821720Y-104551480D03*
D19*
X115570000Y-107950000D03*
D20*
X129198335Y-79326802D03*
D21*
X127498335Y-79326802D03*
X127498335Y-81226802D03*
X129398335Y-81226802D03*
D13*
X123055095Y-105295742D03*
X122155935Y-105295742D03*
D14*
X114602955Y-121866762D03*
X114602955Y-122765922D03*
D10*
G36*
X152314110Y-107041319D02*
X152737978Y-107465187D01*
X152455998Y-107747167D01*
X152032130Y-107323299D01*
X152314110Y-107041319D01*
X152314110Y-107041319D01*
G37*
G36*
X152949912Y-106405517D02*
X153373780Y-106829385D01*
X153091800Y-107111365D01*
X152667932Y-106687497D01*
X152949912Y-106405517D01*
X152949912Y-106405517D01*
G37*
G36*
X153810932Y-105687187D02*
X154234800Y-105263319D01*
X154516780Y-105545299D01*
X154092912Y-105969167D01*
X153810932Y-105687187D01*
X153810932Y-105687187D01*
G37*
G36*
X153175130Y-105051385D02*
X153598998Y-104627517D01*
X153880978Y-104909497D01*
X153457110Y-105333365D01*
X153175130Y-105051385D01*
X153175130Y-105051385D01*
G37*
D13*
X142611535Y-118252342D03*
X141712375Y-118252342D03*
D14*
X114859335Y-113492382D03*
X114859335Y-112593222D03*
D22*
X137767515Y-133489742D03*
X140717515Y-133489742D03*
D23*
X139242515Y-131964742D03*
D10*
G36*
X149476946Y-126906676D02*
X151032581Y-128462311D01*
X150290118Y-129204774D01*
X148734483Y-127649139D01*
X149476946Y-126906676D01*
X149476946Y-126906676D01*
G37*
G36*
X151562912Y-124820710D02*
X153118547Y-126376345D01*
X152376084Y-127118808D01*
X150820449Y-125563173D01*
X151562912Y-124820710D01*
X151562912Y-124820710D01*
G37*
G36*
X149830499Y-125209620D02*
X150572961Y-125952082D01*
X149865855Y-126659188D01*
X149123393Y-125916726D01*
X149830499Y-125209620D01*
X149830499Y-125209620D01*
G37*
G36*
X144582800Y-107365365D02*
X144158932Y-106941497D01*
X144440912Y-106659517D01*
X144864780Y-107083385D01*
X144582800Y-107365365D01*
X144582800Y-107365365D01*
G37*
G36*
X143946998Y-108001167D02*
X143523130Y-107577299D01*
X143805110Y-107295319D01*
X144228978Y-107719187D01*
X143946998Y-108001167D01*
X143946998Y-108001167D01*
G37*
D13*
X151110375Y-102758342D03*
X152009535Y-102758342D03*
D10*
G36*
X143058800Y-106222365D02*
X142634932Y-105798497D01*
X142916912Y-105516517D01*
X143340780Y-105940385D01*
X143058800Y-106222365D01*
X143058800Y-106222365D01*
G37*
G36*
X142422998Y-106858167D02*
X141999130Y-106434299D01*
X142281110Y-106152319D01*
X142704978Y-106576187D01*
X142422998Y-106858167D01*
X142422998Y-106858167D01*
G37*
G36*
X134536155Y-119357977D02*
X134960023Y-119781845D01*
X134678043Y-120063825D01*
X134254175Y-119639957D01*
X134536155Y-119357977D01*
X134536155Y-119357977D01*
G37*
G36*
X135171957Y-118722175D02*
X135595825Y-119146043D01*
X135313845Y-119428023D01*
X134889977Y-119004155D01*
X135171957Y-118722175D01*
X135171957Y-118722175D01*
G37*
G36*
X152737978Y-104909497D02*
X152314110Y-105333365D01*
X152032130Y-105051385D01*
X152455998Y-104627517D01*
X152737978Y-104909497D01*
X152737978Y-104909497D01*
G37*
G36*
X153373780Y-105545299D02*
X152949912Y-105969167D01*
X152667932Y-105687187D01*
X153091800Y-105263319D01*
X153373780Y-105545299D01*
X153373780Y-105545299D01*
G37*
G36*
X153810932Y-106830187D02*
X154234800Y-106406319D01*
X154516780Y-106688299D01*
X154092912Y-107112167D01*
X153810932Y-106830187D01*
X153810932Y-106830187D01*
G37*
G36*
X153175130Y-106194385D02*
X153598998Y-105770517D01*
X153880978Y-106052497D01*
X153457110Y-106476365D01*
X153175130Y-106194385D01*
X153175130Y-106194385D01*
G37*
G36*
X161038767Y-97758199D02*
X161462635Y-97334331D01*
X161744615Y-97616311D01*
X161320747Y-98040179D01*
X161038767Y-97758199D01*
X161038767Y-97758199D01*
G37*
G36*
X160402965Y-97122397D02*
X160826833Y-96698529D01*
X161108813Y-96980509D01*
X160684945Y-97404377D01*
X160402965Y-97122397D01*
X160402965Y-97122397D01*
G37*
G36*
X161647628Y-98776561D02*
X161223760Y-99200429D01*
X160941780Y-98918449D01*
X161365648Y-98494581D01*
X161647628Y-98776561D01*
X161647628Y-98776561D01*
G37*
G36*
X162283430Y-99412363D02*
X161859562Y-99836231D01*
X161577582Y-99554251D01*
X162001450Y-99130383D01*
X162283430Y-99412363D01*
X162283430Y-99412363D01*
G37*
G36*
X135466926Y-121936894D02*
X135890794Y-121513026D01*
X136172774Y-121795006D01*
X135748906Y-122218874D01*
X135466926Y-121936894D01*
X135466926Y-121936894D01*
G37*
G36*
X134831124Y-121301092D02*
X135254992Y-120877224D01*
X135536972Y-121159204D01*
X135113104Y-121583072D01*
X134831124Y-121301092D01*
X134831124Y-121301092D01*
G37*
D13*
X138538935Y-121043742D03*
X139438095Y-121043742D03*
X137014935Y-121043742D03*
X137914095Y-121043742D03*
D10*
G36*
X141280800Y-119303365D02*
X140856932Y-118879497D01*
X141138912Y-118597517D01*
X141562780Y-119021385D01*
X141280800Y-119303365D01*
X141280800Y-119303365D01*
G37*
G36*
X140644998Y-119939167D02*
X140221130Y-119515299D01*
X140503110Y-119233319D01*
X140926978Y-119657187D01*
X140644998Y-119939167D01*
X140644998Y-119939167D01*
G37*
D14*
X138607515Y-123261162D03*
X138607515Y-124160322D03*
X137845515Y-123261162D03*
X137845515Y-124160322D03*
D10*
G36*
X143278038Y-120845397D02*
X142854170Y-121269265D01*
X142572190Y-120987285D01*
X142996058Y-120563417D01*
X143278038Y-120845397D01*
X143278038Y-120845397D01*
G37*
G36*
X143913840Y-121481199D02*
X143489972Y-121905067D01*
X143207992Y-121623087D01*
X143631860Y-121199219D01*
X143913840Y-121481199D01*
X143913840Y-121481199D01*
G37*
G36*
X143913038Y-120210397D02*
X143489170Y-120634265D01*
X143207190Y-120352285D01*
X143631058Y-119928417D01*
X143913038Y-120210397D01*
X143913038Y-120210397D01*
G37*
G36*
X144548840Y-120846199D02*
X144124972Y-121270067D01*
X143842992Y-120988087D01*
X144266860Y-120564219D01*
X144548840Y-120846199D01*
X144548840Y-120846199D01*
G37*
D13*
X137776935Y-124853742D03*
X138676095Y-124853742D03*
D10*
G36*
X144774860Y-121777265D02*
X144350992Y-121353397D01*
X144632972Y-121071417D01*
X145056840Y-121495285D01*
X144774860Y-121777265D01*
X144774860Y-121777265D01*
G37*
G36*
X144139058Y-122413067D02*
X143715190Y-121989199D01*
X143997170Y-121707219D01*
X144421038Y-122131087D01*
X144139058Y-122413067D01*
X144139058Y-122413067D01*
G37*
D13*
X138284935Y-127901742D03*
X139184095Y-127901742D03*
D10*
G36*
X147886360Y-123047265D02*
X147462492Y-122623397D01*
X147744472Y-122341417D01*
X148168340Y-122765285D01*
X147886360Y-123047265D01*
X147886360Y-123047265D01*
G37*
G36*
X147250558Y-123683067D02*
X146826690Y-123259199D01*
X147108670Y-122977219D01*
X147532538Y-123401087D01*
X147250558Y-123683067D01*
X147250558Y-123683067D01*
G37*
D13*
X138284935Y-130187742D03*
X139184095Y-130187742D03*
D10*
G36*
X149537360Y-124698265D02*
X149113492Y-124274397D01*
X149395472Y-123992417D01*
X149819340Y-124416285D01*
X149537360Y-124698265D01*
X149537360Y-124698265D01*
G37*
G36*
X148901558Y-125334067D02*
X148477690Y-124910199D01*
X148759670Y-124628219D01*
X149183538Y-125052087D01*
X148901558Y-125334067D01*
X148901558Y-125334067D01*
G37*
D24*
X111298455Y-89748342D03*
X113203455Y-89748342D03*
D14*
X109329955Y-92229922D03*
X109329955Y-91330762D03*
D25*
X105029000Y-87439500D03*
X105029000Y-85534500D03*
D24*
X113017995Y-66814962D03*
X114922995Y-66814962D03*
X131439635Y-92737981D03*
X133344635Y-92737981D03*
X133217635Y-99849982D03*
X131312635Y-99849982D03*
X170385455Y-96253342D03*
X172290455Y-96253342D03*
X167972455Y-96253342D03*
X166067455Y-96253342D03*
X134614635Y-99849982D03*
X136519635Y-99849982D03*
D14*
X169178955Y-96702922D03*
X169178955Y-95803762D03*
D13*
X166570375Y-94856342D03*
X167469535Y-94856342D03*
D10*
G36*
X109390155Y-101958977D02*
X109814023Y-102382845D01*
X109532043Y-102664825D01*
X109108175Y-102240957D01*
X109390155Y-101958977D01*
X109390155Y-101958977D01*
G37*
G36*
X110025957Y-101323175D02*
X110449825Y-101747043D01*
X110167845Y-102029023D01*
X109743977Y-101605155D01*
X110025957Y-101323175D01*
X110025957Y-101323175D01*
G37*
G36*
X108897845Y-103299023D02*
X108473977Y-102875155D01*
X108755957Y-102593175D01*
X109179825Y-103017043D01*
X108897845Y-103299023D01*
X108897845Y-103299023D01*
G37*
G36*
X108262043Y-103934825D02*
X107838175Y-103510957D01*
X108120155Y-103228977D01*
X108544023Y-103652845D01*
X108262043Y-103934825D01*
X108262043Y-103934825D01*
G37*
D14*
X115711955Y-102915762D03*
X115711955Y-103814922D03*
X114856955Y-102425762D03*
X114856955Y-103324922D03*
D24*
X109586455Y-108981342D03*
X107681455Y-108981342D03*
D13*
X110309375Y-107683342D03*
X111208535Y-107683342D03*
D14*
X141275495Y-85933542D03*
X141275495Y-85034382D03*
X140259495Y-82875382D03*
X140259495Y-83774542D03*
D13*
X128298375Y-88007342D03*
X129197535Y-88007342D03*
D10*
G36*
X139876978Y-119613497D02*
X139453110Y-120037365D01*
X139171130Y-119755385D01*
X139594998Y-119331517D01*
X139876978Y-119613497D01*
X139876978Y-119613497D01*
G37*
G36*
X140512780Y-120249299D02*
X140088912Y-120673167D01*
X139806932Y-120391187D01*
X140230800Y-119967319D01*
X140512780Y-120249299D01*
X140512780Y-120249299D01*
G37*
D14*
X138607515Y-121737162D03*
X138607515Y-122636322D03*
X137846000Y-121737420D03*
X137846000Y-122636580D03*
D10*
G36*
X142135038Y-119702397D02*
X141711170Y-120126265D01*
X141429190Y-119844285D01*
X141853058Y-119420417D01*
X142135038Y-119702397D01*
X142135038Y-119702397D01*
G37*
G36*
X142770840Y-120338199D02*
X142346972Y-120762067D01*
X142064992Y-120480087D01*
X142488860Y-120056219D01*
X142770840Y-120338199D01*
X142770840Y-120338199D01*
G37*
G36*
X142770038Y-119067397D02*
X142346170Y-119491265D01*
X142064190Y-119209285D01*
X142488058Y-118785417D01*
X142770038Y-119067397D01*
X142770038Y-119067397D01*
G37*
G36*
X143405840Y-119703199D02*
X142981972Y-120127067D01*
X142699992Y-119845087D01*
X143123860Y-119421219D01*
X143405840Y-119703199D01*
X143405840Y-119703199D01*
G37*
D14*
X139242515Y-128595162D03*
X139242515Y-129494322D03*
D10*
G36*
X148040538Y-123766397D02*
X147616670Y-124190265D01*
X147334690Y-123908285D01*
X147758558Y-123484417D01*
X148040538Y-123766397D01*
X148040538Y-123766397D01*
G37*
G36*
X148676340Y-124402199D02*
X148252472Y-124826067D01*
X147970492Y-124544087D01*
X148394360Y-124120219D01*
X148676340Y-124402199D01*
X148676340Y-124402199D01*
G37*
D26*
X107964955Y-107429342D03*
X109488955Y-107429342D03*
D27*
X128919955Y-109926162D03*
X127967455Y-107726522D03*
X129872455Y-107726522D03*
D13*
X125974535Y-120919342D03*
X125075375Y-120919342D03*
D10*
G36*
X160480195Y-97609127D02*
X160056327Y-98032995D01*
X159774347Y-97751015D01*
X160198215Y-97327147D01*
X160480195Y-97609127D01*
X160480195Y-97609127D01*
G37*
G36*
X161115997Y-98244929D02*
X160692129Y-98668797D01*
X160410149Y-98386817D01*
X160834017Y-97962949D01*
X161115997Y-98244929D01*
X161115997Y-98244929D01*
G37*
G36*
X162206200Y-98925633D02*
X162630068Y-98501765D01*
X162912048Y-98783745D01*
X162488180Y-99207613D01*
X162206200Y-98925633D01*
X162206200Y-98925633D01*
G37*
G36*
X161570398Y-98289831D02*
X161994266Y-97865963D01*
X162276246Y-98147943D01*
X161852378Y-98571811D01*
X161570398Y-98289831D01*
X161570398Y-98289831D01*
G37*
G36*
X134908451Y-121787445D02*
X134484583Y-122211313D01*
X134202603Y-121929333D01*
X134626471Y-121505465D01*
X134908451Y-121787445D01*
X134908451Y-121787445D01*
G37*
G36*
X135544253Y-122423247D02*
X135120385Y-122847115D01*
X134838405Y-122565135D01*
X135262273Y-122141267D01*
X135544253Y-122423247D01*
X135544253Y-122423247D01*
G37*
G36*
X133780978Y-118343497D02*
X133357110Y-118767365D01*
X133075130Y-118485385D01*
X133498998Y-118061517D01*
X133780978Y-118343497D01*
X133780978Y-118343497D01*
G37*
G36*
X134416780Y-118979299D02*
X133992912Y-119403167D01*
X133710932Y-119121187D01*
X134134800Y-118697319D01*
X134416780Y-118979299D01*
X134416780Y-118979299D01*
G37*
D13*
X108541535Y-84188342D03*
X107642375Y-84188342D03*
D14*
X108599955Y-114736922D03*
X108599955Y-113837762D03*
X109742955Y-86786762D03*
X109742955Y-87685922D03*
D13*
X107551420Y-76848000D03*
X108450580Y-76848000D03*
D14*
X103900955Y-80944762D03*
X103900955Y-81843922D03*
D13*
X111928375Y-94447342D03*
X112827535Y-94447342D03*
X110404375Y-94447342D03*
X111303535Y-94447342D03*
X107551420Y-74308000D03*
X108450580Y-74308000D03*
X113240535Y-100190342D03*
X112341375Y-100190342D03*
X132069555Y-97436982D03*
X132968715Y-97436982D03*
X130545554Y-97436982D03*
X131444714Y-97436982D03*
X166570375Y-93840342D03*
X167469535Y-93840342D03*
X165046375Y-93840342D03*
X165945535Y-93840342D03*
X107551420Y-71768000D03*
X108450580Y-71768000D03*
D14*
X106223335Y-80970222D03*
X106223335Y-81869382D03*
D13*
X123019535Y-104254342D03*
X122120375Y-104254342D03*
X122120375Y-111366342D03*
X123019535Y-111366342D03*
X122120375Y-110350342D03*
X123019535Y-110350342D03*
X122120375Y-113398342D03*
X123019535Y-113398342D03*
X122120375Y-112382342D03*
X123019535Y-112382342D03*
X122120375Y-107302342D03*
X123019535Y-107302342D03*
X122120375Y-106286342D03*
X123019535Y-106286342D03*
X122120375Y-109334342D03*
X123019535Y-109334342D03*
D14*
X113078955Y-122765922D03*
X113078955Y-121866762D03*
D13*
X129172535Y-88882342D03*
X128273375Y-88882342D03*
X127617755Y-84467802D03*
X128516915Y-84467802D03*
D14*
X131369335Y-120858382D03*
X131369335Y-119959222D03*
D11*
X112885955Y-93240842D03*
X112885955Y-91335842D03*
X110345955Y-93240842D03*
X112885955Y-92288342D03*
X110345955Y-91335842D03*
D26*
X110091955Y-90129342D03*
X108567955Y-90129342D03*
D10*
G36*
X161593978Y-83545497D02*
X161170110Y-83969365D01*
X160888130Y-83687385D01*
X161311998Y-83263517D01*
X161593978Y-83545497D01*
X161593978Y-83545497D01*
G37*
G36*
X162229780Y-84181299D02*
X161805912Y-84605167D01*
X161523932Y-84323187D01*
X161947800Y-83899319D01*
X162229780Y-84181299D01*
X162229780Y-84181299D01*
G37*
G36*
X162666932Y-85466187D02*
X163090800Y-85042319D01*
X163372780Y-85324299D01*
X162948912Y-85748167D01*
X162666932Y-85466187D01*
X162666932Y-85466187D01*
G37*
G36*
X162031130Y-84830385D02*
X162454998Y-84406517D01*
X162736978Y-84688497D01*
X162313110Y-85112365D01*
X162031130Y-84830385D01*
X162031130Y-84830385D01*
G37*
G36*
X156640978Y-83418497D02*
X156217110Y-83842365D01*
X155935130Y-83560385D01*
X156358998Y-83136517D01*
X156640978Y-83418497D01*
X156640978Y-83418497D01*
G37*
G36*
X157276780Y-84054299D02*
X156852912Y-84478167D01*
X156570932Y-84196187D01*
X156994800Y-83772319D01*
X157276780Y-84054299D01*
X157276780Y-84054299D01*
G37*
G36*
X157713932Y-85339187D02*
X158137800Y-84915319D01*
X158419780Y-85197299D01*
X157995912Y-85621167D01*
X157713932Y-85339187D01*
X157713932Y-85339187D01*
G37*
G36*
X157078130Y-84703385D02*
X157501998Y-84279517D01*
X157783978Y-84561497D01*
X157360110Y-84985365D01*
X157078130Y-84703385D01*
X157078130Y-84703385D01*
G37*
D14*
X144132015Y-117111822D03*
X144132015Y-116212662D03*
D10*
G36*
X154600110Y-108311319D02*
X155023978Y-108735187D01*
X154741998Y-109017167D01*
X154318130Y-108593299D01*
X154600110Y-108311319D01*
X154600110Y-108311319D01*
G37*
G36*
X155235912Y-107675517D02*
X155659780Y-108099385D01*
X155377800Y-108381365D01*
X154953932Y-107957497D01*
X155235912Y-107675517D01*
X155235912Y-107675517D01*
G37*
D15*
X120791955Y-114160342D03*
X128826955Y-113426342D03*
X134671000Y-118250000D03*
D10*
G36*
X133907978Y-105643497D02*
X133484110Y-106067365D01*
X133202130Y-105785385D01*
X133625998Y-105361517D01*
X133907978Y-105643497D01*
X133907978Y-105643497D01*
G37*
G36*
X134543780Y-106279299D02*
X134119912Y-106703167D01*
X133837932Y-106421187D01*
X134261800Y-105997319D01*
X134543780Y-106279299D01*
X134543780Y-106279299D01*
G37*
D13*
X122120375Y-103238342D03*
X123019535Y-103238342D03*
D24*
X170385455Y-98031342D03*
X172290455Y-98031342D03*
D28*
X138550000Y-89650000D03*
X138550000Y-89150000D03*
X138550000Y-88650000D03*
X138550000Y-88150000D03*
X138550000Y-87650000D03*
X138550000Y-87150000D03*
X138550000Y-86650000D03*
X138550000Y-86150000D03*
X138550000Y-85650000D03*
X138550000Y-85150000D03*
X138550000Y-84650000D03*
X138550000Y-84150000D03*
D29*
X137300000Y-82900000D03*
X136800000Y-82900000D03*
X136300000Y-82900000D03*
X135800000Y-82900000D03*
X135300000Y-82900000D03*
X134800000Y-82900000D03*
X134300000Y-82900000D03*
X133800000Y-82900000D03*
X133300000Y-82900000D03*
X132800000Y-82900000D03*
X132300000Y-82900000D03*
X131800000Y-82900000D03*
D28*
X130550000Y-84150000D03*
X130550000Y-84650000D03*
X130550000Y-85150000D03*
X130550000Y-85650000D03*
X130550000Y-86150000D03*
X130550000Y-86650000D03*
X130550000Y-87150000D03*
X130550000Y-87650000D03*
X130550000Y-88150000D03*
X130550000Y-88650000D03*
X130550000Y-89150000D03*
X130550000Y-89650000D03*
D29*
X131800000Y-90900000D03*
X132300000Y-90900000D03*
X132800000Y-90900000D03*
X133300000Y-90900000D03*
X133800000Y-90900000D03*
X134300000Y-90900000D03*
X134800000Y-90900000D03*
X135300000Y-90900000D03*
X135800000Y-90900000D03*
X136300000Y-90900000D03*
X136800000Y-90900000D03*
X137300000Y-90900000D03*
D24*
X145148015Y-116662242D03*
X147053015Y-116662242D03*
X127495995Y-114058962D03*
X125590995Y-114058962D03*
D10*
G36*
X135552155Y-119611977D02*
X135976023Y-120035845D01*
X135694043Y-120317825D01*
X135270175Y-119893957D01*
X135552155Y-119611977D01*
X135552155Y-119611977D01*
G37*
G36*
X136187957Y-118976175D02*
X136611825Y-119400043D01*
X136329845Y-119682023D01*
X135905977Y-119258155D01*
X136187957Y-118976175D01*
X136187957Y-118976175D01*
G37*
D14*
X140513335Y-122001382D03*
X140513335Y-121102222D03*
D25*
X105029000Y-117919500D03*
X105029000Y-116014500D03*
D24*
X112441455Y-96860342D03*
X110536455Y-96860342D03*
D13*
X111928375Y-95463342D03*
X112827535Y-95463342D03*
D24*
X114092455Y-96860342D03*
X115997455Y-96860342D03*
X165940455Y-89141342D03*
X167845455Y-89141342D03*
D14*
X129598135Y-95219562D03*
X129598135Y-94320402D03*
D26*
X164733955Y-89522342D03*
X163209955Y-89522342D03*
D14*
X127940495Y-105989382D03*
X127940495Y-106888542D03*
D26*
X130233135Y-93118982D03*
X128709135Y-93118982D03*
D14*
X163971955Y-91622922D03*
X163971955Y-90723762D03*
X128956495Y-106751382D03*
X128956495Y-107650542D03*
D30*
X126887955Y-110350342D03*
X126887955Y-108826342D03*
D13*
X132069555Y-98452982D03*
X132968715Y-98452982D03*
D16*
X128560255Y-120919342D03*
X127061655Y-120919342D03*
X107251700Y-75578000D03*
X108750300Y-75578000D03*
X102757955Y-80645042D03*
X102757955Y-82143642D03*
X107252035Y-73037802D03*
X108750635Y-73037802D03*
X107251700Y-70498000D03*
X108750300Y-70498000D03*
X105080335Y-80670502D03*
X105080335Y-82169102D03*
X132512335Y-120777102D03*
X132512335Y-119278502D03*
X102779255Y-111902342D03*
X101280655Y-111902342D03*
D31*
X115933955Y-91504342D03*
X115933955Y-95104342D03*
X136075135Y-94493982D03*
X136075135Y-98093982D03*
X170575955Y-90897342D03*
X170575955Y-94497342D03*
D10*
G36*
X131077932Y-114704187D02*
X131501800Y-114280319D01*
X131783780Y-114562299D01*
X131359912Y-114986167D01*
X131077932Y-114704187D01*
X131077932Y-114704187D01*
G37*
G36*
X130442130Y-114068385D02*
X130865998Y-113644517D01*
X131147978Y-113926497D01*
X130724110Y-114350365D01*
X130442130Y-114068385D01*
X130442130Y-114068385D01*
G37*
D13*
X122120375Y-108318342D03*
X123019535Y-108318342D03*
D32*
X139126515Y-127027742D03*
X139126515Y-126377742D03*
X139126515Y-125727742D03*
X137326515Y-125727742D03*
X137326515Y-126377742D03*
X137326515Y-127027742D03*
D10*
G36*
X146084234Y-122874775D02*
X146791341Y-122167668D01*
X147038828Y-122415155D01*
X146331721Y-123122262D01*
X146084234Y-122874775D01*
X146084234Y-122874775D01*
G37*
G36*
X145624614Y-122415156D02*
X146331721Y-121708049D01*
X146579208Y-121955536D01*
X145872101Y-122662643D01*
X145624614Y-122415156D01*
X145624614Y-122415156D01*
G37*
G36*
X145164995Y-121955536D02*
X145872102Y-121248429D01*
X146119589Y-121495916D01*
X145412482Y-122203023D01*
X145164995Y-121955536D01*
X145164995Y-121955536D01*
G37*
G36*
X143892202Y-123228329D02*
X144599309Y-122521222D01*
X144846796Y-122768709D01*
X144139689Y-123475816D01*
X143892202Y-123228329D01*
X143892202Y-123228329D01*
G37*
G36*
X144351822Y-123687948D02*
X145058929Y-122980841D01*
X145306416Y-123228328D01*
X144599309Y-123935435D01*
X144351822Y-123687948D01*
X144351822Y-123687948D01*
G37*
G36*
X144811441Y-124147568D02*
X145518548Y-123440461D01*
X145766035Y-123687948D01*
X145058928Y-124395055D01*
X144811441Y-124147568D01*
X144811441Y-124147568D01*
G37*
D33*
X106616500Y-87757000D03*
X108521500Y-87757000D03*
X106616500Y-85217000D03*
X107569000Y-87757000D03*
X108521500Y-85217000D03*
X106616500Y-118237000D03*
X108521500Y-118237000D03*
X106616500Y-115697000D03*
X107569000Y-118237000D03*
X108521500Y-115697000D03*
D11*
X133027135Y-96230483D03*
X133027135Y-94325483D03*
X130487135Y-96230483D03*
X133027135Y-95277983D03*
X130487135Y-94325483D03*
D13*
X128298375Y-89757342D03*
X129197535Y-89757342D03*
D34*
X109334955Y-67083342D03*
D21*
X109334955Y-68783342D03*
X111234955Y-68783342D03*
X111234955Y-66883342D03*
D20*
X133262335Y-78183802D03*
D21*
X131562335Y-78183802D03*
X131562335Y-80083802D03*
X133462335Y-80083802D03*
D34*
X140441955Y-80088342D03*
D21*
X140441955Y-78388342D03*
X138541955Y-78388342D03*
X138541955Y-80288342D03*
D34*
X144400000Y-82400000D03*
D21*
X144400000Y-80700000D03*
X142500000Y-80700000D03*
X142500000Y-82600000D03*
D35*
X111247955Y-64907342D03*
X110597955Y-64907342D03*
X109947955Y-64907342D03*
X109297955Y-64907342D03*
X108647955Y-64907342D03*
D36*
X111897955Y-62332342D03*
X107997955Y-62332342D03*
D10*
G36*
X111220660Y-103503579D02*
X110301421Y-102584340D01*
X110761040Y-102124721D01*
X111680279Y-103043960D01*
X111220660Y-103503579D01*
X111220660Y-103503579D01*
G37*
G36*
X109558960Y-105165279D02*
X108639721Y-104246040D01*
X109099340Y-103786421D01*
X110018579Y-104705660D01*
X109558960Y-105165279D01*
X109558960Y-105165279D01*
G37*
D16*
X113091655Y-120665342D03*
X114590255Y-120665342D03*
D14*
X131750335Y-107894222D03*
X131750335Y-108793382D03*
D10*
G36*
X155870110Y-108311319D02*
X156293978Y-108735187D01*
X156011998Y-109017167D01*
X155588130Y-108593299D01*
X155870110Y-108311319D01*
X155870110Y-108311319D01*
G37*
G36*
X156505912Y-107675517D02*
X156929780Y-108099385D01*
X156647800Y-108381365D01*
X156223932Y-107957497D01*
X156505912Y-107675517D01*
X156505912Y-107675517D01*
G37*
D26*
X153210955Y-88026342D03*
X151686955Y-88026342D03*
D25*
X126633955Y-107746842D03*
X126633955Y-105841842D03*
D13*
X115943915Y-62369802D03*
X115044755Y-62369802D03*
X172966915Y-68973802D03*
X172067755Y-68973802D03*
X140962915Y-88658802D03*
X140063755Y-88658802D03*
X140582075Y-85864962D03*
X139682915Y-85864962D03*
X127109755Y-85229802D03*
X128008915Y-85229802D03*
D14*
X129210335Y-83637222D03*
X129210335Y-84536382D03*
D13*
X115943915Y-63639802D03*
X115044755Y-63639802D03*
X172966915Y-70243802D03*
X172067755Y-70243802D03*
M02*
