G04 #@! TF.FileFunction,Paste,Top*
%FSLAX46Y46*%
G04 Gerber Fmt 4.6, Leading zero omitted, Abs format (unit mm)*
G04 Created by KiCad (PCBNEW 4.0.0-stable) date Sunday, December 27, 2015 'PMt' 01:34:37 PM*
%MOMM*%
G01*
G04 APERTURE LIST*
%ADD10C,0.100000*%
%ADD11R,1.143000X0.635000*%
%ADD12R,0.700000X1.300000*%
%ADD13C,0.400000*%
%ADD14R,0.398780X0.599440*%
%ADD15R,0.599440X0.398780*%
%ADD16R,1.300000X0.700000*%
%ADD17R,0.797560X0.797560*%
%ADD18R,4.000000X1.500000*%
%ADD19R,0.950000X1.400000*%
%ADD20R,1.000000X0.350000*%
%ADD21R,0.762000X0.508000*%
%ADD22R,0.508000X0.762000*%
%ADD23R,0.400000X1.350000*%
%ADD24R,1.100000X1.500000*%
%ADD25C,0.127000*%
G04 APERTURE END LIST*
D10*
G36*
X110642590Y-105957076D02*
X110784012Y-106098498D01*
X109723352Y-107159158D01*
X109581930Y-107017736D01*
X110642590Y-105957076D01*
X110642590Y-105957076D01*
G37*
G36*
X110289036Y-105603522D02*
X110430458Y-105744944D01*
X109369798Y-106805604D01*
X109228376Y-106664182D01*
X110289036Y-105603522D01*
X110289036Y-105603522D01*
G37*
G36*
X109935483Y-105249969D02*
X110076905Y-105391391D01*
X109016245Y-106452051D01*
X108874823Y-106310629D01*
X109935483Y-105249969D01*
X109935483Y-105249969D01*
G37*
G36*
X109581930Y-104896415D02*
X109723352Y-105037837D01*
X108662692Y-106098497D01*
X108521270Y-105957075D01*
X109581930Y-104896415D01*
X109581930Y-104896415D01*
G37*
G36*
X109228376Y-104542862D02*
X109369798Y-104684284D01*
X108309138Y-105744944D01*
X108167716Y-105603522D01*
X109228376Y-104542862D01*
X109228376Y-104542862D01*
G37*
G36*
X108874823Y-104189309D02*
X109016245Y-104330731D01*
X107955585Y-105391391D01*
X107814163Y-105249969D01*
X108874823Y-104189309D01*
X108874823Y-104189309D01*
G37*
G36*
X108521269Y-103835755D02*
X108662691Y-103977177D01*
X107602031Y-105037837D01*
X107460609Y-104896415D01*
X108521269Y-103835755D01*
X108521269Y-103835755D01*
G37*
G36*
X108167716Y-103482202D02*
X108309138Y-103623624D01*
X107248478Y-104684284D01*
X107107056Y-104542862D01*
X108167716Y-103482202D01*
X108167716Y-103482202D01*
G37*
G36*
X107814163Y-103128648D02*
X107955585Y-103270070D01*
X106894925Y-104330730D01*
X106753503Y-104189308D01*
X107814163Y-103128648D01*
X107814163Y-103128648D01*
G37*
G36*
X107460609Y-102775095D02*
X107602031Y-102916517D01*
X106541371Y-103977177D01*
X106399949Y-103835755D01*
X107460609Y-102775095D01*
X107460609Y-102775095D01*
G37*
G36*
X107107056Y-102421542D02*
X107248478Y-102562964D01*
X106187818Y-103623624D01*
X106046396Y-103482202D01*
X107107056Y-102421542D01*
X107107056Y-102421542D01*
G37*
G36*
X106753502Y-102067988D02*
X106894924Y-102209410D01*
X105834264Y-103270070D01*
X105692842Y-103128648D01*
X106753502Y-102067988D01*
X106753502Y-102067988D01*
G37*
G36*
X104066498Y-102067988D02*
X105127158Y-103128648D01*
X104985736Y-103270070D01*
X103925076Y-102209410D01*
X104066498Y-102067988D01*
X104066498Y-102067988D01*
G37*
G36*
X103712944Y-102421542D02*
X104773604Y-103482202D01*
X104632182Y-103623624D01*
X103571522Y-102562964D01*
X103712944Y-102421542D01*
X103712944Y-102421542D01*
G37*
G36*
X103359391Y-102775095D02*
X104420051Y-103835755D01*
X104278629Y-103977177D01*
X103217969Y-102916517D01*
X103359391Y-102775095D01*
X103359391Y-102775095D01*
G37*
G36*
X103005837Y-103128648D02*
X104066497Y-104189308D01*
X103925075Y-104330730D01*
X102864415Y-103270070D01*
X103005837Y-103128648D01*
X103005837Y-103128648D01*
G37*
G36*
X102652284Y-103482202D02*
X103712944Y-104542862D01*
X103571522Y-104684284D01*
X102510862Y-103623624D01*
X102652284Y-103482202D01*
X102652284Y-103482202D01*
G37*
G36*
X102298731Y-103835755D02*
X103359391Y-104896415D01*
X103217969Y-105037837D01*
X102157309Y-103977177D01*
X102298731Y-103835755D01*
X102298731Y-103835755D01*
G37*
G36*
X101945177Y-104189309D02*
X103005837Y-105249969D01*
X102864415Y-105391391D01*
X101803755Y-104330731D01*
X101945177Y-104189309D01*
X101945177Y-104189309D01*
G37*
G36*
X101591624Y-104542862D02*
X102652284Y-105603522D01*
X102510862Y-105744944D01*
X101450202Y-104684284D01*
X101591624Y-104542862D01*
X101591624Y-104542862D01*
G37*
G36*
X101238070Y-104896415D02*
X102298730Y-105957075D01*
X102157308Y-106098497D01*
X101096648Y-105037837D01*
X101238070Y-104896415D01*
X101238070Y-104896415D01*
G37*
G36*
X100884517Y-105249969D02*
X101945177Y-106310629D01*
X101803755Y-106452051D01*
X100743095Y-105391391D01*
X100884517Y-105249969D01*
X100884517Y-105249969D01*
G37*
G36*
X100530964Y-105603522D02*
X101591624Y-106664182D01*
X101450202Y-106805604D01*
X100389542Y-105744944D01*
X100530964Y-105603522D01*
X100530964Y-105603522D01*
G37*
G36*
X100177410Y-105957076D02*
X101238070Y-107017736D01*
X101096648Y-107159158D01*
X100035988Y-106098498D01*
X100177410Y-105957076D01*
X100177410Y-105957076D01*
G37*
G36*
X101096648Y-107724842D02*
X101238070Y-107866264D01*
X100177410Y-108926924D01*
X100035988Y-108785502D01*
X101096648Y-107724842D01*
X101096648Y-107724842D01*
G37*
G36*
X101450202Y-108078396D02*
X101591624Y-108219818D01*
X100530964Y-109280478D01*
X100389542Y-109139056D01*
X101450202Y-108078396D01*
X101450202Y-108078396D01*
G37*
G36*
X101803755Y-108431949D02*
X101945177Y-108573371D01*
X100884517Y-109634031D01*
X100743095Y-109492609D01*
X101803755Y-108431949D01*
X101803755Y-108431949D01*
G37*
G36*
X102157308Y-108785503D02*
X102298730Y-108926925D01*
X101238070Y-109987585D01*
X101096648Y-109846163D01*
X102157308Y-108785503D01*
X102157308Y-108785503D01*
G37*
G36*
X102510862Y-109139056D02*
X102652284Y-109280478D01*
X101591624Y-110341138D01*
X101450202Y-110199716D01*
X102510862Y-109139056D01*
X102510862Y-109139056D01*
G37*
G36*
X102864415Y-109492609D02*
X103005837Y-109634031D01*
X101945177Y-110694691D01*
X101803755Y-110553269D01*
X102864415Y-109492609D01*
X102864415Y-109492609D01*
G37*
G36*
X103217969Y-109846163D02*
X103359391Y-109987585D01*
X102298731Y-111048245D01*
X102157309Y-110906823D01*
X103217969Y-109846163D01*
X103217969Y-109846163D01*
G37*
G36*
X103571522Y-110199716D02*
X103712944Y-110341138D01*
X102652284Y-111401798D01*
X102510862Y-111260376D01*
X103571522Y-110199716D01*
X103571522Y-110199716D01*
G37*
G36*
X103925075Y-110553270D02*
X104066497Y-110694692D01*
X103005837Y-111755352D01*
X102864415Y-111613930D01*
X103925075Y-110553270D01*
X103925075Y-110553270D01*
G37*
G36*
X104278629Y-110906823D02*
X104420051Y-111048245D01*
X103359391Y-112108905D01*
X103217969Y-111967483D01*
X104278629Y-110906823D01*
X104278629Y-110906823D01*
G37*
G36*
X104632182Y-111260376D02*
X104773604Y-111401798D01*
X103712944Y-112462458D01*
X103571522Y-112321036D01*
X104632182Y-111260376D01*
X104632182Y-111260376D01*
G37*
G36*
X104985736Y-111613930D02*
X105127158Y-111755352D01*
X104066498Y-112816012D01*
X103925076Y-112674590D01*
X104985736Y-111613930D01*
X104985736Y-111613930D01*
G37*
G36*
X105834264Y-111613930D02*
X106894924Y-112674590D01*
X106753502Y-112816012D01*
X105692842Y-111755352D01*
X105834264Y-111613930D01*
X105834264Y-111613930D01*
G37*
G36*
X106187818Y-111260376D02*
X107248478Y-112321036D01*
X107107056Y-112462458D01*
X106046396Y-111401798D01*
X106187818Y-111260376D01*
X106187818Y-111260376D01*
G37*
G36*
X106541371Y-110906823D02*
X107602031Y-111967483D01*
X107460609Y-112108905D01*
X106399949Y-111048245D01*
X106541371Y-110906823D01*
X106541371Y-110906823D01*
G37*
G36*
X106894925Y-110553270D02*
X107955585Y-111613930D01*
X107814163Y-111755352D01*
X106753503Y-110694692D01*
X106894925Y-110553270D01*
X106894925Y-110553270D01*
G37*
G36*
X107248478Y-110199716D02*
X108309138Y-111260376D01*
X108167716Y-111401798D01*
X107107056Y-110341138D01*
X107248478Y-110199716D01*
X107248478Y-110199716D01*
G37*
G36*
X107602031Y-109846163D02*
X108662691Y-110906823D01*
X108521269Y-111048245D01*
X107460609Y-109987585D01*
X107602031Y-109846163D01*
X107602031Y-109846163D01*
G37*
G36*
X107955585Y-109492609D02*
X109016245Y-110553269D01*
X108874823Y-110694691D01*
X107814163Y-109634031D01*
X107955585Y-109492609D01*
X107955585Y-109492609D01*
G37*
G36*
X108309138Y-109139056D02*
X109369798Y-110199716D01*
X109228376Y-110341138D01*
X108167716Y-109280478D01*
X108309138Y-109139056D01*
X108309138Y-109139056D01*
G37*
G36*
X108662692Y-108785503D02*
X109723352Y-109846163D01*
X109581930Y-109987585D01*
X108521270Y-108926925D01*
X108662692Y-108785503D01*
X108662692Y-108785503D01*
G37*
G36*
X109016245Y-108431949D02*
X110076905Y-109492609D01*
X109935483Y-109634031D01*
X108874823Y-108573371D01*
X109016245Y-108431949D01*
X109016245Y-108431949D01*
G37*
G36*
X109369798Y-108078396D02*
X110430458Y-109139056D01*
X110289036Y-109280478D01*
X109228376Y-108219818D01*
X109369798Y-108078396D01*
X109369798Y-108078396D01*
G37*
G36*
X109723352Y-107724842D02*
X110784012Y-108785502D01*
X110642590Y-108926924D01*
X109581930Y-107866264D01*
X109723352Y-107724842D01*
X109723352Y-107724842D01*
G37*
D11*
X82931000Y-100584000D03*
X82931000Y-99060000D03*
D12*
X88966000Y-89408000D03*
X90866000Y-89408000D03*
D13*
X124485000Y-121120000D03*
X123685000Y-121120000D03*
X122885000Y-121120000D03*
X119685000Y-121120000D03*
X118885000Y-121120000D03*
X118085000Y-121120000D03*
X118885000Y-119520000D03*
X119685000Y-119520000D03*
X122885000Y-119520000D03*
X123685000Y-119520000D03*
X124485000Y-119520000D03*
X123685000Y-120320000D03*
X122885000Y-120320000D03*
X119685000Y-120320000D03*
X118885000Y-120320000D03*
X118085000Y-120320000D03*
X118085000Y-117120000D03*
X118885000Y-117120000D03*
X119685000Y-117120000D03*
X122885000Y-117120000D03*
X123685000Y-117120000D03*
X124485000Y-116320000D03*
X123685000Y-116320000D03*
X122885000Y-116320000D03*
X119685000Y-116320000D03*
X118885000Y-116320000D03*
X118885000Y-117920000D03*
X119685000Y-117920000D03*
X122885000Y-117920000D03*
X123685000Y-117920000D03*
X124485000Y-117920000D03*
X123685000Y-118720000D03*
X122885000Y-118720000D03*
X119685000Y-118720000D03*
X118885000Y-118720000D03*
X118085000Y-118720000D03*
X118085000Y-124320000D03*
X118885000Y-124320000D03*
X119685000Y-124320000D03*
X122885000Y-124320000D03*
X123685000Y-124320000D03*
X124485000Y-124320000D03*
X124485000Y-123520000D03*
X123685000Y-123520000D03*
X122885000Y-123520000D03*
X119685000Y-123520000D03*
X118885000Y-123520000D03*
X118085000Y-123520000D03*
X118085000Y-121920000D03*
X118885000Y-121920000D03*
X119685000Y-121920000D03*
X122885000Y-121920000D03*
X123685000Y-121920000D03*
X124485000Y-121920000D03*
X124485000Y-122720000D03*
X123685000Y-122720000D03*
X122885000Y-122720000D03*
X119685000Y-122720000D03*
X118885000Y-122720000D03*
X118085000Y-122720000D03*
X118085000Y-125920000D03*
X118885000Y-125920000D03*
X119685000Y-125920000D03*
X122885000Y-125920000D03*
X123685000Y-125920000D03*
X124485000Y-125920000D03*
X124485000Y-125120000D03*
X123685000Y-125120000D03*
X122885000Y-125120000D03*
X119685000Y-125120000D03*
X118885000Y-125120000D03*
X118085000Y-125120000D03*
X118085000Y-126720000D03*
X118885000Y-126720000D03*
X119685000Y-126720000D03*
X122885000Y-126720000D03*
X123685000Y-126720000D03*
X124485000Y-126720000D03*
X124485000Y-127520000D03*
X123685000Y-127520000D03*
X122885000Y-127520000D03*
X119685000Y-127520000D03*
X118885000Y-127520000D03*
X118085000Y-127520000D03*
D10*
G36*
X101211155Y-131282977D02*
X101635023Y-131706845D01*
X101353043Y-131988825D01*
X100929175Y-131564957D01*
X101211155Y-131282977D01*
X101211155Y-131282977D01*
G37*
G36*
X101846957Y-130647175D02*
X102270825Y-131071043D01*
X101988845Y-131353023D01*
X101564977Y-130929155D01*
X101846957Y-130647175D01*
X101846957Y-130647175D01*
G37*
D14*
X108272580Y-133350000D03*
X107373420Y-133350000D03*
D10*
G36*
X101846155Y-131917977D02*
X102270023Y-132341845D01*
X101988043Y-132623825D01*
X101564175Y-132199957D01*
X101846155Y-131917977D01*
X101846155Y-131917977D01*
G37*
G36*
X102481957Y-131282175D02*
X102905825Y-131706043D01*
X102623845Y-131988023D01*
X102199977Y-131564155D01*
X102481957Y-131282175D01*
X102481957Y-131282175D01*
G37*
G36*
X96512155Y-124678977D02*
X96936023Y-125102845D01*
X96654043Y-125384825D01*
X96230175Y-124960957D01*
X96512155Y-124678977D01*
X96512155Y-124678977D01*
G37*
G36*
X97147957Y-124043175D02*
X97571825Y-124467043D01*
X97289845Y-124749023D01*
X96865977Y-124325155D01*
X97147957Y-124043175D01*
X97147957Y-124043175D01*
G37*
D14*
X110685580Y-117919500D03*
X109786420Y-117919500D03*
D15*
X107505500Y-114231420D03*
X107505500Y-115130580D03*
D14*
X114178080Y-124777500D03*
X113278920Y-124777500D03*
X111955580Y-128016000D03*
X111056420Y-128016000D03*
D15*
X81661000Y-99753420D03*
X81661000Y-100652580D03*
D16*
X81915000Y-93660000D03*
X81915000Y-91760000D03*
X81915000Y-123505000D03*
X81915000Y-121605000D03*
D12*
X85659000Y-107442000D03*
X83759000Y-107442000D03*
D14*
X83370420Y-105918000D03*
X84269580Y-105918000D03*
D16*
X90932000Y-113980000D03*
X90932000Y-112080000D03*
X114681000Y-106873000D03*
X114681000Y-108773000D03*
D15*
X92329000Y-113215420D03*
X92329000Y-114114580D03*
D11*
X116205000Y-106807000D03*
X116205000Y-108331000D03*
D15*
X117348000Y-107510580D03*
X117348000Y-106611420D03*
D10*
G36*
X95877155Y-123154977D02*
X96301023Y-123578845D01*
X96019043Y-123860825D01*
X95595175Y-123436957D01*
X95877155Y-123154977D01*
X95877155Y-123154977D01*
G37*
G36*
X96512957Y-122519175D02*
X96936825Y-122943043D01*
X96654845Y-123225023D01*
X96230977Y-122801155D01*
X96512957Y-122519175D01*
X96512957Y-122519175D01*
G37*
G36*
X95401433Y-122914210D02*
X94593210Y-123722433D01*
X94144197Y-123273420D01*
X94952420Y-122465197D01*
X95401433Y-122914210D01*
X95401433Y-122914210D01*
G37*
G36*
X94323803Y-121836580D02*
X93515580Y-122644803D01*
X93066567Y-122195790D01*
X93874790Y-121387567D01*
X94323803Y-121836580D01*
X94323803Y-121836580D01*
G37*
D16*
X97282000Y-115382000D03*
X97282000Y-117282000D03*
X120523000Y-111821000D03*
X120523000Y-109921000D03*
D15*
X95758000Y-116527580D03*
X95758000Y-115628420D03*
D12*
X118933000Y-111887000D03*
X117033000Y-111887000D03*
D15*
X118999000Y-109659420D03*
X118999000Y-110558580D03*
X117983000Y-109659420D03*
X117983000Y-110558580D03*
D14*
X82735420Y-88900000D03*
X83634580Y-88900000D03*
D10*
G36*
X89245977Y-137421845D02*
X89669845Y-136997977D01*
X89951825Y-137279957D01*
X89527957Y-137703825D01*
X89245977Y-137421845D01*
X89245977Y-137421845D01*
G37*
G36*
X88610175Y-136786043D02*
X89034043Y-136362175D01*
X89316023Y-136644155D01*
X88892155Y-137068023D01*
X88610175Y-136786043D01*
X88610175Y-136786043D01*
G37*
D15*
X83312000Y-129344420D03*
X83312000Y-130243580D03*
X82423000Y-129344420D03*
X82423000Y-130243580D03*
D16*
X82169000Y-137607000D03*
X82169000Y-139507000D03*
D14*
X82227420Y-136271000D03*
X83126580Y-136271000D03*
D15*
X83058000Y-144340580D03*
X83058000Y-143441420D03*
D14*
X104071420Y-131826000D03*
X104970580Y-131826000D03*
X106621580Y-131826000D03*
X105722420Y-131826000D03*
D10*
G36*
X107942155Y-130647977D02*
X108366023Y-131071845D01*
X108084043Y-131353825D01*
X107660175Y-130929957D01*
X107942155Y-130647977D01*
X107942155Y-130647977D01*
G37*
G36*
X108577957Y-130012175D02*
X109001825Y-130436043D01*
X108719845Y-130718023D01*
X108295977Y-130294155D01*
X108577957Y-130012175D01*
X108577957Y-130012175D01*
G37*
G36*
X109862845Y-129575023D02*
X109438977Y-129151155D01*
X109720957Y-128869175D01*
X110144825Y-129293043D01*
X109862845Y-129575023D01*
X109862845Y-129575023D01*
G37*
G36*
X109227043Y-130210825D02*
X108803175Y-129786957D01*
X109085155Y-129504977D01*
X109509023Y-129928845D01*
X109227043Y-130210825D01*
X109227043Y-130210825D01*
G37*
D15*
X104902000Y-134170420D03*
X104902000Y-135069580D03*
X105791000Y-134170420D03*
X105791000Y-135069580D03*
D10*
G36*
X110652023Y-132072155D02*
X110228155Y-132496023D01*
X109946175Y-132214043D01*
X110370043Y-131790175D01*
X110652023Y-132072155D01*
X110652023Y-132072155D01*
G37*
G36*
X111287825Y-132707957D02*
X110863957Y-133131825D01*
X110581977Y-132849845D01*
X111005845Y-132425977D01*
X111287825Y-132707957D01*
X111287825Y-132707957D01*
G37*
G36*
X111287023Y-131437155D02*
X110863155Y-131861023D01*
X110581175Y-131579043D01*
X111005043Y-131155175D01*
X111287023Y-131437155D01*
X111287023Y-131437155D01*
G37*
G36*
X111922825Y-132072957D02*
X111498957Y-132496825D01*
X111216977Y-132214845D01*
X111640845Y-131790977D01*
X111922825Y-132072957D01*
X111922825Y-132072957D01*
G37*
D14*
X105859580Y-135826500D03*
X104960420Y-135826500D03*
D10*
G36*
X112275845Y-133131023D02*
X111851977Y-132707155D01*
X112133957Y-132425175D01*
X112557825Y-132849043D01*
X112275845Y-133131023D01*
X112275845Y-133131023D01*
G37*
G36*
X111640043Y-133766825D02*
X111216175Y-133342957D01*
X111498155Y-133060977D01*
X111922023Y-133484845D01*
X111640043Y-133766825D01*
X111640043Y-133766825D01*
G37*
D14*
X104960420Y-138747500D03*
X105859580Y-138747500D03*
D10*
G36*
X115577845Y-134401023D02*
X115153977Y-133977155D01*
X115435957Y-133695175D01*
X115859825Y-134119043D01*
X115577845Y-134401023D01*
X115577845Y-134401023D01*
G37*
G36*
X114942043Y-135036825D02*
X114518175Y-134612957D01*
X114800155Y-134330977D01*
X115224023Y-134754845D01*
X114942043Y-135036825D01*
X114942043Y-135036825D01*
G37*
D14*
X105976420Y-138747500D03*
D10*
G36*
X114815845Y-135163023D02*
X114391977Y-134739155D01*
X114673957Y-134457175D01*
X115097825Y-134881043D01*
X114815845Y-135163023D01*
X114815845Y-135163023D01*
G37*
D14*
X106494580Y-141224000D03*
X105595420Y-141224000D03*
D10*
G36*
X115816155Y-136870977D02*
X116240023Y-137294845D01*
X115958043Y-137576825D01*
X115534175Y-137152957D01*
X115816155Y-136870977D01*
X115816155Y-136870977D01*
G37*
G36*
X116451957Y-136235175D02*
X116875825Y-136659043D01*
X116593845Y-136941023D01*
X116169977Y-136517155D01*
X116451957Y-136235175D01*
X116451957Y-136235175D01*
G37*
D15*
X109728000Y-100144580D03*
X109728000Y-99245420D03*
D10*
G36*
X100195155Y-110708977D02*
X100619023Y-111132845D01*
X100337043Y-111414825D01*
X99913175Y-110990957D01*
X100195155Y-110708977D01*
X100195155Y-110708977D01*
G37*
G36*
X100830957Y-110073175D02*
X101254825Y-110497043D01*
X100972845Y-110779023D01*
X100548977Y-110355155D01*
X100830957Y-110073175D01*
X100830957Y-110073175D01*
G37*
D14*
X109542580Y-102870000D03*
X108643420Y-102870000D03*
D10*
G36*
X100311858Y-109552619D02*
X99392619Y-110471858D01*
X98897644Y-109976883D01*
X99816883Y-109057644D01*
X100311858Y-109552619D01*
X100311858Y-109552619D01*
G37*
G36*
X98968356Y-108209117D02*
X98049117Y-109128356D01*
X97554142Y-108633381D01*
X98473381Y-107714142D01*
X98968356Y-108209117D01*
X98968356Y-108209117D01*
G37*
D17*
X79489300Y-116205000D03*
X77990700Y-116205000D03*
X79489300Y-120015000D03*
X77990700Y-120015000D03*
X79489300Y-118110000D03*
X77990700Y-118110000D03*
X95643700Y-137287000D03*
X97142300Y-137287000D03*
X94475300Y-137287000D03*
X92976700Y-137287000D03*
X102476300Y-137287000D03*
X100977700Y-137287000D03*
X99809300Y-137287000D03*
X98310700Y-137287000D03*
D15*
X107442000Y-131630420D03*
X107442000Y-132529580D03*
D18*
X87376000Y-101959000D03*
X87376000Y-105559000D03*
X124079000Y-106785000D03*
X124079000Y-110385000D03*
D11*
X81915000Y-142240000D03*
X81915000Y-140716000D03*
D15*
X104902000Y-132582920D03*
X104902000Y-133482080D03*
X105791000Y-132582920D03*
X105791000Y-133482080D03*
D10*
G36*
X109509023Y-130929155D02*
X109085155Y-131353023D01*
X108803175Y-131071043D01*
X109227043Y-130647175D01*
X109509023Y-130929155D01*
X109509023Y-130929155D01*
G37*
G36*
X110144825Y-131564957D02*
X109720957Y-131988825D01*
X109438977Y-131706845D01*
X109862845Y-131282977D01*
X110144825Y-131564957D01*
X110144825Y-131564957D01*
G37*
G36*
X110144023Y-130294155D02*
X109720155Y-130718023D01*
X109438175Y-130436043D01*
X109862043Y-130012175D01*
X110144023Y-130294155D01*
X110144023Y-130294155D01*
G37*
G36*
X110779825Y-130929957D02*
X110355957Y-131353825D01*
X110073977Y-131071845D01*
X110497845Y-130647977D01*
X110779825Y-130929957D01*
X110779825Y-130929957D01*
G37*
D15*
X105664000Y-139504420D03*
X105664000Y-140403580D03*
D10*
G36*
X115732023Y-135247155D02*
X115308155Y-135671023D01*
X115026175Y-135389043D01*
X115450043Y-134965175D01*
X115732023Y-135247155D01*
X115732023Y-135247155D01*
G37*
G36*
X116367825Y-135882957D02*
X115943957Y-136306825D01*
X115661977Y-136024845D01*
X116085845Y-135600977D01*
X116367825Y-135882957D01*
X116367825Y-135882957D01*
G37*
G36*
X96357107Y-119339848D02*
X96922863Y-119905604D01*
X96357107Y-120471360D01*
X95791351Y-119905604D01*
X96357107Y-119339848D01*
X96357107Y-119339848D01*
G37*
G36*
X95013604Y-120683351D02*
X95579360Y-121249107D01*
X95013604Y-121814863D01*
X94447848Y-121249107D01*
X95013604Y-120683351D01*
X95013604Y-120683351D01*
G37*
G36*
X97098848Y-121425092D02*
X97664604Y-121990848D01*
X97098848Y-122556604D01*
X96533092Y-121990848D01*
X97098848Y-121425092D01*
X97098848Y-121425092D01*
G37*
G36*
X97147155Y-125440977D02*
X97571023Y-125864845D01*
X97289043Y-126146825D01*
X96865175Y-125722957D01*
X97147155Y-125440977D01*
X97147155Y-125440977D01*
G37*
G36*
X97782957Y-124805175D02*
X98206825Y-125229043D01*
X97924845Y-125511023D01*
X97500977Y-125087155D01*
X97782957Y-124805175D01*
X97782957Y-124805175D01*
G37*
D15*
X80518000Y-116654580D03*
X80518000Y-115755420D03*
X80518000Y-120464580D03*
X80518000Y-119565420D03*
D14*
X83370420Y-104902000D03*
X84269580Y-104902000D03*
X81592420Y-104902000D03*
X82491580Y-104902000D03*
X92905580Y-115189000D03*
X92006420Y-115189000D03*
D15*
X95885000Y-110167420D03*
X95885000Y-111066580D03*
D14*
X116009420Y-110236000D03*
X116908580Y-110236000D03*
X116009420Y-109220000D03*
X116908580Y-109220000D03*
X82735420Y-89916000D03*
X83634580Y-89916000D03*
D10*
G36*
X89669845Y-126654023D02*
X89245977Y-126230155D01*
X89527957Y-125948175D01*
X89951825Y-126372043D01*
X89669845Y-126654023D01*
X89669845Y-126654023D01*
G37*
G36*
X89034043Y-127289825D02*
X88610175Y-126865957D01*
X88892155Y-126583977D01*
X89316023Y-127007845D01*
X89034043Y-127289825D01*
X89034043Y-127289825D01*
G37*
G36*
X93464155Y-131155977D02*
X93888023Y-131579845D01*
X93606043Y-131861825D01*
X93182175Y-131437957D01*
X93464155Y-131155977D01*
X93464155Y-131155977D01*
G37*
G36*
X94099957Y-130520175D02*
X94523825Y-130944043D01*
X94241845Y-131226023D01*
X93817977Y-130802155D01*
X94099957Y-130520175D01*
X94099957Y-130520175D01*
G37*
G36*
X92702155Y-130393977D02*
X93126023Y-130817845D01*
X92844043Y-131099825D01*
X92420175Y-130675957D01*
X92702155Y-130393977D01*
X92702155Y-130393977D01*
G37*
G36*
X93337957Y-129758175D02*
X93761825Y-130182043D01*
X93479845Y-130464023D01*
X93055977Y-130040155D01*
X93337957Y-129758175D01*
X93337957Y-129758175D01*
G37*
G36*
X91940155Y-129631977D02*
X92364023Y-130055845D01*
X92082043Y-130337825D01*
X91658175Y-129913957D01*
X91940155Y-129631977D01*
X91940155Y-129631977D01*
G37*
G36*
X92575957Y-128996175D02*
X92999825Y-129420043D01*
X92717845Y-129702023D01*
X92293977Y-129278155D01*
X92575957Y-128996175D01*
X92575957Y-128996175D01*
G37*
G36*
X91178155Y-128869977D02*
X91602023Y-129293845D01*
X91320043Y-129575825D01*
X90896175Y-129151957D01*
X91178155Y-128869977D01*
X91178155Y-128869977D01*
G37*
G36*
X91813957Y-128234175D02*
X92237825Y-128658043D01*
X91955845Y-128940023D01*
X91531977Y-128516155D01*
X91813957Y-128234175D01*
X91813957Y-128234175D01*
G37*
G36*
X90416155Y-128107977D02*
X90840023Y-128531845D01*
X90558043Y-128813825D01*
X90134175Y-128389957D01*
X90416155Y-128107977D01*
X90416155Y-128107977D01*
G37*
G36*
X91051957Y-127472175D02*
X91475825Y-127896043D01*
X91193845Y-128178023D01*
X90769977Y-127754155D01*
X91051957Y-127472175D01*
X91051957Y-127472175D01*
G37*
G36*
X89654155Y-127345977D02*
X90078023Y-127769845D01*
X89796043Y-128051825D01*
X89372175Y-127627957D01*
X89654155Y-127345977D01*
X89654155Y-127345977D01*
G37*
G36*
X90289957Y-126710175D02*
X90713825Y-127134043D01*
X90431845Y-127416023D01*
X90007977Y-126992155D01*
X90289957Y-126710175D01*
X90289957Y-126710175D01*
G37*
D15*
X80518000Y-117660420D03*
X80518000Y-118559580D03*
X82042000Y-144340580D03*
X82042000Y-143441420D03*
X99949000Y-133027420D03*
X99949000Y-133926580D03*
X100330000Y-130360420D03*
X100330000Y-131259580D03*
D14*
X95943420Y-138430000D03*
X96842580Y-138430000D03*
D10*
G36*
X100576155Y-117693977D02*
X101000023Y-118117845D01*
X100718043Y-118399825D01*
X100294175Y-117975957D01*
X100576155Y-117693977D01*
X100576155Y-117693977D01*
G37*
G36*
X101211957Y-117058175D02*
X101635825Y-117482043D01*
X101353845Y-117764023D01*
X100929977Y-117340155D01*
X101211957Y-117058175D01*
X101211957Y-117058175D01*
G37*
D14*
X96842580Y-139446000D03*
X95943420Y-139446000D03*
X84142580Y-126873000D03*
X83243420Y-126873000D03*
X94175580Y-138430000D03*
X93276420Y-138430000D03*
X102176580Y-138430000D03*
X101277420Y-138430000D03*
X101277420Y-139446000D03*
X102176580Y-139446000D03*
D15*
X101219000Y-114241580D03*
X101219000Y-113342420D03*
D14*
X99509580Y-138430000D03*
X98610420Y-138430000D03*
X98610420Y-139446000D03*
X99509580Y-139446000D03*
D15*
X109728000Y-97467420D03*
X109728000Y-98366580D03*
D10*
G36*
X103512845Y-113446023D02*
X103088977Y-113022155D01*
X103370957Y-112740175D01*
X103794825Y-113164043D01*
X103512845Y-113446023D01*
X103512845Y-113446023D01*
G37*
G36*
X102877043Y-114081825D02*
X102453175Y-113657957D01*
X102735155Y-113375977D01*
X103159023Y-113799845D01*
X102877043Y-114081825D01*
X102877043Y-114081825D01*
G37*
G36*
X102072977Y-112910845D02*
X102496845Y-112486977D01*
X102778825Y-112768957D01*
X102354957Y-113192825D01*
X102072977Y-112910845D01*
X102072977Y-112910845D01*
G37*
G36*
X101437175Y-112275043D02*
X101861043Y-111851175D01*
X102143023Y-112133155D01*
X101719155Y-112557023D01*
X101437175Y-112275043D01*
X101437175Y-112275043D01*
G37*
D19*
X88435000Y-143002000D03*
X84285000Y-143002000D03*
D20*
X106310000Y-137937000D03*
X106310000Y-137287000D03*
X106310000Y-136637000D03*
X104510000Y-136637000D03*
X104510000Y-137287000D03*
X104510000Y-137937000D03*
D10*
G36*
X113648719Y-134292033D02*
X114355826Y-133584926D01*
X114603313Y-133832413D01*
X113896206Y-134539520D01*
X113648719Y-134292033D01*
X113648719Y-134292033D01*
G37*
G36*
X113189099Y-133832414D02*
X113896206Y-133125307D01*
X114143693Y-133372794D01*
X113436586Y-134079901D01*
X113189099Y-133832414D01*
X113189099Y-133832414D01*
G37*
G36*
X112729480Y-133372794D02*
X113436587Y-132665687D01*
X113684074Y-132913174D01*
X112976967Y-133620281D01*
X112729480Y-133372794D01*
X112729480Y-133372794D01*
G37*
G36*
X111456687Y-134645587D02*
X112163794Y-133938480D01*
X112411281Y-134185967D01*
X111704174Y-134893074D01*
X111456687Y-134645587D01*
X111456687Y-134645587D01*
G37*
G36*
X111916307Y-135105206D02*
X112623414Y-134398099D01*
X112870901Y-134645586D01*
X112163794Y-135352693D01*
X111916307Y-135105206D01*
X111916307Y-135105206D01*
G37*
G36*
X112375926Y-135564826D02*
X113083033Y-134857719D01*
X113330520Y-135105206D01*
X112623413Y-135812313D01*
X112375926Y-135564826D01*
X112375926Y-135564826D01*
G37*
G36*
X106795944Y-130430774D02*
X106640366Y-130586352D01*
X106267706Y-130213692D01*
X106423284Y-130058114D01*
X106795944Y-130430774D01*
X106795944Y-130430774D01*
G37*
G36*
X107149497Y-130077220D02*
X106993919Y-130232798D01*
X106621259Y-129860138D01*
X106776837Y-129704560D01*
X107149497Y-130077220D01*
X107149497Y-130077220D01*
G37*
G36*
X107503051Y-129723667D02*
X107347473Y-129879245D01*
X106974813Y-129506585D01*
X107130391Y-129351007D01*
X107503051Y-129723667D01*
X107503051Y-129723667D01*
G37*
G36*
X107856604Y-129370113D02*
X107701026Y-129525691D01*
X107328366Y-129153031D01*
X107483944Y-128997453D01*
X107856604Y-129370113D01*
X107856604Y-129370113D01*
G37*
G36*
X108210157Y-129016560D02*
X108054579Y-129172138D01*
X107681919Y-128799478D01*
X107837497Y-128643900D01*
X108210157Y-129016560D01*
X108210157Y-129016560D01*
G37*
G36*
X108563711Y-128663007D02*
X108408133Y-128818585D01*
X108035473Y-128445925D01*
X108191051Y-128290347D01*
X108563711Y-128663007D01*
X108563711Y-128663007D01*
G37*
G36*
X108917264Y-128309453D02*
X108761686Y-128465031D01*
X108389026Y-128092371D01*
X108544604Y-127936793D01*
X108917264Y-128309453D01*
X108917264Y-128309453D01*
G37*
G36*
X109270818Y-127955900D02*
X109115240Y-128111478D01*
X108742580Y-127738818D01*
X108898158Y-127583240D01*
X109270818Y-127955900D01*
X109270818Y-127955900D01*
G37*
G36*
X109624371Y-127602346D02*
X109468793Y-127757924D01*
X109096133Y-127385264D01*
X109251711Y-127229686D01*
X109624371Y-127602346D01*
X109624371Y-127602346D01*
G37*
G36*
X109977924Y-127248793D02*
X109822346Y-127404371D01*
X109449686Y-127031711D01*
X109605264Y-126876133D01*
X109977924Y-127248793D01*
X109977924Y-127248793D01*
G37*
G36*
X110331478Y-126895240D02*
X110175900Y-127050818D01*
X109803240Y-126678158D01*
X109958818Y-126522580D01*
X110331478Y-126895240D01*
X110331478Y-126895240D01*
G37*
G36*
X110685031Y-126541686D02*
X110529453Y-126697264D01*
X110156793Y-126324604D01*
X110312371Y-126169026D01*
X110685031Y-126541686D01*
X110685031Y-126541686D01*
G37*
G36*
X111038585Y-126188133D02*
X110883007Y-126343711D01*
X110510347Y-125971051D01*
X110665925Y-125815473D01*
X111038585Y-126188133D01*
X111038585Y-126188133D01*
G37*
G36*
X111392138Y-125834579D02*
X111236560Y-125990157D01*
X110863900Y-125617497D01*
X111019478Y-125461919D01*
X111392138Y-125834579D01*
X111392138Y-125834579D01*
G37*
G36*
X111745691Y-125481026D02*
X111590113Y-125636604D01*
X111217453Y-125263944D01*
X111373031Y-125108366D01*
X111745691Y-125481026D01*
X111745691Y-125481026D01*
G37*
G36*
X112099245Y-125127473D02*
X111943667Y-125283051D01*
X111571007Y-124910391D01*
X111726585Y-124754813D01*
X112099245Y-125127473D01*
X112099245Y-125127473D01*
G37*
G36*
X112452798Y-124773919D02*
X112297220Y-124929497D01*
X111924560Y-124556837D01*
X112080138Y-124401259D01*
X112452798Y-124773919D01*
X112452798Y-124773919D01*
G37*
G36*
X112806352Y-124420366D02*
X112650774Y-124575944D01*
X112278114Y-124203284D01*
X112433692Y-124047706D01*
X112806352Y-124420366D01*
X112806352Y-124420366D01*
G37*
G36*
X106063028Y-130072624D02*
X105928663Y-130206989D01*
X105645806Y-129924132D01*
X105780171Y-129789767D01*
X106063028Y-130072624D01*
X106063028Y-130072624D01*
G37*
G36*
X106461482Y-129742759D02*
X106305904Y-129898337D01*
X105933244Y-129525677D01*
X106088822Y-129370099D01*
X106461482Y-129742759D01*
X106461482Y-129742759D01*
G37*
G36*
X106815036Y-129389205D02*
X106659458Y-129544783D01*
X106286798Y-129172123D01*
X106442376Y-129016545D01*
X106815036Y-129389205D01*
X106815036Y-129389205D01*
G37*
G36*
X107168589Y-129035652D02*
X107013011Y-129191230D01*
X106640351Y-128818570D01*
X106795929Y-128662992D01*
X107168589Y-129035652D01*
X107168589Y-129035652D01*
G37*
G36*
X107522143Y-128682098D02*
X107366565Y-128837676D01*
X106993905Y-128465016D01*
X107149483Y-128309438D01*
X107522143Y-128682098D01*
X107522143Y-128682098D01*
G37*
G36*
X107875696Y-128328545D02*
X107720118Y-128484123D01*
X107347458Y-128111463D01*
X107503036Y-127955885D01*
X107875696Y-128328545D01*
X107875696Y-128328545D01*
G37*
G36*
X108229249Y-127974992D02*
X108073671Y-128130570D01*
X107701011Y-127757910D01*
X107856589Y-127602332D01*
X108229249Y-127974992D01*
X108229249Y-127974992D01*
G37*
G36*
X108582803Y-127621438D02*
X108427225Y-127777016D01*
X108054565Y-127404356D01*
X108210143Y-127248778D01*
X108582803Y-127621438D01*
X108582803Y-127621438D01*
G37*
G36*
X108936356Y-127267885D02*
X108780778Y-127423463D01*
X108408118Y-127050803D01*
X108563696Y-126895225D01*
X108936356Y-127267885D01*
X108936356Y-127267885D01*
G37*
G36*
X109289910Y-126914332D02*
X109134332Y-127069910D01*
X108761672Y-126697250D01*
X108917250Y-126541672D01*
X109289910Y-126914332D01*
X109289910Y-126914332D01*
G37*
G36*
X109643463Y-126560778D02*
X109487885Y-126716356D01*
X109115225Y-126343696D01*
X109270803Y-126188118D01*
X109643463Y-126560778D01*
X109643463Y-126560778D01*
G37*
G36*
X109997016Y-126207225D02*
X109841438Y-126362803D01*
X109468778Y-125990143D01*
X109624356Y-125834565D01*
X109997016Y-126207225D01*
X109997016Y-126207225D01*
G37*
G36*
X110350570Y-125853671D02*
X110194992Y-126009249D01*
X109822332Y-125636589D01*
X109977910Y-125481011D01*
X110350570Y-125853671D01*
X110350570Y-125853671D01*
G37*
G36*
X110704123Y-125500118D02*
X110548545Y-125655696D01*
X110175885Y-125283036D01*
X110331463Y-125127458D01*
X110704123Y-125500118D01*
X110704123Y-125500118D01*
G37*
G36*
X111057676Y-125146565D02*
X110902098Y-125302143D01*
X110529438Y-124929483D01*
X110685016Y-124773905D01*
X111057676Y-125146565D01*
X111057676Y-125146565D01*
G37*
G36*
X111411230Y-124793011D02*
X111255652Y-124948589D01*
X110882992Y-124575929D01*
X111038570Y-124420351D01*
X111411230Y-124793011D01*
X111411230Y-124793011D01*
G37*
G36*
X111764783Y-124439458D02*
X111609205Y-124595036D01*
X111236545Y-124222376D01*
X111392123Y-124066798D01*
X111764783Y-124439458D01*
X111764783Y-124439458D01*
G37*
G36*
X112118337Y-124085904D02*
X111962759Y-124241482D01*
X111590099Y-123868822D01*
X111745677Y-123713244D01*
X112118337Y-124085904D01*
X112118337Y-124085904D01*
G37*
G36*
X112470476Y-123730937D02*
X112314898Y-123886515D01*
X111966280Y-123537897D01*
X112121858Y-123382319D01*
X112470476Y-123730937D01*
X112470476Y-123730937D01*
G37*
G36*
X104552294Y-116166308D02*
X104396716Y-116321886D01*
X104024056Y-115949226D01*
X104179634Y-115793648D01*
X104552294Y-116166308D01*
X104552294Y-116166308D01*
G37*
G36*
X104198741Y-116519862D02*
X104043163Y-116675440D01*
X103670503Y-116302780D01*
X103826081Y-116147202D01*
X104198741Y-116519862D01*
X104198741Y-116519862D01*
G37*
G36*
X103845187Y-116873415D02*
X103689609Y-117028993D01*
X103316949Y-116656333D01*
X103472527Y-116500755D01*
X103845187Y-116873415D01*
X103845187Y-116873415D01*
G37*
G36*
X103491634Y-117226969D02*
X103336056Y-117382547D01*
X102963396Y-117009887D01*
X103118974Y-116854309D01*
X103491634Y-117226969D01*
X103491634Y-117226969D01*
G37*
G36*
X103138081Y-117580522D02*
X102982503Y-117736100D01*
X102609843Y-117363440D01*
X102765421Y-117207862D01*
X103138081Y-117580522D01*
X103138081Y-117580522D01*
G37*
G36*
X102784527Y-117934075D02*
X102628949Y-118089653D01*
X102256289Y-117716993D01*
X102411867Y-117561415D01*
X102784527Y-117934075D01*
X102784527Y-117934075D01*
G37*
G36*
X102430974Y-118287629D02*
X102275396Y-118443207D01*
X101902736Y-118070547D01*
X102058314Y-117914969D01*
X102430974Y-118287629D01*
X102430974Y-118287629D01*
G37*
G36*
X102077420Y-118641182D02*
X101921842Y-118796760D01*
X101549182Y-118424100D01*
X101704760Y-118268522D01*
X102077420Y-118641182D01*
X102077420Y-118641182D01*
G37*
G36*
X101723867Y-118994736D02*
X101568289Y-119150314D01*
X101195629Y-118777654D01*
X101351207Y-118622076D01*
X101723867Y-118994736D01*
X101723867Y-118994736D01*
G37*
G36*
X101370314Y-119348289D02*
X101214736Y-119503867D01*
X100842076Y-119131207D01*
X100997654Y-118975629D01*
X101370314Y-119348289D01*
X101370314Y-119348289D01*
G37*
G36*
X101016760Y-119701842D02*
X100861182Y-119857420D01*
X100488522Y-119484760D01*
X100644100Y-119329182D01*
X101016760Y-119701842D01*
X101016760Y-119701842D01*
G37*
G36*
X100663207Y-120055396D02*
X100507629Y-120210974D01*
X100134969Y-119838314D01*
X100290547Y-119682736D01*
X100663207Y-120055396D01*
X100663207Y-120055396D01*
G37*
G36*
X100309653Y-120408949D02*
X100154075Y-120564527D01*
X99781415Y-120191867D01*
X99936993Y-120036289D01*
X100309653Y-120408949D01*
X100309653Y-120408949D01*
G37*
G36*
X99956100Y-120762503D02*
X99800522Y-120918081D01*
X99427862Y-120545421D01*
X99583440Y-120389843D01*
X99956100Y-120762503D01*
X99956100Y-120762503D01*
G37*
G36*
X99602547Y-121116056D02*
X99446969Y-121271634D01*
X99074309Y-120898974D01*
X99229887Y-120743396D01*
X99602547Y-121116056D01*
X99602547Y-121116056D01*
G37*
G36*
X99248993Y-121469609D02*
X99093415Y-121625187D01*
X98720755Y-121252527D01*
X98876333Y-121096949D01*
X99248993Y-121469609D01*
X99248993Y-121469609D01*
G37*
G36*
X98895440Y-121823163D02*
X98739862Y-121978741D01*
X98367202Y-121606081D01*
X98522780Y-121450503D01*
X98895440Y-121823163D01*
X98895440Y-121823163D01*
G37*
G36*
X98541886Y-122176716D02*
X98386308Y-122332294D01*
X98013648Y-121959634D01*
X98169226Y-121804056D01*
X98541886Y-122176716D01*
X98541886Y-122176716D01*
G37*
G36*
X98188333Y-122530269D02*
X98032755Y-122685847D01*
X97660095Y-122313187D01*
X97815673Y-122157609D01*
X98188333Y-122530269D01*
X98188333Y-122530269D01*
G37*
G36*
X105217681Y-116478142D02*
X105062103Y-116633720D01*
X104713485Y-116285102D01*
X104869063Y-116129524D01*
X105217681Y-116478142D01*
X105217681Y-116478142D01*
G37*
G36*
X104886756Y-116854323D02*
X104731178Y-117009901D01*
X104358518Y-116637241D01*
X104514096Y-116481663D01*
X104886756Y-116854323D01*
X104886756Y-116854323D01*
G37*
G36*
X104533202Y-117207877D02*
X104377624Y-117363455D01*
X104004964Y-116990795D01*
X104160542Y-116835217D01*
X104533202Y-117207877D01*
X104533202Y-117207877D01*
G37*
G36*
X104179649Y-117561430D02*
X104024071Y-117717008D01*
X103651411Y-117344348D01*
X103806989Y-117188770D01*
X104179649Y-117561430D01*
X104179649Y-117561430D01*
G37*
G36*
X103826095Y-117914984D02*
X103670517Y-118070562D01*
X103297857Y-117697902D01*
X103453435Y-117542324D01*
X103826095Y-117914984D01*
X103826095Y-117914984D01*
G37*
G36*
X103472542Y-118268537D02*
X103316964Y-118424115D01*
X102944304Y-118051455D01*
X103099882Y-117895877D01*
X103472542Y-118268537D01*
X103472542Y-118268537D01*
G37*
G36*
X103118989Y-118622090D02*
X102963411Y-118777668D01*
X102590751Y-118405008D01*
X102746329Y-118249430D01*
X103118989Y-118622090D01*
X103118989Y-118622090D01*
G37*
G36*
X102765435Y-118975644D02*
X102609857Y-119131222D01*
X102237197Y-118758562D01*
X102392775Y-118602984D01*
X102765435Y-118975644D01*
X102765435Y-118975644D01*
G37*
G36*
X102411882Y-119329197D02*
X102256304Y-119484775D01*
X101883644Y-119112115D01*
X102039222Y-118956537D01*
X102411882Y-119329197D01*
X102411882Y-119329197D01*
G37*
G36*
X102058328Y-119682750D02*
X101902750Y-119838328D01*
X101530090Y-119465668D01*
X101685668Y-119310090D01*
X102058328Y-119682750D01*
X102058328Y-119682750D01*
G37*
G36*
X101704775Y-120036304D02*
X101549197Y-120191882D01*
X101176537Y-119819222D01*
X101332115Y-119663644D01*
X101704775Y-120036304D01*
X101704775Y-120036304D01*
G37*
G36*
X101351222Y-120389857D02*
X101195644Y-120545435D01*
X100822984Y-120172775D01*
X100978562Y-120017197D01*
X101351222Y-120389857D01*
X101351222Y-120389857D01*
G37*
G36*
X100997668Y-120743411D02*
X100842090Y-120898989D01*
X100469430Y-120526329D01*
X100625008Y-120370751D01*
X100997668Y-120743411D01*
X100997668Y-120743411D01*
G37*
G36*
X100644115Y-121096964D02*
X100488537Y-121252542D01*
X100115877Y-120879882D01*
X100271455Y-120724304D01*
X100644115Y-121096964D01*
X100644115Y-121096964D01*
G37*
G36*
X100290562Y-121450517D02*
X100134984Y-121606095D01*
X99762324Y-121233435D01*
X99917902Y-121077857D01*
X100290562Y-121450517D01*
X100290562Y-121450517D01*
G37*
G36*
X99937008Y-121804071D02*
X99781430Y-121959649D01*
X99408770Y-121586989D01*
X99564348Y-121431411D01*
X99937008Y-121804071D01*
X99937008Y-121804071D01*
G37*
G36*
X99583455Y-122157624D02*
X99427877Y-122313202D01*
X99055217Y-121940542D01*
X99210795Y-121784964D01*
X99583455Y-122157624D01*
X99583455Y-122157624D01*
G37*
G36*
X99229901Y-122511178D02*
X99074323Y-122666756D01*
X98701663Y-122294096D01*
X98857241Y-122138518D01*
X99229901Y-122511178D01*
X99229901Y-122511178D01*
G37*
G36*
X112806352Y-121959634D02*
X112433692Y-122332294D01*
X112278114Y-122176716D01*
X112650774Y-121804056D01*
X112806352Y-121959634D01*
X112806352Y-121959634D01*
G37*
G36*
X112452798Y-121606081D02*
X112080138Y-121978741D01*
X111924560Y-121823163D01*
X112297220Y-121450503D01*
X112452798Y-121606081D01*
X112452798Y-121606081D01*
G37*
G36*
X112099245Y-121252527D02*
X111726585Y-121625187D01*
X111571007Y-121469609D01*
X111943667Y-121096949D01*
X112099245Y-121252527D01*
X112099245Y-121252527D01*
G37*
G36*
X111745691Y-120898974D02*
X111373031Y-121271634D01*
X111217453Y-121116056D01*
X111590113Y-120743396D01*
X111745691Y-120898974D01*
X111745691Y-120898974D01*
G37*
G36*
X111392138Y-120545421D02*
X111019478Y-120918081D01*
X110863900Y-120762503D01*
X111236560Y-120389843D01*
X111392138Y-120545421D01*
X111392138Y-120545421D01*
G37*
G36*
X111038585Y-120191867D02*
X110665925Y-120564527D01*
X110510347Y-120408949D01*
X110883007Y-120036289D01*
X111038585Y-120191867D01*
X111038585Y-120191867D01*
G37*
G36*
X110685031Y-119838314D02*
X110312371Y-120210974D01*
X110156793Y-120055396D01*
X110529453Y-119682736D01*
X110685031Y-119838314D01*
X110685031Y-119838314D01*
G37*
G36*
X110331478Y-119484760D02*
X109958818Y-119857420D01*
X109803240Y-119701842D01*
X110175900Y-119329182D01*
X110331478Y-119484760D01*
X110331478Y-119484760D01*
G37*
G36*
X109977924Y-119131207D02*
X109605264Y-119503867D01*
X109449686Y-119348289D01*
X109822346Y-118975629D01*
X109977924Y-119131207D01*
X109977924Y-119131207D01*
G37*
G36*
X109624371Y-118777654D02*
X109251711Y-119150314D01*
X109096133Y-118994736D01*
X109468793Y-118622076D01*
X109624371Y-118777654D01*
X109624371Y-118777654D01*
G37*
G36*
X109270818Y-118424100D02*
X108898158Y-118796760D01*
X108742580Y-118641182D01*
X109115240Y-118268522D01*
X109270818Y-118424100D01*
X109270818Y-118424100D01*
G37*
G36*
X108917264Y-118070547D02*
X108544604Y-118443207D01*
X108389026Y-118287629D01*
X108761686Y-117914969D01*
X108917264Y-118070547D01*
X108917264Y-118070547D01*
G37*
G36*
X108563711Y-117716993D02*
X108191051Y-118089653D01*
X108035473Y-117934075D01*
X108408133Y-117561415D01*
X108563711Y-117716993D01*
X108563711Y-117716993D01*
G37*
G36*
X108210157Y-117363440D02*
X107837497Y-117736100D01*
X107681919Y-117580522D01*
X108054579Y-117207862D01*
X108210157Y-117363440D01*
X108210157Y-117363440D01*
G37*
G36*
X107856604Y-117009887D02*
X107483944Y-117382547D01*
X107328366Y-117226969D01*
X107701026Y-116854309D01*
X107856604Y-117009887D01*
X107856604Y-117009887D01*
G37*
G36*
X107503051Y-116656333D02*
X107130391Y-117028993D01*
X106974813Y-116873415D01*
X107347473Y-116500755D01*
X107503051Y-116656333D01*
X107503051Y-116656333D01*
G37*
G36*
X107149497Y-116302780D02*
X106776837Y-116675440D01*
X106621259Y-116519862D01*
X106993919Y-116147202D01*
X107149497Y-116302780D01*
X107149497Y-116302780D01*
G37*
G36*
X106795944Y-115949226D02*
X106423284Y-116321886D01*
X106267706Y-116166308D01*
X106640366Y-115793648D01*
X106795944Y-115949226D01*
X106795944Y-115949226D01*
G37*
G36*
X112470476Y-122649063D02*
X112121858Y-122997681D01*
X111966280Y-122842103D01*
X112314898Y-122493485D01*
X112470476Y-122649063D01*
X112470476Y-122649063D01*
G37*
G36*
X112118337Y-122294096D02*
X111745677Y-122666756D01*
X111590099Y-122511178D01*
X111962759Y-122138518D01*
X112118337Y-122294096D01*
X112118337Y-122294096D01*
G37*
G36*
X111764783Y-121940542D02*
X111392123Y-122313202D01*
X111236545Y-122157624D01*
X111609205Y-121784964D01*
X111764783Y-121940542D01*
X111764783Y-121940542D01*
G37*
G36*
X111411230Y-121586989D02*
X111038570Y-121959649D01*
X110882992Y-121804071D01*
X111255652Y-121431411D01*
X111411230Y-121586989D01*
X111411230Y-121586989D01*
G37*
G36*
X111057676Y-121233435D02*
X110685016Y-121606095D01*
X110529438Y-121450517D01*
X110902098Y-121077857D01*
X111057676Y-121233435D01*
X111057676Y-121233435D01*
G37*
G36*
X110704123Y-120879882D02*
X110331463Y-121252542D01*
X110175885Y-121096964D01*
X110548545Y-120724304D01*
X110704123Y-120879882D01*
X110704123Y-120879882D01*
G37*
G36*
X110350570Y-120526329D02*
X109977910Y-120898989D01*
X109822332Y-120743411D01*
X110194992Y-120370751D01*
X110350570Y-120526329D01*
X110350570Y-120526329D01*
G37*
G36*
X109997016Y-120172775D02*
X109624356Y-120545435D01*
X109468778Y-120389857D01*
X109841438Y-120017197D01*
X109997016Y-120172775D01*
X109997016Y-120172775D01*
G37*
G36*
X109643463Y-119819222D02*
X109270803Y-120191882D01*
X109115225Y-120036304D01*
X109487885Y-119663644D01*
X109643463Y-119819222D01*
X109643463Y-119819222D01*
G37*
G36*
X109289910Y-119465668D02*
X108917250Y-119838328D01*
X108761672Y-119682750D01*
X109134332Y-119310090D01*
X109289910Y-119465668D01*
X109289910Y-119465668D01*
G37*
G36*
X108936356Y-119112115D02*
X108563696Y-119484775D01*
X108408118Y-119329197D01*
X108780778Y-118956537D01*
X108936356Y-119112115D01*
X108936356Y-119112115D01*
G37*
G36*
X108582803Y-118758562D02*
X108210143Y-119131222D01*
X108054565Y-118975644D01*
X108427225Y-118602984D01*
X108582803Y-118758562D01*
X108582803Y-118758562D01*
G37*
G36*
X108229249Y-118405008D02*
X107856589Y-118777668D01*
X107701011Y-118622090D01*
X108073671Y-118249430D01*
X108229249Y-118405008D01*
X108229249Y-118405008D01*
G37*
G36*
X107875696Y-118051455D02*
X107503036Y-118424115D01*
X107347458Y-118268537D01*
X107720118Y-117895877D01*
X107875696Y-118051455D01*
X107875696Y-118051455D01*
G37*
G36*
X107522143Y-117697902D02*
X107149483Y-118070562D01*
X106993905Y-117914984D01*
X107366565Y-117542324D01*
X107522143Y-117697902D01*
X107522143Y-117697902D01*
G37*
G36*
X107168589Y-117344348D02*
X106795929Y-117717008D01*
X106640351Y-117561430D01*
X107013011Y-117188770D01*
X107168589Y-117344348D01*
X107168589Y-117344348D01*
G37*
G36*
X106815036Y-116990795D02*
X106442376Y-117363455D01*
X106286798Y-117207877D01*
X106659458Y-116835217D01*
X106815036Y-116990795D01*
X106815036Y-116990795D01*
G37*
G36*
X106461482Y-116637241D02*
X106088822Y-117009901D01*
X105933244Y-116854323D01*
X106305904Y-116481663D01*
X106461482Y-116637241D01*
X106461482Y-116637241D01*
G37*
G36*
X106106515Y-116285102D02*
X105757897Y-116633720D01*
X105602319Y-116478142D01*
X105950937Y-116129524D01*
X106106515Y-116285102D01*
X106106515Y-116285102D01*
G37*
G36*
X98188333Y-123849731D02*
X97815673Y-124222391D01*
X97660095Y-124066813D01*
X98032755Y-123694153D01*
X98188333Y-123849731D01*
X98188333Y-123849731D01*
G37*
G36*
X98541886Y-124203284D02*
X98169226Y-124575944D01*
X98013648Y-124420366D01*
X98386308Y-124047706D01*
X98541886Y-124203284D01*
X98541886Y-124203284D01*
G37*
G36*
X98895440Y-124556837D02*
X98522780Y-124929497D01*
X98367202Y-124773919D01*
X98739862Y-124401259D01*
X98895440Y-124556837D01*
X98895440Y-124556837D01*
G37*
G36*
X99248993Y-124910391D02*
X98876333Y-125283051D01*
X98720755Y-125127473D01*
X99093415Y-124754813D01*
X99248993Y-124910391D01*
X99248993Y-124910391D01*
G37*
G36*
X99602547Y-125263944D02*
X99229887Y-125636604D01*
X99074309Y-125481026D01*
X99446969Y-125108366D01*
X99602547Y-125263944D01*
X99602547Y-125263944D01*
G37*
G36*
X99956100Y-125617497D02*
X99583440Y-125990157D01*
X99427862Y-125834579D01*
X99800522Y-125461919D01*
X99956100Y-125617497D01*
X99956100Y-125617497D01*
G37*
G36*
X100309653Y-125971051D02*
X99936993Y-126343711D01*
X99781415Y-126188133D01*
X100154075Y-125815473D01*
X100309653Y-125971051D01*
X100309653Y-125971051D01*
G37*
G36*
X100663207Y-126324604D02*
X100290547Y-126697264D01*
X100134969Y-126541686D01*
X100507629Y-126169026D01*
X100663207Y-126324604D01*
X100663207Y-126324604D01*
G37*
G36*
X101016760Y-126678158D02*
X100644100Y-127050818D01*
X100488522Y-126895240D01*
X100861182Y-126522580D01*
X101016760Y-126678158D01*
X101016760Y-126678158D01*
G37*
G36*
X101370314Y-127031711D02*
X100997654Y-127404371D01*
X100842076Y-127248793D01*
X101214736Y-126876133D01*
X101370314Y-127031711D01*
X101370314Y-127031711D01*
G37*
G36*
X101723867Y-127385264D02*
X101351207Y-127757924D01*
X101195629Y-127602346D01*
X101568289Y-127229686D01*
X101723867Y-127385264D01*
X101723867Y-127385264D01*
G37*
G36*
X102077420Y-127738818D02*
X101704760Y-128111478D01*
X101549182Y-127955900D01*
X101921842Y-127583240D01*
X102077420Y-127738818D01*
X102077420Y-127738818D01*
G37*
G36*
X102430974Y-128092371D02*
X102058314Y-128465031D01*
X101902736Y-128309453D01*
X102275396Y-127936793D01*
X102430974Y-128092371D01*
X102430974Y-128092371D01*
G37*
G36*
X102784527Y-128445925D02*
X102411867Y-128818585D01*
X102256289Y-128663007D01*
X102628949Y-128290347D01*
X102784527Y-128445925D01*
X102784527Y-128445925D01*
G37*
G36*
X103138081Y-128799478D02*
X102765421Y-129172138D01*
X102609843Y-129016560D01*
X102982503Y-128643900D01*
X103138081Y-128799478D01*
X103138081Y-128799478D01*
G37*
G36*
X103491634Y-129153031D02*
X103118974Y-129525691D01*
X102963396Y-129370113D01*
X103336056Y-128997453D01*
X103491634Y-129153031D01*
X103491634Y-129153031D01*
G37*
G36*
X103845187Y-129506585D02*
X103472527Y-129879245D01*
X103316949Y-129723667D01*
X103689609Y-129351007D01*
X103845187Y-129506585D01*
X103845187Y-129506585D01*
G37*
G36*
X104198741Y-129860138D02*
X103826081Y-130232798D01*
X103670503Y-130077220D01*
X104043163Y-129704560D01*
X104198741Y-129860138D01*
X104198741Y-129860138D01*
G37*
G36*
X104552294Y-130213692D02*
X104179634Y-130586352D01*
X104024056Y-130430774D01*
X104396716Y-130058114D01*
X104552294Y-130213692D01*
X104552294Y-130213692D01*
G37*
G36*
X99229901Y-123868822D02*
X98857241Y-124241482D01*
X98701663Y-124085904D01*
X99074323Y-123713244D01*
X99229901Y-123868822D01*
X99229901Y-123868822D01*
G37*
G36*
X99583455Y-124222376D02*
X99210795Y-124595036D01*
X99055217Y-124439458D01*
X99427877Y-124066798D01*
X99583455Y-124222376D01*
X99583455Y-124222376D01*
G37*
G36*
X99937008Y-124575929D02*
X99564348Y-124948589D01*
X99408770Y-124793011D01*
X99781430Y-124420351D01*
X99937008Y-124575929D01*
X99937008Y-124575929D01*
G37*
G36*
X100290562Y-124929483D02*
X99917902Y-125302143D01*
X99762324Y-125146565D01*
X100134984Y-124773905D01*
X100290562Y-124929483D01*
X100290562Y-124929483D01*
G37*
G36*
X100644115Y-125283036D02*
X100271455Y-125655696D01*
X100115877Y-125500118D01*
X100488537Y-125127458D01*
X100644115Y-125283036D01*
X100644115Y-125283036D01*
G37*
G36*
X100997668Y-125636589D02*
X100625008Y-126009249D01*
X100469430Y-125853671D01*
X100842090Y-125481011D01*
X100997668Y-125636589D01*
X100997668Y-125636589D01*
G37*
G36*
X101351222Y-125990143D02*
X100978562Y-126362803D01*
X100822984Y-126207225D01*
X101195644Y-125834565D01*
X101351222Y-125990143D01*
X101351222Y-125990143D01*
G37*
G36*
X101704775Y-126343696D02*
X101332115Y-126716356D01*
X101176537Y-126560778D01*
X101549197Y-126188118D01*
X101704775Y-126343696D01*
X101704775Y-126343696D01*
G37*
G36*
X102058328Y-126697250D02*
X101685668Y-127069910D01*
X101530090Y-126914332D01*
X101902750Y-126541672D01*
X102058328Y-126697250D01*
X102058328Y-126697250D01*
G37*
G36*
X102411882Y-127050803D02*
X102039222Y-127423463D01*
X101883644Y-127267885D01*
X102256304Y-126895225D01*
X102411882Y-127050803D01*
X102411882Y-127050803D01*
G37*
G36*
X102765435Y-127404356D02*
X102392775Y-127777016D01*
X102237197Y-127621438D01*
X102609857Y-127248778D01*
X102765435Y-127404356D01*
X102765435Y-127404356D01*
G37*
G36*
X103118989Y-127757910D02*
X102746329Y-128130570D01*
X102590751Y-127974992D01*
X102963411Y-127602332D01*
X103118989Y-127757910D01*
X103118989Y-127757910D01*
G37*
G36*
X103472542Y-128111463D02*
X103099882Y-128484123D01*
X102944304Y-128328545D01*
X103316964Y-127955885D01*
X103472542Y-128111463D01*
X103472542Y-128111463D01*
G37*
G36*
X103826095Y-128465016D02*
X103453435Y-128837676D01*
X103297857Y-128682098D01*
X103670517Y-128309438D01*
X103826095Y-128465016D01*
X103826095Y-128465016D01*
G37*
G36*
X104179649Y-128818570D02*
X103806989Y-129191230D01*
X103651411Y-129035652D01*
X104024071Y-128662992D01*
X104179649Y-128818570D01*
X104179649Y-128818570D01*
G37*
G36*
X104533202Y-129172123D02*
X104160542Y-129544783D01*
X104004964Y-129389205D01*
X104377624Y-129016545D01*
X104533202Y-129172123D01*
X104533202Y-129172123D01*
G37*
G36*
X104886851Y-129525582D02*
X104514001Y-129898432D01*
X104358423Y-129742854D01*
X104731273Y-129370004D01*
X104886851Y-129525582D01*
X104886851Y-129525582D01*
G37*
G36*
X105174194Y-129924132D02*
X104891337Y-130206989D01*
X104756972Y-130072624D01*
X105039829Y-129789767D01*
X105174194Y-129924132D01*
X105174194Y-129924132D01*
G37*
G36*
X109086955Y-123190000D02*
X107955584Y-124321371D01*
X106824213Y-123190000D01*
X107955584Y-122058629D01*
X109086955Y-123190000D01*
X109086955Y-123190000D01*
G37*
G36*
X107814163Y-124462792D02*
X106682792Y-125594163D01*
X105551421Y-124462792D01*
X106682792Y-123331421D01*
X107814163Y-124462792D01*
X107814163Y-124462792D01*
G37*
G36*
X106541371Y-123190000D02*
X105410000Y-124321371D01*
X104278629Y-123190000D01*
X105410000Y-122058629D01*
X106541371Y-123190000D01*
X106541371Y-123190000D01*
G37*
G36*
X107814163Y-121917208D02*
X106682792Y-123048579D01*
X105551421Y-121917208D01*
X106682792Y-120785837D01*
X107814163Y-121917208D01*
X107814163Y-121917208D01*
G37*
G36*
X106541371Y-125735584D02*
X105410000Y-126866955D01*
X104278629Y-125735584D01*
X105410000Y-124604213D01*
X106541371Y-125735584D01*
X106541371Y-125735584D01*
G37*
G36*
X105268579Y-124462792D02*
X104137208Y-125594163D01*
X103005837Y-124462792D01*
X104137208Y-123331421D01*
X105268579Y-124462792D01*
X105268579Y-124462792D01*
G37*
G36*
X103995787Y-123190000D02*
X102864416Y-124321371D01*
X101733045Y-123190000D01*
X102864416Y-122058629D01*
X103995787Y-123190000D01*
X103995787Y-123190000D01*
G37*
G36*
X105268579Y-121917208D02*
X104137208Y-123048579D01*
X103005837Y-121917208D01*
X104137208Y-120785837D01*
X105268579Y-121917208D01*
X105268579Y-121917208D01*
G37*
G36*
X106541371Y-120644416D02*
X105410000Y-121775787D01*
X104278629Y-120644416D01*
X105410000Y-119513045D01*
X106541371Y-120644416D01*
X106541371Y-120644416D01*
G37*
D21*
X81534000Y-95059500D03*
X81534000Y-96964500D03*
X84074000Y-95059500D03*
X81534000Y-96012000D03*
X84074000Y-96964500D03*
D22*
X83756500Y-123698000D03*
X85661500Y-123698000D03*
X83756500Y-121158000D03*
X84709000Y-123698000D03*
X85661500Y-121158000D03*
D21*
X84201000Y-103695500D03*
X84201000Y-101790500D03*
X81661000Y-103695500D03*
X84201000Y-102743000D03*
X81661000Y-101790500D03*
X95885000Y-114109500D03*
X95885000Y-112204500D03*
X93345000Y-114109500D03*
X95885000Y-113157000D03*
X93345000Y-112204500D03*
X120904000Y-108521500D03*
X120904000Y-106616500D03*
X118364000Y-108521500D03*
X120904000Y-107569000D03*
X118364000Y-106616500D03*
D10*
G36*
X81889628Y-134109730D02*
X81713615Y-133933717D01*
X82137484Y-133509848D01*
X82313497Y-133685861D01*
X81889628Y-134109730D01*
X81889628Y-134109730D01*
G37*
G36*
X82243450Y-134463552D02*
X82067437Y-134287539D01*
X82491306Y-133863670D01*
X82667319Y-134039683D01*
X82243450Y-134463552D01*
X82243450Y-134463552D01*
G37*
G36*
X82597272Y-134817374D02*
X82421259Y-134641361D01*
X82845128Y-134217492D01*
X83021141Y-134393505D01*
X82597272Y-134817374D01*
X82597272Y-134817374D01*
G37*
G36*
X82951094Y-135171196D02*
X82775081Y-134995183D01*
X83198950Y-134571314D01*
X83374963Y-134747327D01*
X82951094Y-135171196D01*
X82951094Y-135171196D01*
G37*
G36*
X83303120Y-135523222D02*
X83127107Y-135347209D01*
X83550976Y-134923340D01*
X83726989Y-135099353D01*
X83303120Y-135523222D01*
X83303120Y-135523222D01*
G37*
G36*
X83656942Y-135877045D02*
X83480929Y-135701032D01*
X83904798Y-135277163D01*
X84080811Y-135453176D01*
X83656942Y-135877045D01*
X83656942Y-135877045D01*
G37*
G36*
X84010765Y-136230867D02*
X83834752Y-136054854D01*
X84258621Y-135630985D01*
X84434634Y-135806998D01*
X84010765Y-136230867D01*
X84010765Y-136230867D01*
G37*
G36*
X84364587Y-136584689D02*
X84188574Y-136408676D01*
X84612443Y-135984807D01*
X84788456Y-136160820D01*
X84364587Y-136584689D01*
X84364587Y-136584689D01*
G37*
G36*
X84718409Y-136938511D02*
X84542396Y-136762498D01*
X84966265Y-136338629D01*
X85142278Y-136514642D01*
X84718409Y-136938511D01*
X84718409Y-136938511D01*
G37*
G36*
X85072231Y-137292333D02*
X84896218Y-137116320D01*
X85320087Y-136692451D01*
X85496100Y-136868464D01*
X85072231Y-137292333D01*
X85072231Y-137292333D01*
G37*
G36*
X85426053Y-137646155D02*
X85250040Y-137470142D01*
X85673909Y-137046273D01*
X85849922Y-137222286D01*
X85426053Y-137646155D01*
X85426053Y-137646155D01*
G37*
G36*
X85778079Y-137998181D02*
X85602066Y-137822168D01*
X86025935Y-137398299D01*
X86201948Y-137574312D01*
X85778079Y-137998181D01*
X85778079Y-137998181D01*
G37*
G36*
X87753735Y-130361371D02*
X87577722Y-130185358D01*
X88001591Y-129761489D01*
X88177604Y-129937502D01*
X87753735Y-130361371D01*
X87753735Y-130361371D01*
G37*
G36*
X87401709Y-130009345D02*
X87225696Y-129833332D01*
X87649565Y-129409463D01*
X87825578Y-129585476D01*
X87401709Y-130009345D01*
X87401709Y-130009345D01*
G37*
G36*
X87047887Y-129655523D02*
X86871874Y-129479510D01*
X87295743Y-129055641D01*
X87471756Y-129231654D01*
X87047887Y-129655523D01*
X87047887Y-129655523D01*
G37*
G36*
X86694065Y-129301701D02*
X86518052Y-129125688D01*
X86941921Y-128701819D01*
X87117934Y-128877832D01*
X86694065Y-129301701D01*
X86694065Y-129301701D01*
G37*
G36*
X88359005Y-136584689D02*
X87935136Y-136160820D01*
X88111149Y-135984807D01*
X88535018Y-136408676D01*
X88359005Y-136584689D01*
X88359005Y-136584689D01*
G37*
G36*
X88711314Y-136230881D02*
X88287445Y-135807012D01*
X88463458Y-135630999D01*
X88887327Y-136054868D01*
X88711314Y-136230881D01*
X88711314Y-136230881D01*
G37*
G36*
X89064854Y-135878841D02*
X88640985Y-135454972D01*
X88816998Y-135278959D01*
X89240867Y-135702828D01*
X89064854Y-135878841D01*
X89064854Y-135878841D01*
G37*
G36*
X89418676Y-135525018D02*
X88994807Y-135101149D01*
X89170820Y-134925136D01*
X89594689Y-135349005D01*
X89418676Y-135525018D01*
X89418676Y-135525018D01*
G37*
G36*
X89772498Y-135171196D02*
X89348629Y-134747327D01*
X89524642Y-134571314D01*
X89948511Y-134995183D01*
X89772498Y-135171196D01*
X89772498Y-135171196D01*
G37*
G36*
X90126320Y-134817374D02*
X89702451Y-134393505D01*
X89878464Y-134217492D01*
X90302333Y-134641361D01*
X90126320Y-134817374D01*
X90126320Y-134817374D01*
G37*
G36*
X90480142Y-134463552D02*
X90056273Y-134039683D01*
X90232286Y-133863670D01*
X90656155Y-134287539D01*
X90480142Y-134463552D01*
X90480142Y-134463552D01*
G37*
G36*
X90833964Y-134109730D02*
X90410095Y-133685861D01*
X90586108Y-133509848D01*
X91009977Y-133933717D01*
X90833964Y-134109730D01*
X90833964Y-134109730D01*
G37*
G36*
X86945513Y-137998181D02*
X86521644Y-137574312D01*
X86697657Y-137398299D01*
X87121526Y-137822168D01*
X86945513Y-137998181D01*
X86945513Y-137998181D01*
G37*
G36*
X87299335Y-137644359D02*
X86875466Y-137220490D01*
X87051479Y-137044477D01*
X87475348Y-137468346D01*
X87299335Y-137644359D01*
X87299335Y-137644359D01*
G37*
G36*
X87653157Y-137290537D02*
X87229288Y-136866668D01*
X87405301Y-136690655D01*
X87829170Y-137114524D01*
X87653157Y-137290537D01*
X87653157Y-137290537D01*
G37*
G36*
X88005183Y-136938511D02*
X87581314Y-136514642D01*
X87757327Y-136338629D01*
X88181196Y-136762498D01*
X88005183Y-136938511D01*
X88005183Y-136938511D01*
G37*
G36*
X90582516Y-133190152D02*
X90406503Y-133014139D01*
X90830372Y-132590270D01*
X91006385Y-132766283D01*
X90582516Y-133190152D01*
X90582516Y-133190152D01*
G37*
G36*
X90230490Y-132834534D02*
X90054477Y-132658521D01*
X90478346Y-132234652D01*
X90654359Y-132410665D01*
X90230490Y-132834534D01*
X90230490Y-132834534D01*
G37*
G36*
X89878464Y-132482508D02*
X89702451Y-132306495D01*
X90126320Y-131882626D01*
X90302333Y-132058639D01*
X89878464Y-132482508D01*
X89878464Y-132482508D01*
G37*
G36*
X89524642Y-132128686D02*
X89348629Y-131952673D01*
X89772498Y-131528804D01*
X89948511Y-131704817D01*
X89524642Y-132128686D01*
X89524642Y-132128686D01*
G37*
G36*
X89170820Y-131774864D02*
X88994807Y-131598851D01*
X89418676Y-131174982D01*
X89594689Y-131350995D01*
X89170820Y-131774864D01*
X89170820Y-131774864D01*
G37*
G36*
X88816998Y-131421041D02*
X88640985Y-131245028D01*
X89064854Y-130821159D01*
X89240867Y-130997172D01*
X88816998Y-131421041D01*
X88816998Y-131421041D01*
G37*
G36*
X88463176Y-131067219D02*
X88287163Y-130891206D01*
X88711032Y-130467337D01*
X88887045Y-130643350D01*
X88463176Y-131067219D01*
X88463176Y-131067219D01*
G37*
G36*
X88109353Y-130713397D02*
X87933340Y-130537384D01*
X88357209Y-130113515D01*
X88533222Y-130289528D01*
X88109353Y-130713397D01*
X88109353Y-130713397D01*
G37*
G36*
X86025935Y-129301701D02*
X85602066Y-128877832D01*
X85778079Y-128701819D01*
X86201948Y-129125688D01*
X86025935Y-129301701D01*
X86025935Y-129301701D01*
G37*
G36*
X85672113Y-129655523D02*
X85248244Y-129231654D01*
X85424257Y-129055641D01*
X85848126Y-129479510D01*
X85672113Y-129655523D01*
X85672113Y-129655523D01*
G37*
G36*
X85318291Y-130009345D02*
X84894422Y-129585476D01*
X85070435Y-129409463D01*
X85494304Y-129833332D01*
X85318291Y-130009345D01*
X85318291Y-130009345D01*
G37*
G36*
X84966265Y-130361371D02*
X84542396Y-129937502D01*
X84718409Y-129761489D01*
X85142278Y-130185358D01*
X84966265Y-130361371D01*
X84966265Y-130361371D01*
G37*
G36*
X84612443Y-130715193D02*
X84188574Y-130291324D01*
X84364587Y-130115311D01*
X84788456Y-130539180D01*
X84612443Y-130715193D01*
X84612443Y-130715193D01*
G37*
G36*
X84258621Y-131069015D02*
X83834752Y-130645146D01*
X84010765Y-130469133D01*
X84434634Y-130893002D01*
X84258621Y-131069015D01*
X84258621Y-131069015D01*
G37*
G36*
X83904798Y-131422837D02*
X83480929Y-130998968D01*
X83656942Y-130822955D01*
X84080811Y-131246824D01*
X83904798Y-131422837D01*
X83904798Y-131422837D01*
G37*
G36*
X83550976Y-131776660D02*
X83127107Y-131352791D01*
X83303120Y-131176778D01*
X83726989Y-131600647D01*
X83550976Y-131776660D01*
X83550976Y-131776660D01*
G37*
G36*
X83197154Y-132130482D02*
X82773285Y-131706613D01*
X82949298Y-131530600D01*
X83373167Y-131954469D01*
X83197154Y-132130482D01*
X83197154Y-132130482D01*
G37*
G36*
X82843332Y-132484304D02*
X82419463Y-132060435D01*
X82595476Y-131884422D01*
X83019345Y-132308291D01*
X82843332Y-132484304D01*
X82843332Y-132484304D01*
G37*
G36*
X82491306Y-132836330D02*
X82067437Y-132412461D01*
X82243450Y-132236448D01*
X82667319Y-132660317D01*
X82491306Y-132836330D01*
X82491306Y-132836330D01*
G37*
G36*
X82137484Y-133190152D02*
X81713615Y-132766283D01*
X81889628Y-132590270D01*
X82313497Y-133014139D01*
X82137484Y-133190152D01*
X82137484Y-133190152D01*
G37*
G36*
X82718400Y-133350000D02*
X86360000Y-129708400D01*
X90001600Y-133350000D01*
X86360000Y-136991600D01*
X82718400Y-133350000D01*
X82718400Y-133350000D01*
G37*
G36*
X108633381Y-113265858D02*
X107714142Y-112346619D01*
X108209117Y-111851644D01*
X109128356Y-112770883D01*
X108633381Y-113265858D01*
X108633381Y-113265858D01*
G37*
G36*
X109976883Y-111922356D02*
X109057644Y-111003117D01*
X109552619Y-110508142D01*
X110471858Y-111427381D01*
X109976883Y-111922356D01*
X109976883Y-111922356D01*
G37*
D14*
X80429580Y-128380000D03*
X79530420Y-128380000D03*
X80444580Y-125755000D03*
X79545420Y-125755000D03*
D10*
G36*
X103540023Y-108704155D02*
X103116155Y-109128023D01*
X102834175Y-108846043D01*
X103258043Y-108422175D01*
X103540023Y-108704155D01*
X103540023Y-108704155D01*
G37*
G36*
X104175825Y-109339957D02*
X103751957Y-109763825D01*
X103469977Y-109481845D01*
X103893845Y-109057977D01*
X104175825Y-109339957D01*
X104175825Y-109339957D01*
G37*
D14*
X102293420Y-106807000D03*
X103192580Y-106807000D03*
D12*
X87061000Y-107442000D03*
X88961000Y-107442000D03*
D15*
X85979000Y-109542580D03*
X85979000Y-108643420D03*
D23*
X87660000Y-87665000D03*
X87010000Y-87665000D03*
X86360000Y-87665000D03*
X85710000Y-87665000D03*
X85060000Y-87665000D03*
D24*
X88310000Y-85090000D03*
X84410000Y-85090000D03*
D15*
X87884000Y-90365580D03*
X87884000Y-89466420D03*
D14*
X85460840Y-89662000D03*
X86360000Y-89662000D03*
X88079580Y-91440000D03*
X87180420Y-91440000D03*
D10*
G36*
X101183977Y-102877845D02*
X101607845Y-102453977D01*
X101889825Y-102735957D01*
X101465957Y-103159825D01*
X101183977Y-102877845D01*
X101183977Y-102877845D01*
G37*
G36*
X100548175Y-102242043D02*
X100972043Y-101818175D01*
X101254023Y-102100155D01*
X100830155Y-102524023D01*
X100548175Y-102242043D01*
X100548175Y-102242043D01*
G37*
D14*
X99382580Y-102870000D03*
X98483420Y-102870000D03*
X96832420Y-102870000D03*
X97731580Y-102870000D03*
D10*
G36*
X100111023Y-100957155D02*
X99687155Y-101381023D01*
X99405175Y-101099043D01*
X99829043Y-100675175D01*
X100111023Y-100957155D01*
X100111023Y-100957155D01*
G37*
G36*
X100746825Y-101592957D02*
X100322957Y-102016825D01*
X100040977Y-101734845D01*
X100464845Y-101310977D01*
X100746825Y-101592957D01*
X100746825Y-101592957D01*
G37*
D25*
G36*
X87439500Y-84645500D02*
X86995000Y-84645500D01*
X86970295Y-84650503D01*
X86949483Y-84664723D01*
X86935843Y-84685920D01*
X86931500Y-84709000D01*
X86931500Y-85471000D01*
X86936503Y-85495705D01*
X86950723Y-85516517D01*
X86971920Y-85530157D01*
X86995000Y-85534500D01*
X87439500Y-85534500D01*
X87439500Y-85661500D01*
X85280500Y-85661500D01*
X85280500Y-85534500D01*
X85725000Y-85534500D01*
X85749705Y-85529497D01*
X85770517Y-85515277D01*
X85784157Y-85494080D01*
X85788500Y-85471000D01*
X85788500Y-84709000D01*
X85783497Y-84684295D01*
X85769277Y-84663483D01*
X85748080Y-84649843D01*
X85725000Y-84645500D01*
X85280500Y-84645500D01*
X85280500Y-84518500D01*
X87439500Y-84518500D01*
X87439500Y-84645500D01*
X87439500Y-84645500D01*
G37*
X87439500Y-84645500D02*
X86995000Y-84645500D01*
X86970295Y-84650503D01*
X86949483Y-84664723D01*
X86935843Y-84685920D01*
X86931500Y-84709000D01*
X86931500Y-85471000D01*
X86936503Y-85495705D01*
X86950723Y-85516517D01*
X86971920Y-85530157D01*
X86995000Y-85534500D01*
X87439500Y-85534500D01*
X87439500Y-85661500D01*
X85280500Y-85661500D01*
X85280500Y-85534500D01*
X85725000Y-85534500D01*
X85749705Y-85529497D01*
X85770517Y-85515277D01*
X85784157Y-85494080D01*
X85788500Y-85471000D01*
X85788500Y-84709000D01*
X85783497Y-84684295D01*
X85769277Y-84663483D01*
X85748080Y-84649843D01*
X85725000Y-84645500D01*
X85280500Y-84645500D01*
X85280500Y-84518500D01*
X87439500Y-84518500D01*
X87439500Y-84645500D01*
M02*
