G04 #@! TF.FileFunction,Soldermask,Bot*
%FSLAX46Y46*%
G04 Gerber Fmt 4.6, Leading zero omitted, Abs format (unit mm)*
G04 Created by KiCad (PCBNEW 4.0.0-stable) date Sunday, December 27, 2015 'PMt' 01:34:37 PM*
%MOMM*%
G01*
G04 APERTURE LIST*
%ADD10C,0.100000*%
%ADD11C,1.652400*%
%ADD12C,3.152400*%
%ADD13R,0.751840X0.551180*%
%ADD14R,1.452400X0.852400*%
%ADD15R,0.551180X0.751840*%
%ADD16O,0.752400X1.052400*%
%ADD17R,4.952400X4.802400*%
%ADD18C,0.360000*%
%ADD19R,1.295400X0.787400*%
%ADD20R,0.852400X1.452400*%
%ADD21C,2.651760*%
%ADD22C,1.168400*%
%ADD23C,0.552400*%
%ADD24R,0.652400X1.252400*%
%ADD25R,1.152400X1.052400*%
%ADD26R,1.452400X0.802400*%
%ADD27R,2.552400X1.852400*%
%ADD28C,1.602400*%
%ADD29C,2.032000*%
%ADD30R,2.184400X1.879600*%
%ADD31O,2.184400X1.879600*%
%ADD32C,1.152400*%
%ADD33R,0.787400X1.295400*%
%ADD34R,0.952500X0.952500*%
%ADD35O,1.052400X1.452400*%
%ADD36C,1.052400*%
%ADD37C,2.152400*%
%ADD38C,3.402400*%
G04 APERTURE END LIST*
D10*
D11*
X104211000Y-98104000D03*
X101711000Y-98104000D03*
X99711000Y-98104000D03*
X97211000Y-98104000D03*
X104211000Y-95504000D03*
X101711000Y-95504000D03*
X99711000Y-95504000D03*
X97211000Y-95504000D03*
D12*
X107281000Y-98454000D03*
X107281000Y-92774000D03*
X94141000Y-98454000D03*
X94141000Y-92774000D03*
D13*
X125984000Y-96969580D03*
X125984000Y-96070420D03*
X119888000Y-90619580D03*
X119888000Y-89720420D03*
D14*
X103886000Y-90485000D03*
X103886000Y-88585000D03*
D13*
X114046000Y-110558580D03*
X114046000Y-109659420D03*
D15*
X114612420Y-106553000D03*
X115511580Y-106553000D03*
D16*
X99060000Y-142280000D03*
X97790000Y-142280000D03*
X96520000Y-142280000D03*
X95250000Y-142280000D03*
X95250000Y-134580000D03*
X96520000Y-134580000D03*
X97790000Y-134580000D03*
X99060000Y-134580000D03*
D17*
X97155000Y-138430000D03*
D13*
X101854000Y-106992420D03*
X101854000Y-107891580D03*
D18*
X127000000Y-136652000D03*
D13*
X106172000Y-132148580D03*
X106172000Y-131249420D03*
X106426000Y-125915420D03*
X106426000Y-126814580D03*
X106807000Y-129344420D03*
X106807000Y-130243580D03*
X105537000Y-125915420D03*
X105537000Y-126814580D03*
X105918000Y-129344420D03*
X105918000Y-130243580D03*
D19*
X104394000Y-126365000D03*
X104394000Y-124841000D03*
D13*
X106426000Y-123756420D03*
X106426000Y-124655580D03*
D19*
X104775000Y-130302000D03*
X104775000Y-131826000D03*
D15*
X112463580Y-124333000D03*
X111564420Y-124333000D03*
D13*
X101346000Y-131894580D03*
X101346000Y-130995420D03*
X101346000Y-128709420D03*
X101346000Y-129608580D03*
D10*
G36*
X109563621Y-123522619D02*
X108536619Y-124549621D01*
X107933881Y-123946883D01*
X108960883Y-122919881D01*
X109563621Y-123522619D01*
X109563621Y-123522619D01*
G37*
G36*
X108220119Y-122179117D02*
X107193117Y-123206119D01*
X106590379Y-122603381D01*
X107617381Y-121576379D01*
X108220119Y-122179117D01*
X108220119Y-122179117D01*
G37*
D15*
X110622080Y-127127000D03*
X109722920Y-127127000D03*
D13*
X108077000Y-131640580D03*
X108077000Y-130741420D03*
X103251000Y-125026420D03*
X103251000Y-125925580D03*
D15*
X104081580Y-120142000D03*
X103182420Y-120142000D03*
X114241580Y-123266200D03*
X113342420Y-123266200D03*
D10*
G36*
X105402155Y-122285214D02*
X105933786Y-122816845D01*
X105544043Y-123206588D01*
X105012412Y-122674957D01*
X105402155Y-122285214D01*
X105402155Y-122285214D01*
G37*
G36*
X106037957Y-121649412D02*
X106569588Y-122181043D01*
X106179845Y-122570786D01*
X105648214Y-122039155D01*
X106037957Y-121649412D01*
X106037957Y-121649412D01*
G37*
D13*
X105537000Y-115882420D03*
X105537000Y-116781580D03*
D20*
X101539000Y-122174000D03*
X103439000Y-122174000D03*
D13*
X101600000Y-118549420D03*
X101600000Y-119448580D03*
D19*
X105092500Y-118745000D03*
X105092500Y-120269000D03*
D10*
G36*
X104102621Y-128729619D02*
X103075619Y-129756621D01*
X102472881Y-129153883D01*
X103499883Y-128126881D01*
X104102621Y-128729619D01*
X104102621Y-128729619D01*
G37*
G36*
X102759119Y-127386117D02*
X101732117Y-128413119D01*
X101129379Y-127810381D01*
X102156381Y-126783379D01*
X102759119Y-127386117D01*
X102759119Y-127386117D01*
G37*
D15*
X105732580Y-127762000D03*
X104833420Y-127762000D03*
D13*
X100457000Y-123258580D03*
X100457000Y-122359420D03*
X102489000Y-117787420D03*
X102489000Y-118686580D03*
D10*
G36*
X109331214Y-130055845D02*
X109862845Y-129524214D01*
X110252588Y-129913957D01*
X109720957Y-130445588D01*
X109331214Y-130055845D01*
X109331214Y-130055845D01*
G37*
G36*
X108695412Y-129420043D02*
X109227043Y-128888412D01*
X109616786Y-129278155D01*
X109085155Y-129809786D01*
X108695412Y-129420043D01*
X108695412Y-129420043D01*
G37*
G36*
X109392786Y-122166155D02*
X108861155Y-122697786D01*
X108471412Y-122308043D01*
X109003043Y-121776412D01*
X109392786Y-122166155D01*
X109392786Y-122166155D01*
G37*
G36*
X110028588Y-122801957D02*
X109496957Y-123333588D01*
X109107214Y-122943845D01*
X109638845Y-122412214D01*
X110028588Y-122801957D01*
X110028588Y-122801957D01*
G37*
D13*
X104648000Y-115882420D03*
X104648000Y-116781580D03*
D15*
X102303580Y-123444000D03*
X101404420Y-123444000D03*
X102430580Y-124333000D03*
X101531420Y-124333000D03*
D13*
X94996000Y-120327420D03*
X94996000Y-121226580D03*
D14*
X96393000Y-120838000D03*
X96393000Y-118938000D03*
D15*
X83507580Y-133350000D03*
X82608420Y-133350000D03*
D13*
X86614000Y-129862580D03*
X86614000Y-128963420D03*
D15*
X81338420Y-136017000D03*
X82237580Y-136017000D03*
D20*
X83632000Y-131445000D03*
X85532000Y-131445000D03*
D13*
X125857000Y-120200420D03*
X125857000Y-121099580D03*
X125857000Y-126550420D03*
X125857000Y-127449580D03*
D15*
X115818920Y-118808500D03*
X116718080Y-118808500D03*
D13*
X125857000Y-124899420D03*
X125857000Y-125798580D03*
X125857000Y-121851420D03*
X125857000Y-122750580D03*
D15*
X115882420Y-125857000D03*
X116781580Y-125857000D03*
X115882420Y-124460000D03*
X116781580Y-124460000D03*
X115882420Y-122682000D03*
X116781580Y-122682000D03*
X121226580Y-123571000D03*
X120327420Y-123571000D03*
X118369080Y-128270000D03*
X117469920Y-128270000D03*
X123385580Y-113919000D03*
X122486420Y-113919000D03*
X125036580Y-114808000D03*
X124137420Y-114808000D03*
D13*
X117729000Y-122471180D03*
X117729000Y-121572020D03*
X117729000Y-119819420D03*
X117729000Y-120718580D03*
X103251000Y-135387080D03*
X103251000Y-134487920D03*
X113030000Y-104706420D03*
X113030000Y-105605580D03*
X114173000Y-99255580D03*
X114173000Y-98356420D03*
D15*
X98102420Y-133477000D03*
X99001580Y-133477000D03*
X100652580Y-133731000D03*
X99753420Y-133731000D03*
X102430580Y-86995000D03*
X101531420Y-86995000D03*
X98864420Y-92456000D03*
X99763580Y-92456000D03*
X109542580Y-102870000D03*
X108643420Y-102870000D03*
D13*
X104394000Y-103954580D03*
X104394000Y-103055420D03*
X108839000Y-108399580D03*
X108839000Y-107500420D03*
D15*
X105351580Y-109601000D03*
X104452420Y-109601000D03*
D20*
X106360000Y-111887000D03*
X104460000Y-111887000D03*
D13*
X103251000Y-107129580D03*
X103251000Y-106230420D03*
D14*
X107061000Y-110297000D03*
X107061000Y-108397000D03*
D21*
X78740000Y-149860000D03*
X78740000Y-86360000D03*
X132080000Y-86360000D03*
X118872000Y-139573000D03*
D22*
X114808000Y-132461000D03*
X114808000Y-131191000D03*
X116078000Y-132461000D03*
X116078000Y-131191000D03*
X117348000Y-132461000D03*
X117348000Y-131191000D03*
X118618000Y-132461000D03*
X118618000Y-131191000D03*
X119888000Y-132461000D03*
X119888000Y-131191000D03*
X84074000Y-114554000D03*
X82804000Y-114554000D03*
X84074000Y-113284000D03*
X82804000Y-113284000D03*
X84074000Y-112014000D03*
X82804000Y-112014000D03*
X84074000Y-110744000D03*
X82804000Y-110744000D03*
X84074000Y-109474000D03*
X82804000Y-109474000D03*
D23*
X106553000Y-128524000D03*
D22*
X89185910Y-124237910D03*
X90083936Y-125135936D03*
X90981962Y-126033962D03*
X91879987Y-126931987D03*
X92778013Y-127830013D03*
X93676038Y-128728038D03*
X94574064Y-129626064D03*
X95472090Y-130524090D03*
D13*
X107315000Y-125925580D03*
X107315000Y-125026420D03*
D14*
X101981000Y-90485000D03*
X101981000Y-88585000D03*
X101346000Y-93787000D03*
X101346000Y-91887000D03*
D13*
X102235000Y-131386580D03*
X102235000Y-130487420D03*
D15*
X100515420Y-141605000D03*
X101414580Y-141605000D03*
D13*
X83185000Y-95318580D03*
X83185000Y-94419420D03*
X86487000Y-121861580D03*
X86487000Y-120962420D03*
D15*
X83126580Y-97663000D03*
X82227420Y-97663000D03*
D13*
X86487000Y-123385580D03*
X86487000Y-122486420D03*
D15*
X82608420Y-116332000D03*
X83507580Y-116332000D03*
X81338420Y-128143000D03*
X82237580Y-128143000D03*
X101414580Y-143129000D03*
X100515420Y-143129000D03*
X81846420Y-107950000D03*
X82745580Y-107950000D03*
D13*
X89662000Y-128719580D03*
X89662000Y-127820420D03*
X90551000Y-128719580D03*
X90551000Y-127820420D03*
D15*
X122486420Y-114808000D03*
X123385580Y-114808000D03*
X124137420Y-113919000D03*
X125036580Y-113919000D03*
X115120420Y-121793000D03*
X116019580Y-121793000D03*
X115120420Y-120904000D03*
X116019580Y-120904000D03*
D13*
X116840000Y-120835420D03*
X116840000Y-121734580D03*
X102362000Y-134487920D03*
X102362000Y-135387080D03*
D15*
X113860580Y-106553000D03*
X112961420Y-106553000D03*
X114876580Y-108896720D03*
X113977420Y-108896720D03*
X115765580Y-107950000D03*
X114866420Y-107950000D03*
D13*
X112903000Y-99255580D03*
X112903000Y-98356420D03*
D15*
X97350580Y-133477000D03*
X96451420Y-133477000D03*
X94800420Y-133477000D03*
X95699580Y-133477000D03*
D13*
X104394000Y-105341420D03*
X104394000Y-106240580D03*
D15*
X97848420Y-123063000D03*
X98747580Y-123063000D03*
X104208580Y-108712000D03*
X103309420Y-108712000D03*
D24*
X96266000Y-90865000D03*
X96266000Y-85665000D03*
X97536000Y-90865000D03*
X98806000Y-90865000D03*
X100076000Y-90865000D03*
X97536000Y-85665000D03*
X98806000Y-85665000D03*
X100076000Y-85665000D03*
D25*
X100239000Y-131077000D03*
X98389000Y-131077000D03*
X98389000Y-129527000D03*
X100239000Y-129527000D03*
D26*
X84328000Y-134334000D03*
X84328000Y-136684000D03*
D27*
X106553000Y-106752000D03*
X106553000Y-103052000D03*
D14*
X103886000Y-93787000D03*
X103886000Y-91887000D03*
D28*
X78740000Y-91440000D03*
X78740000Y-93980000D03*
X78740000Y-96520000D03*
X78740000Y-99060000D03*
X78740000Y-101600000D03*
X78740000Y-104140000D03*
X78740000Y-106680000D03*
X78740000Y-109220000D03*
X78740000Y-111760000D03*
X78740000Y-114300000D03*
X78740000Y-121920000D03*
X78740000Y-124460000D03*
X78740000Y-127000000D03*
X78740000Y-129540000D03*
X78740000Y-132080000D03*
X78740000Y-134620000D03*
X78740000Y-137160000D03*
X78740000Y-139700000D03*
X78740000Y-142240000D03*
X78740000Y-144780000D03*
D15*
X80713580Y-97790000D03*
X79814420Y-97790000D03*
X80713580Y-95250000D03*
X79814420Y-95250000D03*
D29*
X87884000Y-143256000D03*
X123190000Y-131572000D03*
X86360000Y-86614000D03*
D30*
X110744000Y-85725000D03*
D31*
X110744000Y-88265000D03*
X110744000Y-90805000D03*
X110744000Y-93345000D03*
D13*
X82296000Y-94419420D03*
X82296000Y-95318580D03*
X87376000Y-120962420D03*
X87376000Y-121861580D03*
D32*
X98907600Y-120573800D03*
X125285500Y-129032000D03*
X86995000Y-110236000D03*
X86487000Y-112903000D03*
X82423000Y-119888000D03*
X81661000Y-116840000D03*
D15*
X92651580Y-131318000D03*
X91752420Y-131318000D03*
D19*
X119507000Y-93980000D03*
X119507000Y-92456000D03*
X117729000Y-92456000D03*
X117729000Y-93980000D03*
X121285000Y-93980000D03*
X121285000Y-92456000D03*
X123063000Y-92456000D03*
X123063000Y-93980000D03*
X123063000Y-96774000D03*
X123063000Y-95250000D03*
X117729000Y-96774000D03*
X117729000Y-95250000D03*
D33*
X102997000Y-85725000D03*
X101473000Y-85725000D03*
X92075000Y-87503000D03*
X93599000Y-87503000D03*
D13*
X109855000Y-109669580D03*
X109855000Y-108770420D03*
X109855000Y-106992420D03*
X109855000Y-107891580D03*
D34*
X85918000Y-91836240D03*
X87818000Y-91836240D03*
X86868000Y-93835220D03*
D30*
X90170000Y-92329000D03*
D31*
X90170000Y-94869000D03*
X90170000Y-97409000D03*
D35*
X82735000Y-85090000D03*
X89985000Y-85090000D03*
D36*
X83935000Y-87740000D03*
X88785000Y-87740000D03*
D11*
X125095000Y-99441000D03*
X123825000Y-101981000D03*
X122555000Y-99441000D03*
X121285000Y-101981000D03*
X120015000Y-99441000D03*
X118745000Y-101981000D03*
X117475000Y-99441000D03*
X116205000Y-101981000D03*
X114010000Y-88191000D03*
X116560000Y-88191000D03*
X124710000Y-88191000D03*
X127260000Y-88191000D03*
D37*
X128435000Y-96141000D03*
X112945000Y-96141000D03*
D38*
X114915000Y-93091000D03*
X126345000Y-93091000D03*
D13*
X109474000Y-111389160D03*
X109474000Y-110490000D03*
X109855000Y-105341420D03*
X109855000Y-106240580D03*
X112522000Y-103065580D03*
X112522000Y-102166420D03*
D10*
G36*
X89968870Y-135169868D02*
X88941868Y-136196870D01*
X88339130Y-135594132D01*
X89366132Y-134567130D01*
X89968870Y-135169868D01*
X89968870Y-135169868D01*
G37*
G36*
X88625368Y-133826366D02*
X87598366Y-134853368D01*
X86995628Y-134250630D01*
X88022630Y-133223628D01*
X88625368Y-133826366D01*
X88625368Y-133826366D01*
G37*
D13*
X119507000Y-95816420D03*
X119507000Y-96715580D03*
X121285000Y-95885000D03*
X121285000Y-96784160D03*
D15*
X121353580Y-104013000D03*
X120454420Y-104013000D03*
X122105420Y-104013000D03*
X123004580Y-104013000D03*
D13*
X118110000Y-103817420D03*
X118110000Y-104716580D03*
D15*
X125036580Y-105791000D03*
X124137420Y-105791000D03*
X122105420Y-88265000D03*
X123004580Y-88265000D03*
X121158000Y-88265000D03*
X120258840Y-88265000D03*
D13*
X105664000Y-89016840D03*
X105664000Y-89916000D03*
D15*
X98864420Y-93472000D03*
X99763580Y-93472000D03*
M02*
