M48
;DRILL file {kicad 0.201501300117+5396~20~ubuntu14.04.1-product} date Fri 30 Jan 2015 09:07:56 PM PST
;FORMAT={-:-/ absolute / inch / decimal}
FMAT,2
INCH,TZ
T1C0.008
T2C0.015
T3C0.020
T4C0.028
T5C0.033
T6C0.035
T7C0.039
T8C0.040
T9C0.041
T10C0.065
T11C0.091
T12C0.098
%
G90
G05
M72
T1
X3.9869Y-5.5556
X3.987Y-4.3455
X4.0119Y-5.5806
X4.0619Y-5.5806
X4.072Y-3.5005
X4.072Y-3.8605
X4.072Y-4.0555
X4.077Y-4.3455
X4.088Y-3.4055
X4.092Y-3.1655
X4.0969Y-3.4956
X4.1119Y-5.5806
X4.1619Y-5.5806
X4.1706Y-3.9145
X4.182Y-3.1655
X4.1869Y-5.4556
X4.2119Y-5.5806
X4.212Y-2.8255
X4.212Y-2.9255
X4.212Y-3.0255
X4.252Y-4.4805
X4.2619Y-5.5806
X4.2669Y-4.6856
X4.267Y-4.0355
X4.292Y-4.0105
X4.302Y-4.0705
X4.302Y-4.8105
X4.3102Y-2.6781
X4.3119Y-5.5806
X4.3169Y-2.7481
X4.3169Y-2.7981
X4.3169Y-2.8531
X4.3169Y-2.9031
X4.3169Y-3.3556
X4.327Y-4.0455
X4.3288Y-4.7179
X4.332Y-4.1955
X4.3369Y-5.3056
X4.3369Y-5.4556
X4.342Y-4.218
X4.347Y-4.7005
X4.3482Y-4.4764
X4.3485Y-4.5255
X4.3519Y-4.3056
X4.3615Y-4.5759
X4.3619Y-5.5806
X4.3621Y-2.9979
X4.3666Y-4.214
X4.3719Y-4.3356
X4.3728Y-2.7906
X4.3728Y-2.8531
X4.3728Y-2.9031
X4.3744Y-2.7406
X4.3769Y-4.3056
X4.3794Y-2.6731
X4.3819Y-4.2656
X4.3819Y-4.3756
X4.3857Y-4.1795
X4.3919Y-3.1556
X4.3935Y-3.0381
X4.3935Y-3.0956
X4.3935Y-3.2181
X4.3944Y-3.2906
X4.3994Y-2.9591
X4.402Y-3.9405
X4.4119Y-5.5806
X4.412Y-4.1206
X4.427Y-4.8305
X4.4369Y-5.2056
X4.4369Y-5.4056
X4.4369Y-5.5056
X4.4394Y-3.0006
X4.4394Y-3.3331
X4.4455Y-3.2606
X4.4469Y-3.2081
X4.4494Y-3.0931
X4.4494Y-3.1531
X4.4519Y-3.0456
X4.4519Y-4.0052
X4.4619Y-5.5806
X4.4719Y-4.0242
X4.477Y-3.9855
X4.4869Y-3.3806
X4.4869Y-5.0556
X4.4894Y-3.3031
X4.5119Y-5.5806
X4.5169Y-3.9621
X4.5183Y-4.092
X4.522Y-4.4924
X4.522Y-4.4105
X4.5319Y-3.3431
X4.5344Y-3.4281
X4.5369Y-3.5556
X4.5369Y-5.3056
X4.5369Y-5.4056
X4.5369Y-5.5056
X4.537Y-4.8305
X4.547Y-4.4155
X4.557Y-3.9905
X4.5619Y-2.5406
X4.5619Y-5.5806
X4.5769Y-3.5556
X4.5769Y-4.0502
X4.577Y-4.7105
X4.5794Y-3.3881
X4.5794Y-3.4731
X4.5855Y-3.9926
X4.6027Y-4.0762
X4.6039Y-4.0502
X4.6119Y-5.5806
X4.6169Y-3.5556
X4.6219Y-2.5206
X4.6219Y-3.7906
X4.6244Y-3.5181
X4.6294Y-3.4356
X4.635Y-4.4051
X4.6369Y-4.8056
X4.6369Y-4.9056
X4.6369Y-5.0056
X4.6369Y-5.1056
X4.6369Y-5.2056
X4.6369Y-5.3056
X4.6369Y-5.4056
X4.6369Y-5.5056
X4.657Y-4.4355
X4.6619Y-5.5806
X4.662Y-4.5505
X4.6644Y-3.5581
X4.6669Y-3.6006
X4.6669Y-3.6456
X4.6669Y-3.6856
X4.6669Y-3.7406
X4.6669Y-3.7906
X4.6719Y-3.4806
X4.6794Y-4.4406
X4.6927Y-4.3933
X4.7044Y-4.2998
X4.7044Y-3.5981
X4.7044Y-3.6556
X4.7044Y-3.7131
X4.7044Y-3.7656
X4.7044Y-3.8131
X4.7044Y-3.8656
X4.7044Y-3.9162
X4.7044Y-3.9656
X4.7044Y-4.0681
X4.7062Y-4.3217
X4.7069Y-4.1081
X4.7069Y-4.1412
X4.7094Y-3.5206
X4.7119Y-4.3581
X4.7119Y-5.5806
X4.7369Y-4.8056
X4.7369Y-4.9056
X4.7369Y-5.0056
X4.7369Y-5.1056
X4.7369Y-5.2056
X4.7369Y-5.3056
X4.7369Y-5.4056
X4.7369Y-5.5056
X4.7387Y-4.3391
X4.7394Y-4.1981
X4.7444Y-3.5556
X4.7556Y-4.4945
X4.7591Y-3.9681
X4.7591Y-4.0381
X4.7591Y-4.1481
X4.7594Y-3.6081
X4.7594Y-3.6606
X4.7594Y-3.7106
X4.7594Y-3.7656
X4.7594Y-3.8131
X4.7594Y-3.8681
X4.7594Y-3.9162
X4.7619Y-5.5806
X4.762Y-4.4405
X4.7694Y-4.3181
X4.772Y-4.0005
X4.7744Y-3.9356
X4.7744Y-4.1056
X4.782Y-4.1455
X4.8119Y-5.5806
X4.827Y-4.4905
X4.8369Y-4.8056
X4.8369Y-4.9056
X4.8369Y-5.0056
X4.8369Y-5.1056
X4.8369Y-5.2056
X4.8369Y-5.3056
X4.8369Y-5.4056
X4.8369Y-5.5056
X4.8619Y-5.5806
X4.8651Y-4.1845
X4.8651Y-4.2245
X4.8806Y-4.3295
X4.892Y-4.2955
X4.8969Y-4.4256
X4.9011Y-4.1737
X4.9019Y-3.0706
X4.9019Y-3.1156
X4.9019Y-4.7626
X4.9044Y-4.7191
X4.9056Y-4.0895
X4.9109Y-4.2205
X4.9119Y-4.4856
X4.9119Y-5.5806
X4.9169Y-3.1556
X4.9269Y-3.7556
X4.9269Y-4.0056
X4.9369Y-3.1856
X4.9369Y-4.8056
X4.9369Y-4.9056
X4.9369Y-5.0056
X4.9369Y-5.1056
X4.9369Y-5.2056
X4.9369Y-5.3056
X4.9369Y-5.4056
X4.9369Y-5.5056
X4.9569Y-2.9406
X4.9569Y-4.4256
X4.9619Y-5.5806
X4.9719Y-3.9356
X4.9719Y-4.0056
X4.9769Y-3.0206
X4.9769Y-3.0706
X4.9769Y-3.4856
X4.9769Y-3.5456
X4.9769Y-3.6556
X4.9769Y-3.7406
X4.9769Y-3.8056
X4.9769Y-3.8556
X4.9769Y-3.9106
X4.9769Y-3.9756
X4.9769Y-4.0466
X4.9769Y-4.4906
X4.9785Y-3.6106
X4.9819Y-3.434
X4.982Y-3.1156
X4.9869Y-3.2256
X4.9919Y-4.8531
X4.9919Y-4.9081
X4.9994Y-4.8256
X5.0019Y-3.3256
X5.0069Y-4.1056
X5.0069Y-4.7931
X5.0119Y-4.4256
X5.0119Y-5.5806
X5.0169Y-3.0156
X5.0219Y-4.9081
X5.0269Y-3.3806
X5.0269Y-4.9356
X5.0319Y-3.6156
X5.0319Y-3.7156
X5.0319Y-3.7756
X5.0319Y-3.8306
X5.0319Y-3.9106
X5.0319Y-3.9856
X5.032Y-4.2955
X5.032Y-3.4655
X5.032Y-3.5005
X5.032Y-3.5355
X5.033Y-4.1515
X5.0369Y-4.0506
X5.0369Y-5.0056
X5.0369Y-5.1056
X5.0369Y-5.1056
X5.0369Y-5.2056
X5.0369Y-5.3056
X5.0369Y-5.4056
X5.0369Y-5.5056
X5.0419Y-3.9356
X5.0419Y-4.9581
X5.0519Y-3.0556
X5.0569Y-3.2956
X5.057Y-3.123
X5.0619Y-4.8006
X5.0619Y-5.5806
X5.0621Y-4.5056
X5.0719Y-2.9306
X5.0719Y-3.4491
X5.0719Y-4.0056
X5.0719Y-4.0306
X5.072Y-3.1955
X5.072Y-4.1755
X5.0735Y-3.8736
X5.0769Y-4.9581
X5.077Y-4.5355
X5.077Y-4.4655
X5.077Y-4.2905
X5.082Y-4.3655
X5.0869Y-4.1006
X5.087Y-3.5605
X5.0906Y-4.4345
X5.0906Y-4.7606
X5.0919Y-3.8856
X5.0933Y-3.3542
X5.0969Y-4.8806
X5.1019Y-3.0156
X5.1019Y-3.9606
X5.1069Y-4.5405
X5.1119Y-4.2056
X5.1119Y-5.5806
X5.1119Y-5.5806
X5.112Y-4.5755
X5.1169Y-4.0756
X5.1169Y-4.1306
X5.117Y-3.123
X5.117Y-3.198
X5.1194Y-4.7621
X5.1219Y-2.4806
X5.1219Y-3.0356
X5.1268Y-4.2806
X5.1268Y-4.3206
X5.1269Y-4.9531
X5.1325Y-4.06
X5.1344Y-4.5381
X5.1369Y-3.2206
X5.1369Y-5.0056
X5.1369Y-5.1056
X5.1369Y-5.2056
X5.1369Y-5.3056
X5.1369Y-5.4056
X5.1369Y-5.5056
X5.137Y-3.5505
X5.137Y-4.6605
X5.1395Y-4.4615
X5.144Y-4.4082
X5.1444Y-4.7606
X5.146Y-4.5161
X5.1469Y-3.1406
X5.1519Y-3.0706
X5.1519Y-3.5706
X5.1519Y-4.1656
X5.1569Y-4.8041
X5.157Y-4.3905
X5.1619Y-4.8331
X5.1619Y-4.8706
X5.1619Y-4.9181
X5.1619Y-5.5806
X5.1669Y-3.2456
X5.1669Y-3.2806
X5.1729Y-4.7014
X5.1769Y-4.5381
X5.1819Y-3.3106
X5.182Y-4.2005
X5.1828Y-3.5255
X5.1856Y-4.3045
X5.186Y-3.5056
X5.1919Y-3.4456
X5.192Y-3.1855
X5.192Y-4.4005
X5.1944Y-4.8041
X5.2069Y-3.7856
X5.207Y-3.5355
X5.2119Y-5.5806
X5.212Y-4.5855
X5.2156Y-4.2195
X5.2169Y-3.4606
X5.217Y-3.0805
X5.217Y-4.7205
X5.2171Y-3.621
X5.2269Y-4.8041
X5.2345Y-4.238
X5.2368Y-4.4653
X5.2369Y-4.9056
X5.2369Y-5.0056
X5.2369Y-5.1056
X5.2369Y-5.2056
X5.2369Y-5.3056
X5.2369Y-5.4056
X5.2369Y-5.5056
X5.2419Y-4.1456
X5.242Y-4.3447
X5.2444Y-4.7256
X5.2445Y-3.0555
X5.2519Y-4.6002
X5.2525Y-4.4812
X5.2545Y-4.7882
X5.2576Y-3.132
X5.2593Y-4.331
X5.2594Y-4.7106
X5.2619Y-5.5806
X5.2645Y-4.213
X5.2744Y-4.491
X5.2745Y-4.7682
X5.2756Y-4.1356
X5.2769Y-4.0756
X5.277Y-3.5255
X5.2819Y-4.8606
X5.2869Y-2.6706
X5.287Y-3.2205
X5.287Y-3.3055
X5.2919Y-4.5206
X5.292Y-4.292
X5.2944Y-4.7506
X5.2959Y-4.4865
X5.297Y-4.3255
X5.3019Y-4.0506
X5.307Y-4.2755
X5.3095Y-4.348
X5.3109Y-4.1356
X5.3119Y-5.5806
X5.3169Y-3.6706
X5.317Y-4.7355
X5.322Y-4.3905
X5.3249Y-3.4726
X5.3269Y-3.1256
X5.3307Y-4.2514
X5.3366Y-4.5093
X5.3369Y-3.9956
X5.3369Y-4.9056
X5.3369Y-5.0056
X5.3369Y-5.1056
X5.3369Y-5.2056
X5.3369Y-5.3056
X5.3369Y-5.4056
X5.3369Y-5.5056
X5.3369Y-4.6605
X5.3394Y-4.8381
X5.3464Y-4.236
X5.3469Y-3.1856
X5.3469Y-3.2156
X5.3469Y-3.3106
X5.347Y-4.5705
X5.3509Y-4.5266
X5.352Y-4.418
X5.3587Y-3.6213
X5.3619Y-3.0856
X5.3619Y-3.6706
X5.3619Y-4.1256
X5.3619Y-4.8131
X5.3619Y-5.5806
X5.3631Y-4.2217
X5.3638Y-4.5878
X5.3645Y-4.3305
X5.3719Y-3.4106
X5.3719Y-4.7756
X5.3719Y-4.9456
X5.3719Y-4.9756
X5.3719Y-5.0006
X5.3745Y-4.4505
X5.377Y-3.501
X5.377Y-3.4455
X5.3774Y-4.205
X5.3806Y-4.1095
X5.385Y-4.5935
X5.3869Y-5.0256
X5.388Y-4.6191
X5.3919Y-5.2556
X5.392Y-3.3755
X5.3932Y-4.5731
X5.3961Y-4.0939
X5.3967Y-4.1902
X5.3969Y-4.929
X5.4012Y-4.7856
X5.4017Y-4.8766
X5.4019Y-4.8406
X5.4019Y-3.1356
X5.4019Y-4.8106
X5.4019Y-4.9056
X5.402Y-3.4105
X5.402Y-3.5055
X5.4044Y-4.7106
X5.4069Y-3.6706
X5.408Y-3.3055
X5.408Y-3.3356
X5.4095Y-4.499
X5.4095Y-4.738
X5.4109Y-4.6326
X5.4119Y-4.0756
X5.4119Y-4.2906
X5.4119Y-5.5806
X5.4138Y-3.5275
X5.4145Y-4.5905
X5.4182Y-4.1642
X5.4219Y-3.2206
X5.4219Y-5.0356
X5.4219Y-5.1256
X5.422Y-3.1605
X5.4269Y-3.0806
X5.4269Y-5.3106
X5.43Y-4.6484
X5.4369Y-5.4056
X5.4369Y-5.5056
X5.4419Y-4.9406
X5.4419Y-4.9756
X5.4419Y-5.0006
X5.4419Y-5.0606
X5.4419Y-5.1006
X5.4419Y-5.1506
X5.4419Y-5.1856
X5.4431Y-4.6307
X5.4469Y-2.5356
X5.4519Y-4.1156
X5.4569Y-3.0406
X5.4569Y-3.6706
X5.4569Y-3.7256
X5.4569Y-3.7856
X5.4569Y-3.8406
X5.4569Y-5.0806
X5.4569Y-5.5906
X5.4619Y-2.9306
X5.4619Y-3.8956
X5.4619Y-3.9656
X5.4619Y-5.2306
X5.4619Y-5.2556
X5.4619Y-5.2906
X5.4619Y-5.3356
X5.4619Y-5.3856
X5.4619Y-5.4406
X5.4619Y-5.4906
X5.4619Y-5.5406
X5.462Y-4.499
X5.4656Y-4.632
X5.4669Y-4.1806
X5.4719Y-4.2056
X5.4719Y-4.5531
X5.477Y-3.1605
X5.4786Y-4.7335
X5.4819Y-3.2206
X5.4819Y-4.8106
X5.4819Y-4.9056
X5.4819Y-4.929
X5.4821Y-4.8406
X5.4823Y-4.8766
X5.4869Y-4.0606
X5.4869Y-4.7956
X5.4919Y-4.4406
X5.494Y-4.6045
X5.4949Y-4.23
X5.4962Y-4.2051
X5.4969Y-3.1356
X5.4969Y-3.4306
X5.4979Y-4.5706
X5.5019Y-3.9256
X5.5019Y-5.0356
X5.5019Y-5.2306
X5.5019Y-5.2556
X5.5019Y-5.2906
X5.5019Y-5.3356
X5.5019Y-5.3856
X5.5019Y-5.4406
X5.5019Y-5.4906
X5.5019Y-5.5406
X5.5019Y-5.5906
X5.502Y-3.2455
X5.5048Y-4.1032
X5.5069Y-4.8056
X5.5069Y-5.0756
X5.5069Y-5.1156
X5.5069Y-5.1456
X5.5109Y-4.6906
X5.511Y-4.7706
X5.5119Y-3.8406
X5.5119Y-4.9506
X5.5119Y-4.9756
X5.5119Y-5.0006
X5.5169Y-3.9703
X5.5169Y-4.2406
X5.5169Y-5.1856
X5.517Y-3.2205
X5.5204Y-4.5691
X5.5219Y-4.2656
X5.5219Y-4.2956
X5.5271Y-4.5174
X5.5278Y-4.6764
X5.5305Y-4.5495
X5.537Y-4.9055
X5.537Y-5.0055
X5.537Y-5.1055
X5.537Y-5.4055
X5.537Y-5.5055
X5.5419Y-5.3106
X5.5429Y-4.0956
X5.5469Y-3.8806
X5.5469Y-4.2956
X5.5505Y-4.2597
X5.5519Y-3.5156
X5.5519Y-4.0156
X5.5519Y-4.5006
X5.5519Y-4.8406
X5.5569Y-4.3156
X5.557Y-4.7655
X5.5619Y-3.4406
X5.5669Y-3.7906
X5.5709Y-4.3565
X5.5719Y-5.2556
X5.5734Y-4.5167
X5.5757Y-3.9144
X5.5769Y-3.0706
X5.5769Y-4.0606
X5.577Y-3.2955
X5.582Y-3.3455
X5.5875Y-4.7614
X5.5919Y-2.8456
X5.5919Y-3.8356
X5.5919Y-3.9756
X5.5919Y-4.2056
X5.5919Y-4.4206
X5.5919Y-4.8106
X5.5947Y-4.511
X5.5964Y-4.4661
X5.5969Y-4.6256
X5.6003Y-4.4878
X5.6069Y-2.5206
X5.6069Y-4.3926
X5.6069Y-4.7806
X5.612Y-3.2936
X5.6169Y-3.0306
X5.6169Y-3.1006
X5.6169Y-3.7356
X5.6169Y-4.0206
X5.6179Y-4.359
X5.6213Y-4.4812
X5.6219Y-3.1456
X5.6219Y-3.8656
X5.6269Y-4.8006
X5.6289Y-4.3396
X5.6369Y-3.9306
X5.637Y-4.9055
X5.637Y-5.0055
X5.637Y-5.1055
X5.637Y-5.2055
X5.637Y-5.3055
X5.637Y-5.4055
X5.637Y-5.5055
X5.6406Y-4.251
X5.6419Y-3.3856
X5.6419Y-3.7856
X5.642Y-3.2205
X5.6499Y-4.5881
X5.65Y-4.1552
X5.6519Y-4.6756
X5.6519Y-4.6956
X5.6569Y-4.8306
X5.6569Y-4.8656
X5.6614Y-4.375
X5.6619Y-2.8456
X5.662Y-5.5805
X5.6626Y-4.4382
X5.6669Y-3.6906
X5.6669Y-4.1406
X5.6707Y-3.8194
X5.6719Y-3.9656
X5.6719Y-4.7156
X5.6769Y-4.3906
X5.6769Y-4.8856
X5.6785Y-4.423
X5.6819Y-3.1356
X5.682Y-3.208
X5.6845Y-3.2755
X5.6882Y-4.2819
X5.6919Y-3.7356
X5.6919Y-4.7356
X5.6969Y-3.8706
X5.6969Y-4.9056
X5.7019Y-4.8106
X5.702Y-2.6955
X5.7069Y-2.8456
X5.7069Y-4.1956
X5.7082Y-4.2721
X5.7119Y-3.5206
X5.7119Y-3.5806
X5.7119Y-3.6406
X5.712Y-5.5805
X5.7182Y-4.7619
X5.7219Y-3.7656
X5.7219Y-3.9156
X5.7269Y-4.6906
X5.7269Y-4.8356
X5.7319Y-4.4306
X5.7319Y-4.4656
X5.7369Y-2.8806
X5.7369Y-2.9806
X5.7369Y-4.8956
X5.737Y-5.0055
X5.737Y-5.1055
X5.737Y-5.2055
X5.737Y-5.3055
X5.737Y-5.4055
X5.737Y-5.5055
X5.7419Y-2.9306
X5.7419Y-3.6856
X5.7419Y-4.8506
X5.742Y-2.7255
X5.7469Y-3.4856
X5.7469Y-3.8206
X5.747Y-4.584
X5.7569Y-4.7656
X5.7619Y-4.8706
X5.762Y-5.5805
X5.7644Y-4.4031
X5.7669Y-3.5456
X5.7669Y-3.6306
X5.7707Y-3.7194
X5.7719Y-4.2056
X5.7769Y-3.8606
X5.7769Y-4.7856
X5.7819Y-4.8906
X5.7869Y-4.1156
X5.7919Y-3.4456
X5.7969Y-3.7706
X5.7969Y-4.8056
X5.8019Y-4.9106
X5.812Y-5.5805
X5.8169Y-3.4906
X5.8169Y-3.6706
X5.8195Y-4.5895
X5.8219Y-3.8156
X5.8269Y-4.9356
X5.827Y-2.6255
X5.8319Y-4.8156
X5.8369Y-3.4006
X5.8369Y-4.8506
X5.837Y-5.1055
X5.837Y-5.2055
X5.837Y-5.3055
X5.837Y-5.4055
X5.837Y-5.5055
X5.8469Y-4.9606
X5.852Y-2.6505
X5.8569Y-3.7056
X5.8569Y-4.3656
X5.8569Y-4.6956
X5.8569Y-4.6956
X5.8619Y-4.5856
X5.8619Y-4.8756
X5.8619Y-4.9856
X5.862Y-5.5805
X5.8669Y-3.4456
X5.8669Y-3.7706
X5.8719Y-3.3606
X5.8769Y-3.6496
X5.8769Y-5.0656
X5.8819Y-4.4656
X5.8919Y-3.4156
X5.8969Y-3.7006
X5.8969Y-4.3656
X5.8969Y-4.8806
X5.9019Y-4.5816
X5.9019Y-4.9106
X5.9119Y-4.6506
X5.9119Y-5.0006
X5.912Y-5.5805
X5.9169Y-3.7206
X5.9219Y-3.8856
X5.9269Y-3.4656
X5.9269Y-4.9306
X5.9269Y-5.0156
X5.9311Y-4.1947
X5.9319Y-3.9706
X5.9369Y-3.3606
X5.9369Y-5.1056
X5.937Y-4.8055
X5.937Y-4.9055
X5.937Y-5.2055
X5.937Y-5.3055
X5.937Y-5.4055
X5.937Y-5.5055
X5.9419Y-3.4156
X5.9419Y-4.9706
X5.9419Y-5.0806
X5.9469Y-3.7006
X5.9469Y-5.0356
X5.9519Y-3.6496
X5.9569Y-4.5816
X5.9569Y-4.9856
X5.9619Y-4.0156
X5.962Y-5.5805
X5.9629Y-3.7707
X5.9719Y-5.0606
X5.9769Y-5.0056
X5.9819Y-3.7206
X5.9819Y-3.9956
X5.9829Y-4.1176
X5.9869Y-3.4156
X5.9969Y-3.3606
X5.9969Y-4.4756
X5.9969Y-5.0856
X6.0019Y-5.0256
X6.0069Y-4.9356
X6.0119Y-2.6756
X6.0119Y-4.7856
X6.012Y-5.5805
X6.0169Y-4.5816
X6.0169Y-5.0406
X6.0219Y-3.7006
X6.0219Y-5.0006
X6.0261Y-4.0288
X6.0269Y-3.6496
X6.0319Y-3.5006
X6.0369Y-5.0856
X6.0369Y-5.1056
X6.037Y-4.9055
X6.037Y-5.2055
X6.037Y-5.3055
X6.037Y-5.4055
X6.037Y-5.5055
X6.0404Y-3.9513
X6.0529Y-3.7736
X6.0569Y-3.3606
X6.0569Y-3.4156
X6.0569Y-5.0406
X6.0619Y-3.4656
X6.0619Y-4.1156
X6.062Y-5.5805
X6.0645Y-3.9733
X6.0719Y-3.7206
X6.0769Y-5.0856
X6.0819Y-4.0956
X6.0819Y-4.7556
X6.0866Y-4.5816
X6.0869Y-3.9956
X6.0905Y-3.6482
X6.0919Y-5.0406
X6.0949Y-4.2196
X6.0969Y-3.7006
X6.1019Y-3.8856
X6.1069Y-5.0856
X6.1079Y-4.0626
X6.1083Y-4.0182
X6.1094Y-4.3031
X6.1119Y-3.3606
X6.1119Y-3.7956
X6.112Y-5.5805
X6.1189Y-4.1836
X6.1219Y-3.4156
X6.1269Y-3.6106
X6.1269Y-5.0406
X6.1279Y-4.1466
X6.1289Y-4.2276
X6.13Y-4.0849
X6.1319Y-4.3456
X6.1369Y-5.0056
X6.1369Y-5.1056
X6.137Y-4.9055
X6.137Y-5.2055
X6.137Y-5.3055
X6.137Y-5.4055
X6.137Y-5.5055
X6.1406Y-3.2745
X6.1419Y-3.7206
X6.1419Y-4.5556
X6.1456Y-3.3295
X6.1469Y-3.9056
X6.1469Y-5.0856
X6.1494Y-3.9306
X6.1494Y-4.2081
X6.1509Y-3.7866
X6.1519Y-3.6606
X6.1519Y-4.6006
X6.152Y-4.1071
X6.1529Y-4.3536
X6.1569Y-3.3906
X6.1619Y-5.0406
X6.162Y-5.5805
X6.1719Y-3.9256
X6.1749Y-4.1295
X6.175Y-3.5637
X6.1773Y-3.8171
X6.1792Y-4.2308
X6.1819Y-3.3658
X6.1819Y-4.2756
X6.1829Y-3.9506
X6.1869Y-3.9956
X6.1869Y-5.0856
X6.1919Y-4.5106
X6.1943Y-4.1046
X6.1945Y-3.788
X6.1992Y-3.8154
X6.2019Y-3.6106
X6.2019Y-5.0406
X6.2023Y-4.0592
X6.2056Y-4.3943
X6.2069Y-3.7206
X6.2069Y-3.9506
X6.2069Y-4.6006
X6.2069Y-4.6006
X6.2069Y-4.6006
X6.2069Y-4.6006
X6.2119Y-3.2656
X6.212Y-5.5805
X6.2159Y-3.5206
X6.2163Y-4.1255
X6.2169Y-3.4556
X6.2169Y-4.4556
X6.217Y-3.8558
X6.2269Y-5.0856
X6.2319Y-3.0956
X6.2319Y-3.0956
X6.2319Y-3.0956
X6.2319Y-3.0956
X6.2319Y-4.0346
X6.2356Y-3.3695
X6.2369Y-3.5706
X6.2369Y-5.0056
X6.2369Y-5.1056
X6.237Y-4.5055
X6.237Y-4.6055
X6.237Y-4.7055
X6.237Y-4.8055
X6.237Y-4.9055
X6.237Y-5.2055
X6.237Y-5.3055
X6.237Y-5.4055
X6.237Y-5.5055
X6.2469Y-3.7506
X6.2469Y-4.4706
X6.2469Y-5.0406
X6.249Y-3.8653
X6.2519Y-3.8406
X6.2569Y-3.4156
X6.2599Y-4.3366
X6.2609Y-4.2596
X6.2613Y-3.9547
X6.2619Y-3.3006
X6.262Y-5.5805
X6.2645Y-4.2184
X6.2649Y-3.9956
X6.2669Y-3.4806
X6.2669Y-3.5356
X6.2669Y-4.0806
X6.2669Y-5.0856
X6.2769Y-3.8356
X6.2769Y-3.9106
X6.2819Y-3.1256
X6.2819Y-3.2006
X6.2849Y-4.1386
X6.2869Y-3.7706
X6.2869Y-5.0406
X6.2969Y-3.3706
X6.2969Y-4.4256
X6.3019Y-3.2656
X6.3019Y-3.4456
X6.3019Y-4.1556
X6.3057Y-3.9536
X6.308Y-3.9958
X6.3119Y-3.8056
X6.3119Y-5.0856
X6.312Y-5.5805
X6.3144Y-4.1756
X6.3169Y-3.1006
X6.3169Y-4.0606
X6.3219Y-3.0456
X6.3219Y-3.0456
X6.3219Y-3.0456
X6.3219Y-4.1306
X6.3269Y-3.9206
X6.3278Y-3.9705
X6.3294Y-4.1531
X6.3319Y-5.0406
X6.3356Y-3.2795
X6.3369Y-3.4106
X6.3369Y-3.7906
X6.3369Y-5.0056
X6.3369Y-5.1056
X6.337Y-3.3305
X6.337Y-4.5055
X6.337Y-4.6055
X6.337Y-4.7055
X6.337Y-4.8055
X6.337Y-4.9055
X6.337Y-5.2055
X6.337Y-5.3055
X6.337Y-5.4055
X6.337Y-5.5055
X6.3469Y-4.3756
X6.3497Y-4.2577
X6.3499Y-4.0856
X6.3522Y-3.9958
X6.3569Y-3.2056
X6.3569Y-3.9356
X6.3569Y-5.0856
X6.362Y-5.5805
X6.3669Y-2.9006
X6.3669Y-3.7906
X6.3694Y-3.1231
X6.3699Y-4.0181
X6.3719Y-3.9606
X6.3769Y-5.0406
X6.377Y-3.3709
X6.3819Y-3.1706
X6.3869Y-3.2856
X6.3919Y-3.9306
X6.3919Y-4.1406
X6.3948Y-4.0426
X6.3948Y-4.0876
X6.4069Y-2.9006
X6.4069Y-4.3256
X6.4069Y-5.0856
X6.4119Y-3.9606
X6.4119Y-4.0006
X6.412Y-5.5805
X6.4169Y-3.0706
X6.4169Y-3.8756
X6.4169Y-3.9056
X6.417Y-4.1046
X6.417Y-4.0604
X6.4219Y-3.3306
X6.4269Y-5.0406
X6.4306Y-3.3745
X6.4319Y-3.0206
X6.4369Y-5.0056
X6.4369Y-5.1056
X6.437Y-4.4055
X6.437Y-4.5055
X6.437Y-4.6055
X6.437Y-4.7055
X6.437Y-4.8055
X6.437Y-4.9055
X6.437Y-5.2055
X6.437Y-5.3055
X6.437Y-5.4055
X6.437Y-5.5055
X6.4419Y-3.1206
X6.4519Y-5.0856
X6.4569Y-3.1006
X6.4569Y-4.0006
X6.4569Y-4.0456
X6.4569Y-4.1756
X6.4569Y-4.2656
X6.4615Y-4.1044
X6.462Y-5.5805
X6.4719Y-3.0106
X6.4719Y-3.2806
X6.4769Y-5.0406
X6.4969Y-3.0856
X6.5019Y-4.0456
X6.5019Y-5.0856
X6.5069Y-4.1056
X6.5119Y-3.0356
X6.5119Y-3.2406
X6.512Y-5.5805
X6.5169Y-3.0706
X6.5219Y-4.1406
X6.5269Y-5.0406
X6.5369Y-5.0056
X6.5369Y-5.1056
X6.537Y-4.2055
X6.537Y-4.3055
X6.537Y-4.4055
X6.537Y-4.5055
X6.537Y-4.6055
X6.537Y-4.7055
X6.537Y-4.8055
X6.537Y-4.9055
X6.537Y-5.2055
X6.537Y-5.3055
X6.537Y-5.4055
X6.537Y-5.5055
X6.5419Y-4.0856
X6.5469Y-3.2156
X6.5469Y-5.0856
X6.5519Y-3.0106
X6.5619Y-3.6456
X6.5619Y-3.6456
X6.5619Y-3.6456
X6.5619Y-3.6456
X6.562Y-5.5805
X6.5719Y-3.1856
X6.5769Y-5.0406
X6.5869Y-5.0856
X6.5919Y-3.0156
X6.5969Y-3.4056
X6.6069Y-3.1406
X6.607Y-5.5755
X6.6119Y-3.0456
X6.6119Y-3.0956
X6.612Y-4.4305
X6.612Y-4.4805
X6.612Y-4.5305
X6.612Y-4.5805
X6.612Y-4.6305
X6.612Y-4.6805
X6.612Y-4.7305
X6.612Y-4.7805
X6.612Y-4.8305
X6.612Y-4.8805
X6.612Y-5.1305
X6.612Y-5.1805
X6.612Y-5.2305
X6.612Y-5.2805
X6.612Y-5.3305
X6.612Y-5.3805
X6.612Y-5.4305
X6.612Y-5.4805
X6.612Y-5.5305
X6.6219Y-5.0406
X6.6219Y-5.0856
X6.627Y-4.3955
X6.637Y-4.1055
X6.637Y-4.2055
X6.637Y-4.3055
X6.662Y-4.3805
X6.7019Y-3.5206
X6.712Y-4.3805
X6.737Y-4.1055
X6.737Y-4.2055
X6.737Y-4.3055
X6.762Y-4.3805
X6.7669Y-3.5206
X6.812Y-4.3805
X6.8169Y-3.5206
X6.8169Y-3.5606
X6.8169Y-3.6156
X6.8169Y-3.6656
X6.8169Y-3.7256
X6.8319Y-2.7656
X6.837Y-4.1055
X6.837Y-4.2055
X6.837Y-4.3055
X6.862Y-4.3805
X6.897Y-4.1255
X6.897Y-4.1855
X6.897Y-4.2255
X6.897Y-4.2855
X6.897Y-4.3255
X6.897Y-4.3655
T2
X4.1319Y-3.3306
X4.1319Y-3.4006
X4.1319Y-4.5306
X4.1369Y-4.6006
X4.197Y-3.3205
X4.197Y-3.3905
X4.197Y-4.5205
X4.197Y-4.5905
X4.217Y-4.2305
X4.227Y-3.3555
X4.227Y-4.5555
X4.2319Y-4.6906
X4.2369Y-3.4206
X4.2369Y-3.4906
X4.2369Y-4.6156
X4.242Y-4.3405
X4.2456Y-3.542
X4.2719Y-3.5883
X4.2731Y-3.5095
X4.2745Y-4.2905
X4.2756Y-3.632
X4.2769Y-2.5081
X4.2769Y-2.6106
X4.277Y-4.228
X4.3031Y-3.657
X4.3181Y-3.8145
X4.3231Y-3.7195
X4.327Y-2.9755
X4.327Y-3.0058
X4.3331Y-3.632
X4.3431Y-3.7695
X4.3531Y-3.857
X4.3769Y-2.5106
X4.3793Y-2.6009
X4.382Y-3.4405
X4.382Y-3.4705
X4.3831Y-3.757
X4.3856Y-3.7945
X4.3931Y-3.8295
X4.4043Y-3.6084
X4.4231Y-3.532
X4.4256Y-3.857
X4.4606Y-3.4895
X4.477Y-4.1855
X4.477Y-4.3205
X4.4793Y-3.6534
X4.4906Y-3.5345
X4.4906Y-3.857
X4.5269Y-2.5806
X4.5269Y-2.6806
X4.5281Y-3.8295
X4.5331Y-3.7945
X4.55Y-4.25
X4.5619Y-2.6306
X4.5656Y-3.857
X4.6006Y-3.8145
X4.622Y-4.1805
X4.622Y-4.3205
X4.8569Y-3.3056
X4.897Y-2.6205
X4.9019Y-2.5656
X4.9069Y-2.7256
X4.947Y-3.2155
X4.947Y-3.2455
X4.987Y-4.2055
X5.0373Y-3.6661
X5.0673Y-3.6261
X5.0673Y-3.7086
X5.0723Y-3.7461
X5.087Y-3.0905
X5.0919Y-2.6306
X5.1019Y-2.6806
X5.1023Y-3.7761
X5.104Y-3.2285
X5.1123Y-3.8361
X5.127Y-3.5905
X5.1323Y-3.7486
X5.1323Y-3.9161
X5.1398Y-3.8661
X5.147Y-3.6105
X5.1673Y-3.9761
X5.1723Y-3.8761
X5.2065Y-3.9506
X5.2073Y-3.7511
X5.2123Y-3.9161
X5.217Y-3.3355
X5.2173Y-3.6511
X5.247Y-3.1055
X5.2473Y-3.9761
X5.2682Y-3.1893
X5.2764Y-3.7698
X5.2823Y-3.6511
X5.2852Y-3.1573
X5.2973Y-3.9761
X5.3323Y-3.9161
X5.338Y-3.9506
X5.3753Y-3.9741
X5.4123Y-3.9311
X5.467Y-4.0255
X5.497Y-4.0255
X5.532Y-5.5905
X5.562Y-3.1505
X5.567Y-2.7405
X5.612Y-5.5905
X5.6169Y-2.7556
X5.652Y-3.2505
X5.687Y-3.0356
X5.722Y-3.2455
X5.997Y-3.0555
X6.017Y-3.0755
X6.3956Y-3.5245
X6.4206Y-3.5645
X6.4256Y-3.4845
X6.4256Y-3.607
X6.4556Y-3.632
X6.4731Y-3.6945
X6.4856Y-3.607
X6.4981Y-3.7245
X6.5031Y-3.7895
X6.532Y-3.4155
X6.532Y-3.4455
X6.5331Y-3.7345
X6.5381Y-3.8345
X6.5606Y-3.6095
X6.5728Y-3.7741
X6.5731Y-3.5095
X6.5781Y-3.8095
X6.6081Y-3.4645
X6.6131Y-3.8345
X6.622Y-4.9355
X6.622Y-5.0155
X6.6297Y-3.6268
X6.6431Y-3.5095
X6.6606Y-3.832
X6.6731Y-3.8695
X6.7431Y-3.807
X6.7431Y-3.8795
X6.7481Y-3.772
X6.7481Y-3.8445
X6.8181Y-3.7895
X6.8181Y-3.8595
T3
X4.1456Y-3.5095
X4.1456Y-3.5595
X4.1456Y-3.6095
X4.1456Y-3.6595
X4.1456Y-3.7095
X4.1956Y-3.5095
X4.1956Y-3.5595
X4.1956Y-3.6095
X4.1956Y-3.6595
X4.1956Y-3.7095
X5.977Y-4.6355
X5.977Y-4.6855
X6.027Y-4.6355
X6.027Y-4.6855
X6.077Y-4.6355
X6.077Y-4.6855
X6.127Y-4.6355
X6.127Y-4.6855
X6.177Y-4.6355
X6.177Y-4.6855
T4
X4.2332Y-2.5584
X4.4241Y-2.5584
T5
X4.012Y-3.3555
X4.012Y-3.4555
X4.012Y-3.5555
X4.012Y-3.6555
X4.012Y-3.7555
X4.012Y-3.8555
X4.012Y-3.9555
X4.012Y-4.0555
X4.012Y-4.1555
X4.012Y-4.2555
X4.012Y-4.5555
X4.012Y-4.6555
X4.012Y-4.7555
X4.012Y-4.8555
X4.012Y-4.9555
X4.012Y-5.0555
X4.012Y-5.1555
X4.012Y-5.2555
X4.012Y-5.3555
X4.012Y-5.4555
T6
X6.2187Y-3.1531
X6.2687Y-3.0531
X6.3187Y-3.1531
X6.3687Y-3.0531
X6.4187Y-3.1531
X6.4687Y-3.0531
X6.5187Y-3.1531
X6.5687Y-3.0531
T7
X4.8092Y-2.8833
X4.8092Y-2.9777
X4.9077Y-2.8833
X4.9077Y-2.9777
X4.9864Y-2.8833
X4.9864Y-2.9777
X5.0848Y-2.8833
X5.0848Y-2.9777
X5.5142Y-2.8833
X5.5142Y-2.9777
X5.6127Y-2.8833
X5.6127Y-2.9777
X5.6914Y-2.8833
X5.6914Y-2.9777
X5.7898Y-2.8833
X5.7898Y-2.9777
T8
X4.0456Y-2.6745
X4.0456Y-2.7745
X4.0456Y-2.8745
X4.0456Y-2.9745
X4.0456Y-3.0995
X4.1456Y-2.6745
X4.1456Y-2.7745
X4.1456Y-2.8745
X4.1456Y-2.9745
X4.1456Y-3.0995
X4.157Y-4.0005
X4.157Y-4.1005
X4.157Y-4.2005
X4.157Y-4.3005
X4.2456Y-3.0995
X4.3456Y-3.0995
X4.447Y-4.6405
X4.547Y-4.6405
X4.647Y-4.6405
X4.747Y-4.6405
X4.847Y-4.6405
X4.8556Y-3.6845
X4.8556Y-3.7845
X4.8556Y-3.8845
X4.8556Y-3.9845
X4.947Y-4.6405
X5.047Y-4.6405
X5.8419Y-3.5656
X5.9419Y-3.5656
X6.0419Y-3.5656
T9
X6.1329Y-2.6102
X6.2329Y-2.6102
X6.5545Y-2.6102
X6.6545Y-2.6102
T10
X6.0888Y-2.9232
X6.6986Y-2.9232
T11
X4.6931Y-2.7612
X4.6931Y-2.9856
X5.201Y-2.9856
X5.2029Y-2.7612
X5.3981Y-2.7612
X5.3981Y-2.9856
X5.906Y-2.9856
X5.9079Y-2.7612
T12
X4.037Y-2.5055
X4.037Y-5.8055
X6.837Y-2.5055
X6.837Y-5.8055
T4
X4.1859Y-2.4462G85X4.1859Y-2.4619
G05
X4.4714Y-2.4462G85X4.4714Y-2.4619
G05
T0
M30
