G04 #@! TF.FileFunction,Paste,Top*
%FSLAX46Y46*%
G04 Gerber Fmt 4.6, Leading zero omitted, Abs format (unit mm)*
G04 Created by KiCad (PCBNEW 0.201412111631+5320~19~ubuntu14.04.1-product) date Sun 21 Dec 2014 09:15:08 PM PST*
%MOMM*%
G01*
G04 APERTURE LIST*
%ADD10C,0.100000*%
%ADD11R,0.398780X0.599440*%
%ADD12R,0.599440X0.398780*%
%ADD13R,0.889000X1.397000*%
%ADD14R,1.397000X0.889000*%
%ADD15R,0.797560X0.797560*%
%ADD16R,0.800100X1.000760*%
%ADD17R,1.000760X0.800100*%
%ADD18R,0.400000X1.400000*%
%ADD19R,2.300000X1.900000*%
%ADD20R,1.700000X1.900000*%
%ADD21R,1.500000X1.000000*%
%ADD22R,0.635000X1.143000*%
%ADD23R,0.300000X0.500000*%
%ADD24R,1.700000X1.000000*%
%ADD25R,0.701040X1.000760*%
%ADD26R,0.850000X0.300000*%
%ADD27R,1.600000X2.600000*%
%ADD28R,0.599440X0.248920*%
%ADD29R,0.248920X0.599440*%
%ADD30R,5.150000X5.150000*%
%ADD31R,1.800000X1.000000*%
%ADD32R,2.000000X2.400000*%
%ADD33O,0.900000X0.600000*%
%ADD34R,4.650000X4.800000*%
%ADD35R,0.500000X0.400000*%
%ADD36R,0.762000X0.508000*%
%ADD37R,1.143000X0.635000*%
%ADD38C,0.450000*%
%ADD39R,1.500000X3.500000*%
%ADD40R,1.500000X1.600000*%
%ADD41R,1.600000X5.700000*%
%ADD42C,1.000000*%
G04 APERTURE END LIST*
D10*
D11*
X169991420Y-109122000D03*
X170890580Y-109122000D03*
D12*
X172600000Y-109180420D03*
X172600000Y-110079580D03*
D10*
G36*
X154865219Y-119340063D02*
X154709656Y-119495626D01*
X154426813Y-119212783D01*
X154582376Y-119057220D01*
X154865219Y-119340063D01*
X154865219Y-119340063D01*
G37*
G36*
X155218772Y-118986510D02*
X155063209Y-119142073D01*
X154780366Y-118859230D01*
X154935929Y-118703667D01*
X155218772Y-118986510D01*
X155218772Y-118986510D01*
G37*
G36*
X155572325Y-118632956D02*
X155416762Y-118788519D01*
X155133919Y-118505676D01*
X155289482Y-118350113D01*
X155572325Y-118632956D01*
X155572325Y-118632956D01*
G37*
G36*
X155925879Y-118279403D02*
X155770316Y-118434966D01*
X155487473Y-118152123D01*
X155643036Y-117996560D01*
X155925879Y-118279403D01*
X155925879Y-118279403D01*
G37*
G36*
X156279432Y-117925850D02*
X156123869Y-118081413D01*
X155841026Y-117798570D01*
X155996589Y-117643007D01*
X156279432Y-117925850D01*
X156279432Y-117925850D01*
G37*
G36*
X156632985Y-117572296D02*
X156477422Y-117727859D01*
X156194579Y-117445016D01*
X156350142Y-117289453D01*
X156632985Y-117572296D01*
X156632985Y-117572296D01*
G37*
G36*
X156986539Y-117218743D02*
X156830976Y-117374306D01*
X156548133Y-117091463D01*
X156703696Y-116935900D01*
X156986539Y-117218743D01*
X156986539Y-117218743D01*
G37*
G36*
X157340092Y-116865189D02*
X157184529Y-117020752D01*
X156901686Y-116737909D01*
X157057249Y-116582346D01*
X157340092Y-116865189D01*
X157340092Y-116865189D01*
G37*
G36*
X157693646Y-116511636D02*
X157538083Y-116667199D01*
X157255240Y-116384356D01*
X157410803Y-116228793D01*
X157693646Y-116511636D01*
X157693646Y-116511636D01*
G37*
G36*
X158047199Y-116158083D02*
X157891636Y-116313646D01*
X157608793Y-116030803D01*
X157764356Y-115875240D01*
X158047199Y-116158083D01*
X158047199Y-116158083D01*
G37*
G36*
X158400752Y-115804529D02*
X158245189Y-115960092D01*
X157962346Y-115677249D01*
X158117909Y-115521686D01*
X158400752Y-115804529D01*
X158400752Y-115804529D01*
G37*
G36*
X158754306Y-115450976D02*
X158598743Y-115606539D01*
X158315900Y-115323696D01*
X158471463Y-115168133D01*
X158754306Y-115450976D01*
X158754306Y-115450976D01*
G37*
G36*
X159107859Y-115097422D02*
X158952296Y-115252985D01*
X158669453Y-114970142D01*
X158825016Y-114814579D01*
X159107859Y-115097422D01*
X159107859Y-115097422D01*
G37*
G36*
X159461413Y-114743869D02*
X159305850Y-114899432D01*
X159023007Y-114616589D01*
X159178570Y-114461026D01*
X159461413Y-114743869D01*
X159461413Y-114743869D01*
G37*
G36*
X159814966Y-114390316D02*
X159659403Y-114545879D01*
X159376560Y-114263036D01*
X159532123Y-114107473D01*
X159814966Y-114390316D01*
X159814966Y-114390316D01*
G37*
G36*
X160168519Y-114036762D02*
X160012956Y-114192325D01*
X159730113Y-113909482D01*
X159885676Y-113753919D01*
X160168519Y-114036762D01*
X160168519Y-114036762D01*
G37*
G36*
X160522073Y-113683209D02*
X160366510Y-113838772D01*
X160083667Y-113555929D01*
X160239230Y-113400366D01*
X160522073Y-113683209D01*
X160522073Y-113683209D01*
G37*
G36*
X160875626Y-113329656D02*
X160720063Y-113485219D01*
X160437220Y-113202376D01*
X160592783Y-113046813D01*
X160875626Y-113329656D01*
X160875626Y-113329656D01*
G37*
G36*
X154228822Y-119057220D02*
X154073259Y-119212783D01*
X153790416Y-118929940D01*
X153945979Y-118774377D01*
X154228822Y-119057220D01*
X154228822Y-119057220D01*
G37*
G36*
X154582376Y-118703667D02*
X154426813Y-118859230D01*
X154143970Y-118576387D01*
X154299533Y-118420824D01*
X154582376Y-118703667D01*
X154582376Y-118703667D01*
G37*
G36*
X154935929Y-118350114D02*
X154780366Y-118505677D01*
X154497523Y-118222834D01*
X154653086Y-118067271D01*
X154935929Y-118350114D01*
X154935929Y-118350114D01*
G37*
G36*
X155289483Y-117996560D02*
X155133920Y-118152123D01*
X154851077Y-117869280D01*
X155006640Y-117713717D01*
X155289483Y-117996560D01*
X155289483Y-117996560D01*
G37*
G36*
X155643036Y-117643007D02*
X155487473Y-117798570D01*
X155204630Y-117515727D01*
X155360193Y-117360164D01*
X155643036Y-117643007D01*
X155643036Y-117643007D01*
G37*
G36*
X155996589Y-117289453D02*
X155841026Y-117445016D01*
X155558183Y-117162173D01*
X155713746Y-117006610D01*
X155996589Y-117289453D01*
X155996589Y-117289453D01*
G37*
G36*
X156350143Y-116935900D02*
X156194580Y-117091463D01*
X155911737Y-116808620D01*
X156067300Y-116653057D01*
X156350143Y-116935900D01*
X156350143Y-116935900D01*
G37*
G36*
X156703696Y-116582347D02*
X156548133Y-116737910D01*
X156265290Y-116455067D01*
X156420853Y-116299504D01*
X156703696Y-116582347D01*
X156703696Y-116582347D01*
G37*
G36*
X157057250Y-116228793D02*
X156901687Y-116384356D01*
X156618844Y-116101513D01*
X156774407Y-115945950D01*
X157057250Y-116228793D01*
X157057250Y-116228793D01*
G37*
G36*
X157410803Y-115875240D02*
X157255240Y-116030803D01*
X156972397Y-115747960D01*
X157127960Y-115592397D01*
X157410803Y-115875240D01*
X157410803Y-115875240D01*
G37*
G36*
X157764356Y-115521687D02*
X157608793Y-115677250D01*
X157325950Y-115394407D01*
X157481513Y-115238844D01*
X157764356Y-115521687D01*
X157764356Y-115521687D01*
G37*
G36*
X158117910Y-115168133D02*
X157962347Y-115323696D01*
X157679504Y-115040853D01*
X157835067Y-114885290D01*
X158117910Y-115168133D01*
X158117910Y-115168133D01*
G37*
G36*
X158471463Y-114814580D02*
X158315900Y-114970143D01*
X158033057Y-114687300D01*
X158188620Y-114531737D01*
X158471463Y-114814580D01*
X158471463Y-114814580D01*
G37*
G36*
X158825016Y-114461026D02*
X158669453Y-114616589D01*
X158386610Y-114333746D01*
X158542173Y-114178183D01*
X158825016Y-114461026D01*
X158825016Y-114461026D01*
G37*
G36*
X159178570Y-114107473D02*
X159023007Y-114263036D01*
X158740164Y-113980193D01*
X158895727Y-113824630D01*
X159178570Y-114107473D01*
X159178570Y-114107473D01*
G37*
G36*
X159532123Y-113753920D02*
X159376560Y-113909483D01*
X159093717Y-113626640D01*
X159249280Y-113471077D01*
X159532123Y-113753920D01*
X159532123Y-113753920D01*
G37*
G36*
X159885677Y-113400366D02*
X159730114Y-113555929D01*
X159447271Y-113273086D01*
X159602834Y-113117523D01*
X159885677Y-113400366D01*
X159885677Y-113400366D01*
G37*
G36*
X160239230Y-113046813D02*
X160083667Y-113202376D01*
X159800824Y-112919533D01*
X159956387Y-112763970D01*
X160239230Y-113046813D01*
X160239230Y-113046813D01*
G37*
G36*
X160592783Y-112693259D02*
X160437220Y-112848822D01*
X160154377Y-112565979D01*
X160309940Y-112410416D01*
X160592783Y-112693259D01*
X160592783Y-112693259D01*
G37*
G36*
X152673187Y-105127217D02*
X152517624Y-105282780D01*
X152234781Y-104999937D01*
X152390344Y-104844374D01*
X152673187Y-105127217D01*
X152673187Y-105127217D01*
G37*
G36*
X152319634Y-105480770D02*
X152164071Y-105636333D01*
X151881228Y-105353490D01*
X152036791Y-105197927D01*
X152319634Y-105480770D01*
X152319634Y-105480770D01*
G37*
G36*
X151966081Y-105834324D02*
X151810518Y-105989887D01*
X151527675Y-105707044D01*
X151683238Y-105551481D01*
X151966081Y-105834324D01*
X151966081Y-105834324D01*
G37*
G36*
X151612527Y-106187877D02*
X151456964Y-106343440D01*
X151174121Y-106060597D01*
X151329684Y-105905034D01*
X151612527Y-106187877D01*
X151612527Y-106187877D01*
G37*
G36*
X151258974Y-106541430D02*
X151103411Y-106696993D01*
X150820568Y-106414150D01*
X150976131Y-106258587D01*
X151258974Y-106541430D01*
X151258974Y-106541430D01*
G37*
G36*
X150905421Y-106894984D02*
X150749858Y-107050547D01*
X150467015Y-106767704D01*
X150622578Y-106612141D01*
X150905421Y-106894984D01*
X150905421Y-106894984D01*
G37*
G36*
X150551867Y-107248537D02*
X150396304Y-107404100D01*
X150113461Y-107121257D01*
X150269024Y-106965694D01*
X150551867Y-107248537D01*
X150551867Y-107248537D01*
G37*
G36*
X150198314Y-107602091D02*
X150042751Y-107757654D01*
X149759908Y-107474811D01*
X149915471Y-107319248D01*
X150198314Y-107602091D01*
X150198314Y-107602091D01*
G37*
G36*
X149844760Y-107955644D02*
X149689197Y-108111207D01*
X149406354Y-107828364D01*
X149561917Y-107672801D01*
X149844760Y-107955644D01*
X149844760Y-107955644D01*
G37*
G36*
X149491207Y-108309197D02*
X149335644Y-108464760D01*
X149052801Y-108181917D01*
X149208364Y-108026354D01*
X149491207Y-108309197D01*
X149491207Y-108309197D01*
G37*
G36*
X149137654Y-108662751D02*
X148982091Y-108818314D01*
X148699248Y-108535471D01*
X148854811Y-108379908D01*
X149137654Y-108662751D01*
X149137654Y-108662751D01*
G37*
G36*
X148784100Y-109016304D02*
X148628537Y-109171867D01*
X148345694Y-108889024D01*
X148501257Y-108733461D01*
X148784100Y-109016304D01*
X148784100Y-109016304D01*
G37*
G36*
X148430547Y-109369858D02*
X148274984Y-109525421D01*
X147992141Y-109242578D01*
X148147704Y-109087015D01*
X148430547Y-109369858D01*
X148430547Y-109369858D01*
G37*
G36*
X148076993Y-109723411D02*
X147921430Y-109878974D01*
X147638587Y-109596131D01*
X147794150Y-109440568D01*
X148076993Y-109723411D01*
X148076993Y-109723411D01*
G37*
G36*
X147723440Y-110076964D02*
X147567877Y-110232527D01*
X147285034Y-109949684D01*
X147440597Y-109794121D01*
X147723440Y-110076964D01*
X147723440Y-110076964D01*
G37*
G36*
X147369887Y-110430518D02*
X147214324Y-110586081D01*
X146931481Y-110303238D01*
X147087044Y-110147675D01*
X147369887Y-110430518D01*
X147369887Y-110430518D01*
G37*
G36*
X147016333Y-110784071D02*
X146860770Y-110939634D01*
X146577927Y-110656791D01*
X146733490Y-110501228D01*
X147016333Y-110784071D01*
X147016333Y-110784071D01*
G37*
G36*
X146662780Y-111137624D02*
X146507217Y-111293187D01*
X146224374Y-111010344D01*
X146379937Y-110854781D01*
X146662780Y-111137624D01*
X146662780Y-111137624D01*
G37*
G36*
X146309226Y-111491178D02*
X146153663Y-111646741D01*
X145870820Y-111363898D01*
X146026383Y-111208335D01*
X146309226Y-111491178D01*
X146309226Y-111491178D01*
G37*
G36*
X153309584Y-105410060D02*
X153154021Y-105565623D01*
X152871178Y-105282780D01*
X153026741Y-105127217D01*
X153309584Y-105410060D01*
X153309584Y-105410060D01*
G37*
G36*
X152956030Y-105763613D02*
X152800467Y-105919176D01*
X152517624Y-105636333D01*
X152673187Y-105480770D01*
X152956030Y-105763613D01*
X152956030Y-105763613D01*
G37*
G36*
X152602477Y-106117166D02*
X152446914Y-106272729D01*
X152164071Y-105989886D01*
X152319634Y-105834323D01*
X152602477Y-106117166D01*
X152602477Y-106117166D01*
G37*
G36*
X152248923Y-106470720D02*
X152093360Y-106626283D01*
X151810517Y-106343440D01*
X151966080Y-106187877D01*
X152248923Y-106470720D01*
X152248923Y-106470720D01*
G37*
G36*
X151895370Y-106824273D02*
X151739807Y-106979836D01*
X151456964Y-106696993D01*
X151612527Y-106541430D01*
X151895370Y-106824273D01*
X151895370Y-106824273D01*
G37*
G36*
X151541817Y-107177827D02*
X151386254Y-107333390D01*
X151103411Y-107050547D01*
X151258974Y-106894984D01*
X151541817Y-107177827D01*
X151541817Y-107177827D01*
G37*
G36*
X151188263Y-107531380D02*
X151032700Y-107686943D01*
X150749857Y-107404100D01*
X150905420Y-107248537D01*
X151188263Y-107531380D01*
X151188263Y-107531380D01*
G37*
G36*
X150834710Y-107884933D02*
X150679147Y-108040496D01*
X150396304Y-107757653D01*
X150551867Y-107602090D01*
X150834710Y-107884933D01*
X150834710Y-107884933D01*
G37*
G36*
X150481156Y-108238487D02*
X150325593Y-108394050D01*
X150042750Y-108111207D01*
X150198313Y-107955644D01*
X150481156Y-108238487D01*
X150481156Y-108238487D01*
G37*
G36*
X150127603Y-108592040D02*
X149972040Y-108747603D01*
X149689197Y-108464760D01*
X149844760Y-108309197D01*
X150127603Y-108592040D01*
X150127603Y-108592040D01*
G37*
G36*
X149774050Y-108945593D02*
X149618487Y-109101156D01*
X149335644Y-108818313D01*
X149491207Y-108662750D01*
X149774050Y-108945593D01*
X149774050Y-108945593D01*
G37*
G36*
X149420496Y-109299147D02*
X149264933Y-109454710D01*
X148982090Y-109171867D01*
X149137653Y-109016304D01*
X149420496Y-109299147D01*
X149420496Y-109299147D01*
G37*
G36*
X149066943Y-109652700D02*
X148911380Y-109808263D01*
X148628537Y-109525420D01*
X148784100Y-109369857D01*
X149066943Y-109652700D01*
X149066943Y-109652700D01*
G37*
G36*
X148713390Y-110006254D02*
X148557827Y-110161817D01*
X148274984Y-109878974D01*
X148430547Y-109723411D01*
X148713390Y-110006254D01*
X148713390Y-110006254D01*
G37*
G36*
X148359836Y-110359807D02*
X148204273Y-110515370D01*
X147921430Y-110232527D01*
X148076993Y-110076964D01*
X148359836Y-110359807D01*
X148359836Y-110359807D01*
G37*
G36*
X148006283Y-110713360D02*
X147850720Y-110868923D01*
X147567877Y-110586080D01*
X147723440Y-110430517D01*
X148006283Y-110713360D01*
X148006283Y-110713360D01*
G37*
G36*
X147652729Y-111066914D02*
X147497166Y-111222477D01*
X147214323Y-110939634D01*
X147369886Y-110784071D01*
X147652729Y-111066914D01*
X147652729Y-111066914D01*
G37*
G36*
X147299176Y-111420467D02*
X147143613Y-111576030D01*
X146860770Y-111293187D01*
X147016333Y-111137624D01*
X147299176Y-111420467D01*
X147299176Y-111420467D01*
G37*
G36*
X160875626Y-111010344D02*
X160592783Y-111293187D01*
X160437220Y-111137624D01*
X160720063Y-110854781D01*
X160875626Y-111010344D01*
X160875626Y-111010344D01*
G37*
G36*
X160522073Y-110656791D02*
X160239230Y-110939634D01*
X160083667Y-110784071D01*
X160366510Y-110501228D01*
X160522073Y-110656791D01*
X160522073Y-110656791D01*
G37*
G36*
X160168519Y-110303238D02*
X159885676Y-110586081D01*
X159730113Y-110430518D01*
X160012956Y-110147675D01*
X160168519Y-110303238D01*
X160168519Y-110303238D01*
G37*
G36*
X159814966Y-109949684D02*
X159532123Y-110232527D01*
X159376560Y-110076964D01*
X159659403Y-109794121D01*
X159814966Y-109949684D01*
X159814966Y-109949684D01*
G37*
G36*
X159461413Y-109596131D02*
X159178570Y-109878974D01*
X159023007Y-109723411D01*
X159305850Y-109440568D01*
X159461413Y-109596131D01*
X159461413Y-109596131D01*
G37*
G36*
X159107859Y-109242578D02*
X158825016Y-109525421D01*
X158669453Y-109369858D01*
X158952296Y-109087015D01*
X159107859Y-109242578D01*
X159107859Y-109242578D01*
G37*
G36*
X158754306Y-108889024D02*
X158471463Y-109171867D01*
X158315900Y-109016304D01*
X158598743Y-108733461D01*
X158754306Y-108889024D01*
X158754306Y-108889024D01*
G37*
G36*
X158400752Y-108535471D02*
X158117909Y-108818314D01*
X157962346Y-108662751D01*
X158245189Y-108379908D01*
X158400752Y-108535471D01*
X158400752Y-108535471D01*
G37*
G36*
X158047199Y-108181917D02*
X157764356Y-108464760D01*
X157608793Y-108309197D01*
X157891636Y-108026354D01*
X158047199Y-108181917D01*
X158047199Y-108181917D01*
G37*
G36*
X157693646Y-107828364D02*
X157410803Y-108111207D01*
X157255240Y-107955644D01*
X157538083Y-107672801D01*
X157693646Y-107828364D01*
X157693646Y-107828364D01*
G37*
G36*
X157340092Y-107474811D02*
X157057249Y-107757654D01*
X156901686Y-107602091D01*
X157184529Y-107319248D01*
X157340092Y-107474811D01*
X157340092Y-107474811D01*
G37*
G36*
X156986539Y-107121257D02*
X156703696Y-107404100D01*
X156548133Y-107248537D01*
X156830976Y-106965694D01*
X156986539Y-107121257D01*
X156986539Y-107121257D01*
G37*
G36*
X156632985Y-106767704D02*
X156350142Y-107050547D01*
X156194579Y-106894984D01*
X156477422Y-106612141D01*
X156632985Y-106767704D01*
X156632985Y-106767704D01*
G37*
G36*
X156279432Y-106414150D02*
X155996589Y-106696993D01*
X155841026Y-106541430D01*
X156123869Y-106258587D01*
X156279432Y-106414150D01*
X156279432Y-106414150D01*
G37*
G36*
X155925879Y-106060597D02*
X155643036Y-106343440D01*
X155487473Y-106187877D01*
X155770316Y-105905034D01*
X155925879Y-106060597D01*
X155925879Y-106060597D01*
G37*
G36*
X155572325Y-105707044D02*
X155289482Y-105989887D01*
X155133919Y-105834324D01*
X155416762Y-105551481D01*
X155572325Y-105707044D01*
X155572325Y-105707044D01*
G37*
G36*
X155218772Y-105353490D02*
X154935929Y-105636333D01*
X154780366Y-105480770D01*
X155063209Y-105197927D01*
X155218772Y-105353490D01*
X155218772Y-105353490D01*
G37*
G36*
X154865219Y-104999937D02*
X154582376Y-105282780D01*
X154426813Y-105127217D01*
X154709656Y-104844374D01*
X154865219Y-104999937D01*
X154865219Y-104999937D01*
G37*
G36*
X160592783Y-111646741D02*
X160309940Y-111929584D01*
X160154377Y-111774021D01*
X160437220Y-111491178D01*
X160592783Y-111646741D01*
X160592783Y-111646741D01*
G37*
G36*
X160239230Y-111293187D02*
X159956387Y-111576030D01*
X159800824Y-111420467D01*
X160083667Y-111137624D01*
X160239230Y-111293187D01*
X160239230Y-111293187D01*
G37*
G36*
X159885677Y-110939634D02*
X159602834Y-111222477D01*
X159447271Y-111066914D01*
X159730114Y-110784071D01*
X159885677Y-110939634D01*
X159885677Y-110939634D01*
G37*
G36*
X159532123Y-110586080D02*
X159249280Y-110868923D01*
X159093717Y-110713360D01*
X159376560Y-110430517D01*
X159532123Y-110586080D01*
X159532123Y-110586080D01*
G37*
G36*
X159178570Y-110232527D02*
X158895727Y-110515370D01*
X158740164Y-110359807D01*
X159023007Y-110076964D01*
X159178570Y-110232527D01*
X159178570Y-110232527D01*
G37*
G36*
X158825016Y-109878974D02*
X158542173Y-110161817D01*
X158386610Y-110006254D01*
X158669453Y-109723411D01*
X158825016Y-109878974D01*
X158825016Y-109878974D01*
G37*
G36*
X158471463Y-109525420D02*
X158188620Y-109808263D01*
X158033057Y-109652700D01*
X158315900Y-109369857D01*
X158471463Y-109525420D01*
X158471463Y-109525420D01*
G37*
G36*
X158117910Y-109171867D02*
X157835067Y-109454710D01*
X157679504Y-109299147D01*
X157962347Y-109016304D01*
X158117910Y-109171867D01*
X158117910Y-109171867D01*
G37*
G36*
X157764356Y-108818313D02*
X157481513Y-109101156D01*
X157325950Y-108945593D01*
X157608793Y-108662750D01*
X157764356Y-108818313D01*
X157764356Y-108818313D01*
G37*
G36*
X157410803Y-108464760D02*
X157127960Y-108747603D01*
X156972397Y-108592040D01*
X157255240Y-108309197D01*
X157410803Y-108464760D01*
X157410803Y-108464760D01*
G37*
G36*
X157057250Y-108111207D02*
X156774407Y-108394050D01*
X156618844Y-108238487D01*
X156901687Y-107955644D01*
X157057250Y-108111207D01*
X157057250Y-108111207D01*
G37*
G36*
X156703696Y-107757653D02*
X156420853Y-108040496D01*
X156265290Y-107884933D01*
X156548133Y-107602090D01*
X156703696Y-107757653D01*
X156703696Y-107757653D01*
G37*
G36*
X156350143Y-107404100D02*
X156067300Y-107686943D01*
X155911737Y-107531380D01*
X156194580Y-107248537D01*
X156350143Y-107404100D01*
X156350143Y-107404100D01*
G37*
G36*
X155996589Y-107050547D02*
X155713746Y-107333390D01*
X155558183Y-107177827D01*
X155841026Y-106894984D01*
X155996589Y-107050547D01*
X155996589Y-107050547D01*
G37*
G36*
X155643036Y-106696993D02*
X155360193Y-106979836D01*
X155204630Y-106824273D01*
X155487473Y-106541430D01*
X155643036Y-106696993D01*
X155643036Y-106696993D01*
G37*
G36*
X155289483Y-106343440D02*
X155006640Y-106626283D01*
X154851077Y-106470720D01*
X155133920Y-106187877D01*
X155289483Y-106343440D01*
X155289483Y-106343440D01*
G37*
G36*
X154935929Y-105989886D02*
X154653086Y-106272729D01*
X154497523Y-106117166D01*
X154780366Y-105834323D01*
X154935929Y-105989886D01*
X154935929Y-105989886D01*
G37*
G36*
X154582376Y-105636333D02*
X154299533Y-105919176D01*
X154143970Y-105763613D01*
X154426813Y-105480770D01*
X154582376Y-105636333D01*
X154582376Y-105636333D01*
G37*
G36*
X154228822Y-105282780D02*
X153945979Y-105565623D01*
X153790416Y-105410060D01*
X154073259Y-105127217D01*
X154228822Y-105282780D01*
X154228822Y-105282780D01*
G37*
G36*
X146309226Y-112848822D02*
X146026383Y-113131665D01*
X145870820Y-112976102D01*
X146153663Y-112693259D01*
X146309226Y-112848822D01*
X146309226Y-112848822D01*
G37*
G36*
X146662780Y-113202376D02*
X146379937Y-113485219D01*
X146224374Y-113329656D01*
X146507217Y-113046813D01*
X146662780Y-113202376D01*
X146662780Y-113202376D01*
G37*
G36*
X147016333Y-113555929D02*
X146733490Y-113838772D01*
X146577927Y-113683209D01*
X146860770Y-113400366D01*
X147016333Y-113555929D01*
X147016333Y-113555929D01*
G37*
G36*
X147369887Y-113909482D02*
X147087044Y-114192325D01*
X146931481Y-114036762D01*
X147214324Y-113753919D01*
X147369887Y-113909482D01*
X147369887Y-113909482D01*
G37*
G36*
X147723440Y-114263036D02*
X147440597Y-114545879D01*
X147285034Y-114390316D01*
X147567877Y-114107473D01*
X147723440Y-114263036D01*
X147723440Y-114263036D01*
G37*
G36*
X148076993Y-114616589D02*
X147794150Y-114899432D01*
X147638587Y-114743869D01*
X147921430Y-114461026D01*
X148076993Y-114616589D01*
X148076993Y-114616589D01*
G37*
G36*
X148430547Y-114970142D02*
X148147704Y-115252985D01*
X147992141Y-115097422D01*
X148274984Y-114814579D01*
X148430547Y-114970142D01*
X148430547Y-114970142D01*
G37*
G36*
X148784100Y-115323696D02*
X148501257Y-115606539D01*
X148345694Y-115450976D01*
X148628537Y-115168133D01*
X148784100Y-115323696D01*
X148784100Y-115323696D01*
G37*
G36*
X149137654Y-115677249D02*
X148854811Y-115960092D01*
X148699248Y-115804529D01*
X148982091Y-115521686D01*
X149137654Y-115677249D01*
X149137654Y-115677249D01*
G37*
G36*
X149491207Y-116030803D02*
X149208364Y-116313646D01*
X149052801Y-116158083D01*
X149335644Y-115875240D01*
X149491207Y-116030803D01*
X149491207Y-116030803D01*
G37*
G36*
X149844760Y-116384356D02*
X149561917Y-116667199D01*
X149406354Y-116511636D01*
X149689197Y-116228793D01*
X149844760Y-116384356D01*
X149844760Y-116384356D01*
G37*
G36*
X150198314Y-116737909D02*
X149915471Y-117020752D01*
X149759908Y-116865189D01*
X150042751Y-116582346D01*
X150198314Y-116737909D01*
X150198314Y-116737909D01*
G37*
G36*
X150551867Y-117091463D02*
X150269024Y-117374306D01*
X150113461Y-117218743D01*
X150396304Y-116935900D01*
X150551867Y-117091463D01*
X150551867Y-117091463D01*
G37*
G36*
X150905421Y-117445016D02*
X150622578Y-117727859D01*
X150467015Y-117572296D01*
X150749858Y-117289453D01*
X150905421Y-117445016D01*
X150905421Y-117445016D01*
G37*
G36*
X151258974Y-117798570D02*
X150976131Y-118081413D01*
X150820568Y-117925850D01*
X151103411Y-117643007D01*
X151258974Y-117798570D01*
X151258974Y-117798570D01*
G37*
G36*
X151612527Y-118152123D02*
X151329684Y-118434966D01*
X151174121Y-118279403D01*
X151456964Y-117996560D01*
X151612527Y-118152123D01*
X151612527Y-118152123D01*
G37*
G36*
X151966081Y-118505676D02*
X151683238Y-118788519D01*
X151527675Y-118632956D01*
X151810518Y-118350113D01*
X151966081Y-118505676D01*
X151966081Y-118505676D01*
G37*
G36*
X152319634Y-118859230D02*
X152036791Y-119142073D01*
X151881228Y-118986510D01*
X152164071Y-118703667D01*
X152319634Y-118859230D01*
X152319634Y-118859230D01*
G37*
G36*
X152673187Y-119212783D02*
X152390344Y-119495626D01*
X152234781Y-119340063D01*
X152517624Y-119057220D01*
X152673187Y-119212783D01*
X152673187Y-119212783D01*
G37*
G36*
X147299176Y-112919533D02*
X147016333Y-113202376D01*
X146860770Y-113046813D01*
X147143613Y-112763970D01*
X147299176Y-112919533D01*
X147299176Y-112919533D01*
G37*
G36*
X147652729Y-113273086D02*
X147369886Y-113555929D01*
X147214323Y-113400366D01*
X147497166Y-113117523D01*
X147652729Y-113273086D01*
X147652729Y-113273086D01*
G37*
G36*
X148006283Y-113626640D02*
X147723440Y-113909483D01*
X147567877Y-113753920D01*
X147850720Y-113471077D01*
X148006283Y-113626640D01*
X148006283Y-113626640D01*
G37*
G36*
X148359836Y-113980193D02*
X148076993Y-114263036D01*
X147921430Y-114107473D01*
X148204273Y-113824630D01*
X148359836Y-113980193D01*
X148359836Y-113980193D01*
G37*
G36*
X148713390Y-114333746D02*
X148430547Y-114616589D01*
X148274984Y-114461026D01*
X148557827Y-114178183D01*
X148713390Y-114333746D01*
X148713390Y-114333746D01*
G37*
G36*
X149066943Y-114687300D02*
X148784100Y-114970143D01*
X148628537Y-114814580D01*
X148911380Y-114531737D01*
X149066943Y-114687300D01*
X149066943Y-114687300D01*
G37*
G36*
X149420496Y-115040853D02*
X149137653Y-115323696D01*
X148982090Y-115168133D01*
X149264933Y-114885290D01*
X149420496Y-115040853D01*
X149420496Y-115040853D01*
G37*
G36*
X149774050Y-115394407D02*
X149491207Y-115677250D01*
X149335644Y-115521687D01*
X149618487Y-115238844D01*
X149774050Y-115394407D01*
X149774050Y-115394407D01*
G37*
G36*
X150127603Y-115747960D02*
X149844760Y-116030803D01*
X149689197Y-115875240D01*
X149972040Y-115592397D01*
X150127603Y-115747960D01*
X150127603Y-115747960D01*
G37*
G36*
X150481156Y-116101513D02*
X150198313Y-116384356D01*
X150042750Y-116228793D01*
X150325593Y-115945950D01*
X150481156Y-116101513D01*
X150481156Y-116101513D01*
G37*
G36*
X150834710Y-116455067D02*
X150551867Y-116737910D01*
X150396304Y-116582347D01*
X150679147Y-116299504D01*
X150834710Y-116455067D01*
X150834710Y-116455067D01*
G37*
G36*
X151188263Y-116808620D02*
X150905420Y-117091463D01*
X150749857Y-116935900D01*
X151032700Y-116653057D01*
X151188263Y-116808620D01*
X151188263Y-116808620D01*
G37*
G36*
X151541817Y-117162173D02*
X151258974Y-117445016D01*
X151103411Y-117289453D01*
X151386254Y-117006610D01*
X151541817Y-117162173D01*
X151541817Y-117162173D01*
G37*
G36*
X151895370Y-117515727D02*
X151612527Y-117798570D01*
X151456964Y-117643007D01*
X151739807Y-117360164D01*
X151895370Y-117515727D01*
X151895370Y-117515727D01*
G37*
G36*
X152248923Y-117869280D02*
X151966080Y-118152123D01*
X151810517Y-117996560D01*
X152093360Y-117713717D01*
X152248923Y-117869280D01*
X152248923Y-117869280D01*
G37*
G36*
X152602477Y-118222834D02*
X152319634Y-118505677D01*
X152164071Y-118350114D01*
X152446914Y-118067271D01*
X152602477Y-118222834D01*
X152602477Y-118222834D01*
G37*
G36*
X152956030Y-118576387D02*
X152673187Y-118859230D01*
X152517624Y-118703667D01*
X152800467Y-118420824D01*
X152956030Y-118576387D01*
X152956030Y-118576387D01*
G37*
G36*
X153309584Y-118929940D02*
X153026741Y-119212783D01*
X152871178Y-119057220D01*
X153154021Y-118774377D01*
X153309584Y-118929940D01*
X153309584Y-118929940D01*
G37*
G36*
X157651219Y-112170000D02*
X153550000Y-116271219D01*
X149448781Y-112170000D01*
X153550000Y-108068781D01*
X157651219Y-112170000D01*
X157651219Y-112170000D01*
G37*
G36*
X157866363Y-121900752D02*
X157566643Y-121381622D01*
X157911997Y-121182232D01*
X158211717Y-121701362D01*
X157866363Y-121900752D01*
X157866363Y-121900752D01*
G37*
G36*
X157087667Y-122350332D02*
X156787947Y-121831202D01*
X157133301Y-121631812D01*
X157433021Y-122150942D01*
X157087667Y-122350332D01*
X157087667Y-122350332D01*
G37*
D12*
X117094000Y-96197420D03*
X117094000Y-97096580D03*
D10*
G36*
X144966792Y-128085878D02*
X146451716Y-129570802D01*
X145567832Y-130454686D01*
X144082908Y-128969762D01*
X144966792Y-128085878D01*
X144966792Y-128085878D01*
G37*
G36*
X140193822Y-132858848D02*
X141678746Y-134343772D01*
X140794862Y-135227656D01*
X139309938Y-133742732D01*
X140193822Y-132858848D01*
X140193822Y-132858848D01*
G37*
G36*
X161273901Y-131759069D02*
X163092555Y-130709069D01*
X163717555Y-131791601D01*
X161898901Y-132841601D01*
X161273901Y-131759069D01*
X161273901Y-131759069D01*
G37*
G36*
X164648901Y-137604741D02*
X166467555Y-136554741D01*
X167092555Y-137637273D01*
X165273901Y-138687273D01*
X164648901Y-137604741D01*
X164648901Y-137604741D01*
G37*
G36*
X148600931Y-128989434D02*
X150156566Y-130545069D01*
X149414103Y-131287532D01*
X147858468Y-129731897D01*
X148600931Y-128989434D01*
X148600931Y-128989434D01*
G37*
G36*
X150686897Y-126903468D02*
X152242532Y-128459103D01*
X151500069Y-129201566D01*
X149944434Y-127645931D01*
X150686897Y-126903468D01*
X150686897Y-126903468D01*
G37*
G36*
X148954484Y-127292378D02*
X149696946Y-128034840D01*
X148989840Y-128741946D01*
X148247378Y-127999484D01*
X148954484Y-127292378D01*
X148954484Y-127292378D01*
G37*
G36*
X163186654Y-128385115D02*
X165091910Y-127285115D01*
X165616910Y-128194441D01*
X163711654Y-129294441D01*
X163186654Y-128385115D01*
X163186654Y-128385115D01*
G37*
G36*
X161711654Y-125830341D02*
X163616910Y-124730341D01*
X164141910Y-125639667D01*
X162236654Y-126739667D01*
X161711654Y-125830341D01*
X161711654Y-125830341D01*
G37*
G36*
X161638930Y-127604378D02*
X162548256Y-127079378D01*
X163048256Y-127945404D01*
X162138930Y-128470404D01*
X161638930Y-127604378D01*
X161638930Y-127604378D01*
G37*
D11*
X162923160Y-113029619D03*
X162024000Y-113029619D03*
D10*
G36*
X147412425Y-104864642D02*
X146988557Y-104440774D01*
X147270537Y-104158794D01*
X147694405Y-104582662D01*
X147412425Y-104864642D01*
X147412425Y-104864642D01*
G37*
G36*
X146776623Y-105500444D02*
X146352755Y-105076576D01*
X146634735Y-104794596D01*
X147058603Y-105218464D01*
X146776623Y-105500444D01*
X146776623Y-105500444D01*
G37*
D11*
X144674000Y-117529619D03*
X145573160Y-117529619D03*
D10*
G36*
X146935023Y-108561155D02*
X146511155Y-108985023D01*
X146229175Y-108703043D01*
X146653043Y-108279175D01*
X146935023Y-108561155D01*
X146935023Y-108561155D01*
G37*
G36*
X147570825Y-109196957D02*
X147146957Y-109620825D01*
X146864977Y-109338845D01*
X147288845Y-108914977D01*
X147570825Y-109196957D01*
X147570825Y-109196957D01*
G37*
G36*
X159938845Y-107835023D02*
X159514977Y-107411155D01*
X159796957Y-107129175D01*
X160220825Y-107553043D01*
X159938845Y-107835023D01*
X159938845Y-107835023D01*
G37*
G36*
X159303043Y-108470825D02*
X158879175Y-108046957D01*
X159161155Y-107764977D01*
X159585023Y-108188845D01*
X159303043Y-108470825D01*
X159303043Y-108470825D01*
G37*
D12*
X155673580Y-121229199D03*
X155673580Y-120330039D03*
D11*
X164373160Y-123629619D03*
X163474000Y-123629619D03*
X163223160Y-111379619D03*
X162324000Y-111379619D03*
X183373160Y-112929619D03*
X182474000Y-112929619D03*
D10*
G36*
X150360155Y-119344977D02*
X150784023Y-119768845D01*
X150502043Y-120050825D01*
X150078175Y-119626957D01*
X150360155Y-119344977D01*
X150360155Y-119344977D01*
G37*
G36*
X150995957Y-118709175D02*
X151419825Y-119133043D01*
X151137845Y-119415023D01*
X150713977Y-118991155D01*
X150995957Y-118709175D01*
X150995957Y-118709175D01*
G37*
D11*
X172574000Y-112979619D03*
X173473160Y-112979619D03*
X172524000Y-114479619D03*
X173423160Y-114479619D03*
D10*
G36*
X147958603Y-107490774D02*
X147534735Y-107914642D01*
X147252755Y-107632662D01*
X147676623Y-107208794D01*
X147958603Y-107490774D01*
X147958603Y-107490774D01*
G37*
G36*
X148594405Y-108126576D02*
X148170537Y-108550444D01*
X147888557Y-108268464D01*
X148312425Y-107844596D01*
X148594405Y-108126576D01*
X148594405Y-108126576D01*
G37*
G36*
X156288845Y-103385023D02*
X155864977Y-102961155D01*
X156146957Y-102679175D01*
X156570825Y-103103043D01*
X156288845Y-103385023D01*
X156288845Y-103385023D01*
G37*
G36*
X155653043Y-104020825D02*
X155229175Y-103596957D01*
X155511155Y-103314977D01*
X155935023Y-103738845D01*
X155653043Y-104020825D01*
X155653043Y-104020825D01*
G37*
D11*
X145700420Y-114700000D03*
X146599580Y-114700000D03*
D10*
G36*
X146613855Y-120424777D02*
X147037723Y-120848645D01*
X146755743Y-121130625D01*
X146331875Y-120706757D01*
X146613855Y-120424777D01*
X146613855Y-120424777D01*
G37*
G36*
X147249657Y-119788975D02*
X147673525Y-120212843D01*
X147391545Y-120494823D01*
X146967677Y-120070955D01*
X147249657Y-119788975D01*
X147249657Y-119788975D01*
G37*
D12*
X142073580Y-113180039D03*
X142073580Y-114079199D03*
D13*
X147457500Y-85310000D03*
X149362500Y-85310000D03*
D11*
X127174000Y-117379619D03*
X128073160Y-117379619D03*
D12*
X143073580Y-113180039D03*
X143073580Y-114079199D03*
D10*
G36*
X146529723Y-123372955D02*
X146105855Y-123796823D01*
X145823875Y-123514843D01*
X146247743Y-123090975D01*
X146529723Y-123372955D01*
X146529723Y-123372955D01*
G37*
G36*
X147165525Y-124008757D02*
X146741657Y-124432625D01*
X146459677Y-124150645D01*
X146883545Y-123726777D01*
X147165525Y-124008757D01*
X147165525Y-124008757D01*
G37*
D12*
X146423580Y-85729199D03*
X146423580Y-84830039D03*
D10*
G36*
X150276023Y-120134155D02*
X149852155Y-120558023D01*
X149570175Y-120276043D01*
X149994043Y-119852175D01*
X150276023Y-120134155D01*
X150276023Y-120134155D01*
G37*
G36*
X150911825Y-120769957D02*
X150487957Y-121193825D01*
X150205977Y-120911845D01*
X150629845Y-120487977D01*
X150911825Y-120769957D01*
X150911825Y-120769957D01*
G37*
G36*
X148488557Y-107668464D02*
X148912425Y-107244596D01*
X149194405Y-107526576D01*
X148770537Y-107950444D01*
X148488557Y-107668464D01*
X148488557Y-107668464D01*
G37*
G36*
X147852755Y-107032662D02*
X148276623Y-106608794D01*
X148558603Y-106890774D01*
X148134735Y-107314642D01*
X147852755Y-107032662D01*
X147852755Y-107032662D01*
G37*
D12*
X159615201Y-118878321D03*
X159615201Y-119777481D03*
X160513226Y-118878321D03*
X160513226Y-119777481D03*
X158717174Y-118878320D03*
X158717174Y-119777480D03*
D10*
G36*
X153305170Y-123678344D02*
X153729038Y-124102212D01*
X153447058Y-124384192D01*
X153023190Y-123960324D01*
X153305170Y-123678344D01*
X153305170Y-123678344D01*
G37*
G36*
X153940972Y-123042542D02*
X154364840Y-123466410D01*
X154082860Y-123748390D01*
X153658992Y-123324522D01*
X153940972Y-123042542D01*
X153940972Y-123042542D01*
G37*
D11*
X160660080Y-120840500D03*
X159760920Y-120840500D03*
D10*
G36*
X153157540Y-124531024D02*
X152733672Y-124954892D01*
X152451692Y-124672912D01*
X152875560Y-124249044D01*
X153157540Y-124531024D01*
X153157540Y-124531024D01*
G37*
G36*
X153793342Y-125166826D02*
X153369474Y-125590694D01*
X153087494Y-125308714D01*
X153511362Y-124884846D01*
X153793342Y-125166826D01*
X153793342Y-125166826D01*
G37*
G36*
X161699477Y-122181845D02*
X162123345Y-121757977D01*
X162405325Y-122039957D01*
X161981457Y-122463825D01*
X161699477Y-122181845D01*
X161699477Y-122181845D01*
G37*
G36*
X161063675Y-121546043D02*
X161487543Y-121122175D01*
X161769523Y-121404155D01*
X161345655Y-121828023D01*
X161063675Y-121546043D01*
X161063675Y-121546043D01*
G37*
D12*
X171711000Y-110968580D03*
X171711000Y-110069420D03*
X171711000Y-108291420D03*
X171711000Y-109190580D03*
D11*
X165844420Y-111265000D03*
X166743580Y-111265000D03*
X165092580Y-111265000D03*
X164193420Y-111265000D03*
X127185420Y-116459000D03*
X128084580Y-116459000D03*
D10*
G36*
X149641023Y-120769155D02*
X149217155Y-121193023D01*
X148935175Y-120911043D01*
X149359043Y-120487175D01*
X149641023Y-120769155D01*
X149641023Y-120769155D01*
G37*
G36*
X150276825Y-121404957D02*
X149852957Y-121828825D01*
X149570977Y-121546845D01*
X149994845Y-121122977D01*
X150276825Y-121404957D01*
X150276825Y-121404957D01*
G37*
G36*
X153692155Y-121569249D02*
X153268287Y-121993117D01*
X152986307Y-121711137D01*
X153410175Y-121287269D01*
X153692155Y-121569249D01*
X153692155Y-121569249D01*
G37*
G36*
X154327957Y-122205051D02*
X153904089Y-122628919D01*
X153622109Y-122346939D01*
X154045977Y-121923071D01*
X154327957Y-122205051D01*
X154327957Y-122205051D01*
G37*
G36*
X152614526Y-120491617D02*
X152190658Y-120915485D01*
X151908678Y-120633505D01*
X152332546Y-120209637D01*
X152614526Y-120491617D01*
X152614526Y-120491617D01*
G37*
G36*
X153250328Y-121127419D02*
X152826460Y-121551287D01*
X152544480Y-121269307D01*
X152968348Y-120845439D01*
X153250328Y-121127419D01*
X153250328Y-121127419D01*
G37*
G36*
X156546531Y-122662749D02*
X156246811Y-122143619D01*
X156592165Y-121944229D01*
X156891885Y-122463359D01*
X156546531Y-122662749D01*
X156546531Y-122662749D01*
G37*
G36*
X155767835Y-123112329D02*
X155468115Y-122593199D01*
X155813469Y-122393809D01*
X156113189Y-122912939D01*
X155767835Y-123112329D01*
X155767835Y-123112329D01*
G37*
G36*
X151890718Y-123609560D02*
X151466850Y-123185692D01*
X151748830Y-122903712D01*
X152172698Y-123327580D01*
X151890718Y-123609560D01*
X151890718Y-123609560D01*
G37*
G36*
X151254916Y-124245362D02*
X150831048Y-123821494D01*
X151113028Y-123539514D01*
X151536896Y-123963382D01*
X151254916Y-124245362D01*
X151254916Y-124245362D01*
G37*
G36*
X151351901Y-123070752D02*
X150928033Y-122646884D01*
X151210013Y-122364904D01*
X151633881Y-122788772D01*
X151351901Y-123070752D01*
X151351901Y-123070752D01*
G37*
G36*
X150716099Y-123706554D02*
X150292231Y-123282686D01*
X150574211Y-123000706D01*
X150998079Y-123424574D01*
X150716099Y-123706554D01*
X150716099Y-123706554D01*
G37*
G36*
X157977923Y-124280939D02*
X157458793Y-124580659D01*
X157259403Y-124235305D01*
X157778533Y-123935585D01*
X157977923Y-124280939D01*
X157977923Y-124280939D01*
G37*
G36*
X158427503Y-125059635D02*
X157908373Y-125359355D01*
X157708983Y-125014001D01*
X158228113Y-124714281D01*
X158427503Y-125059635D01*
X158427503Y-125059635D01*
G37*
G36*
X158637842Y-123899935D02*
X158118712Y-124199655D01*
X157919322Y-123854301D01*
X158438452Y-123554581D01*
X158637842Y-123899935D01*
X158637842Y-123899935D01*
G37*
G36*
X159087422Y-124678631D02*
X158568292Y-124978351D01*
X158368902Y-124632997D01*
X158888032Y-124333277D01*
X159087422Y-124678631D01*
X159087422Y-124678631D01*
G37*
G36*
X150459271Y-123724505D02*
X150035403Y-124148373D01*
X149753423Y-123866393D01*
X150177291Y-123442525D01*
X150459271Y-123724505D01*
X150459271Y-123724505D01*
G37*
G36*
X151095073Y-124360307D02*
X150671205Y-124784175D01*
X150389225Y-124502195D01*
X150813093Y-124078327D01*
X151095073Y-124360307D01*
X151095073Y-124360307D01*
G37*
G36*
X159111445Y-125581304D02*
X158811725Y-125062174D01*
X159157079Y-124862784D01*
X159456799Y-125381914D01*
X159111445Y-125581304D01*
X159111445Y-125581304D01*
G37*
G36*
X158332749Y-126030884D02*
X158033029Y-125511754D01*
X158378383Y-125312364D01*
X158678103Y-125831494D01*
X158332749Y-126030884D01*
X158332749Y-126030884D01*
G37*
G36*
X149381638Y-123724512D02*
X148957770Y-124148380D01*
X148675790Y-123866400D01*
X149099658Y-123442532D01*
X149381638Y-123724512D01*
X149381638Y-123724512D01*
G37*
G36*
X150017440Y-124360314D02*
X149593572Y-124784182D01*
X149311592Y-124502202D01*
X149735460Y-124078334D01*
X150017440Y-124360314D01*
X150017440Y-124360314D01*
G37*
G36*
X160152350Y-125860217D02*
X159852630Y-125341087D01*
X160197984Y-125141697D01*
X160497704Y-125660827D01*
X160152350Y-125860217D01*
X160152350Y-125860217D01*
G37*
G36*
X159373654Y-126309797D02*
X159073934Y-125790667D01*
X159419288Y-125591277D01*
X159719008Y-126110407D01*
X159373654Y-126309797D01*
X159373654Y-126309797D01*
G37*
G36*
X149735455Y-125764820D02*
X149311587Y-125340952D01*
X149593567Y-125058972D01*
X150017435Y-125482840D01*
X149735455Y-125764820D01*
X149735455Y-125764820D01*
G37*
G36*
X149099653Y-126400622D02*
X148675785Y-125976754D01*
X148957765Y-125694774D01*
X149381633Y-126118642D01*
X149099653Y-126400622D01*
X149099653Y-126400622D01*
G37*
G36*
X159501926Y-126920582D02*
X158982796Y-127220302D01*
X158783406Y-126874948D01*
X159302536Y-126575228D01*
X159501926Y-126920582D01*
X159501926Y-126920582D01*
G37*
G36*
X159951506Y-127699278D02*
X159432376Y-127998998D01*
X159232986Y-127653644D01*
X159752116Y-127353924D01*
X159951506Y-127699278D01*
X159951506Y-127699278D01*
G37*
G36*
X147926523Y-125531655D02*
X147502655Y-125955523D01*
X147220675Y-125673543D01*
X147644543Y-125249675D01*
X147926523Y-125531655D01*
X147926523Y-125531655D01*
G37*
G36*
X148562325Y-126167457D02*
X148138457Y-126591325D01*
X147856477Y-126309345D01*
X148280345Y-125885477D01*
X148562325Y-126167457D01*
X148562325Y-126167457D01*
G37*
G36*
X159538956Y-128241501D02*
X159838676Y-128760631D01*
X159493322Y-128960021D01*
X159193602Y-128440891D01*
X159538956Y-128241501D01*
X159538956Y-128241501D01*
G37*
G36*
X160317652Y-127791921D02*
X160617372Y-128311051D01*
X160272018Y-128510441D01*
X159972298Y-127991311D01*
X160317652Y-127791921D01*
X160317652Y-127791921D01*
G37*
G36*
X146212023Y-127182655D02*
X145788155Y-127606523D01*
X145506175Y-127324543D01*
X145930043Y-126900675D01*
X146212023Y-127182655D01*
X146212023Y-127182655D01*
G37*
G36*
X146847825Y-127818457D02*
X146423957Y-128242325D01*
X146141977Y-127960345D01*
X146565845Y-127536477D01*
X146847825Y-127818457D01*
X146847825Y-127818457D01*
G37*
G36*
X160681957Y-130221232D02*
X160981677Y-130740362D01*
X160636323Y-130939752D01*
X160336603Y-130420622D01*
X160681957Y-130221232D01*
X160681957Y-130221232D01*
G37*
G36*
X161460653Y-129771652D02*
X161760373Y-130290782D01*
X161415019Y-130490172D01*
X161115299Y-129971042D01*
X161460653Y-129771652D01*
X161460653Y-129771652D01*
G37*
D13*
X112712500Y-76009500D03*
X110807500Y-76009500D03*
D12*
X112649000Y-78110080D03*
X112649000Y-77210920D03*
D13*
X123507500Y-75565000D03*
X125412500Y-75565000D03*
D11*
X105023920Y-105346500D03*
X105923080Y-105346500D03*
X115628420Y-78041500D03*
X116527580Y-78041500D03*
D13*
X116522500Y-85534500D03*
X114617500Y-85534500D03*
D12*
X117348000Y-78099920D03*
X117348000Y-78999080D03*
D13*
X116522500Y-83883500D03*
X114617500Y-83883500D03*
X132276704Y-92140314D03*
X134181704Y-92140314D03*
D10*
G36*
X143517845Y-107858023D02*
X143093977Y-107434155D01*
X143375957Y-107152175D01*
X143799825Y-107576043D01*
X143517845Y-107858023D01*
X143517845Y-107858023D01*
G37*
G36*
X142882043Y-108493825D02*
X142458175Y-108069957D01*
X142740155Y-107787977D01*
X143164023Y-108211845D01*
X142882043Y-108493825D01*
X142882043Y-108493825D01*
G37*
D13*
X185045673Y-86528149D03*
X183140673Y-86528149D03*
D12*
X131197205Y-91944734D03*
X131197205Y-92843894D03*
D11*
X186955753Y-86909149D03*
X186056593Y-86909149D03*
D10*
G36*
X144638845Y-111835023D02*
X144214977Y-111411155D01*
X144496957Y-111129175D01*
X144920825Y-111553043D01*
X144638845Y-111835023D01*
X144638845Y-111835023D01*
G37*
G36*
X144003043Y-112470825D02*
X143579175Y-112046957D01*
X143861155Y-111764977D01*
X144285023Y-112188845D01*
X144003043Y-112470825D01*
X144003043Y-112470825D01*
G37*
D12*
X183902674Y-87793068D03*
X183902674Y-88692228D03*
D14*
X139579203Y-98553813D03*
X139579203Y-100458813D03*
D13*
X189617674Y-90084149D03*
X191522674Y-90084149D03*
X135578705Y-99506313D03*
X133673705Y-99506313D03*
X189617673Y-88306151D03*
X191522673Y-88306151D03*
D14*
X137928204Y-99061814D03*
X137928204Y-100966814D03*
D12*
X188538171Y-89698071D03*
X188538171Y-90597231D03*
X136658204Y-99955892D03*
X136658204Y-99056732D03*
X120070000Y-88270420D03*
X120070000Y-89169580D03*
X111176000Y-97236580D03*
X111176000Y-96337420D03*
D11*
X122899580Y-98800000D03*
X122000420Y-98800000D03*
D12*
X111176000Y-98496420D03*
X111176000Y-99395580D03*
X118100000Y-96150420D03*
X118100000Y-97049580D03*
D11*
X117999580Y-106700000D03*
X117100420Y-106700000D03*
D13*
X117147500Y-108150000D03*
X119052500Y-108150000D03*
X110252500Y-104500000D03*
X108347500Y-104500000D03*
D11*
X111200420Y-101700000D03*
X112099580Y-101700000D03*
X146299580Y-67650000D03*
X145400420Y-67650000D03*
X149250420Y-67650000D03*
X150149580Y-67650000D03*
D10*
G36*
X144135023Y-74211155D02*
X143711155Y-74635023D01*
X143429175Y-74353043D01*
X143853043Y-73929175D01*
X144135023Y-74211155D01*
X144135023Y-74211155D01*
G37*
G36*
X144770825Y-74846957D02*
X144346957Y-75270825D01*
X144064977Y-74988845D01*
X144488845Y-74564977D01*
X144770825Y-74846957D01*
X144770825Y-74846957D01*
G37*
D11*
X148200420Y-72750000D03*
X149099580Y-72750000D03*
D10*
G36*
X152938845Y-74035023D02*
X152514977Y-73611155D01*
X152796957Y-73329175D01*
X153220825Y-73753043D01*
X152938845Y-74035023D01*
X152938845Y-74035023D01*
G37*
G36*
X152303043Y-74670825D02*
X151879175Y-74246957D01*
X152161155Y-73964977D01*
X152585023Y-74388845D01*
X152303043Y-74670825D01*
X152303043Y-74670825D01*
G37*
G36*
X155488845Y-77385023D02*
X155064977Y-76961155D01*
X155346957Y-76679175D01*
X155770825Y-77103043D01*
X155488845Y-77385023D01*
X155488845Y-77385023D01*
G37*
G36*
X154853043Y-78020825D02*
X154429175Y-77596957D01*
X154711155Y-77314977D01*
X155135023Y-77738845D01*
X154853043Y-78020825D01*
X154853043Y-78020825D01*
G37*
D11*
X170950420Y-62100000D03*
X171849580Y-62100000D03*
D14*
X172300000Y-67702500D03*
X172300000Y-65797500D03*
D11*
X165350420Y-67350000D03*
X166249580Y-67350000D03*
D14*
X162900000Y-67602500D03*
X162900000Y-65697500D03*
D12*
X130650000Y-73449580D03*
X130650000Y-72550420D03*
D14*
X132100000Y-68047500D03*
X132100000Y-69952500D03*
D11*
X141449580Y-62150000D03*
X140550420Y-62150000D03*
D14*
X142250000Y-63597500D03*
X142250000Y-65502500D03*
D15*
X180276700Y-123838000D03*
X181775300Y-123838000D03*
D16*
X122850000Y-85750180D03*
X123802500Y-87949820D03*
X121897500Y-87949820D03*
X158200000Y-64000180D03*
X159152500Y-66199820D03*
X157247500Y-66199820D03*
D15*
X153400000Y-87250700D03*
X153400000Y-88749300D03*
X151700000Y-87250700D03*
X151700000Y-88749300D03*
X144407000Y-87250700D03*
X144407000Y-88749300D03*
D17*
X149500180Y-58100000D03*
X151699820Y-57147500D03*
X151699820Y-59052500D03*
D15*
X142300000Y-87250700D03*
X142300000Y-88749300D03*
D17*
X149099820Y-59300000D03*
X146900180Y-60252500D03*
X146900180Y-58347500D03*
D16*
X138300000Y-68200180D03*
X139252500Y-70399820D03*
X137347500Y-70399820D03*
D18*
X121620000Y-54369000D03*
X120970000Y-54369000D03*
X120320000Y-54369000D03*
X119670000Y-54369000D03*
X119020000Y-54369000D03*
D19*
X124070000Y-51519000D03*
D20*
X121520000Y-51519000D03*
X119120000Y-51519000D03*
D19*
X116570000Y-51519000D03*
D21*
X117120000Y-53769000D03*
X123520000Y-53769000D03*
D10*
G36*
X158023023Y-120007155D02*
X157599155Y-120431023D01*
X157317175Y-120149043D01*
X157741043Y-119725175D01*
X158023023Y-120007155D01*
X158023023Y-120007155D01*
G37*
G36*
X158658825Y-120642957D02*
X158234957Y-121066825D01*
X157952977Y-120784845D01*
X158376845Y-120360977D01*
X158658825Y-120642957D01*
X158658825Y-120642957D01*
G37*
D12*
X154876500Y-121787920D03*
X154876500Y-122687080D03*
D10*
G36*
X154732364Y-124358606D02*
X154308496Y-123934738D01*
X154590476Y-123652758D01*
X155014344Y-124076626D01*
X154732364Y-124358606D01*
X154732364Y-124358606D01*
G37*
G36*
X154096562Y-124994408D02*
X153672694Y-124570540D01*
X153954674Y-124288560D01*
X154378542Y-124712428D01*
X154096562Y-124994408D01*
X154096562Y-124994408D01*
G37*
G36*
X159166023Y-121150155D02*
X158742155Y-121574023D01*
X158460175Y-121292043D01*
X158884043Y-120868175D01*
X159166023Y-121150155D01*
X159166023Y-121150155D01*
G37*
G36*
X159801825Y-121785957D02*
X159377957Y-122209825D01*
X159095977Y-121927845D01*
X159519845Y-121503977D01*
X159801825Y-121785957D01*
X159801825Y-121785957D01*
G37*
G36*
X152968348Y-122531929D02*
X152544480Y-122108061D01*
X152826460Y-121826081D01*
X153250328Y-122249949D01*
X152968348Y-122531929D01*
X152968348Y-122531929D01*
G37*
G36*
X152332546Y-123167731D02*
X151908678Y-122743863D01*
X152190658Y-122461883D01*
X152614526Y-122885751D01*
X152332546Y-123167731D01*
X152332546Y-123167731D01*
G37*
G36*
X152429537Y-121993112D02*
X152005669Y-121569244D01*
X152287649Y-121287264D01*
X152711517Y-121711132D01*
X152429537Y-121993112D01*
X152429537Y-121993112D01*
G37*
G36*
X151793735Y-122628914D02*
X151369867Y-122205046D01*
X151651847Y-121923066D01*
X152075715Y-122346934D01*
X151793735Y-122628914D01*
X151793735Y-122628914D01*
G37*
G36*
X157215931Y-122961111D02*
X156696801Y-123260831D01*
X156497411Y-122915477D01*
X157016541Y-122615757D01*
X157215931Y-122961111D01*
X157215931Y-122961111D01*
G37*
G36*
X157665511Y-123739807D02*
X157146381Y-124039527D01*
X156946991Y-123694173D01*
X157466121Y-123394453D01*
X157665511Y-123739807D01*
X157665511Y-123739807D01*
G37*
G36*
X157875844Y-122580111D02*
X157356714Y-122879831D01*
X157157324Y-122534477D01*
X157676454Y-122234757D01*
X157875844Y-122580111D01*
X157875844Y-122580111D01*
G37*
G36*
X158325424Y-123358807D02*
X157806294Y-123658527D01*
X157606904Y-123313173D01*
X158126034Y-123013453D01*
X158325424Y-123358807D01*
X158325424Y-123358807D01*
G37*
G36*
X150389220Y-125579831D02*
X150813088Y-125155963D01*
X151095068Y-125437943D01*
X150671200Y-125861811D01*
X150389220Y-125579831D01*
X150389220Y-125579831D01*
G37*
G36*
X149753418Y-124944029D02*
X150177286Y-124520161D01*
X150459266Y-124802141D01*
X150035398Y-125226009D01*
X149753418Y-124944029D01*
X149753418Y-124944029D01*
G37*
G36*
X158099475Y-126353280D02*
X158399195Y-126872410D01*
X158053841Y-127071800D01*
X157754121Y-126552670D01*
X158099475Y-126353280D01*
X158099475Y-126353280D01*
G37*
G36*
X158878171Y-125903700D02*
X159177891Y-126422830D01*
X158832537Y-126622220D01*
X158532817Y-126103090D01*
X158878171Y-125903700D01*
X158878171Y-125903700D01*
G37*
G36*
X149196643Y-125226004D02*
X148772775Y-124802136D01*
X149054755Y-124520156D01*
X149478623Y-124944024D01*
X149196643Y-125226004D01*
X149196643Y-125226004D01*
G37*
G36*
X148560841Y-125861806D02*
X148136973Y-125437938D01*
X148418953Y-125155958D01*
X148842821Y-125579826D01*
X148560841Y-125861806D01*
X148560841Y-125861806D01*
G37*
G36*
X160161838Y-126539584D02*
X159642708Y-126839304D01*
X159443318Y-126493950D01*
X159962448Y-126194230D01*
X160161838Y-126539584D01*
X160161838Y-126539584D01*
G37*
G36*
X160611418Y-127318280D02*
X160092288Y-127618000D01*
X159892898Y-127272646D01*
X160412028Y-126972926D01*
X160611418Y-127318280D01*
X160611418Y-127318280D01*
G37*
G36*
X147772345Y-127162023D02*
X147348477Y-126738155D01*
X147630457Y-126456175D01*
X148054325Y-126880043D01*
X147772345Y-127162023D01*
X147772345Y-127162023D01*
G37*
G36*
X147136543Y-127797825D02*
X146712675Y-127373957D01*
X146994655Y-127091977D01*
X147418523Y-127515845D01*
X147136543Y-127797825D01*
X147136543Y-127797825D01*
G37*
G36*
X161051393Y-128745310D02*
X160532263Y-129045030D01*
X160332873Y-128699676D01*
X160852003Y-128399956D01*
X161051393Y-128745310D01*
X161051393Y-128745310D01*
G37*
G36*
X161500973Y-129524006D02*
X160981843Y-129823726D01*
X160782453Y-129478372D01*
X161301583Y-129178652D01*
X161500973Y-129524006D01*
X161500973Y-129524006D01*
G37*
D22*
X110538000Y-102850000D03*
X112062000Y-102850000D03*
D13*
X172552500Y-63850000D03*
X170647500Y-63850000D03*
X164647500Y-65800000D03*
X166552500Y-65800000D03*
D14*
X132050000Y-71497500D03*
X132050000Y-73402500D03*
D13*
X141752500Y-67200000D03*
X139847500Y-67200000D03*
D10*
G36*
X145029746Y-110135990D02*
X145737390Y-110843634D01*
X145171634Y-111409390D01*
X144463990Y-110701746D01*
X145029746Y-110135990D01*
X145029746Y-110135990D01*
G37*
G36*
X142800847Y-109254129D02*
X143508491Y-109961773D01*
X142942735Y-110527529D01*
X142235091Y-109819885D01*
X142800847Y-109254129D01*
X142800847Y-109254129D01*
G37*
G36*
X144147885Y-107907091D02*
X144855529Y-108614735D01*
X144289773Y-109180491D01*
X143582129Y-108472847D01*
X144147885Y-107907091D01*
X144147885Y-107907091D01*
G37*
D11*
X118356580Y-118250000D03*
X117457420Y-118250000D03*
D10*
G36*
X148836155Y-119725977D02*
X149260023Y-120149845D01*
X148978043Y-120431825D01*
X148554175Y-120007957D01*
X148836155Y-119725977D01*
X148836155Y-119725977D01*
G37*
G36*
X149471957Y-119090175D02*
X149895825Y-119514043D01*
X149613845Y-119796023D01*
X149189977Y-119372155D01*
X149471957Y-119090175D01*
X149471957Y-119090175D01*
G37*
D11*
X144050420Y-114100000D03*
X144949580Y-114100000D03*
X169991420Y-110138000D03*
X170890580Y-110138000D03*
X166743580Y-110249000D03*
X165844420Y-110249000D03*
X164193420Y-110249000D03*
X165092580Y-110249000D03*
D10*
G36*
X145506977Y-124975845D02*
X145930845Y-124551977D01*
X146212825Y-124833957D01*
X145788957Y-125257825D01*
X145506977Y-124975845D01*
X145506977Y-124975845D01*
G37*
G36*
X144871175Y-124340043D02*
X145295043Y-123916175D01*
X145577023Y-124198155D01*
X145153155Y-124622023D01*
X144871175Y-124340043D01*
X144871175Y-124340043D01*
G37*
D12*
X181788000Y-121991420D03*
X181788000Y-122890580D03*
D10*
G36*
X148902845Y-119047023D02*
X148478977Y-118623155D01*
X148760957Y-118341175D01*
X149184825Y-118765043D01*
X148902845Y-119047023D01*
X148902845Y-119047023D01*
G37*
G36*
X148267043Y-119682825D02*
X147843175Y-119258957D01*
X148125155Y-118976977D01*
X148549023Y-119400845D01*
X148267043Y-119682825D01*
X148267043Y-119682825D01*
G37*
D12*
X115951000Y-126169420D03*
X115951000Y-127068580D03*
D11*
X123172420Y-123965000D03*
X124071580Y-123965000D03*
D10*
G36*
X148053523Y-126674655D02*
X147629655Y-127098523D01*
X147347675Y-126816543D01*
X147771543Y-126392675D01*
X148053523Y-126674655D01*
X148053523Y-126674655D01*
G37*
G36*
X148689325Y-127310457D02*
X148265457Y-127734325D01*
X147983477Y-127452345D01*
X148407345Y-127028477D01*
X148689325Y-127310457D01*
X148689325Y-127310457D01*
G37*
G36*
X160689855Y-128456916D02*
X160989575Y-128976046D01*
X160644221Y-129175436D01*
X160344501Y-128656306D01*
X160689855Y-128456916D01*
X160689855Y-128456916D01*
G37*
G36*
X161468551Y-128007336D02*
X161768271Y-128526466D01*
X161422917Y-128725856D01*
X161123197Y-128206726D01*
X161468551Y-128007336D01*
X161468551Y-128007336D01*
G37*
D11*
X112971580Y-74739500D03*
X112072420Y-74739500D03*
X116527580Y-76263500D03*
X115628420Y-76263500D03*
X115628420Y-75374500D03*
X116527580Y-75374500D03*
D12*
X105350000Y-78700420D03*
X105350000Y-79599580D03*
D11*
X106349580Y-109350000D03*
X105450420Y-109350000D03*
X105949580Y-106300000D03*
X105050420Y-106300000D03*
X115628420Y-74485500D03*
X116527580Y-74485500D03*
X115628420Y-78930500D03*
X116527580Y-78930500D03*
X116527580Y-77152500D03*
X115628420Y-77152500D03*
D12*
X128720704Y-93659233D03*
X128720704Y-94558393D03*
X131070205Y-94494894D03*
X131070205Y-93595734D03*
X127831703Y-94558393D03*
X127831703Y-93659233D03*
D11*
X135827625Y-98236314D03*
X136726785Y-98236314D03*
D12*
X135007203Y-97923893D03*
X135007203Y-97024733D03*
X187649171Y-89698069D03*
X187649171Y-90597229D03*
X187649172Y-88047069D03*
X187649172Y-88946229D03*
D11*
X131138783Y-95696313D03*
X130239623Y-95696313D03*
X121890420Y-95750000D03*
X122789580Y-95750000D03*
X126855420Y-110630000D03*
X127754580Y-110630000D03*
X128633420Y-110122000D03*
X129532580Y-110122000D03*
X126855420Y-109614000D03*
X127754580Y-109614000D03*
X128633420Y-109106000D03*
X129532580Y-109106000D03*
X126855420Y-107582000D03*
X127754580Y-107582000D03*
X128633420Y-107074000D03*
X129532580Y-107074000D03*
X126855420Y-108598000D03*
X127754580Y-108598000D03*
X128633420Y-108090000D03*
X129532580Y-108090000D03*
X144050420Y-113250000D03*
X144949580Y-113250000D03*
D10*
G36*
X142764977Y-78888845D02*
X143188845Y-78464977D01*
X143470825Y-78746957D01*
X143046957Y-79170825D01*
X142764977Y-78888845D01*
X142764977Y-78888845D01*
G37*
G36*
X142129175Y-78253043D02*
X142553043Y-77829175D01*
X142835023Y-78111155D01*
X142411155Y-78535023D01*
X142129175Y-78253043D01*
X142129175Y-78253043D01*
G37*
D11*
X153350420Y-81850000D03*
X154249580Y-81850000D03*
D12*
X142900000Y-81150420D03*
X142900000Y-82049580D03*
D11*
X149499580Y-95800000D03*
X148600420Y-95800000D03*
X146699580Y-95800000D03*
X145800420Y-95800000D03*
X149850420Y-72150000D03*
X150749580Y-72150000D03*
D12*
X153400000Y-85250420D03*
X153400000Y-86149580D03*
X151600000Y-85450420D03*
X151600000Y-86349580D03*
X144450000Y-85288420D03*
X144450000Y-86187580D03*
X142250000Y-85250420D03*
X142250000Y-86149580D03*
D10*
G36*
X148808603Y-104540774D02*
X148384735Y-104964642D01*
X148102755Y-104682662D01*
X148526623Y-104258794D01*
X148808603Y-104540774D01*
X148808603Y-104540774D01*
G37*
G36*
X149444405Y-105176576D02*
X149020537Y-105600444D01*
X148738557Y-105318464D01*
X149162425Y-104894596D01*
X149444405Y-105176576D01*
X149444405Y-105176576D01*
G37*
G36*
X147490155Y-118341977D02*
X147914023Y-118765845D01*
X147632043Y-119047825D01*
X147208175Y-118623957D01*
X147490155Y-118341977D01*
X147490155Y-118341977D01*
G37*
G36*
X148125957Y-117706175D02*
X148549825Y-118130043D01*
X148267845Y-118412023D01*
X147843977Y-117988155D01*
X148125957Y-117706175D01*
X148125957Y-117706175D01*
G37*
D12*
X193700000Y-54950420D03*
X193700000Y-55849580D03*
D23*
X113423000Y-78941500D03*
X113923000Y-78941500D03*
X114423000Y-78941500D03*
X114923000Y-78941500D03*
X114923000Y-77141500D03*
X114423000Y-77141500D03*
X113923000Y-77141500D03*
X113423000Y-77141500D03*
D24*
X114173000Y-78041500D03*
D25*
X184855173Y-87925148D03*
X185807673Y-87925148D03*
X186760173Y-87925148D03*
X186760173Y-90465148D03*
X185807673Y-90465148D03*
X184855173Y-90465148D03*
D26*
X134880205Y-96077314D03*
X134880205Y-95577314D03*
X134880205Y-95077314D03*
X134880205Y-94577314D03*
X134880205Y-94077314D03*
X134880205Y-93577314D03*
X132040205Y-93577314D03*
X132040205Y-94077314D03*
X132040205Y-94577314D03*
X132040205Y-95077314D03*
X132040205Y-95577314D03*
X132040205Y-96077314D03*
D27*
X133455205Y-94827314D03*
D28*
X114381480Y-98991720D03*
X114381480Y-99492100D03*
X114381480Y-99992480D03*
X114381480Y-100492860D03*
X114381480Y-100990700D03*
X114381480Y-101491080D03*
X114381480Y-101991460D03*
X114381480Y-102491840D03*
X114381480Y-102992220D03*
X114381480Y-103492600D03*
X114381480Y-103992980D03*
X114381480Y-104490820D03*
X121178520Y-100487780D03*
X121178520Y-99989940D03*
X121178520Y-99489560D03*
X121178520Y-98989180D03*
D29*
X117030700Y-105141060D03*
X117530000Y-105140000D03*
X118028920Y-105141060D03*
X118529300Y-105141060D03*
X119029680Y-105141060D03*
X119530060Y-105141060D03*
X120030440Y-105141060D03*
X120530820Y-105141060D03*
X115031720Y-105141060D03*
X115532100Y-105141060D03*
X116032480Y-105141060D03*
X116530320Y-105141060D03*
D28*
X121178520Y-104488280D03*
X121181060Y-103987900D03*
X121181060Y-103490060D03*
X121181060Y-102989680D03*
X121181060Y-102489300D03*
X121181060Y-101988920D03*
X121181060Y-101488540D03*
X121181060Y-100988160D03*
D29*
X120530820Y-98341480D03*
X120030440Y-98341480D03*
X119530060Y-98341480D03*
X119032220Y-98341480D03*
X118531840Y-98341480D03*
X118031460Y-98341480D03*
X117531080Y-98341480D03*
X117030700Y-98341480D03*
X116530320Y-98341480D03*
X116029940Y-98341480D03*
X115532100Y-98341480D03*
X115031720Y-98341480D03*
D30*
X117780000Y-101740000D03*
D10*
G36*
X159607897Y-80172290D02*
X159183633Y-79748026D01*
X160279649Y-78652010D01*
X160703913Y-79076274D01*
X159607897Y-80172290D01*
X159607897Y-80172290D01*
G37*
G36*
X160505923Y-81070316D02*
X160081659Y-80646052D01*
X161177675Y-79550036D01*
X161601939Y-79974300D01*
X160505923Y-81070316D01*
X160505923Y-81070316D01*
G37*
G36*
X161403948Y-81968341D02*
X160979684Y-81544077D01*
X162075700Y-80448061D01*
X162499964Y-80872325D01*
X161403948Y-81968341D01*
X161403948Y-81968341D01*
G37*
G36*
X162301974Y-82866367D02*
X161877710Y-82442103D01*
X162973726Y-81346087D01*
X163397990Y-81770351D01*
X162301974Y-82866367D01*
X162301974Y-82866367D01*
G37*
G36*
X166120351Y-79047990D02*
X165696087Y-78623726D01*
X166792103Y-77527710D01*
X167216367Y-77951974D01*
X166120351Y-79047990D01*
X166120351Y-79047990D01*
G37*
G36*
X165222325Y-78149964D02*
X164798061Y-77725700D01*
X165894077Y-76629684D01*
X166318341Y-77053948D01*
X165222325Y-78149964D01*
X165222325Y-78149964D01*
G37*
G36*
X164324300Y-77251939D02*
X163900036Y-76827675D01*
X164996052Y-75731659D01*
X165420316Y-76155923D01*
X164324300Y-77251939D01*
X164324300Y-77251939D01*
G37*
G36*
X163426274Y-76353913D02*
X163002010Y-75929649D01*
X164098026Y-74833633D01*
X164522290Y-75257897D01*
X163426274Y-76353913D01*
X163426274Y-76353913D01*
G37*
G36*
X153932590Y-77015076D02*
X154074012Y-77156498D01*
X153013352Y-78217158D01*
X152871930Y-78075736D01*
X153932590Y-77015076D01*
X153932590Y-77015076D01*
G37*
G36*
X153579036Y-76661522D02*
X153720458Y-76802944D01*
X152659798Y-77863604D01*
X152518376Y-77722182D01*
X153579036Y-76661522D01*
X153579036Y-76661522D01*
G37*
G36*
X153225483Y-76307969D02*
X153366905Y-76449391D01*
X152306245Y-77510051D01*
X152164823Y-77368629D01*
X153225483Y-76307969D01*
X153225483Y-76307969D01*
G37*
G36*
X152871930Y-75954415D02*
X153013352Y-76095837D01*
X151952692Y-77156497D01*
X151811270Y-77015075D01*
X152871930Y-75954415D01*
X152871930Y-75954415D01*
G37*
G36*
X152518376Y-75600862D02*
X152659798Y-75742284D01*
X151599138Y-76802944D01*
X151457716Y-76661522D01*
X152518376Y-75600862D01*
X152518376Y-75600862D01*
G37*
G36*
X152164823Y-75247309D02*
X152306245Y-75388731D01*
X151245585Y-76449391D01*
X151104163Y-76307969D01*
X152164823Y-75247309D01*
X152164823Y-75247309D01*
G37*
G36*
X151811269Y-74893755D02*
X151952691Y-75035177D01*
X150892031Y-76095837D01*
X150750609Y-75954415D01*
X151811269Y-74893755D01*
X151811269Y-74893755D01*
G37*
G36*
X151457716Y-74540202D02*
X151599138Y-74681624D01*
X150538478Y-75742284D01*
X150397056Y-75600862D01*
X151457716Y-74540202D01*
X151457716Y-74540202D01*
G37*
G36*
X151104163Y-74186648D02*
X151245585Y-74328070D01*
X150184925Y-75388730D01*
X150043503Y-75247308D01*
X151104163Y-74186648D01*
X151104163Y-74186648D01*
G37*
G36*
X150750609Y-73833095D02*
X150892031Y-73974517D01*
X149831371Y-75035177D01*
X149689949Y-74893755D01*
X150750609Y-73833095D01*
X150750609Y-73833095D01*
G37*
G36*
X150397056Y-73479542D02*
X150538478Y-73620964D01*
X149477818Y-74681624D01*
X149336396Y-74540202D01*
X150397056Y-73479542D01*
X150397056Y-73479542D01*
G37*
G36*
X150043502Y-73125988D02*
X150184924Y-73267410D01*
X149124264Y-74328070D01*
X148982842Y-74186648D01*
X150043502Y-73125988D01*
X150043502Y-73125988D01*
G37*
G36*
X147356498Y-73125988D02*
X148417158Y-74186648D01*
X148275736Y-74328070D01*
X147215076Y-73267410D01*
X147356498Y-73125988D01*
X147356498Y-73125988D01*
G37*
G36*
X147002944Y-73479542D02*
X148063604Y-74540202D01*
X147922182Y-74681624D01*
X146861522Y-73620964D01*
X147002944Y-73479542D01*
X147002944Y-73479542D01*
G37*
G36*
X146649391Y-73833095D02*
X147710051Y-74893755D01*
X147568629Y-75035177D01*
X146507969Y-73974517D01*
X146649391Y-73833095D01*
X146649391Y-73833095D01*
G37*
G36*
X146295837Y-74186648D02*
X147356497Y-75247308D01*
X147215075Y-75388730D01*
X146154415Y-74328070D01*
X146295837Y-74186648D01*
X146295837Y-74186648D01*
G37*
G36*
X145942284Y-74540202D02*
X147002944Y-75600862D01*
X146861522Y-75742284D01*
X145800862Y-74681624D01*
X145942284Y-74540202D01*
X145942284Y-74540202D01*
G37*
G36*
X145588731Y-74893755D02*
X146649391Y-75954415D01*
X146507969Y-76095837D01*
X145447309Y-75035177D01*
X145588731Y-74893755D01*
X145588731Y-74893755D01*
G37*
G36*
X145235177Y-75247309D02*
X146295837Y-76307969D01*
X146154415Y-76449391D01*
X145093755Y-75388731D01*
X145235177Y-75247309D01*
X145235177Y-75247309D01*
G37*
G36*
X144881624Y-75600862D02*
X145942284Y-76661522D01*
X145800862Y-76802944D01*
X144740202Y-75742284D01*
X144881624Y-75600862D01*
X144881624Y-75600862D01*
G37*
G36*
X144528070Y-75954415D02*
X145588730Y-77015075D01*
X145447308Y-77156497D01*
X144386648Y-76095837D01*
X144528070Y-75954415D01*
X144528070Y-75954415D01*
G37*
G36*
X144174517Y-76307969D02*
X145235177Y-77368629D01*
X145093755Y-77510051D01*
X144033095Y-76449391D01*
X144174517Y-76307969D01*
X144174517Y-76307969D01*
G37*
G36*
X143820964Y-76661522D02*
X144881624Y-77722182D01*
X144740202Y-77863604D01*
X143679542Y-76802944D01*
X143820964Y-76661522D01*
X143820964Y-76661522D01*
G37*
G36*
X143467410Y-77015076D02*
X144528070Y-78075736D01*
X144386648Y-78217158D01*
X143325988Y-77156498D01*
X143467410Y-77015076D01*
X143467410Y-77015076D01*
G37*
G36*
X144386648Y-78782842D02*
X144528070Y-78924264D01*
X143467410Y-79984924D01*
X143325988Y-79843502D01*
X144386648Y-78782842D01*
X144386648Y-78782842D01*
G37*
G36*
X144740202Y-79136396D02*
X144881624Y-79277818D01*
X143820964Y-80338478D01*
X143679542Y-80197056D01*
X144740202Y-79136396D01*
X144740202Y-79136396D01*
G37*
G36*
X145093755Y-79489949D02*
X145235177Y-79631371D01*
X144174517Y-80692031D01*
X144033095Y-80550609D01*
X145093755Y-79489949D01*
X145093755Y-79489949D01*
G37*
G36*
X145447308Y-79843503D02*
X145588730Y-79984925D01*
X144528070Y-81045585D01*
X144386648Y-80904163D01*
X145447308Y-79843503D01*
X145447308Y-79843503D01*
G37*
G36*
X145800862Y-80197056D02*
X145942284Y-80338478D01*
X144881624Y-81399138D01*
X144740202Y-81257716D01*
X145800862Y-80197056D01*
X145800862Y-80197056D01*
G37*
G36*
X146154415Y-80550609D02*
X146295837Y-80692031D01*
X145235177Y-81752691D01*
X145093755Y-81611269D01*
X146154415Y-80550609D01*
X146154415Y-80550609D01*
G37*
G36*
X146507969Y-80904163D02*
X146649391Y-81045585D01*
X145588731Y-82106245D01*
X145447309Y-81964823D01*
X146507969Y-80904163D01*
X146507969Y-80904163D01*
G37*
G36*
X146861522Y-81257716D02*
X147002944Y-81399138D01*
X145942284Y-82459798D01*
X145800862Y-82318376D01*
X146861522Y-81257716D01*
X146861522Y-81257716D01*
G37*
G36*
X147215075Y-81611270D02*
X147356497Y-81752692D01*
X146295837Y-82813352D01*
X146154415Y-82671930D01*
X147215075Y-81611270D01*
X147215075Y-81611270D01*
G37*
G36*
X147568629Y-81964823D02*
X147710051Y-82106245D01*
X146649391Y-83166905D01*
X146507969Y-83025483D01*
X147568629Y-81964823D01*
X147568629Y-81964823D01*
G37*
G36*
X147922182Y-82318376D02*
X148063604Y-82459798D01*
X147002944Y-83520458D01*
X146861522Y-83379036D01*
X147922182Y-82318376D01*
X147922182Y-82318376D01*
G37*
G36*
X148275736Y-82671930D02*
X148417158Y-82813352D01*
X147356498Y-83874012D01*
X147215076Y-83732590D01*
X148275736Y-82671930D01*
X148275736Y-82671930D01*
G37*
G36*
X149124264Y-82671930D02*
X150184924Y-83732590D01*
X150043502Y-83874012D01*
X148982842Y-82813352D01*
X149124264Y-82671930D01*
X149124264Y-82671930D01*
G37*
G36*
X149477818Y-82318376D02*
X150538478Y-83379036D01*
X150397056Y-83520458D01*
X149336396Y-82459798D01*
X149477818Y-82318376D01*
X149477818Y-82318376D01*
G37*
G36*
X149831371Y-81964823D02*
X150892031Y-83025483D01*
X150750609Y-83166905D01*
X149689949Y-82106245D01*
X149831371Y-81964823D01*
X149831371Y-81964823D01*
G37*
G36*
X150184925Y-81611270D02*
X151245585Y-82671930D01*
X151104163Y-82813352D01*
X150043503Y-81752692D01*
X150184925Y-81611270D01*
X150184925Y-81611270D01*
G37*
G36*
X150538478Y-81257716D02*
X151599138Y-82318376D01*
X151457716Y-82459798D01*
X150397056Y-81399138D01*
X150538478Y-81257716D01*
X150538478Y-81257716D01*
G37*
G36*
X150892031Y-80904163D02*
X151952691Y-81964823D01*
X151811269Y-82106245D01*
X150750609Y-81045585D01*
X150892031Y-80904163D01*
X150892031Y-80904163D01*
G37*
G36*
X151245585Y-80550609D02*
X152306245Y-81611269D01*
X152164823Y-81752691D01*
X151104163Y-80692031D01*
X151245585Y-80550609D01*
X151245585Y-80550609D01*
G37*
G36*
X151599138Y-80197056D02*
X152659798Y-81257716D01*
X152518376Y-81399138D01*
X151457716Y-80338478D01*
X151599138Y-80197056D01*
X151599138Y-80197056D01*
G37*
G36*
X151952692Y-79843503D02*
X153013352Y-80904163D01*
X152871930Y-81045585D01*
X151811270Y-79984925D01*
X151952692Y-79843503D01*
X151952692Y-79843503D01*
G37*
G36*
X152306245Y-79489949D02*
X153366905Y-80550609D01*
X153225483Y-80692031D01*
X152164823Y-79631371D01*
X152306245Y-79489949D01*
X152306245Y-79489949D01*
G37*
G36*
X152659798Y-79136396D02*
X153720458Y-80197056D01*
X153579036Y-80338478D01*
X152518376Y-79277818D01*
X152659798Y-79136396D01*
X152659798Y-79136396D01*
G37*
G36*
X153013352Y-78782842D02*
X154074012Y-79843502D01*
X153932590Y-79984924D01*
X152871930Y-78924264D01*
X153013352Y-78782842D01*
X153013352Y-78782842D01*
G37*
G36*
X138222290Y-81592103D02*
X137798026Y-82016367D01*
X136702010Y-80920351D01*
X137126274Y-80496087D01*
X138222290Y-81592103D01*
X138222290Y-81592103D01*
G37*
G36*
X139120316Y-80694077D02*
X138696052Y-81118341D01*
X137600036Y-80022325D01*
X138024300Y-79598061D01*
X139120316Y-80694077D01*
X139120316Y-80694077D01*
G37*
G36*
X140018341Y-79796052D02*
X139594077Y-80220316D01*
X138498061Y-79124300D01*
X138922325Y-78700036D01*
X140018341Y-79796052D01*
X140018341Y-79796052D01*
G37*
G36*
X140916367Y-78898026D02*
X140492103Y-79322290D01*
X139396087Y-78226274D01*
X139820351Y-77802010D01*
X140916367Y-78898026D01*
X140916367Y-78898026D01*
G37*
G36*
X137097990Y-75079649D02*
X136673726Y-75503913D01*
X135577710Y-74407897D01*
X136001974Y-73983633D01*
X137097990Y-75079649D01*
X137097990Y-75079649D01*
G37*
G36*
X136199964Y-75977675D02*
X135775700Y-76401939D01*
X134679684Y-75305923D01*
X135103948Y-74881659D01*
X136199964Y-75977675D01*
X136199964Y-75977675D01*
G37*
G36*
X135301939Y-76875700D02*
X134877675Y-77299964D01*
X133781659Y-76203948D01*
X134205923Y-75779684D01*
X135301939Y-76875700D01*
X135301939Y-76875700D01*
G37*
G36*
X134403913Y-77773726D02*
X133979649Y-78197990D01*
X132883633Y-77101974D01*
X133307897Y-76677710D01*
X134403913Y-77773726D01*
X134403913Y-77773726D01*
G37*
G36*
X147920843Y-120251706D02*
X148557239Y-120888102D01*
X147850133Y-121595208D01*
X147213737Y-120958812D01*
X147920843Y-120251706D01*
X147920843Y-120251706D01*
G37*
G36*
X146612695Y-121559854D02*
X147249091Y-122196250D01*
X146541985Y-122903356D01*
X145905589Y-122266960D01*
X146612695Y-121559854D01*
X146612695Y-121559854D01*
G37*
G36*
X147708711Y-122655870D02*
X148345107Y-123292266D01*
X147638001Y-123999372D01*
X147001605Y-123362976D01*
X147708711Y-122655870D01*
X147708711Y-122655870D01*
G37*
G36*
X149016859Y-121347722D02*
X149653255Y-121984118D01*
X148946149Y-122691224D01*
X148309753Y-122054828D01*
X149016859Y-121347722D01*
X149016859Y-121347722D01*
G37*
D31*
X112700000Y-96680000D03*
X112700000Y-99180000D03*
D32*
X145950000Y-69850000D03*
X149950000Y-69850000D03*
D33*
X136768400Y-116497400D03*
X136768400Y-115227400D03*
X136768400Y-113957400D03*
X136768400Y-112687400D03*
X129068400Y-112687400D03*
X129068400Y-113957400D03*
X129068400Y-115227400D03*
X129068400Y-116497400D03*
D34*
X132918400Y-114592400D03*
D35*
X104950000Y-107100000D03*
X104950000Y-107750000D03*
X104950000Y-108400000D03*
X106850000Y-108400000D03*
X106850000Y-107750000D03*
X106850000Y-107100000D03*
D36*
X106580000Y-77697500D03*
X106580000Y-79602500D03*
X109120000Y-77697500D03*
X106580000Y-78650000D03*
X109120000Y-79602500D03*
D10*
G36*
X147064370Y-107297052D02*
X146256147Y-106488829D01*
X146705160Y-106039816D01*
X147513383Y-106848039D01*
X147064370Y-107297052D01*
X147064370Y-107297052D01*
G37*
G36*
X148142000Y-106219422D02*
X147333777Y-105411199D01*
X147782790Y-104962186D01*
X148591013Y-105770409D01*
X148142000Y-106219422D01*
X148142000Y-106219422D01*
G37*
G36*
X155209210Y-101782567D02*
X156017433Y-102590790D01*
X155568420Y-103039803D01*
X154760197Y-102231580D01*
X155209210Y-101782567D01*
X155209210Y-101782567D01*
G37*
G36*
X154131580Y-102860197D02*
X154939803Y-103668420D01*
X154490790Y-104117433D01*
X153682567Y-103309210D01*
X154131580Y-102860197D01*
X154131580Y-102860197D01*
G37*
D37*
X161671000Y-120523000D03*
X161671000Y-118999000D03*
D10*
G36*
X152275227Y-124958937D02*
X153083450Y-125767160D01*
X152634437Y-126216173D01*
X151826214Y-125407950D01*
X152275227Y-124958937D01*
X152275227Y-124958937D01*
G37*
G36*
X151197597Y-126036567D02*
X152005820Y-126844790D01*
X151556807Y-127293803D01*
X150748584Y-126485580D01*
X151197597Y-126036567D01*
X151197597Y-126036567D01*
G37*
G36*
X159741567Y-122259290D02*
X160549790Y-121451067D01*
X160998803Y-121900080D01*
X160190580Y-122708303D01*
X159741567Y-122259290D01*
X159741567Y-122259290D01*
G37*
G36*
X160819197Y-123336920D02*
X161627420Y-122528697D01*
X162076433Y-122977710D01*
X161268210Y-123785933D01*
X160819197Y-123336920D01*
X160819197Y-123336920D01*
G37*
D37*
X114046000Y-75628500D03*
X114046000Y-74104500D03*
D10*
G36*
X142261790Y-107847433D02*
X141453567Y-107039210D01*
X141902580Y-106590197D01*
X142710803Y-107398420D01*
X142261790Y-107847433D01*
X142261790Y-107847433D01*
G37*
G36*
X143339420Y-106769803D02*
X142531197Y-105961580D01*
X142980210Y-105512567D01*
X143788433Y-106320790D01*
X143339420Y-106769803D01*
X143339420Y-106769803D01*
G37*
D37*
X129927204Y-94426314D03*
X129927204Y-92902314D03*
D10*
G36*
X141199567Y-110765790D02*
X142007790Y-109957567D01*
X142456803Y-110406580D01*
X141648580Y-111214803D01*
X141199567Y-110765790D01*
X141199567Y-110765790D01*
G37*
G36*
X142277197Y-111843420D02*
X143085420Y-111035197D01*
X143534433Y-111484210D01*
X142726210Y-112292433D01*
X142277197Y-111843420D01*
X142277197Y-111843420D01*
G37*
D11*
X132139580Y-110180000D03*
X131240420Y-110180000D03*
X126825420Y-112675000D03*
X127724580Y-112675000D03*
D12*
X180264000Y-121991420D03*
X180264000Y-122890580D03*
X137850000Y-108600420D03*
X137850000Y-109499580D03*
D11*
X127627580Y-127965500D03*
X126728420Y-127965500D03*
X131564580Y-127902000D03*
X130665420Y-127902000D03*
D10*
G36*
X146728155Y-117579977D02*
X147152023Y-118003845D01*
X146870043Y-118285825D01*
X146446175Y-117861957D01*
X146728155Y-117579977D01*
X146728155Y-117579977D01*
G37*
G36*
X147363957Y-116944175D02*
X147787825Y-117368043D01*
X147505845Y-117650023D01*
X147081977Y-117226155D01*
X147363957Y-116944175D01*
X147363957Y-116944175D01*
G37*
D11*
X183336580Y-109249000D03*
X182437420Y-109249000D03*
D12*
X182506000Y-106142580D03*
X182506000Y-105243420D03*
X173418500Y-106611420D03*
X173418500Y-107510580D03*
D11*
X172474000Y-111429619D03*
X173373160Y-111429619D03*
D12*
X182506000Y-115413580D03*
X182506000Y-114514420D03*
D10*
G36*
X158757845Y-106397523D02*
X158333977Y-105973655D01*
X158615957Y-105691675D01*
X159039825Y-106115543D01*
X158757845Y-106397523D01*
X158757845Y-106397523D01*
G37*
G36*
X158122043Y-107033325D02*
X157698175Y-106609457D01*
X157980155Y-106327477D01*
X158404023Y-106751345D01*
X158122043Y-107033325D01*
X158122043Y-107033325D01*
G37*
D38*
X181158635Y-109766601D03*
X180358635Y-109766601D03*
X179558635Y-109766601D03*
X176358635Y-109766601D03*
X175558635Y-109766601D03*
X174758635Y-109766601D03*
X175558635Y-108166601D03*
X176358635Y-108166601D03*
X179558635Y-108166601D03*
X180358635Y-108166601D03*
X181158635Y-108166601D03*
X180358635Y-108966601D03*
X179558635Y-108966601D03*
X176358635Y-108966601D03*
X175558635Y-108966601D03*
X174758635Y-108966601D03*
X174758635Y-105766601D03*
X175558635Y-105766601D03*
X176358635Y-105766601D03*
X179558635Y-105766601D03*
X180358635Y-105766601D03*
X181158635Y-104966601D03*
X180358635Y-104966601D03*
X179558635Y-104966601D03*
X176358635Y-104966601D03*
X175558635Y-104966601D03*
X175558635Y-106566601D03*
X176358635Y-106566601D03*
X179558635Y-106566601D03*
X180358635Y-106566601D03*
X181158635Y-106566601D03*
X180358635Y-107366601D03*
X179558635Y-107366601D03*
X176358635Y-107366601D03*
X175558635Y-107366601D03*
X174758635Y-107366601D03*
X174758635Y-112966601D03*
X175558635Y-112966601D03*
X176358635Y-112966601D03*
X179558635Y-112966601D03*
X180358635Y-112966601D03*
X181158635Y-112966601D03*
X181158635Y-112166601D03*
X180358635Y-112166601D03*
X179558635Y-112166601D03*
X176358635Y-112166601D03*
X175558635Y-112166601D03*
X174758635Y-112166601D03*
X174758635Y-110566601D03*
X175558635Y-110566601D03*
X176358635Y-110566601D03*
X179558635Y-110566601D03*
X180358635Y-110566601D03*
X181158635Y-110566601D03*
X181158635Y-111366601D03*
X180358635Y-111366601D03*
X179558635Y-111366601D03*
X176358635Y-111366601D03*
X175558635Y-111366601D03*
X174758635Y-111366601D03*
X174758635Y-114566601D03*
X175558635Y-114566601D03*
X176358635Y-114566601D03*
X179558635Y-114566601D03*
X180358635Y-114566601D03*
X181158635Y-114566601D03*
X181158635Y-113766601D03*
X180358635Y-113766601D03*
X179558635Y-113766601D03*
X176358635Y-113766601D03*
X175558635Y-113766601D03*
X174758635Y-113766601D03*
X174758635Y-115366601D03*
X175558635Y-115366601D03*
X176358635Y-115366601D03*
X179558635Y-115366601D03*
X180358635Y-115366601D03*
X181158635Y-115366601D03*
X181158635Y-116166601D03*
X180358635Y-116166601D03*
X179558635Y-116166601D03*
X176358635Y-116166601D03*
X175558635Y-116166601D03*
X174758635Y-116166601D03*
D39*
X116713000Y-81216500D03*
X113413000Y-81216500D03*
D40*
X137928203Y-97601313D03*
X137928203Y-93501313D03*
D41*
X190062175Y-94084650D03*
X185362175Y-94084650D03*
D11*
X140012420Y-106426000D03*
X140911580Y-106426000D03*
D42*
X127533600Y-115202000D03*
X138481000Y-113932000D03*
X149796500Y-118364000D03*
X166687500Y-126238000D03*
D12*
X162200000Y-96049580D03*
X162200000Y-95150420D03*
X162200000Y-93500420D03*
X162200000Y-94399580D03*
D10*
G36*
X162464977Y-92538845D02*
X162888845Y-92114977D01*
X163170825Y-92396957D01*
X162746957Y-92820825D01*
X162464977Y-92538845D01*
X162464977Y-92538845D01*
G37*
G36*
X161829175Y-91903043D02*
X162253043Y-91479175D01*
X162535023Y-91761155D01*
X162111155Y-92185023D01*
X161829175Y-91903043D01*
X161829175Y-91903043D01*
G37*
G36*
X161385023Y-90561155D02*
X160961155Y-90985023D01*
X160679175Y-90703043D01*
X161103043Y-90279175D01*
X161385023Y-90561155D01*
X161385023Y-90561155D01*
G37*
G36*
X162020825Y-91196957D02*
X161596957Y-91620825D01*
X161314977Y-91338845D01*
X161738845Y-90914977D01*
X162020825Y-91196957D01*
X162020825Y-91196957D01*
G37*
D11*
X184100420Y-68250000D03*
X184999580Y-68250000D03*
X163200420Y-93550000D03*
X164099580Y-93550000D03*
D10*
G36*
X161561155Y-89664977D02*
X161985023Y-90088845D01*
X161703043Y-90370825D01*
X161279175Y-89946957D01*
X161561155Y-89664977D01*
X161561155Y-89664977D01*
G37*
G36*
X162196957Y-89029175D02*
X162620825Y-89453043D01*
X162338845Y-89735023D01*
X161914977Y-89311155D01*
X162196957Y-89029175D01*
X162196957Y-89029175D01*
G37*
D15*
X108100700Y-61100000D03*
X109599300Y-61100000D03*
X108100700Y-63600000D03*
X109599300Y-63600000D03*
X108100700Y-58500000D03*
X109599300Y-58500000D03*
X108100700Y-56200000D03*
X109599300Y-56200000D03*
D11*
X111599580Y-61100000D03*
X110700420Y-61100000D03*
X111599580Y-63600000D03*
X110700420Y-63600000D03*
X111699580Y-58500000D03*
X110800420Y-58500000D03*
X111699580Y-56200000D03*
X110800420Y-56200000D03*
D14*
X105918000Y-76136500D03*
X105918000Y-74231500D03*
D13*
X104711500Y-103251000D03*
X102806500Y-103251000D03*
D37*
X125400000Y-115112000D03*
X125400000Y-113588000D03*
D12*
X126450000Y-115999580D03*
X126450000Y-115100420D03*
M02*
