G04 #@! TF.FileFunction,Paste,Bot*
%FSLAX46Y46*%
G04 Gerber Fmt 4.6, Leading zero omitted, Abs format (unit mm)*
G04 Created by KiCad (PCBNEW 0.201502260946+5452~21~ubuntu14.04.1-product) date Mon 02 Mar 2015 04:16:13 PM PST*
%MOMM*%
G01*
G04 APERTURE LIST*
%ADD10C,0.100000*%
%ADD11R,0.599440X0.398780*%
%ADD12R,0.398780X0.599440*%
%ADD13O,0.600000X0.900000*%
%ADD14R,4.800000X4.650000*%
%ADD15R,1.143000X0.635000*%
%ADD16R,0.700000X1.300000*%
%ADD17R,1.300000X0.700000*%
%ADD18R,0.500000X1.100000*%
%ADD19R,1.000000X0.900000*%
%ADD20R,1.300000X0.650000*%
%ADD21R,2.400000X1.700000*%
G04 APERTURE END LIST*
D10*
D11*
X114046000Y-110558580D03*
X114046000Y-109659420D03*
D12*
X114612420Y-106553000D03*
X115511580Y-106553000D03*
D13*
X99060000Y-142280000D03*
X97790000Y-142280000D03*
X96520000Y-142280000D03*
X95250000Y-142280000D03*
X95250000Y-134580000D03*
X96520000Y-134580000D03*
X97790000Y-134580000D03*
X99060000Y-134580000D03*
D14*
X97155000Y-138430000D03*
D11*
X102362000Y-106992420D03*
X102362000Y-107891580D03*
X106172000Y-132148580D03*
X106172000Y-131249420D03*
X106426000Y-125915420D03*
X106426000Y-126814580D03*
X106807000Y-129344420D03*
X106807000Y-130243580D03*
X105537000Y-125915420D03*
X105537000Y-126814580D03*
X105918000Y-129344420D03*
X105918000Y-130243580D03*
D15*
X104394000Y-126365000D03*
X104394000Y-124841000D03*
D11*
X106426000Y-123756420D03*
X106426000Y-124655580D03*
D15*
X104775000Y-130302000D03*
X104775000Y-131826000D03*
D12*
X112463580Y-124333000D03*
X111564420Y-124333000D03*
D11*
X101346000Y-131894580D03*
X101346000Y-130995420D03*
X101346000Y-128709420D03*
X101346000Y-129608580D03*
D10*
G36*
X109455858Y-123522619D02*
X108536619Y-124441858D01*
X108041644Y-123946883D01*
X108960883Y-123027644D01*
X109455858Y-123522619D01*
X109455858Y-123522619D01*
G37*
G36*
X108112356Y-122179117D02*
X107193117Y-123098356D01*
X106698142Y-122603381D01*
X107617381Y-121684142D01*
X108112356Y-122179117D01*
X108112356Y-122179117D01*
G37*
D12*
X110622080Y-127127000D03*
X109722920Y-127127000D03*
D11*
X108077000Y-131640580D03*
X108077000Y-130741420D03*
X103251000Y-125026420D03*
X103251000Y-125925580D03*
D12*
X104081580Y-120142000D03*
X103182420Y-120142000D03*
X114241580Y-123266200D03*
X113342420Y-123266200D03*
D10*
G36*
X105402155Y-122392977D02*
X105826023Y-122816845D01*
X105544043Y-123098825D01*
X105120175Y-122674957D01*
X105402155Y-122392977D01*
X105402155Y-122392977D01*
G37*
G36*
X106037957Y-121757175D02*
X106461825Y-122181043D01*
X106179845Y-122463023D01*
X105755977Y-122039155D01*
X106037957Y-121757175D01*
X106037957Y-121757175D01*
G37*
D11*
X105537000Y-115882420D03*
X105537000Y-116781580D03*
D16*
X101539000Y-122174000D03*
X103439000Y-122174000D03*
D11*
X101600000Y-118549420D03*
X101600000Y-119448580D03*
D15*
X105092500Y-118745000D03*
X105092500Y-120269000D03*
D10*
G36*
X103994858Y-128729619D02*
X103075619Y-129648858D01*
X102580644Y-129153883D01*
X103499883Y-128234644D01*
X103994858Y-128729619D01*
X103994858Y-128729619D01*
G37*
G36*
X102651356Y-127386117D02*
X101732117Y-128305356D01*
X101237142Y-127810381D01*
X102156381Y-126891142D01*
X102651356Y-127386117D01*
X102651356Y-127386117D01*
G37*
D12*
X105732580Y-127762000D03*
X104833420Y-127762000D03*
D11*
X100457000Y-123258580D03*
X100457000Y-122359420D03*
X102489000Y-117787420D03*
X102489000Y-118686580D03*
D10*
G36*
X109438977Y-130055845D02*
X109862845Y-129631977D01*
X110144825Y-129913957D01*
X109720957Y-130337825D01*
X109438977Y-130055845D01*
X109438977Y-130055845D01*
G37*
G36*
X108803175Y-129420043D02*
X109227043Y-128996175D01*
X109509023Y-129278155D01*
X109085155Y-129702023D01*
X108803175Y-129420043D01*
X108803175Y-129420043D01*
G37*
G36*
X109285023Y-122166155D02*
X108861155Y-122590023D01*
X108579175Y-122308043D01*
X109003043Y-121884175D01*
X109285023Y-122166155D01*
X109285023Y-122166155D01*
G37*
G36*
X109920825Y-122801957D02*
X109496957Y-123225825D01*
X109214977Y-122943845D01*
X109638845Y-122519977D01*
X109920825Y-122801957D01*
X109920825Y-122801957D01*
G37*
D11*
X104648000Y-115882420D03*
X104648000Y-116781580D03*
D12*
X102303580Y-123444000D03*
X101404420Y-123444000D03*
X102430580Y-124333000D03*
X101531420Y-124333000D03*
D11*
X94996000Y-120327420D03*
X94996000Y-121226580D03*
D17*
X96393000Y-120965000D03*
X96393000Y-119065000D03*
D12*
X83507580Y-133350000D03*
X82608420Y-133350000D03*
D11*
X86614000Y-129862580D03*
X86614000Y-128963420D03*
X84455000Y-137609580D03*
X84455000Y-136710420D03*
D16*
X83632000Y-131445000D03*
X85532000Y-131445000D03*
D11*
X125857000Y-120200420D03*
X125857000Y-121099580D03*
X125857000Y-126550420D03*
X125857000Y-127449580D03*
D12*
X115818920Y-118808500D03*
X116718080Y-118808500D03*
D11*
X125857000Y-124899420D03*
X125857000Y-125798580D03*
X125857000Y-121851420D03*
X125857000Y-122750580D03*
D12*
X115882420Y-125857000D03*
X116781580Y-125857000D03*
X115882420Y-124460000D03*
X116781580Y-124460000D03*
X115882420Y-122682000D03*
X116781580Y-122682000D03*
X121226580Y-123571000D03*
X120327420Y-123571000D03*
X118369080Y-128270000D03*
X117469920Y-128270000D03*
X123385580Y-113919000D03*
X122486420Y-113919000D03*
X125036580Y-114808000D03*
X124137420Y-114808000D03*
D11*
X117729000Y-122471180D03*
X117729000Y-121572020D03*
X117729000Y-119819420D03*
X117729000Y-120718580D03*
X103251000Y-135387080D03*
X103251000Y-134487920D03*
X113030000Y-104706420D03*
X113030000Y-105605580D03*
D12*
X98102420Y-133477000D03*
X99001580Y-133477000D03*
X100652580Y-133731000D03*
X99753420Y-133731000D03*
X100779580Y-86995000D03*
X99880420Y-86995000D03*
X97213420Y-92456000D03*
X98112580Y-92456000D03*
X109542580Y-102489000D03*
X108643420Y-102489000D03*
D11*
X104394000Y-103446580D03*
X104394000Y-102547420D03*
D12*
X109796580Y-107442000D03*
X108897420Y-107442000D03*
X105351580Y-109601000D03*
X104452420Y-109601000D03*
D16*
X106360000Y-111887000D03*
X104460000Y-111887000D03*
D11*
X103251000Y-107129580D03*
X103251000Y-106230420D03*
D17*
X107061000Y-110297000D03*
X107061000Y-108397000D03*
D11*
X107315000Y-125925580D03*
X107315000Y-125026420D03*
D17*
X99695000Y-90485000D03*
X99695000Y-88585000D03*
X99695000Y-94295000D03*
X99695000Y-92395000D03*
D11*
X102235000Y-131386580D03*
X102235000Y-130487420D03*
D12*
X100515420Y-141605000D03*
X101414580Y-141605000D03*
D11*
X82804000Y-96334580D03*
X82804000Y-95435420D03*
X86487000Y-121861580D03*
X86487000Y-120962420D03*
X81534000Y-96070420D03*
X81534000Y-96969580D03*
X86487000Y-123385580D03*
X86487000Y-122486420D03*
D12*
X82608420Y-116332000D03*
X83507580Y-116332000D03*
X82608420Y-117348000D03*
X83507580Y-117348000D03*
X101414580Y-143129000D03*
X100515420Y-143129000D03*
D11*
X81788000Y-107373420D03*
X81788000Y-108272580D03*
X89662000Y-128719580D03*
X89662000Y-127820420D03*
X90551000Y-128719580D03*
X90551000Y-127820420D03*
D12*
X122486420Y-114808000D03*
X123385580Y-114808000D03*
X124137420Y-113919000D03*
X125036580Y-113919000D03*
X115120420Y-121793000D03*
X116019580Y-121793000D03*
X115120420Y-120904000D03*
X116019580Y-120904000D03*
D11*
X116840000Y-120835420D03*
X116840000Y-121734580D03*
X102362000Y-134487920D03*
X102362000Y-135387080D03*
X120015000Y-95562420D03*
X120015000Y-96461580D03*
X118745000Y-96461580D03*
X118745000Y-95562420D03*
X121285000Y-95562420D03*
X121285000Y-96461580D03*
X122555000Y-96461580D03*
X122555000Y-95562420D03*
D12*
X113860580Y-106553000D03*
X112961420Y-106553000D03*
X114876580Y-108896720D03*
X113977420Y-108896720D03*
X115765580Y-107950000D03*
X114866420Y-107950000D03*
D11*
X121285000Y-97467420D03*
X121285000Y-98366580D03*
X120015000Y-97467420D03*
X120015000Y-98366580D03*
X118745000Y-93794580D03*
X118745000Y-92895420D03*
X122555000Y-93794580D03*
X122555000Y-92895420D03*
D12*
X97350580Y-133477000D03*
X96451420Y-133477000D03*
X94800420Y-133477000D03*
X95699580Y-133477000D03*
X97848420Y-123063000D03*
X98747580Y-123063000D03*
X104208580Y-108712000D03*
X103309420Y-108712000D03*
D18*
X93345000Y-90865000D03*
X93345000Y-85665000D03*
X94615000Y-90865000D03*
X95885000Y-90865000D03*
X97155000Y-90865000D03*
X94615000Y-85665000D03*
X95885000Y-85665000D03*
X97155000Y-85665000D03*
D19*
X100239000Y-131077000D03*
X98389000Y-131077000D03*
X98389000Y-129527000D03*
X100239000Y-129527000D03*
D20*
X83058000Y-134334000D03*
X83058000Y-136684000D03*
D21*
X106553000Y-106752000D03*
X106553000Y-103052000D03*
D17*
X102235000Y-90485000D03*
X102235000Y-88585000D03*
X102235000Y-94295000D03*
X102235000Y-92395000D03*
D11*
X80550000Y-97335420D03*
X80550000Y-98234580D03*
M02*
