G04 #@! TF.FileFunction,Soldermask,Top*
%FSLAX46Y46*%
G04 Gerber Fmt 4.6, Leading zero omitted, Abs format (unit mm)*
G04 Created by KiCad (PCBNEW 4.0.0-stable) date Sunday, December 27, 2015 'PMt' 01:34:37 PM*
%MOMM*%
G01*
G04 APERTURE LIST*
%ADD10C,0.100000*%
%ADD11C,0.254000*%
%ADD12C,1.652400*%
%ADD13C,3.152400*%
%ADD14R,1.295400X0.787400*%
%ADD15R,0.852400X1.452400*%
%ADD16C,0.552400*%
%ADD17C,0.360000*%
%ADD18R,2.352400X1.202400*%
%ADD19R,1.202400X1.152400*%
%ADD20R,1.202400X2.352400*%
%ADD21R,1.152400X1.202400*%
%ADD22R,0.551180X0.751840*%
%ADD23R,0.751840X0.551180*%
%ADD24R,1.452400X0.852400*%
%ADD25R,0.949960X0.949960*%
%ADD26C,2.651760*%
%ADD27C,1.168400*%
%ADD28C,1.152400*%
%ADD29R,4.152400X1.652400*%
%ADD30R,1.102400X1.552400*%
%ADD31R,1.152400X0.502400*%
%ADD32R,0.914400X0.660400*%
%ADD33R,0.660400X0.914400*%
%ADD34C,1.602400*%
%ADD35C,1.143000*%
%ADD36C,2.032000*%
%ADD37R,2.184400X1.879600*%
%ADD38O,2.184400X1.879600*%
%ADD39O,1.052400X1.452400*%
%ADD40C,1.052400*%
%ADD41R,0.552400X1.502400*%
%ADD42R,1.252400X1.652400*%
%ADD43C,2.152400*%
%ADD44C,3.402400*%
G04 APERTURE END LIST*
D10*
D11*
X93980000Y-147320000D02*
X75946000Y-147320000D01*
X98298000Y-144780000D02*
X93980000Y-147320000D01*
X121666000Y-144780000D02*
X98298000Y-144780000D01*
X125476000Y-150368000D02*
X121666000Y-144780000D01*
X125476000Y-151892000D02*
X125476000Y-150368000D01*
X127000000Y-151892000D02*
X125476000Y-151892000D01*
X127000000Y-107950000D02*
X127000000Y-151892000D01*
X134620000Y-100330000D02*
X127000000Y-107950000D01*
D12*
X104211000Y-98104000D03*
X101711000Y-98104000D03*
X99711000Y-98104000D03*
X97211000Y-98104000D03*
X104211000Y-95504000D03*
X101711000Y-95504000D03*
X99711000Y-95504000D03*
X97211000Y-95504000D03*
D13*
X107281000Y-98454000D03*
X107281000Y-92774000D03*
X94141000Y-98454000D03*
X94141000Y-92774000D03*
D10*
G36*
X110642590Y-105849313D02*
X110891775Y-106098498D01*
X109723352Y-107266921D01*
X109474167Y-107017736D01*
X110642590Y-105849313D01*
X110642590Y-105849313D01*
G37*
G36*
X110289036Y-105495759D02*
X110538221Y-105744944D01*
X109369798Y-106913367D01*
X109120613Y-106664182D01*
X110289036Y-105495759D01*
X110289036Y-105495759D01*
G37*
G36*
X109935483Y-105142206D02*
X110184668Y-105391391D01*
X109016245Y-106559814D01*
X108767060Y-106310629D01*
X109935483Y-105142206D01*
X109935483Y-105142206D01*
G37*
G36*
X109581930Y-104788652D02*
X109831115Y-105037837D01*
X108662692Y-106206260D01*
X108413507Y-105957075D01*
X109581930Y-104788652D01*
X109581930Y-104788652D01*
G37*
G36*
X109228376Y-104435099D02*
X109477561Y-104684284D01*
X108309138Y-105852707D01*
X108059953Y-105603522D01*
X109228376Y-104435099D01*
X109228376Y-104435099D01*
G37*
G36*
X108874823Y-104081546D02*
X109124008Y-104330731D01*
X107955585Y-105499154D01*
X107706400Y-105249969D01*
X108874823Y-104081546D01*
X108874823Y-104081546D01*
G37*
G36*
X108521269Y-103727992D02*
X108770454Y-103977177D01*
X107602031Y-105145600D01*
X107352846Y-104896415D01*
X108521269Y-103727992D01*
X108521269Y-103727992D01*
G37*
G36*
X108167716Y-103374439D02*
X108416901Y-103623624D01*
X107248478Y-104792047D01*
X106999293Y-104542862D01*
X108167716Y-103374439D01*
X108167716Y-103374439D01*
G37*
G36*
X107814163Y-103020885D02*
X108063348Y-103270070D01*
X106894925Y-104438493D01*
X106645740Y-104189308D01*
X107814163Y-103020885D01*
X107814163Y-103020885D01*
G37*
G36*
X107460609Y-102667332D02*
X107709794Y-102916517D01*
X106541371Y-104084940D01*
X106292186Y-103835755D01*
X107460609Y-102667332D01*
X107460609Y-102667332D01*
G37*
G36*
X107107056Y-102313779D02*
X107356241Y-102562964D01*
X106187818Y-103731387D01*
X105938633Y-103482202D01*
X107107056Y-102313779D01*
X107107056Y-102313779D01*
G37*
G36*
X106753502Y-101960225D02*
X107002687Y-102209410D01*
X105834264Y-103377833D01*
X105585079Y-103128648D01*
X106753502Y-101960225D01*
X106753502Y-101960225D01*
G37*
G36*
X104066498Y-101960225D02*
X105234921Y-103128648D01*
X104985736Y-103377833D01*
X103817313Y-102209410D01*
X104066498Y-101960225D01*
X104066498Y-101960225D01*
G37*
G36*
X103712944Y-102313779D02*
X104881367Y-103482202D01*
X104632182Y-103731387D01*
X103463759Y-102562964D01*
X103712944Y-102313779D01*
X103712944Y-102313779D01*
G37*
G36*
X103359391Y-102667332D02*
X104527814Y-103835755D01*
X104278629Y-104084940D01*
X103110206Y-102916517D01*
X103359391Y-102667332D01*
X103359391Y-102667332D01*
G37*
G36*
X103005837Y-103020885D02*
X104174260Y-104189308D01*
X103925075Y-104438493D01*
X102756652Y-103270070D01*
X103005837Y-103020885D01*
X103005837Y-103020885D01*
G37*
G36*
X102652284Y-103374439D02*
X103820707Y-104542862D01*
X103571522Y-104792047D01*
X102403099Y-103623624D01*
X102652284Y-103374439D01*
X102652284Y-103374439D01*
G37*
G36*
X102298731Y-103727992D02*
X103467154Y-104896415D01*
X103217969Y-105145600D01*
X102049546Y-103977177D01*
X102298731Y-103727992D01*
X102298731Y-103727992D01*
G37*
G36*
X101945177Y-104081546D02*
X103113600Y-105249969D01*
X102864415Y-105499154D01*
X101695992Y-104330731D01*
X101945177Y-104081546D01*
X101945177Y-104081546D01*
G37*
G36*
X101591624Y-104435099D02*
X102760047Y-105603522D01*
X102510862Y-105852707D01*
X101342439Y-104684284D01*
X101591624Y-104435099D01*
X101591624Y-104435099D01*
G37*
G36*
X101238070Y-104788652D02*
X102406493Y-105957075D01*
X102157308Y-106206260D01*
X100988885Y-105037837D01*
X101238070Y-104788652D01*
X101238070Y-104788652D01*
G37*
G36*
X100884517Y-105142206D02*
X102052940Y-106310629D01*
X101803755Y-106559814D01*
X100635332Y-105391391D01*
X100884517Y-105142206D01*
X100884517Y-105142206D01*
G37*
G36*
X100530964Y-105495759D02*
X101699387Y-106664182D01*
X101450202Y-106913367D01*
X100281779Y-105744944D01*
X100530964Y-105495759D01*
X100530964Y-105495759D01*
G37*
G36*
X100177410Y-105849313D02*
X101345833Y-107017736D01*
X101096648Y-107266921D01*
X99928225Y-106098498D01*
X100177410Y-105849313D01*
X100177410Y-105849313D01*
G37*
G36*
X101096648Y-107617079D02*
X101345833Y-107866264D01*
X100177410Y-109034687D01*
X99928225Y-108785502D01*
X101096648Y-107617079D01*
X101096648Y-107617079D01*
G37*
G36*
X101450202Y-107970633D02*
X101699387Y-108219818D01*
X100530964Y-109388241D01*
X100281779Y-109139056D01*
X101450202Y-107970633D01*
X101450202Y-107970633D01*
G37*
G36*
X101803755Y-108324186D02*
X102052940Y-108573371D01*
X100884517Y-109741794D01*
X100635332Y-109492609D01*
X101803755Y-108324186D01*
X101803755Y-108324186D01*
G37*
G36*
X102157308Y-108677740D02*
X102406493Y-108926925D01*
X101238070Y-110095348D01*
X100988885Y-109846163D01*
X102157308Y-108677740D01*
X102157308Y-108677740D01*
G37*
G36*
X102510862Y-109031293D02*
X102760047Y-109280478D01*
X101591624Y-110448901D01*
X101342439Y-110199716D01*
X102510862Y-109031293D01*
X102510862Y-109031293D01*
G37*
G36*
X102864415Y-109384846D02*
X103113600Y-109634031D01*
X101945177Y-110802454D01*
X101695992Y-110553269D01*
X102864415Y-109384846D01*
X102864415Y-109384846D01*
G37*
G36*
X103217969Y-109738400D02*
X103467154Y-109987585D01*
X102298731Y-111156008D01*
X102049546Y-110906823D01*
X103217969Y-109738400D01*
X103217969Y-109738400D01*
G37*
G36*
X103571522Y-110091953D02*
X103820707Y-110341138D01*
X102652284Y-111509561D01*
X102403099Y-111260376D01*
X103571522Y-110091953D01*
X103571522Y-110091953D01*
G37*
G36*
X103925075Y-110445507D02*
X104174260Y-110694692D01*
X103005837Y-111863115D01*
X102756652Y-111613930D01*
X103925075Y-110445507D01*
X103925075Y-110445507D01*
G37*
G36*
X104278629Y-110799060D02*
X104527814Y-111048245D01*
X103359391Y-112216668D01*
X103110206Y-111967483D01*
X104278629Y-110799060D01*
X104278629Y-110799060D01*
G37*
G36*
X104632182Y-111152613D02*
X104881367Y-111401798D01*
X103712944Y-112570221D01*
X103463759Y-112321036D01*
X104632182Y-111152613D01*
X104632182Y-111152613D01*
G37*
G36*
X104985736Y-111506167D02*
X105234921Y-111755352D01*
X104066498Y-112923775D01*
X103817313Y-112674590D01*
X104985736Y-111506167D01*
X104985736Y-111506167D01*
G37*
G36*
X105834264Y-111506167D02*
X107002687Y-112674590D01*
X106753502Y-112923775D01*
X105585079Y-111755352D01*
X105834264Y-111506167D01*
X105834264Y-111506167D01*
G37*
G36*
X106187818Y-111152613D02*
X107356241Y-112321036D01*
X107107056Y-112570221D01*
X105938633Y-111401798D01*
X106187818Y-111152613D01*
X106187818Y-111152613D01*
G37*
G36*
X106541371Y-110799060D02*
X107709794Y-111967483D01*
X107460609Y-112216668D01*
X106292186Y-111048245D01*
X106541371Y-110799060D01*
X106541371Y-110799060D01*
G37*
G36*
X106894925Y-110445507D02*
X108063348Y-111613930D01*
X107814163Y-111863115D01*
X106645740Y-110694692D01*
X106894925Y-110445507D01*
X106894925Y-110445507D01*
G37*
G36*
X107248478Y-110091953D02*
X108416901Y-111260376D01*
X108167716Y-111509561D01*
X106999293Y-110341138D01*
X107248478Y-110091953D01*
X107248478Y-110091953D01*
G37*
G36*
X107602031Y-109738400D02*
X108770454Y-110906823D01*
X108521269Y-111156008D01*
X107352846Y-109987585D01*
X107602031Y-109738400D01*
X107602031Y-109738400D01*
G37*
G36*
X107955585Y-109384846D02*
X109124008Y-110553269D01*
X108874823Y-110802454D01*
X107706400Y-109634031D01*
X107955585Y-109384846D01*
X107955585Y-109384846D01*
G37*
G36*
X108309138Y-109031293D02*
X109477561Y-110199716D01*
X109228376Y-110448901D01*
X108059953Y-109280478D01*
X108309138Y-109031293D01*
X108309138Y-109031293D01*
G37*
G36*
X108662692Y-108677740D02*
X109831115Y-109846163D01*
X109581930Y-110095348D01*
X108413507Y-108926925D01*
X108662692Y-108677740D01*
X108662692Y-108677740D01*
G37*
G36*
X109016245Y-108324186D02*
X110184668Y-109492609D01*
X109935483Y-109741794D01*
X108767060Y-108573371D01*
X109016245Y-108324186D01*
X109016245Y-108324186D01*
G37*
G36*
X109369798Y-107970633D02*
X110538221Y-109139056D01*
X110289036Y-109388241D01*
X109120613Y-108219818D01*
X109369798Y-107970633D01*
X109369798Y-107970633D01*
G37*
G36*
X109723352Y-107617079D02*
X110891775Y-108785502D01*
X110642590Y-109034687D01*
X109474167Y-107866264D01*
X109723352Y-107617079D01*
X109723352Y-107617079D01*
G37*
D14*
X82931000Y-100584000D03*
X82931000Y-99060000D03*
D15*
X88966000Y-89408000D03*
X90866000Y-89408000D03*
D16*
X124485000Y-121120000D03*
X123685000Y-121120000D03*
X122885000Y-121120000D03*
X119685000Y-121120000D03*
X118885000Y-121120000D03*
X118085000Y-121120000D03*
X118885000Y-119520000D03*
X119685000Y-119520000D03*
X122885000Y-119520000D03*
X123685000Y-119520000D03*
X124485000Y-119520000D03*
X123685000Y-120320000D03*
X122885000Y-120320000D03*
X119685000Y-120320000D03*
X118885000Y-120320000D03*
X118085000Y-120320000D03*
X118085000Y-117120000D03*
X118885000Y-117120000D03*
X119685000Y-117120000D03*
X122885000Y-117120000D03*
X123685000Y-117120000D03*
X124485000Y-116320000D03*
X123685000Y-116320000D03*
X122885000Y-116320000D03*
X119685000Y-116320000D03*
X118885000Y-116320000D03*
X118885000Y-117920000D03*
X119685000Y-117920000D03*
X122885000Y-117920000D03*
X123685000Y-117920000D03*
X124485000Y-117920000D03*
X123685000Y-118720000D03*
X122885000Y-118720000D03*
X119685000Y-118720000D03*
X118885000Y-118720000D03*
X118085000Y-118720000D03*
X118085000Y-124320000D03*
X118885000Y-124320000D03*
X119685000Y-124320000D03*
X122885000Y-124320000D03*
X123685000Y-124320000D03*
X124485000Y-124320000D03*
X124485000Y-123520000D03*
X123685000Y-123520000D03*
X122885000Y-123520000D03*
X119685000Y-123520000D03*
X118885000Y-123520000D03*
X118085000Y-123520000D03*
X118085000Y-121920000D03*
X118885000Y-121920000D03*
X119685000Y-121920000D03*
X122885000Y-121920000D03*
X123685000Y-121920000D03*
X124485000Y-121920000D03*
X124485000Y-122720000D03*
X123685000Y-122720000D03*
X122885000Y-122720000D03*
X119685000Y-122720000D03*
X118885000Y-122720000D03*
X118085000Y-122720000D03*
X118085000Y-125920000D03*
X118885000Y-125920000D03*
X119685000Y-125920000D03*
X122885000Y-125920000D03*
X123685000Y-125920000D03*
X124485000Y-125920000D03*
X124485000Y-125120000D03*
X123685000Y-125120000D03*
X122885000Y-125120000D03*
X119685000Y-125120000D03*
X118885000Y-125120000D03*
X118085000Y-125120000D03*
X118085000Y-126720000D03*
X118885000Y-126720000D03*
X119685000Y-126720000D03*
X122885000Y-126720000D03*
X123685000Y-126720000D03*
X124485000Y-126720000D03*
X124485000Y-127520000D03*
X123685000Y-127520000D03*
X122885000Y-127520000D03*
X119685000Y-127520000D03*
X118885000Y-127520000D03*
X118085000Y-127520000D03*
D17*
X105410000Y-144780000D03*
D18*
X109728000Y-140286000D03*
X109728000Y-137336000D03*
D19*
X108203000Y-138811000D03*
D20*
X112190000Y-138811000D03*
X115140000Y-138811000D03*
D21*
X113665000Y-137286000D03*
D10*
G36*
X101211155Y-131175214D02*
X101742786Y-131706845D01*
X101353043Y-132096588D01*
X100821412Y-131564957D01*
X101211155Y-131175214D01*
X101211155Y-131175214D01*
G37*
G36*
X101846957Y-130539412D02*
X102378588Y-131071043D01*
X101988845Y-131460786D01*
X101457214Y-130929155D01*
X101846957Y-130539412D01*
X101846957Y-130539412D01*
G37*
D22*
X108272580Y-133350000D03*
X107373420Y-133350000D03*
D10*
G36*
X101846155Y-131810214D02*
X102377786Y-132341845D01*
X101988043Y-132731588D01*
X101456412Y-132199957D01*
X101846155Y-131810214D01*
X101846155Y-131810214D01*
G37*
G36*
X102481957Y-131174412D02*
X103013588Y-131706043D01*
X102623845Y-132095786D01*
X102092214Y-131564155D01*
X102481957Y-131174412D01*
X102481957Y-131174412D01*
G37*
G36*
X98122619Y-125767379D02*
X99149621Y-126794381D01*
X98546883Y-127397119D01*
X97519881Y-126370117D01*
X98122619Y-125767379D01*
X98122619Y-125767379D01*
G37*
G36*
X96779117Y-127110881D02*
X97806119Y-128137883D01*
X97203381Y-128740621D01*
X96176379Y-127713619D01*
X96779117Y-127110881D01*
X96779117Y-127110881D01*
G37*
D15*
X124521000Y-129413000D03*
X122621000Y-129413000D03*
D10*
G36*
X96512155Y-124571214D02*
X97043786Y-125102845D01*
X96654043Y-125492588D01*
X96122412Y-124960957D01*
X96512155Y-124571214D01*
X96512155Y-124571214D01*
G37*
G36*
X97147957Y-123935412D02*
X97679588Y-124467043D01*
X97289845Y-124856786D01*
X96758214Y-124325155D01*
X97147957Y-123935412D01*
X97147957Y-123935412D01*
G37*
D22*
X110685580Y-117919500D03*
X109786420Y-117919500D03*
D23*
X107505500Y-114231420D03*
X107505500Y-115130580D03*
D22*
X114178080Y-124777500D03*
X113278920Y-124777500D03*
X111955580Y-128016000D03*
X111056420Y-128016000D03*
D24*
X84582000Y-100391000D03*
X84582000Y-98491000D03*
D23*
X81661000Y-99753420D03*
X81661000Y-100652580D03*
D24*
X81915000Y-93660000D03*
X81915000Y-91760000D03*
X81915000Y-123505000D03*
X81915000Y-121605000D03*
D15*
X85659000Y-107442000D03*
X83759000Y-107442000D03*
D22*
X83370420Y-105918000D03*
X84269580Y-105918000D03*
D15*
X87061000Y-109220000D03*
X88961000Y-109220000D03*
D24*
X90932000Y-113980000D03*
X90932000Y-112080000D03*
X114681000Y-106873000D03*
X114681000Y-108773000D03*
D23*
X92329000Y-113215420D03*
X92329000Y-114114580D03*
D14*
X116205000Y-106807000D03*
X116205000Y-108331000D03*
D23*
X117348000Y-107510580D03*
X117348000Y-106611420D03*
D10*
G36*
X95877155Y-123047214D02*
X96408786Y-123578845D01*
X96019043Y-123968588D01*
X95487412Y-123436957D01*
X95877155Y-123047214D01*
X95877155Y-123047214D01*
G37*
G36*
X96512957Y-122411412D02*
X97044588Y-122943043D01*
X96654845Y-123332786D01*
X96123214Y-122801155D01*
X96512957Y-122411412D01*
X96512957Y-122411412D01*
G37*
G36*
X95509196Y-122914210D02*
X94593210Y-123830196D01*
X94036434Y-123273420D01*
X94952420Y-122357434D01*
X95509196Y-122914210D01*
X95509196Y-122914210D01*
G37*
G36*
X94431566Y-121836580D02*
X93515580Y-122752566D01*
X92958804Y-122195790D01*
X93874790Y-121279804D01*
X94431566Y-121836580D01*
X94431566Y-121836580D01*
G37*
D24*
X97282000Y-115382000D03*
X97282000Y-117282000D03*
X120523000Y-111821000D03*
X120523000Y-109921000D03*
D23*
X95758000Y-116527580D03*
X95758000Y-115628420D03*
D15*
X118933000Y-111887000D03*
X117033000Y-111887000D03*
D24*
X97282000Y-113980000D03*
X97282000Y-112080000D03*
D23*
X118999000Y-109659420D03*
X118999000Y-110558580D03*
X117983000Y-109659420D03*
X117983000Y-110558580D03*
D15*
X121986000Y-112268000D03*
X123886000Y-112268000D03*
D22*
X82735420Y-88900000D03*
X83634580Y-88900000D03*
D10*
G36*
X89138214Y-137421845D02*
X89669845Y-136890214D01*
X90059588Y-137279957D01*
X89527957Y-137811588D01*
X89138214Y-137421845D01*
X89138214Y-137421845D01*
G37*
G36*
X88502412Y-136786043D02*
X89034043Y-136254412D01*
X89423786Y-136644155D01*
X88892155Y-137175786D01*
X88502412Y-136786043D01*
X88502412Y-136786043D01*
G37*
D23*
X83312000Y-129344420D03*
X83312000Y-130243580D03*
X82423000Y-129344420D03*
X82423000Y-130243580D03*
D24*
X82169000Y-137607000D03*
X82169000Y-139507000D03*
D22*
X82227420Y-136271000D03*
X83126580Y-136271000D03*
D23*
X83058000Y-144340580D03*
X83058000Y-143441420D03*
D22*
X104071420Y-131826000D03*
X104970580Y-131826000D03*
X106621580Y-131826000D03*
X105722420Y-131826000D03*
D10*
G36*
X107942155Y-130540214D02*
X108473786Y-131071845D01*
X108084043Y-131461588D01*
X107552412Y-130929957D01*
X107942155Y-130540214D01*
X107942155Y-130540214D01*
G37*
G36*
X108577957Y-129904412D02*
X109109588Y-130436043D01*
X108719845Y-130825786D01*
X108188214Y-130294155D01*
X108577957Y-129904412D01*
X108577957Y-129904412D01*
G37*
G36*
X109862845Y-129682786D02*
X109331214Y-129151155D01*
X109720957Y-128761412D01*
X110252588Y-129293043D01*
X109862845Y-129682786D01*
X109862845Y-129682786D01*
G37*
G36*
X109227043Y-130318588D02*
X108695412Y-129786957D01*
X109085155Y-129397214D01*
X109616786Y-129928845D01*
X109227043Y-130318588D01*
X109227043Y-130318588D01*
G37*
D23*
X104902000Y-134170420D03*
X104902000Y-135069580D03*
X105791000Y-134170420D03*
X105791000Y-135069580D03*
D10*
G36*
X110759786Y-132072155D02*
X110228155Y-132603786D01*
X109838412Y-132214043D01*
X110370043Y-131682412D01*
X110759786Y-132072155D01*
X110759786Y-132072155D01*
G37*
G36*
X111395588Y-132707957D02*
X110863957Y-133239588D01*
X110474214Y-132849845D01*
X111005845Y-132318214D01*
X111395588Y-132707957D01*
X111395588Y-132707957D01*
G37*
G36*
X111394786Y-131437155D02*
X110863155Y-131968786D01*
X110473412Y-131579043D01*
X111005043Y-131047412D01*
X111394786Y-131437155D01*
X111394786Y-131437155D01*
G37*
G36*
X112030588Y-132072957D02*
X111498957Y-132604588D01*
X111109214Y-132214845D01*
X111640845Y-131683214D01*
X112030588Y-132072957D01*
X112030588Y-132072957D01*
G37*
D22*
X105859580Y-135826500D03*
X104960420Y-135826500D03*
D10*
G36*
X112275845Y-133238786D02*
X111744214Y-132707155D01*
X112133957Y-132317412D01*
X112665588Y-132849043D01*
X112275845Y-133238786D01*
X112275845Y-133238786D01*
G37*
G36*
X111640043Y-133874588D02*
X111108412Y-133342957D01*
X111498155Y-132953214D01*
X112029786Y-133484845D01*
X111640043Y-133874588D01*
X111640043Y-133874588D01*
G37*
D22*
X104960420Y-138747500D03*
X105859580Y-138747500D03*
D10*
G36*
X115577845Y-134508786D02*
X115046214Y-133977155D01*
X115435957Y-133587412D01*
X115967588Y-134119043D01*
X115577845Y-134508786D01*
X115577845Y-134508786D01*
G37*
G36*
X114942043Y-135144588D02*
X114410412Y-134612957D01*
X114800155Y-134223214D01*
X115331786Y-134754845D01*
X114942043Y-135144588D01*
X114942043Y-135144588D01*
G37*
D22*
X105976420Y-138747500D03*
X106875580Y-138747500D03*
D10*
G36*
X114815845Y-135270786D02*
X114284214Y-134739155D01*
X114673957Y-134349412D01*
X115205588Y-134881043D01*
X114815845Y-135270786D01*
X114815845Y-135270786D01*
G37*
G36*
X114180043Y-135906588D02*
X113648412Y-135374957D01*
X114038155Y-134985214D01*
X114569786Y-135516845D01*
X114180043Y-135906588D01*
X114180043Y-135906588D01*
G37*
D22*
X106494580Y-141224000D03*
X105595420Y-141224000D03*
D10*
G36*
X115816155Y-136763214D02*
X116347786Y-137294845D01*
X115958043Y-137684588D01*
X115426412Y-137152957D01*
X115816155Y-136763214D01*
X115816155Y-136763214D01*
G37*
G36*
X116451957Y-136127412D02*
X116983588Y-136659043D01*
X116593845Y-137048786D01*
X116062214Y-136517155D01*
X116451957Y-136127412D01*
X116451957Y-136127412D01*
G37*
D23*
X109728000Y-100144580D03*
X109728000Y-99245420D03*
D10*
G36*
X100195155Y-110601214D02*
X100726786Y-111132845D01*
X100337043Y-111522588D01*
X99805412Y-110990957D01*
X100195155Y-110601214D01*
X100195155Y-110601214D01*
G37*
G36*
X100830957Y-109965412D02*
X101362588Y-110497043D01*
X100972845Y-110886786D01*
X100441214Y-110355155D01*
X100830957Y-109965412D01*
X100830957Y-109965412D01*
G37*
D22*
X109542580Y-102870000D03*
X108643420Y-102870000D03*
D10*
G36*
X100419621Y-109552619D02*
X99392619Y-110579621D01*
X98789881Y-109976883D01*
X99816883Y-108949881D01*
X100419621Y-109552619D01*
X100419621Y-109552619D01*
G37*
G36*
X99076119Y-108209117D02*
X98049117Y-109236119D01*
X97446379Y-108633381D01*
X98473381Y-107606379D01*
X99076119Y-108209117D01*
X99076119Y-108209117D01*
G37*
D25*
X79489300Y-116205000D03*
X77990700Y-116205000D03*
X79489300Y-120015000D03*
X77990700Y-120015000D03*
X79489300Y-118110000D03*
X77990700Y-118110000D03*
X95643700Y-137287000D03*
X97142300Y-137287000D03*
X94475300Y-137287000D03*
X92976700Y-137287000D03*
X102476300Y-137287000D03*
X100977700Y-137287000D03*
X99809300Y-137287000D03*
X98310700Y-137287000D03*
D26*
X78740000Y-149860000D03*
X78740000Y-86360000D03*
X132080000Y-86360000D03*
X118872000Y-139573000D03*
D27*
X114808000Y-132461000D03*
X114808000Y-131191000D03*
X116078000Y-132461000D03*
X116078000Y-131191000D03*
X117348000Y-132461000D03*
X117348000Y-131191000D03*
X118618000Y-132461000D03*
X118618000Y-131191000D03*
X119888000Y-132461000D03*
X119888000Y-131191000D03*
X84074000Y-114554000D03*
X82804000Y-114554000D03*
X84074000Y-113284000D03*
X82804000Y-113284000D03*
X84074000Y-112014000D03*
X82804000Y-112014000D03*
X84074000Y-110744000D03*
X82804000Y-110744000D03*
X84074000Y-109474000D03*
X82804000Y-109474000D03*
D28*
X101600000Y-129794000D03*
D16*
X110236000Y-128016000D03*
D27*
X89185910Y-124237910D03*
X90083936Y-125135936D03*
X90981962Y-126033962D03*
X91879987Y-126931987D03*
X92778013Y-127830013D03*
X93676038Y-128728038D03*
X94574064Y-129626064D03*
X95472090Y-130524090D03*
D23*
X107442000Y-131630420D03*
X107442000Y-132529580D03*
D29*
X87376000Y-101959000D03*
X87376000Y-105559000D03*
X124079000Y-106785000D03*
X124079000Y-110385000D03*
D14*
X81915000Y-142240000D03*
X81915000Y-140716000D03*
D23*
X104902000Y-132582920D03*
X104902000Y-133482080D03*
X105791000Y-132582920D03*
X105791000Y-133482080D03*
D10*
G36*
X109616786Y-130929155D02*
X109085155Y-131460786D01*
X108695412Y-131071043D01*
X109227043Y-130539412D01*
X109616786Y-130929155D01*
X109616786Y-130929155D01*
G37*
G36*
X110252588Y-131564957D02*
X109720957Y-132096588D01*
X109331214Y-131706845D01*
X109862845Y-131175214D01*
X110252588Y-131564957D01*
X110252588Y-131564957D01*
G37*
G36*
X110251786Y-130294155D02*
X109720155Y-130825786D01*
X109330412Y-130436043D01*
X109862043Y-129904412D01*
X110251786Y-130294155D01*
X110251786Y-130294155D01*
G37*
G36*
X110887588Y-130929957D02*
X110355957Y-131461588D01*
X109966214Y-131071845D01*
X110497845Y-130540214D01*
X110887588Y-130929957D01*
X110887588Y-130929957D01*
G37*
D23*
X105664000Y-139504420D03*
X105664000Y-140403580D03*
D10*
G36*
X115839786Y-135247155D02*
X115308155Y-135778786D01*
X114918412Y-135389043D01*
X115450043Y-134857412D01*
X115839786Y-135247155D01*
X115839786Y-135247155D01*
G37*
G36*
X116475588Y-135882957D02*
X115943957Y-136414588D01*
X115554214Y-136024845D01*
X116085845Y-135493214D01*
X116475588Y-135882957D01*
X116475588Y-135882957D01*
G37*
G36*
X96357107Y-119232085D02*
X97030626Y-119905604D01*
X96357107Y-120579123D01*
X95683588Y-119905604D01*
X96357107Y-119232085D01*
X96357107Y-119232085D01*
G37*
G36*
X95013604Y-120575588D02*
X95687123Y-121249107D01*
X95013604Y-121922626D01*
X94340085Y-121249107D01*
X95013604Y-120575588D01*
X95013604Y-120575588D01*
G37*
G36*
X97098848Y-121317329D02*
X97772367Y-121990848D01*
X97098848Y-122664367D01*
X96425329Y-121990848D01*
X97098848Y-121317329D01*
X97098848Y-121317329D01*
G37*
G36*
X97147155Y-125333214D02*
X97678786Y-125864845D01*
X97289043Y-126254588D01*
X96757412Y-125722957D01*
X97147155Y-125333214D01*
X97147155Y-125333214D01*
G37*
G36*
X97782957Y-124697412D02*
X98314588Y-125229043D01*
X97924845Y-125618786D01*
X97393214Y-125087155D01*
X97782957Y-124697412D01*
X97782957Y-124697412D01*
G37*
D23*
X80518000Y-116654580D03*
X80518000Y-115755420D03*
X80518000Y-120464580D03*
X80518000Y-119565420D03*
D22*
X83370420Y-104902000D03*
X84269580Y-104902000D03*
X81592420Y-104902000D03*
X82491580Y-104902000D03*
X92905580Y-115189000D03*
X92006420Y-115189000D03*
D23*
X95885000Y-110167420D03*
X95885000Y-111066580D03*
D22*
X116009420Y-110236000D03*
X116908580Y-110236000D03*
X116009420Y-109220000D03*
X116908580Y-109220000D03*
X82735420Y-89916000D03*
X83634580Y-89916000D03*
D10*
G36*
X89669845Y-126761786D02*
X89138214Y-126230155D01*
X89527957Y-125840412D01*
X90059588Y-126372043D01*
X89669845Y-126761786D01*
X89669845Y-126761786D01*
G37*
G36*
X89034043Y-127397588D02*
X88502412Y-126865957D01*
X88892155Y-126476214D01*
X89423786Y-127007845D01*
X89034043Y-127397588D01*
X89034043Y-127397588D01*
G37*
G36*
X93464155Y-131048214D02*
X93995786Y-131579845D01*
X93606043Y-131969588D01*
X93074412Y-131437957D01*
X93464155Y-131048214D01*
X93464155Y-131048214D01*
G37*
G36*
X94099957Y-130412412D02*
X94631588Y-130944043D01*
X94241845Y-131333786D01*
X93710214Y-130802155D01*
X94099957Y-130412412D01*
X94099957Y-130412412D01*
G37*
G36*
X92702155Y-130286214D02*
X93233786Y-130817845D01*
X92844043Y-131207588D01*
X92312412Y-130675957D01*
X92702155Y-130286214D01*
X92702155Y-130286214D01*
G37*
G36*
X93337957Y-129650412D02*
X93869588Y-130182043D01*
X93479845Y-130571786D01*
X92948214Y-130040155D01*
X93337957Y-129650412D01*
X93337957Y-129650412D01*
G37*
G36*
X91940155Y-129524214D02*
X92471786Y-130055845D01*
X92082043Y-130445588D01*
X91550412Y-129913957D01*
X91940155Y-129524214D01*
X91940155Y-129524214D01*
G37*
G36*
X92575957Y-128888412D02*
X93107588Y-129420043D01*
X92717845Y-129809786D01*
X92186214Y-129278155D01*
X92575957Y-128888412D01*
X92575957Y-128888412D01*
G37*
G36*
X91178155Y-128762214D02*
X91709786Y-129293845D01*
X91320043Y-129683588D01*
X90788412Y-129151957D01*
X91178155Y-128762214D01*
X91178155Y-128762214D01*
G37*
G36*
X91813957Y-128126412D02*
X92345588Y-128658043D01*
X91955845Y-129047786D01*
X91424214Y-128516155D01*
X91813957Y-128126412D01*
X91813957Y-128126412D01*
G37*
G36*
X90416155Y-128000214D02*
X90947786Y-128531845D01*
X90558043Y-128921588D01*
X90026412Y-128389957D01*
X90416155Y-128000214D01*
X90416155Y-128000214D01*
G37*
G36*
X91051957Y-127364412D02*
X91583588Y-127896043D01*
X91193845Y-128285786D01*
X90662214Y-127754155D01*
X91051957Y-127364412D01*
X91051957Y-127364412D01*
G37*
G36*
X89654155Y-127238214D02*
X90185786Y-127769845D01*
X89796043Y-128159588D01*
X89264412Y-127627957D01*
X89654155Y-127238214D01*
X89654155Y-127238214D01*
G37*
G36*
X90289957Y-126602412D02*
X90821588Y-127134043D01*
X90431845Y-127523786D01*
X89900214Y-126992155D01*
X90289957Y-126602412D01*
X90289957Y-126602412D01*
G37*
D23*
X80518000Y-117660420D03*
X80518000Y-118559580D03*
X82042000Y-144340580D03*
X82042000Y-143441420D03*
X99949000Y-133027420D03*
X99949000Y-133926580D03*
X98933000Y-133027420D03*
X98933000Y-133926580D03*
X100330000Y-130360420D03*
X100330000Y-131259580D03*
D22*
X95943420Y-138430000D03*
X96842580Y-138430000D03*
D10*
G36*
X100576155Y-117586214D02*
X101107786Y-118117845D01*
X100718043Y-118507588D01*
X100186412Y-117975957D01*
X100576155Y-117586214D01*
X100576155Y-117586214D01*
G37*
G36*
X101211957Y-116950412D02*
X101743588Y-117482043D01*
X101353845Y-117871786D01*
X100822214Y-117340155D01*
X101211957Y-116950412D01*
X101211957Y-116950412D01*
G37*
D22*
X96842580Y-139446000D03*
X95943420Y-139446000D03*
X84142580Y-126873000D03*
X83243420Y-126873000D03*
X94175580Y-138430000D03*
X93276420Y-138430000D03*
X102176580Y-138430000D03*
X101277420Y-138430000D03*
X101277420Y-139446000D03*
X102176580Y-139446000D03*
D23*
X101219000Y-114241580D03*
X101219000Y-113342420D03*
D22*
X99509580Y-138430000D03*
X98610420Y-138430000D03*
X98610420Y-139446000D03*
X99509580Y-139446000D03*
D23*
X109728000Y-97467420D03*
X109728000Y-98366580D03*
D10*
G36*
X103512845Y-113553786D02*
X102981214Y-113022155D01*
X103370957Y-112632412D01*
X103902588Y-113164043D01*
X103512845Y-113553786D01*
X103512845Y-113553786D01*
G37*
G36*
X102877043Y-114189588D02*
X102345412Y-113657957D01*
X102735155Y-113268214D01*
X103266786Y-113799845D01*
X102877043Y-114189588D01*
X102877043Y-114189588D01*
G37*
G36*
X101965214Y-112910845D02*
X102496845Y-112379214D01*
X102886588Y-112768957D01*
X102354957Y-113300588D01*
X101965214Y-112910845D01*
X101965214Y-112910845D01*
G37*
G36*
X101329412Y-112275043D02*
X101861043Y-111743412D01*
X102250786Y-112133155D01*
X101719155Y-112664786D01*
X101329412Y-112275043D01*
X101329412Y-112275043D01*
G37*
D30*
X88435000Y-143002000D03*
X84285000Y-143002000D03*
D31*
X106310000Y-137937000D03*
X106310000Y-137287000D03*
X106310000Y-136637000D03*
X104510000Y-136637000D03*
X104510000Y-137287000D03*
X104510000Y-137937000D03*
D10*
G36*
X113540956Y-134292033D02*
X114355826Y-133477163D01*
X114711076Y-133832413D01*
X113896206Y-134647283D01*
X113540956Y-134292033D01*
X113540956Y-134292033D01*
G37*
G36*
X113081336Y-133832414D02*
X113896206Y-133017544D01*
X114251456Y-133372794D01*
X113436586Y-134187664D01*
X113081336Y-133832414D01*
X113081336Y-133832414D01*
G37*
G36*
X112621717Y-133372794D02*
X113436587Y-132557924D01*
X113791837Y-132913174D01*
X112976967Y-133728044D01*
X112621717Y-133372794D01*
X112621717Y-133372794D01*
G37*
G36*
X111348924Y-134645587D02*
X112163794Y-133830717D01*
X112519044Y-134185967D01*
X111704174Y-135000837D01*
X111348924Y-134645587D01*
X111348924Y-134645587D01*
G37*
G36*
X111808544Y-135105206D02*
X112623414Y-134290336D01*
X112978664Y-134645586D01*
X112163794Y-135460456D01*
X111808544Y-135105206D01*
X111808544Y-135105206D01*
G37*
G36*
X112268163Y-135564826D02*
X113083033Y-134749956D01*
X113438283Y-135105206D01*
X112623413Y-135920076D01*
X112268163Y-135564826D01*
X112268163Y-135564826D01*
G37*
G36*
X106880782Y-130430774D02*
X106640366Y-130671190D01*
X106182868Y-130213692D01*
X106423284Y-129973276D01*
X106880782Y-130430774D01*
X106880782Y-130430774D01*
G37*
G36*
X107234335Y-130077220D02*
X106993919Y-130317636D01*
X106536421Y-129860138D01*
X106776837Y-129619722D01*
X107234335Y-130077220D01*
X107234335Y-130077220D01*
G37*
G36*
X107587889Y-129723667D02*
X107347473Y-129964083D01*
X106889975Y-129506585D01*
X107130391Y-129266169D01*
X107587889Y-129723667D01*
X107587889Y-129723667D01*
G37*
G36*
X107941442Y-129370113D02*
X107701026Y-129610529D01*
X107243528Y-129153031D01*
X107483944Y-128912615D01*
X107941442Y-129370113D01*
X107941442Y-129370113D01*
G37*
G36*
X108294995Y-129016560D02*
X108054579Y-129256976D01*
X107597081Y-128799478D01*
X107837497Y-128559062D01*
X108294995Y-129016560D01*
X108294995Y-129016560D01*
G37*
G36*
X108648549Y-128663007D02*
X108408133Y-128903423D01*
X107950635Y-128445925D01*
X108191051Y-128205509D01*
X108648549Y-128663007D01*
X108648549Y-128663007D01*
G37*
G36*
X109002102Y-128309453D02*
X108761686Y-128549869D01*
X108304188Y-128092371D01*
X108544604Y-127851955D01*
X109002102Y-128309453D01*
X109002102Y-128309453D01*
G37*
G36*
X109355656Y-127955900D02*
X109115240Y-128196316D01*
X108657742Y-127738818D01*
X108898158Y-127498402D01*
X109355656Y-127955900D01*
X109355656Y-127955900D01*
G37*
G36*
X109709209Y-127602346D02*
X109468793Y-127842762D01*
X109011295Y-127385264D01*
X109251711Y-127144848D01*
X109709209Y-127602346D01*
X109709209Y-127602346D01*
G37*
G36*
X110062762Y-127248793D02*
X109822346Y-127489209D01*
X109364848Y-127031711D01*
X109605264Y-126791295D01*
X110062762Y-127248793D01*
X110062762Y-127248793D01*
G37*
G36*
X110416316Y-126895240D02*
X110175900Y-127135656D01*
X109718402Y-126678158D01*
X109958818Y-126437742D01*
X110416316Y-126895240D01*
X110416316Y-126895240D01*
G37*
G36*
X110769869Y-126541686D02*
X110529453Y-126782102D01*
X110071955Y-126324604D01*
X110312371Y-126084188D01*
X110769869Y-126541686D01*
X110769869Y-126541686D01*
G37*
G36*
X111123423Y-126188133D02*
X110883007Y-126428549D01*
X110425509Y-125971051D01*
X110665925Y-125730635D01*
X111123423Y-126188133D01*
X111123423Y-126188133D01*
G37*
G36*
X111476976Y-125834579D02*
X111236560Y-126074995D01*
X110779062Y-125617497D01*
X111019478Y-125377081D01*
X111476976Y-125834579D01*
X111476976Y-125834579D01*
G37*
G36*
X111830529Y-125481026D02*
X111590113Y-125721442D01*
X111132615Y-125263944D01*
X111373031Y-125023528D01*
X111830529Y-125481026D01*
X111830529Y-125481026D01*
G37*
G36*
X112184083Y-125127473D02*
X111943667Y-125367889D01*
X111486169Y-124910391D01*
X111726585Y-124669975D01*
X112184083Y-125127473D01*
X112184083Y-125127473D01*
G37*
G36*
X112537636Y-124773919D02*
X112297220Y-125014335D01*
X111839722Y-124556837D01*
X112080138Y-124316421D01*
X112537636Y-124773919D01*
X112537636Y-124773919D01*
G37*
G36*
X112891190Y-124420366D02*
X112650774Y-124660782D01*
X112193276Y-124203284D01*
X112433692Y-123962868D01*
X112891190Y-124420366D01*
X112891190Y-124420366D01*
G37*
G36*
X106147866Y-130072624D02*
X105928663Y-130291827D01*
X105560968Y-129924132D01*
X105780171Y-129704929D01*
X106147866Y-130072624D01*
X106147866Y-130072624D01*
G37*
G36*
X106546320Y-129742759D02*
X106305904Y-129983175D01*
X105848406Y-129525677D01*
X106088822Y-129285261D01*
X106546320Y-129742759D01*
X106546320Y-129742759D01*
G37*
G36*
X106899874Y-129389205D02*
X106659458Y-129629621D01*
X106201960Y-129172123D01*
X106442376Y-128931707D01*
X106899874Y-129389205D01*
X106899874Y-129389205D01*
G37*
G36*
X107253427Y-129035652D02*
X107013011Y-129276068D01*
X106555513Y-128818570D01*
X106795929Y-128578154D01*
X107253427Y-129035652D01*
X107253427Y-129035652D01*
G37*
G36*
X107606981Y-128682098D02*
X107366565Y-128922514D01*
X106909067Y-128465016D01*
X107149483Y-128224600D01*
X107606981Y-128682098D01*
X107606981Y-128682098D01*
G37*
G36*
X107960534Y-128328545D02*
X107720118Y-128568961D01*
X107262620Y-128111463D01*
X107503036Y-127871047D01*
X107960534Y-128328545D01*
X107960534Y-128328545D01*
G37*
G36*
X108314087Y-127974992D02*
X108073671Y-128215408D01*
X107616173Y-127757910D01*
X107856589Y-127517494D01*
X108314087Y-127974992D01*
X108314087Y-127974992D01*
G37*
G36*
X108667641Y-127621438D02*
X108427225Y-127861854D01*
X107969727Y-127404356D01*
X108210143Y-127163940D01*
X108667641Y-127621438D01*
X108667641Y-127621438D01*
G37*
G36*
X109021194Y-127267885D02*
X108780778Y-127508301D01*
X108323280Y-127050803D01*
X108563696Y-126810387D01*
X109021194Y-127267885D01*
X109021194Y-127267885D01*
G37*
G36*
X109374748Y-126914332D02*
X109134332Y-127154748D01*
X108676834Y-126697250D01*
X108917250Y-126456834D01*
X109374748Y-126914332D01*
X109374748Y-126914332D01*
G37*
G36*
X109728301Y-126560778D02*
X109487885Y-126801194D01*
X109030387Y-126343696D01*
X109270803Y-126103280D01*
X109728301Y-126560778D01*
X109728301Y-126560778D01*
G37*
G36*
X110081854Y-126207225D02*
X109841438Y-126447641D01*
X109383940Y-125990143D01*
X109624356Y-125749727D01*
X110081854Y-126207225D01*
X110081854Y-126207225D01*
G37*
G36*
X110435408Y-125853671D02*
X110194992Y-126094087D01*
X109737494Y-125636589D01*
X109977910Y-125396173D01*
X110435408Y-125853671D01*
X110435408Y-125853671D01*
G37*
G36*
X110788961Y-125500118D02*
X110548545Y-125740534D01*
X110091047Y-125283036D01*
X110331463Y-125042620D01*
X110788961Y-125500118D01*
X110788961Y-125500118D01*
G37*
G36*
X111142514Y-125146565D02*
X110902098Y-125386981D01*
X110444600Y-124929483D01*
X110685016Y-124689067D01*
X111142514Y-125146565D01*
X111142514Y-125146565D01*
G37*
G36*
X111496068Y-124793011D02*
X111255652Y-125033427D01*
X110798154Y-124575929D01*
X111038570Y-124335513D01*
X111496068Y-124793011D01*
X111496068Y-124793011D01*
G37*
G36*
X111849621Y-124439458D02*
X111609205Y-124679874D01*
X111151707Y-124222376D01*
X111392123Y-123981960D01*
X111849621Y-124439458D01*
X111849621Y-124439458D01*
G37*
G36*
X112203175Y-124085904D02*
X111962759Y-124326320D01*
X111505261Y-123868822D01*
X111745677Y-123628406D01*
X112203175Y-124085904D01*
X112203175Y-124085904D01*
G37*
G36*
X112555314Y-123730937D02*
X112314898Y-123971353D01*
X111881442Y-123537897D01*
X112121858Y-123297481D01*
X112555314Y-123730937D01*
X112555314Y-123730937D01*
G37*
G36*
X104637132Y-116166308D02*
X104396716Y-116406724D01*
X103939218Y-115949226D01*
X104179634Y-115708810D01*
X104637132Y-116166308D01*
X104637132Y-116166308D01*
G37*
G36*
X104283579Y-116519862D02*
X104043163Y-116760278D01*
X103585665Y-116302780D01*
X103826081Y-116062364D01*
X104283579Y-116519862D01*
X104283579Y-116519862D01*
G37*
G36*
X103930025Y-116873415D02*
X103689609Y-117113831D01*
X103232111Y-116656333D01*
X103472527Y-116415917D01*
X103930025Y-116873415D01*
X103930025Y-116873415D01*
G37*
G36*
X103576472Y-117226969D02*
X103336056Y-117467385D01*
X102878558Y-117009887D01*
X103118974Y-116769471D01*
X103576472Y-117226969D01*
X103576472Y-117226969D01*
G37*
G36*
X103222919Y-117580522D02*
X102982503Y-117820938D01*
X102525005Y-117363440D01*
X102765421Y-117123024D01*
X103222919Y-117580522D01*
X103222919Y-117580522D01*
G37*
G36*
X102869365Y-117934075D02*
X102628949Y-118174491D01*
X102171451Y-117716993D01*
X102411867Y-117476577D01*
X102869365Y-117934075D01*
X102869365Y-117934075D01*
G37*
G36*
X102515812Y-118287629D02*
X102275396Y-118528045D01*
X101817898Y-118070547D01*
X102058314Y-117830131D01*
X102515812Y-118287629D01*
X102515812Y-118287629D01*
G37*
G36*
X102162258Y-118641182D02*
X101921842Y-118881598D01*
X101464344Y-118424100D01*
X101704760Y-118183684D01*
X102162258Y-118641182D01*
X102162258Y-118641182D01*
G37*
G36*
X101808705Y-118994736D02*
X101568289Y-119235152D01*
X101110791Y-118777654D01*
X101351207Y-118537238D01*
X101808705Y-118994736D01*
X101808705Y-118994736D01*
G37*
G36*
X101455152Y-119348289D02*
X101214736Y-119588705D01*
X100757238Y-119131207D01*
X100997654Y-118890791D01*
X101455152Y-119348289D01*
X101455152Y-119348289D01*
G37*
G36*
X101101598Y-119701842D02*
X100861182Y-119942258D01*
X100403684Y-119484760D01*
X100644100Y-119244344D01*
X101101598Y-119701842D01*
X101101598Y-119701842D01*
G37*
G36*
X100748045Y-120055396D02*
X100507629Y-120295812D01*
X100050131Y-119838314D01*
X100290547Y-119597898D01*
X100748045Y-120055396D01*
X100748045Y-120055396D01*
G37*
G36*
X100394491Y-120408949D02*
X100154075Y-120649365D01*
X99696577Y-120191867D01*
X99936993Y-119951451D01*
X100394491Y-120408949D01*
X100394491Y-120408949D01*
G37*
G36*
X100040938Y-120762503D02*
X99800522Y-121002919D01*
X99343024Y-120545421D01*
X99583440Y-120305005D01*
X100040938Y-120762503D01*
X100040938Y-120762503D01*
G37*
G36*
X99687385Y-121116056D02*
X99446969Y-121356472D01*
X98989471Y-120898974D01*
X99229887Y-120658558D01*
X99687385Y-121116056D01*
X99687385Y-121116056D01*
G37*
G36*
X99333831Y-121469609D02*
X99093415Y-121710025D01*
X98635917Y-121252527D01*
X98876333Y-121012111D01*
X99333831Y-121469609D01*
X99333831Y-121469609D01*
G37*
G36*
X98980278Y-121823163D02*
X98739862Y-122063579D01*
X98282364Y-121606081D01*
X98522780Y-121365665D01*
X98980278Y-121823163D01*
X98980278Y-121823163D01*
G37*
G36*
X98626724Y-122176716D02*
X98386308Y-122417132D01*
X97928810Y-121959634D01*
X98169226Y-121719218D01*
X98626724Y-122176716D01*
X98626724Y-122176716D01*
G37*
G36*
X98273171Y-122530269D02*
X98032755Y-122770685D01*
X97575257Y-122313187D01*
X97815673Y-122072771D01*
X98273171Y-122530269D01*
X98273171Y-122530269D01*
G37*
G36*
X105302519Y-116478142D02*
X105062103Y-116718558D01*
X104628647Y-116285102D01*
X104869063Y-116044686D01*
X105302519Y-116478142D01*
X105302519Y-116478142D01*
G37*
G36*
X104971594Y-116854323D02*
X104731178Y-117094739D01*
X104273680Y-116637241D01*
X104514096Y-116396825D01*
X104971594Y-116854323D01*
X104971594Y-116854323D01*
G37*
G36*
X104618040Y-117207877D02*
X104377624Y-117448293D01*
X103920126Y-116990795D01*
X104160542Y-116750379D01*
X104618040Y-117207877D01*
X104618040Y-117207877D01*
G37*
G36*
X104264487Y-117561430D02*
X104024071Y-117801846D01*
X103566573Y-117344348D01*
X103806989Y-117103932D01*
X104264487Y-117561430D01*
X104264487Y-117561430D01*
G37*
G36*
X103910933Y-117914984D02*
X103670517Y-118155400D01*
X103213019Y-117697902D01*
X103453435Y-117457486D01*
X103910933Y-117914984D01*
X103910933Y-117914984D01*
G37*
G36*
X103557380Y-118268537D02*
X103316964Y-118508953D01*
X102859466Y-118051455D01*
X103099882Y-117811039D01*
X103557380Y-118268537D01*
X103557380Y-118268537D01*
G37*
G36*
X103203827Y-118622090D02*
X102963411Y-118862506D01*
X102505913Y-118405008D01*
X102746329Y-118164592D01*
X103203827Y-118622090D01*
X103203827Y-118622090D01*
G37*
G36*
X102850273Y-118975644D02*
X102609857Y-119216060D01*
X102152359Y-118758562D01*
X102392775Y-118518146D01*
X102850273Y-118975644D01*
X102850273Y-118975644D01*
G37*
G36*
X102496720Y-119329197D02*
X102256304Y-119569613D01*
X101798806Y-119112115D01*
X102039222Y-118871699D01*
X102496720Y-119329197D01*
X102496720Y-119329197D01*
G37*
G36*
X102143166Y-119682750D02*
X101902750Y-119923166D01*
X101445252Y-119465668D01*
X101685668Y-119225252D01*
X102143166Y-119682750D01*
X102143166Y-119682750D01*
G37*
G36*
X101789613Y-120036304D02*
X101549197Y-120276720D01*
X101091699Y-119819222D01*
X101332115Y-119578806D01*
X101789613Y-120036304D01*
X101789613Y-120036304D01*
G37*
G36*
X101436060Y-120389857D02*
X101195644Y-120630273D01*
X100738146Y-120172775D01*
X100978562Y-119932359D01*
X101436060Y-120389857D01*
X101436060Y-120389857D01*
G37*
G36*
X101082506Y-120743411D02*
X100842090Y-120983827D01*
X100384592Y-120526329D01*
X100625008Y-120285913D01*
X101082506Y-120743411D01*
X101082506Y-120743411D01*
G37*
G36*
X100728953Y-121096964D02*
X100488537Y-121337380D01*
X100031039Y-120879882D01*
X100271455Y-120639466D01*
X100728953Y-121096964D01*
X100728953Y-121096964D01*
G37*
G36*
X100375400Y-121450517D02*
X100134984Y-121690933D01*
X99677486Y-121233435D01*
X99917902Y-120993019D01*
X100375400Y-121450517D01*
X100375400Y-121450517D01*
G37*
G36*
X100021846Y-121804071D02*
X99781430Y-122044487D01*
X99323932Y-121586989D01*
X99564348Y-121346573D01*
X100021846Y-121804071D01*
X100021846Y-121804071D01*
G37*
G36*
X99668293Y-122157624D02*
X99427877Y-122398040D01*
X98970379Y-121940542D01*
X99210795Y-121700126D01*
X99668293Y-122157624D01*
X99668293Y-122157624D01*
G37*
G36*
X99314739Y-122511178D02*
X99074323Y-122751594D01*
X98616825Y-122294096D01*
X98857241Y-122053680D01*
X99314739Y-122511178D01*
X99314739Y-122511178D01*
G37*
G36*
X112891190Y-121959634D02*
X112433692Y-122417132D01*
X112193276Y-122176716D01*
X112650774Y-121719218D01*
X112891190Y-121959634D01*
X112891190Y-121959634D01*
G37*
G36*
X112537636Y-121606081D02*
X112080138Y-122063579D01*
X111839722Y-121823163D01*
X112297220Y-121365665D01*
X112537636Y-121606081D01*
X112537636Y-121606081D01*
G37*
G36*
X112184083Y-121252527D02*
X111726585Y-121710025D01*
X111486169Y-121469609D01*
X111943667Y-121012111D01*
X112184083Y-121252527D01*
X112184083Y-121252527D01*
G37*
G36*
X111830529Y-120898974D02*
X111373031Y-121356472D01*
X111132615Y-121116056D01*
X111590113Y-120658558D01*
X111830529Y-120898974D01*
X111830529Y-120898974D01*
G37*
G36*
X111476976Y-120545421D02*
X111019478Y-121002919D01*
X110779062Y-120762503D01*
X111236560Y-120305005D01*
X111476976Y-120545421D01*
X111476976Y-120545421D01*
G37*
G36*
X111123423Y-120191867D02*
X110665925Y-120649365D01*
X110425509Y-120408949D01*
X110883007Y-119951451D01*
X111123423Y-120191867D01*
X111123423Y-120191867D01*
G37*
G36*
X110769869Y-119838314D02*
X110312371Y-120295812D01*
X110071955Y-120055396D01*
X110529453Y-119597898D01*
X110769869Y-119838314D01*
X110769869Y-119838314D01*
G37*
G36*
X110416316Y-119484760D02*
X109958818Y-119942258D01*
X109718402Y-119701842D01*
X110175900Y-119244344D01*
X110416316Y-119484760D01*
X110416316Y-119484760D01*
G37*
G36*
X110062762Y-119131207D02*
X109605264Y-119588705D01*
X109364848Y-119348289D01*
X109822346Y-118890791D01*
X110062762Y-119131207D01*
X110062762Y-119131207D01*
G37*
G36*
X109709209Y-118777654D02*
X109251711Y-119235152D01*
X109011295Y-118994736D01*
X109468793Y-118537238D01*
X109709209Y-118777654D01*
X109709209Y-118777654D01*
G37*
G36*
X109355656Y-118424100D02*
X108898158Y-118881598D01*
X108657742Y-118641182D01*
X109115240Y-118183684D01*
X109355656Y-118424100D01*
X109355656Y-118424100D01*
G37*
G36*
X109002102Y-118070547D02*
X108544604Y-118528045D01*
X108304188Y-118287629D01*
X108761686Y-117830131D01*
X109002102Y-118070547D01*
X109002102Y-118070547D01*
G37*
G36*
X108648549Y-117716993D02*
X108191051Y-118174491D01*
X107950635Y-117934075D01*
X108408133Y-117476577D01*
X108648549Y-117716993D01*
X108648549Y-117716993D01*
G37*
G36*
X108294995Y-117363440D02*
X107837497Y-117820938D01*
X107597081Y-117580522D01*
X108054579Y-117123024D01*
X108294995Y-117363440D01*
X108294995Y-117363440D01*
G37*
G36*
X107941442Y-117009887D02*
X107483944Y-117467385D01*
X107243528Y-117226969D01*
X107701026Y-116769471D01*
X107941442Y-117009887D01*
X107941442Y-117009887D01*
G37*
G36*
X107587889Y-116656333D02*
X107130391Y-117113831D01*
X106889975Y-116873415D01*
X107347473Y-116415917D01*
X107587889Y-116656333D01*
X107587889Y-116656333D01*
G37*
G36*
X107234335Y-116302780D02*
X106776837Y-116760278D01*
X106536421Y-116519862D01*
X106993919Y-116062364D01*
X107234335Y-116302780D01*
X107234335Y-116302780D01*
G37*
G36*
X106880782Y-115949226D02*
X106423284Y-116406724D01*
X106182868Y-116166308D01*
X106640366Y-115708810D01*
X106880782Y-115949226D01*
X106880782Y-115949226D01*
G37*
G36*
X112555314Y-122649063D02*
X112121858Y-123082519D01*
X111881442Y-122842103D01*
X112314898Y-122408647D01*
X112555314Y-122649063D01*
X112555314Y-122649063D01*
G37*
G36*
X112203175Y-122294096D02*
X111745677Y-122751594D01*
X111505261Y-122511178D01*
X111962759Y-122053680D01*
X112203175Y-122294096D01*
X112203175Y-122294096D01*
G37*
G36*
X111849621Y-121940542D02*
X111392123Y-122398040D01*
X111151707Y-122157624D01*
X111609205Y-121700126D01*
X111849621Y-121940542D01*
X111849621Y-121940542D01*
G37*
G36*
X111496068Y-121586989D02*
X111038570Y-122044487D01*
X110798154Y-121804071D01*
X111255652Y-121346573D01*
X111496068Y-121586989D01*
X111496068Y-121586989D01*
G37*
G36*
X111142514Y-121233435D02*
X110685016Y-121690933D01*
X110444600Y-121450517D01*
X110902098Y-120993019D01*
X111142514Y-121233435D01*
X111142514Y-121233435D01*
G37*
G36*
X110788961Y-120879882D02*
X110331463Y-121337380D01*
X110091047Y-121096964D01*
X110548545Y-120639466D01*
X110788961Y-120879882D01*
X110788961Y-120879882D01*
G37*
G36*
X110435408Y-120526329D02*
X109977910Y-120983827D01*
X109737494Y-120743411D01*
X110194992Y-120285913D01*
X110435408Y-120526329D01*
X110435408Y-120526329D01*
G37*
G36*
X110081854Y-120172775D02*
X109624356Y-120630273D01*
X109383940Y-120389857D01*
X109841438Y-119932359D01*
X110081854Y-120172775D01*
X110081854Y-120172775D01*
G37*
G36*
X109728301Y-119819222D02*
X109270803Y-120276720D01*
X109030387Y-120036304D01*
X109487885Y-119578806D01*
X109728301Y-119819222D01*
X109728301Y-119819222D01*
G37*
G36*
X109374748Y-119465668D02*
X108917250Y-119923166D01*
X108676834Y-119682750D01*
X109134332Y-119225252D01*
X109374748Y-119465668D01*
X109374748Y-119465668D01*
G37*
G36*
X109021194Y-119112115D02*
X108563696Y-119569613D01*
X108323280Y-119329197D01*
X108780778Y-118871699D01*
X109021194Y-119112115D01*
X109021194Y-119112115D01*
G37*
G36*
X108667641Y-118758562D02*
X108210143Y-119216060D01*
X107969727Y-118975644D01*
X108427225Y-118518146D01*
X108667641Y-118758562D01*
X108667641Y-118758562D01*
G37*
G36*
X108314087Y-118405008D02*
X107856589Y-118862506D01*
X107616173Y-118622090D01*
X108073671Y-118164592D01*
X108314087Y-118405008D01*
X108314087Y-118405008D01*
G37*
G36*
X107960534Y-118051455D02*
X107503036Y-118508953D01*
X107262620Y-118268537D01*
X107720118Y-117811039D01*
X107960534Y-118051455D01*
X107960534Y-118051455D01*
G37*
G36*
X107606981Y-117697902D02*
X107149483Y-118155400D01*
X106909067Y-117914984D01*
X107366565Y-117457486D01*
X107606981Y-117697902D01*
X107606981Y-117697902D01*
G37*
G36*
X107253427Y-117344348D02*
X106795929Y-117801846D01*
X106555513Y-117561430D01*
X107013011Y-117103932D01*
X107253427Y-117344348D01*
X107253427Y-117344348D01*
G37*
G36*
X106899874Y-116990795D02*
X106442376Y-117448293D01*
X106201960Y-117207877D01*
X106659458Y-116750379D01*
X106899874Y-116990795D01*
X106899874Y-116990795D01*
G37*
G36*
X106546320Y-116637241D02*
X106088822Y-117094739D01*
X105848406Y-116854323D01*
X106305904Y-116396825D01*
X106546320Y-116637241D01*
X106546320Y-116637241D01*
G37*
G36*
X106191353Y-116285102D02*
X105757897Y-116718558D01*
X105517481Y-116478142D01*
X105950937Y-116044686D01*
X106191353Y-116285102D01*
X106191353Y-116285102D01*
G37*
G36*
X98273171Y-123849731D02*
X97815673Y-124307229D01*
X97575257Y-124066813D01*
X98032755Y-123609315D01*
X98273171Y-123849731D01*
X98273171Y-123849731D01*
G37*
G36*
X98626724Y-124203284D02*
X98169226Y-124660782D01*
X97928810Y-124420366D01*
X98386308Y-123962868D01*
X98626724Y-124203284D01*
X98626724Y-124203284D01*
G37*
G36*
X98980278Y-124556837D02*
X98522780Y-125014335D01*
X98282364Y-124773919D01*
X98739862Y-124316421D01*
X98980278Y-124556837D01*
X98980278Y-124556837D01*
G37*
G36*
X99333831Y-124910391D02*
X98876333Y-125367889D01*
X98635917Y-125127473D01*
X99093415Y-124669975D01*
X99333831Y-124910391D01*
X99333831Y-124910391D01*
G37*
G36*
X99687385Y-125263944D02*
X99229887Y-125721442D01*
X98989471Y-125481026D01*
X99446969Y-125023528D01*
X99687385Y-125263944D01*
X99687385Y-125263944D01*
G37*
G36*
X100040938Y-125617497D02*
X99583440Y-126074995D01*
X99343024Y-125834579D01*
X99800522Y-125377081D01*
X100040938Y-125617497D01*
X100040938Y-125617497D01*
G37*
G36*
X100394491Y-125971051D02*
X99936993Y-126428549D01*
X99696577Y-126188133D01*
X100154075Y-125730635D01*
X100394491Y-125971051D01*
X100394491Y-125971051D01*
G37*
G36*
X100748045Y-126324604D02*
X100290547Y-126782102D01*
X100050131Y-126541686D01*
X100507629Y-126084188D01*
X100748045Y-126324604D01*
X100748045Y-126324604D01*
G37*
G36*
X101101598Y-126678158D02*
X100644100Y-127135656D01*
X100403684Y-126895240D01*
X100861182Y-126437742D01*
X101101598Y-126678158D01*
X101101598Y-126678158D01*
G37*
G36*
X101455152Y-127031711D02*
X100997654Y-127489209D01*
X100757238Y-127248793D01*
X101214736Y-126791295D01*
X101455152Y-127031711D01*
X101455152Y-127031711D01*
G37*
G36*
X101808705Y-127385264D02*
X101351207Y-127842762D01*
X101110791Y-127602346D01*
X101568289Y-127144848D01*
X101808705Y-127385264D01*
X101808705Y-127385264D01*
G37*
G36*
X102162258Y-127738818D02*
X101704760Y-128196316D01*
X101464344Y-127955900D01*
X101921842Y-127498402D01*
X102162258Y-127738818D01*
X102162258Y-127738818D01*
G37*
G36*
X102515812Y-128092371D02*
X102058314Y-128549869D01*
X101817898Y-128309453D01*
X102275396Y-127851955D01*
X102515812Y-128092371D01*
X102515812Y-128092371D01*
G37*
G36*
X102869365Y-128445925D02*
X102411867Y-128903423D01*
X102171451Y-128663007D01*
X102628949Y-128205509D01*
X102869365Y-128445925D01*
X102869365Y-128445925D01*
G37*
G36*
X103222919Y-128799478D02*
X102765421Y-129256976D01*
X102525005Y-129016560D01*
X102982503Y-128559062D01*
X103222919Y-128799478D01*
X103222919Y-128799478D01*
G37*
G36*
X103576472Y-129153031D02*
X103118974Y-129610529D01*
X102878558Y-129370113D01*
X103336056Y-128912615D01*
X103576472Y-129153031D01*
X103576472Y-129153031D01*
G37*
G36*
X103930025Y-129506585D02*
X103472527Y-129964083D01*
X103232111Y-129723667D01*
X103689609Y-129266169D01*
X103930025Y-129506585D01*
X103930025Y-129506585D01*
G37*
G36*
X104283579Y-129860138D02*
X103826081Y-130317636D01*
X103585665Y-130077220D01*
X104043163Y-129619722D01*
X104283579Y-129860138D01*
X104283579Y-129860138D01*
G37*
G36*
X104637132Y-130213692D02*
X104179634Y-130671190D01*
X103939218Y-130430774D01*
X104396716Y-129973276D01*
X104637132Y-130213692D01*
X104637132Y-130213692D01*
G37*
G36*
X99314739Y-123868822D02*
X98857241Y-124326320D01*
X98616825Y-124085904D01*
X99074323Y-123628406D01*
X99314739Y-123868822D01*
X99314739Y-123868822D01*
G37*
G36*
X99668293Y-124222376D02*
X99210795Y-124679874D01*
X98970379Y-124439458D01*
X99427877Y-123981960D01*
X99668293Y-124222376D01*
X99668293Y-124222376D01*
G37*
G36*
X100021846Y-124575929D02*
X99564348Y-125033427D01*
X99323932Y-124793011D01*
X99781430Y-124335513D01*
X100021846Y-124575929D01*
X100021846Y-124575929D01*
G37*
G36*
X100375400Y-124929483D02*
X99917902Y-125386981D01*
X99677486Y-125146565D01*
X100134984Y-124689067D01*
X100375400Y-124929483D01*
X100375400Y-124929483D01*
G37*
G36*
X100728953Y-125283036D02*
X100271455Y-125740534D01*
X100031039Y-125500118D01*
X100488537Y-125042620D01*
X100728953Y-125283036D01*
X100728953Y-125283036D01*
G37*
G36*
X101082506Y-125636589D02*
X100625008Y-126094087D01*
X100384592Y-125853671D01*
X100842090Y-125396173D01*
X101082506Y-125636589D01*
X101082506Y-125636589D01*
G37*
G36*
X101436060Y-125990143D02*
X100978562Y-126447641D01*
X100738146Y-126207225D01*
X101195644Y-125749727D01*
X101436060Y-125990143D01*
X101436060Y-125990143D01*
G37*
G36*
X101789613Y-126343696D02*
X101332115Y-126801194D01*
X101091699Y-126560778D01*
X101549197Y-126103280D01*
X101789613Y-126343696D01*
X101789613Y-126343696D01*
G37*
G36*
X102143166Y-126697250D02*
X101685668Y-127154748D01*
X101445252Y-126914332D01*
X101902750Y-126456834D01*
X102143166Y-126697250D01*
X102143166Y-126697250D01*
G37*
G36*
X102496720Y-127050803D02*
X102039222Y-127508301D01*
X101798806Y-127267885D01*
X102256304Y-126810387D01*
X102496720Y-127050803D01*
X102496720Y-127050803D01*
G37*
G36*
X102850273Y-127404356D02*
X102392775Y-127861854D01*
X102152359Y-127621438D01*
X102609857Y-127163940D01*
X102850273Y-127404356D01*
X102850273Y-127404356D01*
G37*
G36*
X103203827Y-127757910D02*
X102746329Y-128215408D01*
X102505913Y-127974992D01*
X102963411Y-127517494D01*
X103203827Y-127757910D01*
X103203827Y-127757910D01*
G37*
G36*
X103557380Y-128111463D02*
X103099882Y-128568961D01*
X102859466Y-128328545D01*
X103316964Y-127871047D01*
X103557380Y-128111463D01*
X103557380Y-128111463D01*
G37*
G36*
X103910933Y-128465016D02*
X103453435Y-128922514D01*
X103213019Y-128682098D01*
X103670517Y-128224600D01*
X103910933Y-128465016D01*
X103910933Y-128465016D01*
G37*
G36*
X104264487Y-128818570D02*
X103806989Y-129276068D01*
X103566573Y-129035652D01*
X104024071Y-128578154D01*
X104264487Y-128818570D01*
X104264487Y-128818570D01*
G37*
G36*
X104618040Y-129172123D02*
X104160542Y-129629621D01*
X103920126Y-129389205D01*
X104377624Y-128931707D01*
X104618040Y-129172123D01*
X104618040Y-129172123D01*
G37*
G36*
X104971690Y-129525582D02*
X104514001Y-129983271D01*
X104273584Y-129742854D01*
X104731273Y-129285165D01*
X104971690Y-129525582D01*
X104971690Y-129525582D01*
G37*
G36*
X105259032Y-129924132D02*
X104891337Y-130291827D01*
X104672134Y-130072624D01*
X105039829Y-129704929D01*
X105259032Y-129924132D01*
X105259032Y-129924132D01*
G37*
G36*
X109618982Y-123190000D02*
X105410000Y-127398982D01*
X101201018Y-123190000D01*
X105410000Y-118981018D01*
X109618982Y-123190000D01*
X109618982Y-123190000D01*
G37*
D32*
X81534000Y-95059500D03*
X81534000Y-96964500D03*
X84074000Y-95059500D03*
X81534000Y-96012000D03*
X84074000Y-96964500D03*
D33*
X83756500Y-123698000D03*
X85661500Y-123698000D03*
X83756500Y-121158000D03*
X84709000Y-123698000D03*
X85661500Y-121158000D03*
D32*
X84201000Y-103695500D03*
X84201000Y-101790500D03*
X81661000Y-103695500D03*
X84201000Y-102743000D03*
X81661000Y-101790500D03*
X95885000Y-114109500D03*
X95885000Y-112204500D03*
X93345000Y-114109500D03*
X95885000Y-113157000D03*
X93345000Y-112204500D03*
X120904000Y-108521500D03*
X120904000Y-106616500D03*
X118364000Y-108521500D03*
X120904000Y-107569000D03*
X118364000Y-106616500D03*
D10*
G36*
X81889628Y-134217493D02*
X81605852Y-133933717D01*
X82137484Y-133402085D01*
X82421260Y-133685861D01*
X81889628Y-134217493D01*
X81889628Y-134217493D01*
G37*
G36*
X82243450Y-134571315D02*
X81959674Y-134287539D01*
X82491306Y-133755907D01*
X82775082Y-134039683D01*
X82243450Y-134571315D01*
X82243450Y-134571315D01*
G37*
G36*
X82597272Y-134925137D02*
X82313496Y-134641361D01*
X82845128Y-134109729D01*
X83128904Y-134393505D01*
X82597272Y-134925137D01*
X82597272Y-134925137D01*
G37*
G36*
X82951094Y-135278959D02*
X82667318Y-134995183D01*
X83198950Y-134463551D01*
X83482726Y-134747327D01*
X82951094Y-135278959D01*
X82951094Y-135278959D01*
G37*
G36*
X83303120Y-135630985D02*
X83019344Y-135347209D01*
X83550976Y-134815577D01*
X83834752Y-135099353D01*
X83303120Y-135630985D01*
X83303120Y-135630985D01*
G37*
G36*
X83656942Y-135984808D02*
X83373166Y-135701032D01*
X83904798Y-135169400D01*
X84188574Y-135453176D01*
X83656942Y-135984808D01*
X83656942Y-135984808D01*
G37*
G36*
X84010765Y-136338630D02*
X83726989Y-136054854D01*
X84258621Y-135523222D01*
X84542397Y-135806998D01*
X84010765Y-136338630D01*
X84010765Y-136338630D01*
G37*
G36*
X84364587Y-136692452D02*
X84080811Y-136408676D01*
X84612443Y-135877044D01*
X84896219Y-136160820D01*
X84364587Y-136692452D01*
X84364587Y-136692452D01*
G37*
G36*
X84718409Y-137046274D02*
X84434633Y-136762498D01*
X84966265Y-136230866D01*
X85250041Y-136514642D01*
X84718409Y-137046274D01*
X84718409Y-137046274D01*
G37*
G36*
X85072231Y-137400096D02*
X84788455Y-137116320D01*
X85320087Y-136584688D01*
X85603863Y-136868464D01*
X85072231Y-137400096D01*
X85072231Y-137400096D01*
G37*
G36*
X85426053Y-137753918D02*
X85142277Y-137470142D01*
X85673909Y-136938510D01*
X85957685Y-137222286D01*
X85426053Y-137753918D01*
X85426053Y-137753918D01*
G37*
G36*
X85778079Y-138105944D02*
X85494303Y-137822168D01*
X86025935Y-137290536D01*
X86309711Y-137574312D01*
X85778079Y-138105944D01*
X85778079Y-138105944D01*
G37*
G36*
X87753735Y-130469134D02*
X87469959Y-130185358D01*
X88001591Y-129653726D01*
X88285367Y-129937502D01*
X87753735Y-130469134D01*
X87753735Y-130469134D01*
G37*
G36*
X87401709Y-130117108D02*
X87117933Y-129833332D01*
X87649565Y-129301700D01*
X87933341Y-129585476D01*
X87401709Y-130117108D01*
X87401709Y-130117108D01*
G37*
G36*
X87047887Y-129763286D02*
X86764111Y-129479510D01*
X87295743Y-128947878D01*
X87579519Y-129231654D01*
X87047887Y-129763286D01*
X87047887Y-129763286D01*
G37*
G36*
X86694065Y-129409464D02*
X86410289Y-129125688D01*
X86941921Y-128594056D01*
X87225697Y-128877832D01*
X86694065Y-129409464D01*
X86694065Y-129409464D01*
G37*
G36*
X88359005Y-136692452D02*
X87827373Y-136160820D01*
X88111149Y-135877044D01*
X88642781Y-136408676D01*
X88359005Y-136692452D01*
X88359005Y-136692452D01*
G37*
G36*
X88711314Y-136338644D02*
X88179682Y-135807012D01*
X88463458Y-135523236D01*
X88995090Y-136054868D01*
X88711314Y-136338644D01*
X88711314Y-136338644D01*
G37*
G36*
X89064854Y-135986604D02*
X88533222Y-135454972D01*
X88816998Y-135171196D01*
X89348630Y-135702828D01*
X89064854Y-135986604D01*
X89064854Y-135986604D01*
G37*
G36*
X89418676Y-135632781D02*
X88887044Y-135101149D01*
X89170820Y-134817373D01*
X89702452Y-135349005D01*
X89418676Y-135632781D01*
X89418676Y-135632781D01*
G37*
G36*
X89772498Y-135278959D02*
X89240866Y-134747327D01*
X89524642Y-134463551D01*
X90056274Y-134995183D01*
X89772498Y-135278959D01*
X89772498Y-135278959D01*
G37*
G36*
X90126320Y-134925137D02*
X89594688Y-134393505D01*
X89878464Y-134109729D01*
X90410096Y-134641361D01*
X90126320Y-134925137D01*
X90126320Y-134925137D01*
G37*
G36*
X90480142Y-134571315D02*
X89948510Y-134039683D01*
X90232286Y-133755907D01*
X90763918Y-134287539D01*
X90480142Y-134571315D01*
X90480142Y-134571315D01*
G37*
G36*
X90833964Y-134217493D02*
X90302332Y-133685861D01*
X90586108Y-133402085D01*
X91117740Y-133933717D01*
X90833964Y-134217493D01*
X90833964Y-134217493D01*
G37*
G36*
X86945513Y-138105944D02*
X86413881Y-137574312D01*
X86697657Y-137290536D01*
X87229289Y-137822168D01*
X86945513Y-138105944D01*
X86945513Y-138105944D01*
G37*
G36*
X87299335Y-137752122D02*
X86767703Y-137220490D01*
X87051479Y-136936714D01*
X87583111Y-137468346D01*
X87299335Y-137752122D01*
X87299335Y-137752122D01*
G37*
G36*
X87653157Y-137398300D02*
X87121525Y-136866668D01*
X87405301Y-136582892D01*
X87936933Y-137114524D01*
X87653157Y-137398300D01*
X87653157Y-137398300D01*
G37*
G36*
X88005183Y-137046274D02*
X87473551Y-136514642D01*
X87757327Y-136230866D01*
X88288959Y-136762498D01*
X88005183Y-137046274D01*
X88005183Y-137046274D01*
G37*
G36*
X90582516Y-133297915D02*
X90298740Y-133014139D01*
X90830372Y-132482507D01*
X91114148Y-132766283D01*
X90582516Y-133297915D01*
X90582516Y-133297915D01*
G37*
G36*
X90230490Y-132942297D02*
X89946714Y-132658521D01*
X90478346Y-132126889D01*
X90762122Y-132410665D01*
X90230490Y-132942297D01*
X90230490Y-132942297D01*
G37*
G36*
X89878464Y-132590271D02*
X89594688Y-132306495D01*
X90126320Y-131774863D01*
X90410096Y-132058639D01*
X89878464Y-132590271D01*
X89878464Y-132590271D01*
G37*
G36*
X89524642Y-132236449D02*
X89240866Y-131952673D01*
X89772498Y-131421041D01*
X90056274Y-131704817D01*
X89524642Y-132236449D01*
X89524642Y-132236449D01*
G37*
G36*
X89170820Y-131882627D02*
X88887044Y-131598851D01*
X89418676Y-131067219D01*
X89702452Y-131350995D01*
X89170820Y-131882627D01*
X89170820Y-131882627D01*
G37*
G36*
X88816998Y-131528804D02*
X88533222Y-131245028D01*
X89064854Y-130713396D01*
X89348630Y-130997172D01*
X88816998Y-131528804D01*
X88816998Y-131528804D01*
G37*
G36*
X88463176Y-131174982D02*
X88179400Y-130891206D01*
X88711032Y-130359574D01*
X88994808Y-130643350D01*
X88463176Y-131174982D01*
X88463176Y-131174982D01*
G37*
G36*
X88109353Y-130821160D02*
X87825577Y-130537384D01*
X88357209Y-130005752D01*
X88640985Y-130289528D01*
X88109353Y-130821160D01*
X88109353Y-130821160D01*
G37*
G36*
X86025935Y-129409464D02*
X85494303Y-128877832D01*
X85778079Y-128594056D01*
X86309711Y-129125688D01*
X86025935Y-129409464D01*
X86025935Y-129409464D01*
G37*
G36*
X85672113Y-129763286D02*
X85140481Y-129231654D01*
X85424257Y-128947878D01*
X85955889Y-129479510D01*
X85672113Y-129763286D01*
X85672113Y-129763286D01*
G37*
G36*
X85318291Y-130117108D02*
X84786659Y-129585476D01*
X85070435Y-129301700D01*
X85602067Y-129833332D01*
X85318291Y-130117108D01*
X85318291Y-130117108D01*
G37*
G36*
X84966265Y-130469134D02*
X84434633Y-129937502D01*
X84718409Y-129653726D01*
X85250041Y-130185358D01*
X84966265Y-130469134D01*
X84966265Y-130469134D01*
G37*
G36*
X84612443Y-130822956D02*
X84080811Y-130291324D01*
X84364587Y-130007548D01*
X84896219Y-130539180D01*
X84612443Y-130822956D01*
X84612443Y-130822956D01*
G37*
G36*
X84258621Y-131176778D02*
X83726989Y-130645146D01*
X84010765Y-130361370D01*
X84542397Y-130893002D01*
X84258621Y-131176778D01*
X84258621Y-131176778D01*
G37*
G36*
X83904798Y-131530600D02*
X83373166Y-130998968D01*
X83656942Y-130715192D01*
X84188574Y-131246824D01*
X83904798Y-131530600D01*
X83904798Y-131530600D01*
G37*
G36*
X83550976Y-131884423D02*
X83019344Y-131352791D01*
X83303120Y-131069015D01*
X83834752Y-131600647D01*
X83550976Y-131884423D01*
X83550976Y-131884423D01*
G37*
G36*
X83197154Y-132238245D02*
X82665522Y-131706613D01*
X82949298Y-131422837D01*
X83480930Y-131954469D01*
X83197154Y-132238245D01*
X83197154Y-132238245D01*
G37*
G36*
X82843332Y-132592067D02*
X82311700Y-132060435D01*
X82595476Y-131776659D01*
X83127108Y-132308291D01*
X82843332Y-132592067D01*
X82843332Y-132592067D01*
G37*
G36*
X82491306Y-132944093D02*
X81959674Y-132412461D01*
X82243450Y-132128685D01*
X82775082Y-132660317D01*
X82491306Y-132944093D01*
X82491306Y-132944093D01*
G37*
G36*
X82137484Y-133297915D02*
X81605852Y-132766283D01*
X81889628Y-132482507D01*
X82421260Y-133014139D01*
X82137484Y-133297915D01*
X82137484Y-133297915D01*
G37*
G36*
X82610637Y-133350000D02*
X86360000Y-129600637D01*
X90109363Y-133350000D01*
X86360000Y-137099363D01*
X82610637Y-133350000D01*
X82610637Y-133350000D01*
G37*
G36*
X108633381Y-113373621D02*
X107606379Y-112346619D01*
X108209117Y-111743881D01*
X109236119Y-112770883D01*
X108633381Y-113373621D01*
X108633381Y-113373621D01*
G37*
G36*
X109976883Y-112030119D02*
X108949881Y-111003117D01*
X109552619Y-110400379D01*
X110579621Y-111427381D01*
X109976883Y-112030119D01*
X109976883Y-112030119D01*
G37*
D34*
X78740000Y-91440000D03*
X78740000Y-93980000D03*
X78740000Y-96520000D03*
X78740000Y-99060000D03*
X78740000Y-101600000D03*
X78740000Y-104140000D03*
X78740000Y-106680000D03*
X78740000Y-109220000D03*
X78740000Y-111760000D03*
X78740000Y-114300000D03*
X78740000Y-121920000D03*
X78740000Y-124460000D03*
X78740000Y-127000000D03*
X78740000Y-129540000D03*
X78740000Y-132080000D03*
X78740000Y-134620000D03*
X78740000Y-137160000D03*
X78740000Y-139700000D03*
X78740000Y-142240000D03*
X78740000Y-144780000D03*
D22*
X80429580Y-128380000D03*
X79530420Y-128380000D03*
X80444580Y-125755000D03*
X79545420Y-125755000D03*
D35*
X109791500Y-135064500D03*
D36*
X93091000Y-101219000D03*
X129032000Y-100838000D03*
D37*
X110744000Y-85725000D03*
D38*
X110744000Y-88265000D03*
X110744000Y-90805000D03*
X110744000Y-93345000D03*
D10*
G36*
X103647786Y-108704155D02*
X103116155Y-109235786D01*
X102726412Y-108846043D01*
X103258043Y-108314412D01*
X103647786Y-108704155D01*
X103647786Y-108704155D01*
G37*
G36*
X104283588Y-109339957D02*
X103751957Y-109871588D01*
X103362214Y-109481845D01*
X103893845Y-108950214D01*
X104283588Y-109339957D01*
X104283588Y-109339957D01*
G37*
D22*
X102293420Y-106807000D03*
X103192580Y-106807000D03*
D15*
X87061000Y-107442000D03*
X88961000Y-107442000D03*
D23*
X85979000Y-109542580D03*
X85979000Y-108643420D03*
D37*
X90170000Y-92329000D03*
D38*
X90170000Y-94869000D03*
X90170000Y-97409000D03*
D39*
X82735000Y-85090000D03*
X89985000Y-85090000D03*
D40*
X83935000Y-87740000D03*
X88785000Y-87740000D03*
D41*
X87660000Y-87665000D03*
X87010000Y-87665000D03*
X86360000Y-87665000D03*
X85710000Y-87665000D03*
X85060000Y-87665000D03*
D42*
X88310000Y-85090000D03*
X84410000Y-85090000D03*
D12*
X125095000Y-99441000D03*
X123825000Y-101981000D03*
X122555000Y-99441000D03*
X121285000Y-101981000D03*
X120015000Y-99441000D03*
X118745000Y-101981000D03*
X117475000Y-99441000D03*
X116205000Y-101981000D03*
X114010000Y-88191000D03*
X116560000Y-88191000D03*
X124710000Y-88191000D03*
X127260000Y-88191000D03*
D43*
X128435000Y-96141000D03*
X112945000Y-96141000D03*
D44*
X114915000Y-93091000D03*
X126345000Y-93091000D03*
D23*
X87884000Y-90365580D03*
X87884000Y-89466420D03*
D22*
X85460840Y-89662000D03*
X86360000Y-89662000D03*
X88079580Y-91440000D03*
X87180420Y-91440000D03*
D10*
G36*
X101076214Y-102877845D02*
X101607845Y-102346214D01*
X101997588Y-102735957D01*
X101465957Y-103267588D01*
X101076214Y-102877845D01*
X101076214Y-102877845D01*
G37*
G36*
X100440412Y-102242043D02*
X100972043Y-101710412D01*
X101361786Y-102100155D01*
X100830155Y-102631786D01*
X100440412Y-102242043D01*
X100440412Y-102242043D01*
G37*
D22*
X99382580Y-102870000D03*
X98483420Y-102870000D03*
X96832420Y-102870000D03*
X97731580Y-102870000D03*
D10*
G36*
X100218786Y-100957155D02*
X99687155Y-101488786D01*
X99297412Y-101099043D01*
X99829043Y-100567412D01*
X100218786Y-100957155D01*
X100218786Y-100957155D01*
G37*
G36*
X100854588Y-101592957D02*
X100322957Y-102124588D01*
X99933214Y-101734845D01*
X100464845Y-101203214D01*
X100854588Y-101592957D01*
X100854588Y-101592957D01*
G37*
D11*
G36*
X125349000Y-150407176D02*
X125349000Y-152654000D01*
X125359006Y-152703410D01*
X125387447Y-152745035D01*
X125429841Y-152772315D01*
X125476000Y-152781000D01*
X76327000Y-152781000D01*
X76327000Y-147447000D01*
X93980000Y-147447000D01*
X94043010Y-147430267D01*
X98458727Y-144907000D01*
X121598880Y-144907000D01*
X125349000Y-150407176D01*
X125349000Y-150407176D01*
G37*
X125349000Y-150407176D02*
X125349000Y-152654000D01*
X125359006Y-152703410D01*
X125387447Y-152745035D01*
X125429841Y-152772315D01*
X125476000Y-152781000D01*
X76327000Y-152781000D01*
X76327000Y-147447000D01*
X93980000Y-147447000D01*
X94043010Y-147430267D01*
X98458727Y-144907000D01*
X121598880Y-144907000D01*
X125349000Y-150407176D01*
G36*
X127091035Y-152742553D02*
X127118315Y-152700159D01*
X127127000Y-152654000D01*
X127127000Y-108002606D01*
X134494472Y-100635134D01*
X134746385Y-152781000D01*
X127000000Y-152781000D01*
X127049410Y-152770994D01*
X127091035Y-152742553D01*
X127091035Y-152742553D01*
G37*
X127091035Y-152742553D02*
X127118315Y-152700159D01*
X127127000Y-152654000D01*
X127127000Y-108002606D01*
X134494472Y-100635134D01*
X134746385Y-152781000D01*
X127000000Y-152781000D01*
X127049410Y-152770994D01*
X127091035Y-152742553D01*
G36*
X87661365Y-85725000D02*
X85121365Y-85725000D01*
X85121365Y-84455000D01*
X87661365Y-84455000D01*
X87661365Y-85725000D01*
X87661365Y-85725000D01*
G37*
X87661365Y-85725000D02*
X85121365Y-85725000D01*
X85121365Y-84455000D01*
X87661365Y-84455000D01*
X87661365Y-85725000D01*
M02*
