M48
;DRILL file {KiCad 0.201509061501+6161~29~ubuntu14.04.1-product} date Mon 07 Sep 2015 01:36:55 PM PDT
;FORMAT={-:-/ absolute / inch / decimal}
FMAT,2
INCH,TZ
T1C0.008
T2C0.010
T3C0.015
T4C0.025
T5C0.028
T6C0.033
T7C0.035
T8C0.040
T9C0.059
T10C0.091
%
G90
G05
M72
T1
X3.1775Y-3.935
X3.1994Y-5.6275
X3.22Y-4.99
X3.22Y-5.015
X3.22Y-5.105
X3.23Y-4.945
X3.3158Y-4.6939
X3.32Y-4.665
X3.3319Y-5.0833
X3.3866Y-5.051
X3.4Y-5.69
X3.4229Y-4.98
X3.4488Y-4.9038
X3.451Y-5.4774
X3.4525Y-5.0025
X3.4685Y-5.5392
X3.4744Y-5.5018
X3.4906Y-4.7715
X3.5Y-5.69
X3.5222Y-5.5352
X3.53Y-5.375
X3.5469Y-5.4528
X3.6Y-5.69
X3.7Y-5.69
X3.7935Y-5.3366
X3.8Y-5.69
X3.8667Y-4.6633
X3.8754Y-4.4612
X3.8754Y-4.5091
X3.8758Y-4.5734
X3.8984Y-4.4244
X3.9041Y-5.6926
X3.9125Y-4.835
X3.925Y-4.87
X3.9254Y-4.3943
X3.9375Y-5.575
X3.95Y-4.12
X3.9579Y-4.4685
X4.Y-5.69
X4.0475Y-4.7025
X4.065Y-4.9775
X4.07Y-4.
X4.0725Y-4.705
X4.08Y-4.6675
X4.0975Y-5.215
X4.1Y-5.69
X4.105Y-5.
X4.1061Y-4.8142
X4.1225Y-4.54
X4.1246Y-5.1571
X4.1392Y-4.7606
X4.152Y-4.8797
X4.1625Y-4.54
X4.195Y-5.06
X4.211Y-4.656
X4.212Y-4.7
X4.213Y-4.723
X4.2138Y-4.6778
X4.23Y-4.7375
X4.235Y-4.684
X4.25Y-4.838
X4.25Y-5.2041
X4.2502Y-4.948
X4.2525Y-4.7275
X4.26Y-4.775
X4.26Y-4.9225
X4.265Y-5.225
X4.2712Y-4.743
X4.2751Y-4.7214
X4.2825Y-4.9175
X4.2853Y-4.94
X4.2894Y-4.9625
X4.2932Y-4.7496
X4.305Y-4.8925
X4.3084Y-4.6184
X4.3091Y-4.4201
X4.3117Y-4.7841
X4.3225Y-4.8775
X4.33Y-3.965
X4.33Y-4.5675
X4.3335Y-4.618
X4.3336Y-4.786
X4.3358Y-4.8081
X4.3375Y-4.895
X4.3378Y-4.6654
X4.339Y-4.8476
X4.3425Y-5.105
X4.3544Y-4.611
X4.3572Y-4.8133
X4.3601Y-4.8927
X4.3619Y-4.8555
X4.3636Y-4.7047
X4.38Y-4.69
X4.3887Y-4.734
X4.389Y-4.63
X4.395Y-4.5287
X4.3977Y-4.7095
X4.4Y-4.852
X4.4Y-5.69
X4.4103Y-4.7275
X4.4115Y-4.6725
X4.4118Y-5.0648
X4.4254Y-4.9425
X4.428Y-5.0801
X4.4324Y-4.9215
X4.4325Y-4.6
X4.4375Y-4.8675
X4.4394Y-4.3065
X4.4394Y-4.3476
X4.4401Y-4.8401
X4.4406Y-4.3817
X4.443Y-4.727
X4.446Y-4.7597
X4.4548Y-4.8876
X4.4575Y-4.823
X4.46Y-5.0325
X4.4625Y-4.989
X4.4766Y-4.879
X4.4896Y-4.4469
X4.491Y-4.822
X4.4967Y-4.8885
X4.5Y-5.69
X4.5003Y-4.9522
X4.5031Y-4.1118
X4.5185Y-4.4122
X4.5225Y-5.065
X4.5333Y-4.1077
X4.535Y-4.315
X4.536Y-4.4461
X4.5399Y-4.9515
X4.54Y-4.6775
X4.545Y-4.896
X4.5455Y-4.3811
X4.5625Y-4.9925
X4.576Y-4.1661
X4.5846Y-4.7228
X4.6Y-5.69
X4.6075Y-4.37
X4.6174Y-4.945
X4.6175Y-4.8425
X4.6243Y-4.8863
X4.625Y-4.97
X4.6275Y-4.6735
X4.6303Y-5.0263
X4.6319Y-4.6
X4.635Y-5.2957
X4.645Y-4.2975
X4.645Y-4.375
X4.6475Y-4.5825
X4.665Y-4.91
X4.6661Y-4.8157
X4.6675Y-4.75
X4.6675Y-4.783
X4.692Y-4.913
X4.6954Y-4.8154
X4.6958Y-5.0449
X4.6963Y-5.006
X4.6971Y-4.783
X4.6974Y-4.8474
X4.698Y-4.88
X4.7Y-5.09
X4.7Y-5.69
X4.73Y-5.0035
X4.73Y-4.8325
X4.734Y-4.954
X4.735Y-4.6425
X4.7411Y-4.1537
X4.7475Y-4.9875
X4.7524Y-4.1252
X4.7525Y-5.0435
X4.765Y-4.61
X4.77Y-4.89
X4.773Y-4.5595
X4.78Y-4.52
X4.786Y-4.721
X4.7867Y-4.6618
X4.795Y-4.6875
X4.795Y-4.79
X4.795Y-5.69
X4.797Y-4.99
X4.7975Y-5.095
X4.808Y-4.7215
X4.8101Y-4.6399
X4.8126Y-4.1244
X4.8147Y-4.5773
X4.8183Y-4.6194
X4.82Y-4.828
X4.822Y-4.97
X4.84Y-5.755
X4.8532Y-4.878
X4.8534Y-4.6259
X4.855Y-4.8175
X4.855Y-5.095
X4.875Y-5.81
X4.8825Y-4.755
X4.8825Y-4.94
X4.8849Y-4.9749
X4.885Y-4.7225
X4.885Y-4.815
X4.885Y-4.8475
X4.8856Y-5.003
X4.91Y-5.86
X4.92Y-4.58
X4.92Y-4.6425
X4.9311Y-4.7685
X4.9325Y-4.7325
X4.9325Y-4.8325
X4.9325Y-4.9525
X4.9325Y-5.08
X4.9375Y-4.81
X4.94Y-4.665
X4.95Y-5.91
X4.95Y-5.97
X4.955Y-5.0375
X4.99Y-4.31
X4.99Y-4.4
X4.99Y-4.9
X4.99Y-5.6
X4.99Y-5.7
X4.99Y-5.8
X4.99Y-5.9
X4.99Y-5.97
X4.9935Y-4.5
X4.9935Y-4.6
X5.Y-4.23
X5.05Y-4.18
X5.1Y-4.13
X5.15Y-4.08
X5.21Y-4.02
X5.27Y-3.96
T2
X3.04Y-4.65
X3.05Y-4.05
X3.05Y-4.525
X3.05Y-5.25
X3.05Y-5.675
X3.13Y-4.61
X3.13Y-4.685
X3.14Y-4.47
X3.14Y-3.955
X3.14Y-4.07
X3.14Y-4.17
X3.14Y-4.27
X3.15Y-4.02
X3.16Y-4.21
X3.1659Y-5.5391
X3.17Y-5.57
X3.2Y-5.68
X3.205Y-5.18
X3.21Y-3.845
X3.21Y-5.25
X3.215Y-4.6
X3.2175Y-5.3875
X3.22Y-5.305
X3.2209Y-4.2041
X3.2219Y-3.895
X3.225Y-5.455
X3.23Y-3.5
X3.245Y-4.72
X3.2539Y-5.3261
X3.2611Y-5.1539
X3.27Y-3.815
X3.27Y-4.805
X3.275Y-4.77
X3.275Y-5.455
X3.28Y-5.519
X3.289Y-5.0331
X3.305Y-5.68
X3.31Y-3.765
X3.31Y-5.255
X3.325Y-5.52
X3.3296Y-5.0553
X3.3331Y-4.9125
X3.335Y-4.6
X3.34Y-3.74
X3.34Y-4.73
X3.345Y-5.48
X3.351Y-5.455
X3.365Y-4.385
X3.365Y-4.61
X3.37Y-5.215
X3.37Y-5.5
X3.375Y-4.84
X3.3786Y-4.8
X3.38Y-4.9035
X3.385Y-4.66
X3.39Y-3.645
X3.39Y-3.725
X3.39Y-3.835
X3.395Y-5.175
X3.4Y-4.88
X3.405Y-4.7
X3.405Y-4.74
X3.405Y-4.445
X3.41Y-5.135
X3.425Y-4.3406
X3.429Y-4.495
X3.429Y-4.61
X3.429Y-4.72
X3.43Y-5.5
X3.435Y-4.425
X3.45Y-3.77
X3.4508Y-3.68
X3.455Y-5.32
X3.465Y-3.91
X3.48Y-3.845
X3.4808Y-4.495
X3.4808Y-4.55
X3.4808Y-4.62
X3.4808Y-4.7
X3.485Y-4.375
X3.52Y-5.63
X3.535Y-3.9775
X3.535Y-4.055
X3.535Y-4.11
X3.535Y-4.325
X3.545Y-3.91
X3.545Y-5.425
X3.56Y-5.1
X3.5604Y-5.1304
X3.5697Y-5.4354
X3.59Y-3.985
X3.59Y-4.07
X3.59Y-4.155
X3.59Y-4.23
X3.59Y-4.335
X3.6Y-5.285
X3.6Y-5.315
X3.6Y-5.375
X3.6Y-5.405
X3.6Y-5.435
X3.605Y-5.135
X3.64Y-5.341
X3.645Y-5.215
X3.646Y-5.45
X3.69Y-4.535
X3.6991Y-4.8691
X3.72Y-5.6
X3.725Y-5.285
X3.73Y-5.18
X3.735Y-5.225
X3.74Y-4.68
X3.74Y-4.715
X3.745Y-5.37
X3.75Y-4.055
X3.755Y-3.985
X3.76Y-4.95
X3.7608Y-4.8808
X3.77Y-4.61
X3.775Y-5.095
X3.785Y-4.9415
X3.785Y-5.05
X3.7892Y-5.0045
X3.79Y-3.535
X3.795Y-4.655
X3.805Y-4.575
X3.805Y-5.225
X3.81Y-4.88
X3.81Y-4.97
X3.8275Y-4.8525
X3.83Y-4.1
X3.83Y-4.38
X3.83Y-4.445
X3.83Y-4.59
X3.83Y-4.65
X3.83Y-5.22
X3.83Y-3.985
X3.835Y-4.685
X3.84Y-3.335
X3.84Y-3.41
X3.84Y-3.535
X3.84Y-5.01
X3.845Y-5.335
X3.85Y-4.574
X3.85Y-5.49
X3.85Y-4.305
X3.86Y-5.225
X3.87Y-3.64
X3.87Y-3.68
X3.875Y-3.765
X3.875Y-3.865
X3.875Y-3.925
X3.88Y-4.61
X3.89Y-3.335
X3.89Y-3.41
X3.89Y-3.535
X3.89Y-4.29
X3.894Y-4.747
X3.9Y-3.815
X3.9Y-4.175
X3.9Y-5.375
X3.91Y-4.085
X3.91Y-4.715
X3.91Y-5.1
X3.91Y-5.155
X3.915Y-4.015
X3.925Y-3.715
X3.9302Y-4.8188
X3.935Y-5.3
X3.9395Y-4.5095
X3.94Y-3.535
X3.94Y-4.595
X3.94Y-4.67
X3.945Y-4.21
X3.945Y-4.25
X3.9499Y-5.0599
X3.95Y-4.88
X3.95Y-5.1932
X3.954Y-4.328
X3.955Y-5.365
X3.96Y-3.96
X3.96Y-4.545
X3.965Y-3.73
X3.965Y-4.792
X3.965Y-5.295
X3.97Y-4.895
X3.97Y-5.04
X3.98Y-4.5225
X3.98Y-4.92
X3.99Y-4.57
X3.99Y-5.22
X4.005Y-3.91
X4.005Y-4.93
X4.0117Y-5.6018
X4.015Y-4.065
X4.0241Y-4.486
X4.025Y-5.535
X4.0296Y-4.7253
X4.03Y-5.355
X4.0326Y-4.5688
X4.035Y-4.275
X4.035Y-4.93
X4.035Y-4.96
X4.04Y-3.73
X4.04Y-4.25
X4.04Y-4.41
X4.04Y-5.115
X4.05Y-3.78
X4.054Y-4.871
X4.055Y-3.425
X4.055Y-3.965
X4.055Y-4.58
X4.055Y-5.
X4.06Y-4.525
X4.065Y-4.16
X4.0775Y-5.3725
X4.0775Y-5.4025
X4.0775Y-5.4425
X4.08Y-3.91
X4.0853Y-5.1503
X4.0889Y-4.2133
X4.09Y-3.46
X4.095Y-5.56
X4.0975Y-5.2525
X4.0975Y-5.285
X4.0975Y-5.32
X4.0975Y-5.3525
X4.1Y-3.81
X4.1023Y-4.1227
X4.1024Y-5.0262
X4.105Y-3.995
X4.105Y-4.255
X4.1075Y-5.4625
X4.11Y-4.34
X4.11Y-5.055
X4.11Y-4.882
X4.12Y-4.64
X4.1275Y-5.51
X4.1297Y-5.6825
X4.13Y-5.08
X4.13Y-5.56
X4.1325Y-5.6235
X4.1446Y-4.6447
X4.1475Y-4.915
X4.15Y-3.375
X4.15Y-4.29
X4.15Y-4.34
X4.15Y-4.42
X4.15Y-5.405
X4.16Y-3.48
X4.16Y-4.365
X4.162Y-4.6206
X4.165Y-5.06
X4.1703Y-5.6825
X4.1725Y-4.935
X4.1764Y-4.1544
X4.1775Y-5.6225
X4.1857Y-5.0261
X4.1925Y-5.4975
X4.195Y-5.225
X4.195Y-5.2525
X4.195Y-5.2825
X4.195Y-5.3175
X4.195Y-5.3525
X4.2Y-5.155
X4.2Y-5.6
X4.2025Y-4.54
X4.21Y-5.015
X4.215Y-5.56
X4.2225Y-4.1525
X4.225Y-5.3775
X4.2275Y-5.4275
X4.23Y-4.4459
X4.23Y-4.56
X4.23Y-4.9806
X4.2323Y-4.0063
X4.2354Y-5.0199
X4.24Y-5.12
X4.255Y-4.265
X4.257Y-4.0104
X4.26Y-4.985
X4.27Y-4.205
X4.28Y-4.395
X4.2824Y-5.0776
X4.285Y-5.185
X4.29Y-3.9575
X4.2991Y-5.5991
X4.3015Y-5.0615
X4.3075Y-5.21
X4.31Y-4.08
X4.32Y-5.37
X4.32Y-5.56
X4.325Y-3.81
X4.33Y-4.
X4.3325Y-5.2375
X4.3425Y-4.36
X4.355Y-4.225
X4.36Y-4.255
X4.36Y-5.2625
X4.365Y-5.3
X4.375Y-4.34
X4.375Y-5.145
X4.38Y-5.465
X4.395Y-5.3375
X4.3975Y-5.17
X4.4Y-5.6
X4.4005Y-4.417
X4.4129Y-3.9093
X4.42Y-4.1
X4.4225Y-5.1975
X4.4425Y-5.2175
X4.445Y-5.121
X4.45Y-3.4
X4.45Y-5.285
X4.4509Y-4.0991
X4.4525Y-5.355
X4.455Y-4.45
X4.465Y-4.025
X4.48Y-4.145
X4.5Y-5.465
X4.5Y-5.6
X4.5196Y-5.3473
X4.5461Y-5.3861
X4.5471Y-4.1671
X4.5644Y-5.3044
X4.58Y-5.42
X4.59Y-4.11
X4.6Y-5.6
X4.605Y-3.965
X4.61Y-5.35
X4.62Y-5.125
X4.62Y-5.4003
X4.63Y-4.05
X4.635Y-3.61
X4.6525Y-4.445
X4.6725Y-5.3575
X4.675Y-3.915
X4.685Y-5.4003
X4.6944Y-4.1094
X4.695Y-4.06
X4.6975Y-4.4455
X4.7Y-5.6
X4.705Y-3.61
X4.705Y-3.75
X4.705Y-3.8398
X4.723Y-4.449
X4.725Y-3.4
X4.745Y-5.3575
X4.745Y-5.4003
X4.7504Y-4.055
X4.77Y-4.4452
X4.775Y-3.61
X4.775Y-3.75
X4.775Y-3.8398
X4.79Y-3.505
X4.795Y-4.065
X4.7989Y-5.2004
X4.8Y-3.965
X4.8Y-4.485
X4.8Y-5.3
X4.8Y-5.5
X4.8Y-5.6
X4.805Y-4.155
X4.82Y-5.3575
X4.82Y-5.4003
X4.845Y-3.61
X4.845Y-4.06
X4.85Y-3.96
X4.8725Y-4.5025
X4.875Y-3.895
X4.9Y-5.3
X4.9Y-5.5
X4.9Y-5.6
X4.9Y-5.7
X4.9011Y-5.2004
X4.9125Y-5.3575
X4.9125Y-5.4003
X4.93Y-5.78
X4.94Y-4.52
X4.9445Y-3.98
X4.9445Y-4.055
X4.9445Y-4.125
X4.9843Y-5.3597
X4.986Y-5.4003
X4.99Y-4.7
X4.99Y-4.8
X4.99Y-5.
X4.99Y-5.1
X4.99Y-5.2
X4.99Y-5.3
X5.025Y-3.4
X5.2Y-3.575
T3
X3.175Y-3.785
X3.22Y-4.16
X3.225Y-3.58
X3.255Y-4.17
X3.265Y-3.61
X3.265Y-3.87
X3.265Y-3.9225
X3.265Y-4.2207
X3.275Y-4.035
X3.305Y-3.395
X3.33Y-3.85
X3.33Y-3.905
X3.335Y-4.25
X3.34Y-4.215
X3.35Y-4.065
X3.3552Y-4.2748
X3.36Y-3.35
X3.37Y-3.88
X3.39Y-3.95
X3.41Y-3.93
X3.44Y-3.35
X3.4568Y-4.2997
X3.47Y-4.23
X3.485Y-3.8
X3.495Y-3.395
X3.5Y-3.57
X3.505Y-3.78
X3.53Y-3.52
X3.5333Y-4.23
X3.535Y-4.485
X3.54Y-4.415
X3.58Y-3.48
X3.58Y-3.56
X3.58Y-4.385
X3.58Y-4.46
X3.58Y-4.52
X3.61Y-3.52
X3.62Y-4.41
X3.635Y-4.435
X3.665Y-4.455
X3.7625Y-4.7975
X3.83Y-4.515
X4.025Y-4.01
X4.045Y-4.03
X4.085Y-3.375
X4.1975Y-5.69
X4.28Y-5.69
X4.4175Y-4.1675
X4.4175Y-4.1925
X4.4585Y-4.2835
X4.4933Y-4.2508
X4.5725Y-4.405
X4.6075Y-4.445
X4.6119Y-4.2565
X4.65Y-4.405
X4.655Y-4.235
X4.695Y-4.29
X4.7275Y-4.235
X4.7275Y-4.2975
X4.73Y-4.3675
X4.745Y-4.4325
X4.765Y-4.36
X4.795Y-4.25
X4.845Y-4.42
X4.91Y-4.42
X4.9875Y-5.4275
X4.9875Y-5.51
T4
X3.26Y-4.31
X3.26Y-4.36
X3.26Y-4.41
X3.26Y-4.46
X3.26Y-4.51
X3.31Y-4.31
X3.31Y-4.36
X3.31Y-4.41
X3.31Y-4.46
X3.31Y-4.51
X3.5113Y-4.8913
X3.5466Y-4.9266
X3.582Y-4.962
X3.6173Y-4.9973
X3.6527Y-5.0327
X3.688Y-5.068
X3.7234Y-5.1034
X3.7587Y-5.1387
X4.52Y-5.165
X4.52Y-5.215
X4.57Y-5.165
X4.57Y-5.215
X4.62Y-5.165
X4.62Y-5.215
X4.67Y-5.165
X4.67Y-5.215
X4.72Y-5.165
X4.72Y-5.215
T5
X3.3045Y-3.4543
X3.4955Y-3.4543
T6
X3.1Y-3.6
X3.1Y-3.7
X3.1Y-3.8
X3.1Y-3.9
X3.1Y-4.
X3.1Y-4.1
X3.1Y-4.2
X3.1Y-4.3
X3.1Y-4.4
X3.1Y-4.5
X3.1Y-4.8
X3.1Y-4.9
X3.1Y-5.
X3.1Y-5.1
X3.1Y-5.2
X3.1Y-5.3
X3.1Y-5.4
X3.1Y-5.5
X3.1Y-5.6
X3.1Y-5.7
T7
X3.8272Y-3.76
X3.8272Y-3.8624
X3.9256Y-3.76
X3.9256Y-3.8624
X4.0044Y-3.76
X4.0044Y-3.8624
X4.1028Y-3.76
X4.1028Y-3.8624
X4.4886Y-3.4721
X4.575Y-4.015
X4.589Y-3.4721
X4.625Y-3.915
X4.675Y-4.015
X4.725Y-3.915
X4.775Y-4.015
X4.825Y-3.915
X4.875Y-4.015
X4.9098Y-3.4721
X4.925Y-3.915
X5.0102Y-3.4721
T8
X3.55Y-3.635
X3.55Y-3.735
X3.55Y-3.835
X4.36Y-3.375
X4.36Y-3.475
X4.36Y-3.575
X4.36Y-3.675
T9
X4.4467Y-3.7851
X5.0565Y-3.7851
T10
X3.7063Y-3.6525
X3.7063Y-3.8761
X4.2237Y-3.6525
X4.2237Y-3.8761
T5
X3.2573Y-3.3421G85X3.2573Y-3.3579
G05
X3.5427Y-3.3421G85X3.5427Y-3.3579
G05
T0
M30
