G04 #@! TF.FileFunction,Paste,Bot*
%FSLAX46Y46*%
G04 Gerber Fmt 4.6, Leading zero omitted, Abs format (unit mm)*
G04 Created by KiCad (PCBNEW 4.0.0-stable) date Sunday, December 27, 2015 'PMt' 01:34:37 PM*
%MOMM*%
G01*
G04 APERTURE LIST*
%ADD10C,0.100000*%
%ADD11R,0.599440X0.398780*%
%ADD12R,1.300000X0.700000*%
%ADD13R,0.398780X0.599440*%
%ADD14O,0.600000X0.900000*%
%ADD15R,4.800000X4.650000*%
%ADD16R,1.143000X0.635000*%
%ADD17R,0.700000X1.300000*%
%ADD18R,0.500000X1.100000*%
%ADD19R,1.000000X0.900000*%
%ADD20R,1.300000X0.650000*%
%ADD21R,2.400000X1.700000*%
%ADD22R,0.800100X0.800100*%
G04 APERTURE END LIST*
D10*
D11*
X125984000Y-96969580D03*
X125984000Y-96070420D03*
X119888000Y-90619580D03*
X119888000Y-89720420D03*
D12*
X103886000Y-90485000D03*
X103886000Y-88585000D03*
D11*
X114046000Y-110558580D03*
X114046000Y-109659420D03*
D13*
X114612420Y-106553000D03*
X115511580Y-106553000D03*
D14*
X99060000Y-142280000D03*
X97790000Y-142280000D03*
X96520000Y-142280000D03*
X95250000Y-142280000D03*
X95250000Y-134580000D03*
X96520000Y-134580000D03*
X97790000Y-134580000D03*
X99060000Y-134580000D03*
D15*
X97155000Y-138430000D03*
D11*
X101854000Y-106992420D03*
X101854000Y-107891580D03*
X106172000Y-132148580D03*
X106172000Y-131249420D03*
X106426000Y-125915420D03*
X106426000Y-126814580D03*
X106807000Y-129344420D03*
X106807000Y-130243580D03*
X105537000Y-125915420D03*
X105537000Y-126814580D03*
X105918000Y-129344420D03*
X105918000Y-130243580D03*
D16*
X104394000Y-126365000D03*
X104394000Y-124841000D03*
D11*
X106426000Y-123756420D03*
X106426000Y-124655580D03*
D16*
X104775000Y-130302000D03*
X104775000Y-131826000D03*
D13*
X112463580Y-124333000D03*
X111564420Y-124333000D03*
D11*
X101346000Y-131894580D03*
X101346000Y-130995420D03*
X101346000Y-128709420D03*
X101346000Y-129608580D03*
D13*
X110622080Y-127127000D03*
X109722920Y-127127000D03*
D11*
X108077000Y-131640580D03*
X108077000Y-130741420D03*
X103251000Y-125026420D03*
X103251000Y-125925580D03*
D13*
X104081580Y-120142000D03*
X103182420Y-120142000D03*
X114241580Y-123266200D03*
X113342420Y-123266200D03*
D10*
G36*
X105402155Y-122392977D02*
X105826023Y-122816845D01*
X105544043Y-123098825D01*
X105120175Y-122674957D01*
X105402155Y-122392977D01*
X105402155Y-122392977D01*
G37*
G36*
X106037957Y-121757175D02*
X106461825Y-122181043D01*
X106179845Y-122463023D01*
X105755977Y-122039155D01*
X106037957Y-121757175D01*
X106037957Y-121757175D01*
G37*
D11*
X105537000Y-115882420D03*
X105537000Y-116781580D03*
X101600000Y-118549420D03*
X101600000Y-119448580D03*
D16*
X105092500Y-118745000D03*
X105092500Y-120269000D03*
D10*
G36*
X103994858Y-128729619D02*
X103075619Y-129648858D01*
X102580644Y-129153883D01*
X103499883Y-128234644D01*
X103994858Y-128729619D01*
X103994858Y-128729619D01*
G37*
G36*
X102651356Y-127386117D02*
X101732117Y-128305356D01*
X101237142Y-127810381D01*
X102156381Y-126891142D01*
X102651356Y-127386117D01*
X102651356Y-127386117D01*
G37*
D13*
X105732580Y-127762000D03*
X104833420Y-127762000D03*
D11*
X100457000Y-123258580D03*
X100457000Y-122359420D03*
X102489000Y-117787420D03*
X102489000Y-118686580D03*
D10*
G36*
X109438977Y-130055845D02*
X109862845Y-129631977D01*
X110144825Y-129913957D01*
X109720957Y-130337825D01*
X109438977Y-130055845D01*
X109438977Y-130055845D01*
G37*
G36*
X108803175Y-129420043D02*
X109227043Y-128996175D01*
X109509023Y-129278155D01*
X109085155Y-129702023D01*
X108803175Y-129420043D01*
X108803175Y-129420043D01*
G37*
G36*
X109285023Y-122166155D02*
X108861155Y-122590023D01*
X108579175Y-122308043D01*
X109003043Y-121884175D01*
X109285023Y-122166155D01*
X109285023Y-122166155D01*
G37*
G36*
X109920825Y-122801957D02*
X109496957Y-123225825D01*
X109214977Y-122943845D01*
X109638845Y-122519977D01*
X109920825Y-122801957D01*
X109920825Y-122801957D01*
G37*
D11*
X104648000Y-115882420D03*
X104648000Y-116781580D03*
D13*
X102303580Y-123444000D03*
X101404420Y-123444000D03*
X102430580Y-124333000D03*
X101531420Y-124333000D03*
D11*
X94996000Y-120327420D03*
X94996000Y-121226580D03*
D12*
X96393000Y-120838000D03*
X96393000Y-118938000D03*
D13*
X83507580Y-133350000D03*
X82608420Y-133350000D03*
D11*
X86614000Y-129862580D03*
X86614000Y-128963420D03*
D13*
X81338420Y-136017000D03*
X82237580Y-136017000D03*
D17*
X83632000Y-131445000D03*
X85532000Y-131445000D03*
D11*
X125857000Y-120200420D03*
X125857000Y-121099580D03*
X125857000Y-126550420D03*
X125857000Y-127449580D03*
D13*
X115818920Y-118808500D03*
X116718080Y-118808500D03*
D11*
X125857000Y-124899420D03*
X125857000Y-125798580D03*
X125857000Y-121851420D03*
X125857000Y-122750580D03*
D13*
X115882420Y-125857000D03*
X116781580Y-125857000D03*
X115882420Y-124460000D03*
X116781580Y-124460000D03*
X115882420Y-122682000D03*
X116781580Y-122682000D03*
X121226580Y-123571000D03*
X120327420Y-123571000D03*
X118369080Y-128270000D03*
X117469920Y-128270000D03*
X123385580Y-113919000D03*
X122486420Y-113919000D03*
X125036580Y-114808000D03*
X124137420Y-114808000D03*
D11*
X117729000Y-122471180D03*
X117729000Y-121572020D03*
X117729000Y-119819420D03*
X117729000Y-120718580D03*
X103251000Y-135387080D03*
X103251000Y-134487920D03*
X113030000Y-104706420D03*
X113030000Y-105605580D03*
X114173000Y-99255580D03*
X114173000Y-98356420D03*
D13*
X98102420Y-133477000D03*
X99001580Y-133477000D03*
X100652580Y-133731000D03*
X99753420Y-133731000D03*
X102430580Y-86995000D03*
X101531420Y-86995000D03*
X98864420Y-92456000D03*
X99763580Y-92456000D03*
X109542580Y-102870000D03*
X108643420Y-102870000D03*
D11*
X104394000Y-103954580D03*
X104394000Y-103055420D03*
X108839000Y-108399580D03*
X108839000Y-107500420D03*
D13*
X105351580Y-109601000D03*
X104452420Y-109601000D03*
D17*
X106360000Y-111887000D03*
X104460000Y-111887000D03*
D11*
X103251000Y-107129580D03*
X103251000Y-106230420D03*
D12*
X107061000Y-110297000D03*
X107061000Y-108397000D03*
D11*
X107315000Y-125925580D03*
X107315000Y-125026420D03*
D12*
X101981000Y-90485000D03*
X101981000Y-88585000D03*
X101346000Y-93787000D03*
X101346000Y-91887000D03*
D11*
X102235000Y-131386580D03*
X102235000Y-130487420D03*
D13*
X100515420Y-141605000D03*
X101414580Y-141605000D03*
X83126580Y-97663000D03*
X82227420Y-97663000D03*
D11*
X86487000Y-123385580D03*
X86487000Y-122486420D03*
D13*
X82608420Y-116332000D03*
X83507580Y-116332000D03*
X81338420Y-128143000D03*
X82237580Y-128143000D03*
X101414580Y-143129000D03*
X100515420Y-143129000D03*
X81846420Y-107950000D03*
X82745580Y-107950000D03*
D11*
X89662000Y-128719580D03*
X89662000Y-127820420D03*
X90551000Y-128719580D03*
X90551000Y-127820420D03*
D13*
X122486420Y-114808000D03*
X123385580Y-114808000D03*
X124137420Y-113919000D03*
X125036580Y-113919000D03*
X115120420Y-121793000D03*
X116019580Y-121793000D03*
X115120420Y-120904000D03*
X116019580Y-120904000D03*
D11*
X116840000Y-120835420D03*
X116840000Y-121734580D03*
X102362000Y-134487920D03*
X102362000Y-135387080D03*
D13*
X113860580Y-106553000D03*
X112961420Y-106553000D03*
X114876580Y-108896720D03*
X113977420Y-108896720D03*
X115765580Y-107950000D03*
X114866420Y-107950000D03*
D11*
X112903000Y-99255580D03*
X112903000Y-98356420D03*
D13*
X97350580Y-133477000D03*
X96451420Y-133477000D03*
X94800420Y-133477000D03*
X95699580Y-133477000D03*
D11*
X104394000Y-105341420D03*
X104394000Y-106240580D03*
D13*
X97848420Y-123063000D03*
X98747580Y-123063000D03*
X104208580Y-108712000D03*
X103309420Y-108712000D03*
D18*
X96266000Y-90865000D03*
X96266000Y-85665000D03*
X97536000Y-90865000D03*
X98806000Y-90865000D03*
X100076000Y-90865000D03*
X97536000Y-85665000D03*
X98806000Y-85665000D03*
X100076000Y-85665000D03*
D19*
X100239000Y-131077000D03*
X98389000Y-131077000D03*
X98389000Y-129527000D03*
X100239000Y-129527000D03*
D20*
X84328000Y-134334000D03*
X84328000Y-136684000D03*
D21*
X106553000Y-106752000D03*
X106553000Y-103052000D03*
D12*
X103886000Y-93787000D03*
X103886000Y-91887000D03*
D13*
X80713580Y-97790000D03*
X79814420Y-97790000D03*
X80713580Y-95250000D03*
X79814420Y-95250000D03*
D11*
X82296000Y-94419420D03*
X82296000Y-95318580D03*
X87376000Y-120962420D03*
X87376000Y-121861580D03*
D13*
X92651580Y-131318000D03*
X91752420Y-131318000D03*
D11*
X109855000Y-109669580D03*
X109855000Y-108770420D03*
X109855000Y-106992420D03*
X109855000Y-107891580D03*
D22*
X85918000Y-91836240D03*
X87818000Y-91836240D03*
X86868000Y-93835220D03*
D11*
X109474000Y-111389160D03*
X109474000Y-110490000D03*
X109855000Y-105341420D03*
X109855000Y-106240580D03*
X112522000Y-103065580D03*
X112522000Y-102166420D03*
D10*
G36*
X89861107Y-135169868D02*
X88941868Y-136089107D01*
X88446893Y-135594132D01*
X89366132Y-134674893D01*
X89861107Y-135169868D01*
X89861107Y-135169868D01*
G37*
G36*
X88517605Y-133826366D02*
X87598366Y-134745605D01*
X87103391Y-134250630D01*
X88022630Y-133331391D01*
X88517605Y-133826366D01*
X88517605Y-133826366D01*
G37*
D11*
X119507000Y-95816420D03*
X119507000Y-96715580D03*
X121285000Y-95885000D03*
X121285000Y-96784160D03*
D13*
X121353580Y-104013000D03*
X120454420Y-104013000D03*
X122105420Y-104013000D03*
X123004580Y-104013000D03*
D11*
X118110000Y-103817420D03*
X118110000Y-104716580D03*
D13*
X125036580Y-105791000D03*
X124137420Y-105791000D03*
X122105420Y-88265000D03*
X123004580Y-88265000D03*
X121158000Y-88265000D03*
X120258840Y-88265000D03*
D11*
X105664000Y-89016840D03*
X105664000Y-89916000D03*
D13*
X98864420Y-93472000D03*
X99763580Y-93472000D03*
M02*
