M48
;DRILL file {kicad 0.201412111631+5320~19~ubuntu14.04.1-product} date Sun 21 Dec 2014 04:36:29 AM PST
;FORMAT={-:-/ absolute / inch / decimal}
FMAT,2
INCH,TZ
T1C0.008
T2C0.015
T3C0.020
T4C0.035
T5C0.035
T6C0.040
T7C0.059
T8C0.091
%
G90
G05
M72
T1
X4.1476Y-3.3858
X4.1496Y-3.7461
X4.16Y-4.21
X4.18Y-4.265
X4.185Y-4.0236
X4.189Y-3.4094
X4.1949Y-3.7461
X4.1949Y-3.9567
X4.21Y-4.305
X4.2224Y-4.4587
X4.2264Y-4.3287
X4.2264Y-4.5551
X4.2362Y-4.6575
X4.2402Y-3.7461
X4.2402Y-4.2224
X4.2421Y-4.0059
X4.248Y-4.252
X4.2579Y-3.9567
X4.2608Y-3.688
X4.2657Y-3.6496
X4.2717Y-4.061
X4.2756Y-4.2618
X4.2776Y-3.937
X4.2894Y-4.8878
X4.2972Y-4.2756
X4.2992Y-4.0551
X4.311Y-4.6181
X4.315Y-3.9173
X4.3228Y-4.9016
X4.325Y-4.05
X4.339Y-4.3689
X4.3406Y-4.7343
X4.355Y-4.005
X4.3559Y-4.4091
X4.374Y-4.1142
X4.377Y-3.853
X4.38Y-3.975
X4.38Y-4.05
X4.3819Y-4.8366
X4.3823Y-4.3528
X4.3967Y-4.4498
X4.4085Y-4.1526
X4.4449Y-4.0275
X4.4508Y-4.0531
X4.4685Y-4.2953
X4.4705Y-4.0335
X4.4725Y-3.0725
X4.4764Y-4.189
X4.4775Y-3.975
X4.495Y-3.0725
X4.4961Y-4.3406
X4.5Y-3.6752
X4.5175Y-3.0725
X4.5315Y-3.748
X4.5528Y-3.6622
X4.5606Y-2.1551
X4.575Y-4.26
X4.6075Y-4.1684
X4.61Y-3.845
X4.61Y-4.305
X4.6125Y-3.765
X4.623Y-4.6921
X4.6281Y-4.1762
X4.6459Y-4.1633
X4.65Y-3.765
X4.6575Y-3.8465
X4.6675Y-4.1783
X4.685Y-4.165
X4.6879Y-4.637
X4.6898Y-2.1906
X4.6988Y-3.6988
X4.7044Y-4.1777
X4.7047Y-2.4783
X4.7047Y-3.3425
X4.7057Y-3.7768
X4.7067Y-2.3051
X4.7067Y-2.3406
X4.7067Y-2.3839
X4.7067Y-2.4154
X4.7067Y-2.4488
X4.7067Y-2.5138
X4.7067Y-2.5472
X4.7067Y-2.5866
X4.7067Y-2.624
X4.7067Y-2.6535
X4.7067Y-2.685
X4.7067Y-2.7244
X4.7067Y-2.7559
X4.7067Y-2.7854
X4.7067Y-2.8386
X4.7067Y-2.874
X4.7067Y-2.9075
X4.7067Y-2.9449
X4.7067Y-2.9941
X4.7067Y-3.0295
X4.7067Y-3.065
X4.7067Y-3.1024
X4.7067Y-3.1339
X4.7067Y-3.1673
X4.7067Y-3.2008
X4.7067Y-3.2362
X4.7067Y-3.2717
X4.7067Y-3.3071
X4.7106Y-2.2657
X4.7126Y-2.2283
X4.7146Y-2.1972
X4.7244Y-3.3799
X4.725Y-4.1675
X4.7461Y-3.8327
X4.75Y-3.4055
X4.7598Y-3.439
X4.7618Y-3.4764
X4.775Y-3.77
X4.7765Y-4.702
X4.7776Y-3.4232
X4.7795Y-3.5059
X4.7894Y-2.1969
X4.7894Y-2.2323
X4.7894Y-2.2677
X4.7894Y-2.3051
X4.7894Y-2.3445
X4.7894Y-2.3839
X4.7894Y-2.4252
X4.7894Y-2.4646
X4.7894Y-2.502
X4.7894Y-2.5433
X4.7894Y-2.5846
X4.7894Y-2.628
X4.7894Y-2.6634
X4.7894Y-2.6988
X4.7894Y-2.7382
X4.7894Y-2.7913
X4.7894Y-2.8445
X4.7894Y-2.8799
X4.7913Y-2.9154
X4.7913Y-2.9449
X4.7933Y-3.002
X4.7933Y-3.0354
X4.7933Y-3.0689
X4.7933Y-3.1083
X4.7933Y-3.1457
X4.7933Y-3.185
X4.7933Y-3.2244
X4.7933Y-3.2638
X4.7933Y-3.3012
X4.7933Y-3.3366
X4.8Y-3.865
X4.8Y-3.9151
X4.8051Y-3.3701
X4.8091Y-3.5098
X4.8338Y-3.9151
X4.8366Y-3.5217
X4.8406Y-3.9764
X4.8484Y-3.4114
X4.8579Y-3.7898
X4.8642Y-3.5256
X4.872Y-3.4232
X4.874Y-3.9744
X4.8835Y-3.7602
X4.8839Y-3.5512
X4.8839Y-3.5807
X4.8839Y-3.6122
X4.8839Y-3.6457
X4.8839Y-3.685
X4.8839Y-3.7957
X4.8846Y-3.7228
X4.885Y-3.8197
X4.885Y-3.8551
X4.8957Y-3.9567
X4.9075Y-4.8976
X4.9114Y-3.439
X4.9154Y-4.6508
X4.9154Y-4.7224
X4.9193Y-3.4646
X4.9331Y-3.9232
X4.9429Y-3.4902
X4.9508Y-4.4035
X4.9567Y-3.5276
X4.9587Y-3.565
X4.9587Y-3.6024
X4.9587Y-3.6398
X4.9587Y-3.6752
X4.9587Y-3.7106
X4.9606Y-3.7657
X4.9606Y-3.8091
X4.9606Y-3.8484
X4.9606Y-3.8976
X4.9812Y-4.4677
X4.9812Y-4.6016
X4.9862Y-4.7205
X5.Y-2.0846
X5.Y-2.1075
X5.Y-2.13
X5.0169Y-2.9728
X5.0187Y-4.2185
X5.0571Y-5.0315
X5.062Y-4.4655
X5.0698Y-3.7413
X5.0945Y-4.6161
X5.0995Y-4.363
X5.115Y-3.685
X5.1339Y-4.315
X5.29Y-3.855
X5.3051Y-2.1929
X5.3051Y-2.252
X5.3051Y-2.2953
X5.3051Y-2.3563
X5.3071Y-3.0945
X5.315Y-3.875
X5.3209Y-2.1673
X5.3366Y-2.2657
X5.3465Y-2.3819
X5.3524Y-2.4173
X5.3524Y-2.4567
X5.3524Y-2.498
X5.3524Y-2.5295
X5.3524Y-2.561
X5.3524Y-2.5866
X5.3524Y-2.628
X5.3524Y-2.6634
X5.3524Y-2.7008
X5.3533Y-4.6705
X5.3563Y-2.1594
X5.3681Y-2.7402
X5.3681Y-2.7756
X5.3681Y-2.8031
X5.3799Y-2.2776
X5.382Y-4.2955
X5.3898Y-2.1614
X5.395Y-4.275
X5.4055Y-3.0709
X5.417Y-4.5105
X5.4232Y-2.8307
X5.4291Y-2.1594
X5.4311Y-2.376
X5.4311Y-2.4055
X5.4311Y-2.4449
X5.4311Y-2.4843
X5.4311Y-2.5236
X5.4311Y-2.5551
X5.4311Y-2.5866
X5.435Y-4.3366
X5.4508Y-4.6004
X5.4528Y-2.7244
X5.4539Y-3.2382
X5.4587Y-2.8366
X5.4625Y-4.3051
X5.4626Y-2.1417
X5.4665Y-2.3681
X5.4843Y-2.2953
X5.4843Y-2.8583
X5.5079Y-2.8819
X5.5118Y-4.1634
X5.5177Y-2.7303
X5.5177Y-2.7618
X5.5187Y-4.3613
X5.5276Y-3.1732
X5.5295Y-2.7953
X5.5315Y-2.1319
X5.5315Y-2.9075
X5.5317Y-4.379
X5.5512Y-4.1535
X5.5531Y-2.8189
X5.555Y-4.69
X5.5551Y-2.9291
X5.5551Y-3.126
X5.5571Y-3.5201
X5.565Y-4.4862
X5.5689Y-2.1358
X5.5698Y-4.198
X5.5748Y-2.8445
X5.5787Y-2.9528
X5.5965Y-2.4587
X5.598Y-4.3016
X5.5984Y-2.8681
X5.6043Y-2.9764
X5.6102Y-4.3819
X5.6118Y-3.0232
X5.622Y-2.7264
X5.622Y-2.7618
X5.624Y-2.7008
X5.624Y-2.7972
X5.624Y-2.8346
X5.626Y-2.8701
X5.626Y-2.9862
X5.626Y-3.2559
X5.6299Y-2.6634
X5.6328Y-4.7138
X5.6358Y-2.5295
X5.6386Y-2.9047
X5.6614Y-4.2028
X5.6634Y-2.5
X5.665Y-4.36
X5.6772Y-3.2126
X5.687Y-2.4744
X5.689Y-4.0866
X5.689Y-4.126
X5.689Y-4.1614
X5.689Y-4.1988
X5.6909Y-2.7087
X5.6909Y-2.7421
X5.6909Y-2.7795
X5.6909Y-2.8189
X5.6909Y-2.8504
X5.6909Y-4.0551
X5.6909Y-4.2362
X5.6919Y-4.9126
X5.6949Y-2.628
X5.6949Y-2.6634
X5.695Y-4.415
X5.6969Y-2.5866
X5.7087Y-2.1988
X5.7106Y-2.4508
X5.7126Y-2.878
X5.7146Y-3.7736
X5.7165Y-4.0295
X5.7205Y-2.5591
X5.7248Y-3.522
X5.725Y-4.995
X5.7264Y-2.3425
X5.7343Y-2.2244
X5.7343Y-2.4291
X5.735Y-4.4
X5.7362Y-3.2874
X5.7382Y-2.9055
X5.7402Y-3.0748
X5.7421Y-4.0039
X5.7441Y-2.3583
X5.7441Y-2.3839
X5.7441Y-4.4665
X5.7469Y-4.7137
X5.75Y-2.5315
X5.7529Y-4.6193
X5.7535Y-3.3839
X5.7559Y-2.4075
X5.7598Y-2.25
X5.7618Y-4.1083
X5.7618Y-4.1634
X5.7618Y-4.2264
X5.7618Y-4.2598
X5.7625Y-4.9925
X5.7677Y-3.1339
X5.7677Y-3.9783
X5.777Y-4.6015
X5.7795Y-2.502
X5.78Y-4.98
X5.7862Y-3.0283
X5.7894Y-4.0807
X5.7913Y-2.2579
X5.7913Y-3.1811
X5.795Y-4.965
X5.7953Y-3.9528
X5.7992Y-3.122
X5.8031Y-4.2677
X5.8071Y-2.4744
X5.8071Y-2.9724
X5.8102Y-2.8602
X5.8105Y-4.6019
X5.8134Y-3.3142
X5.8169Y-4.0531
X5.8175Y-4.81
X5.8189Y-2.6634
X5.8199Y-4.3858
X5.82Y-5.12
X5.8228Y-2.3051
X5.8228Y-3.7736
X5.8228Y-3.9272
X5.8248Y-2.2717
X5.8248Y-4.1063
X5.825Y-4.9225
X5.825Y-5.08
X5.8327Y-3.3346
X5.8346Y-2.3346
X5.8346Y-2.4449
X5.8366Y-3.
X5.8369Y-4.5665
X5.84Y-4.9075
X5.8406Y-2.3681
X5.8415Y-4.826
X5.8435Y-4.6171
X5.8445Y-4.0256
X5.845Y-5.145
X5.8465Y-2.4075
X5.8484Y-4.4764
X5.8504Y-3.2264
X5.852Y-3.3591
X5.8525Y-4.89
X5.855Y-4.99
X5.8583Y-2.9311
X5.8602Y-3.8898
X5.8622Y-4.6299
X5.8681Y-4.0709
X5.8681Y-4.1063
X5.87Y-5.17
X5.8701Y-3.3071
X5.8711Y-4.4783
X5.872Y-3.998
X5.877Y-4.5015
X5.88Y-5.
X5.8819Y-4.0453
X5.8839Y-4.2244
X5.89Y-4.8525
X5.8901Y-4.6151
X5.895Y-4.98
X5.8976Y-3.9705
X5.8996Y-3.8484
X5.902Y-4.5005
X5.902Y-4.5305
X5.9055Y-4.0197
X5.9075Y-4.835
X5.91Y-5.
X5.91Y-5.165
X5.9134Y-2.313
X5.9134Y-2.3484
X5.9134Y-2.3917
X5.9134Y-2.4291
X5.9142Y-2.9882
X5.915Y-4.965
X5.9154Y-2.2717
X5.9232Y-4.1063
X5.925Y-4.8175
X5.9252Y-2.4587
X5.9252Y-3.128
X5.9272Y-3.9409
X5.9272Y-3.998
X5.929Y-4.5305
X5.9291Y-3.8228
X5.9291Y-4.2992
X5.9321Y-4.5571
X5.9331Y-4.2746
X5.935Y-2.25
X5.94Y-4.8
X5.9421Y-3.5264
X5.9488Y-4.0846
X5.9508Y-2.4843
X5.9508Y-2.5079
X5.9508Y-2.5433
X5.9508Y-2.5846
X5.9508Y-2.6516
X5.9508Y-3.9724
X5.9528Y-4.2569
X5.9547Y-3.7953
X5.9547Y-3.9134
X5.9553Y-4.9208
X5.9567Y-3.3307
X5.9575Y-4.7825
X5.9587Y-2.2146
X5.9587Y-2.8602
X5.96Y-4.585
X5.9606Y-2.6909
X5.9606Y-2.7343
X5.9606Y-2.7717
X5.9606Y-2.8169
X5.973Y-4.9031
X5.9744Y-3.9488
X5.9744Y-4.2343
X5.975Y-4.765
X5.975Y-5.02
X5.9764Y-4.0571
X5.9764Y-4.2963
X5.9775Y-4.73
X5.98Y-4.965
X5.9823Y-3.8858
X5.9833Y-4.5886
X5.9843Y-3.7657
X5.9862Y-2.3996
X5.9882Y-2.3602
X5.99Y-5.085
X5.9901Y-4.8859
X5.9902Y-4.2126
X5.9941Y-2.2146
X5.995Y-5.03
X6.Y-3.9232
X6.Y-4.6275
X6.0039Y-2.4272
X6.008Y-4.868
X6.0089Y-4.6043
X6.0098Y-4.0236
X6.0125Y-4.73
X6.0138Y-3.2913
X6.0138Y-3.7402
X6.0197Y-4.1063
X6.02Y-4.705
X6.0217Y-3.8484
X6.0217Y-4.1772
X6.0236Y-3.3169
X6.0255Y-4.8505
X6.0275Y-4.7425
X6.0276Y-2.2028
X6.0276Y-2.626
X6.0276Y-2.6673
X6.0276Y-2.7067
X6.0276Y-2.8563
X6.0276Y-3.8976
X6.029Y-4.7251
X6.0295Y-2.4528
X6.0295Y-2.4902
X6.0295Y-2.5335
X6.0295Y-2.5787
X6.0295Y-2.748
X6.0295Y-2.7894
X6.0295Y-2.8248
X6.0295Y-4.9665
X6.0335Y-3.2559
X6.0374Y-3.7126
X6.0394Y-3.9941
X6.0394Y-4.0906
X6.0394Y-4.624
X6.04Y-4.655
X6.0402Y-2.8811
X6.0413Y-4.124
X6.0424Y-4.8336
X6.0453Y-2.1831
X6.0512Y-3.8209
X6.0571Y-4.2283
X6.061Y-2.8484
X6.065Y-3.685
X6.065Y-4.645
X6.0689Y-3.9646
X6.07Y-4.785
X6.0728Y-2.939
X6.0748Y-3.8484
X6.0768Y-3.7953
X6.0787Y-3.5768
X6.0825Y-4.7175
X6.0825Y-4.74
X6.0825Y-4.765
X6.0827Y-4.0394
X6.0846Y-2.8248
X6.0866Y-3.2382
X6.0894Y-3.5161
X6.09Y-4.6275
X6.0903Y-4.2061
X6.0925Y-4.6025
X6.0928Y-4.2286
X6.0945Y-3.6555
X6.0965Y-3.937
X6.0984Y-2.939
X6.0984Y-3.8248
X6.1024Y-3.7697
X6.1102Y-2.8012
X6.1102Y-3.0748
X6.1102Y-4.0138
X6.1151Y-4.2355
X6.1161Y-4.1083
X6.1171Y-4.698
X6.1175Y-4.6
X6.1201Y-3.6339
X6.1208Y-4.2567
X6.122Y-4.5755
X6.122Y-2.9114
X6.122Y-3.7992
X6.124Y-3.9094
X6.126Y-4.1299
X6.128Y-3.7441
X6.1319Y-2.939
X6.1319Y-3.0177
X6.1339Y-2.7756
X6.1339Y-3.5984
X6.1358Y-3.5157
X6.1358Y-3.5512
X6.1368Y-4.7138
X6.1374Y-3.0575
X6.1378Y-3.3366
X6.1378Y-3.3701
X6.1378Y-3.4055
X6.1378Y-3.4429
X6.1378Y-3.4803
X6.1398Y-3.1575
X6.1398Y-3.185
X6.1398Y-3.2382
X6.1398Y-3.2736
X6.1417Y-3.128
X6.1427Y-4.5149
X6.1453Y-3.9906
X6.1453Y-4.2611
X6.1464Y-4.8534
X6.1466Y-4.574
X6.1476Y-3.8858
X6.1478Y-4.2836
X6.1496Y-3.7717
X6.1535Y-2.5906
X6.1535Y-2.622
X6.1535Y-2.8799
X6.1535Y-3.0748
X6.1535Y-3.7205
X6.1555Y-2.1378
X6.1564Y-4.5543
X6.1589Y-4.875
X6.1594Y-2.752
X6.1594Y-2.939
X6.161Y-4.1215
X6.1713Y-2.6516
X6.1713Y-2.7165
X6.1714Y-4.8967
X6.1737Y-4.2901
X6.1752Y-3.7461
X6.177Y-4.5205
X6.1772Y-3.9567
X6.1772Y-4.6457
X6.1779Y-4.3142
X6.1811Y-2.8524
X6.1811Y-3.6929
X6.1811Y-3.8484
X6.183Y-4.1834
X6.1839Y-4.9183
X6.185Y-2.9567
X6.187Y-2.565
X6.189Y-2.128
X6.1964Y-4.94
X6.2Y-4.7
X6.2003Y-4.3161
X6.202Y-4.5155
X6.2028Y-4.3386
X6.2044Y-4.9989
X6.2047Y-3.7165
X6.2047Y-3.9291
X6.2053Y-4.4911
X6.2067Y-2.8268
X6.2067Y-3.6673
X6.207Y-4.1205
X6.2087Y-2.9783
X6.2089Y-4.9616
X6.2106Y-3.8189
X6.2165Y-2.5512
X6.22Y-4.6825
X6.2248Y-4.1913
X6.2257Y-4.7069
X6.2264Y-3.3701
X6.2264Y-3.4094
X6.2264Y-3.4488
X6.2264Y-3.4823
X6.2264Y-3.5177
X6.2264Y-3.5512
X6.2264Y-3.9075
X6.2283Y-3.
X6.2283Y-3.0256
X6.2283Y-3.0571
X6.2283Y-3.0906
X6.2283Y-3.128
X6.2283Y-3.1516
X6.2283Y-3.185
X6.2283Y-3.2362
X6.2283Y-3.2736
X6.2283Y-3.3346
X6.2283Y-3.6102
X6.2283Y-3.6929
X6.2286Y-4.8059
X6.2294Y-4.5856
X6.2303Y-4.3411
X6.2303Y-4.4911
X6.2303Y-3.6378
X6.232Y-4.3655
X6.2323Y-2.128
X6.2323Y-2.7992
X6.2323Y-3.7972
X6.2353Y-4.4661
X6.2354Y-4.632
X6.2389Y-5.0136
X6.2391Y-4.1076
X6.2411Y-4.8275
X6.2441Y-3.5728
X6.248Y-2.7795
X6.248Y-3.8858
X6.2499Y-4.5776
X6.25Y-3.6693
X6.2516Y-3.1642
X6.2536Y-4.8492
X6.2539Y-2.5472
X6.2548Y-4.3697
X6.2551Y-5.0418
X6.2559Y-2.6437
X6.2559Y-2.6732
X6.2559Y-2.7047
X6.2559Y-2.7362
X6.2559Y-3.7717
X6.2559Y-4.2795
X6.257Y-4.4605
X6.2615Y-5.0727
X6.262Y-4.393
X6.2647Y-4.6483
X6.2657Y-2.1457
X6.2661Y-4.8708
X6.2675Y-4.735
X6.2776Y-3.6417
X6.2776Y-3.748
X6.2786Y-4.8925
X6.2795Y-2.5157
X6.2805Y-4.4325
X6.2819Y-4.5745
X6.2854Y-2.1673
X6.2854Y-3.8465
X6.287Y-4.4005
X6.2894Y-2.6398
X6.2895Y-4.143
X6.2911Y-4.9141
X6.2934Y-5.0831
X6.2953Y-3.5906
X6.2965Y-4.1075
X6.2972Y-2.4921
X6.2992Y-3.622
X6.2992Y-3.7283
X6.3012Y-2.6122
X6.3031Y-2.4134
X6.3031Y-2.4528
X6.3034Y-5.1005
X6.3043Y-5.1519
X6.3051Y-2.378
X6.3091Y-3.8228
X6.31Y-4.735
X6.3134Y-5.1178
X6.315Y-3.2441
X6.3189Y-3.5925
X6.3199Y-4.9639
X6.3209Y-2.5807
X6.3228Y-3.7067
X6.3231Y-4.1414
X6.3235Y-4.9301
X6.3238Y-4.2138
X6.3274Y-4.3325
X6.33Y-4.8725
X6.3306Y-4.1736
X6.3311Y-4.9834
X6.3321Y-4.3005
X6.3327Y-3.7972
X6.3327Y-4.8228
X6.3336Y-4.4401
X6.336Y-5.0268
X6.336Y-4.268
X6.3424Y-5.0029
X6.3449Y-4.5323
X6.3484Y-2.5551
X6.3484Y-3.6732
X6.3504Y-2.2736
X6.3504Y-3.7697
X6.3519Y-4.2001
X6.352Y-4.2355
X6.3524Y-3.2815
X6.3543Y-3.6949
X6.358Y-4.564
X6.3602Y-4.4409
X6.3638Y-4.1753
X6.365Y-4.7175
X6.3671Y-4.3929
X6.3706Y-5.0819
X6.374Y-2.4075
X6.374Y-2.4449
X6.374Y-2.4843
X6.374Y-2.5256
X6.376Y-2.3799
X6.376Y-3.1102
X6.3779Y-5.1094
X6.378Y-4.5118
X6.3819Y-2.2717
X6.3839Y-3.6555
X6.4016Y-2.372
X6.4025Y-4.745
X6.4035Y-4.4902
X6.4102Y-3.4988
X6.4134Y-3.7717
X6.4272Y-3.315
X6.4321Y-4.6244
X6.434Y-4.8417
X6.439Y-3.6083
X6.439Y-4.4409
X6.4409Y-3.4764
X6.4429Y-4.385
X6.4469Y-3.7697
X6.4724Y-3.4449
X6.4724Y-3.5728
X6.4843Y-3.7697
X6.4866Y-4.1243
X6.4882Y-4.4311
X6.492Y-4.659
X6.4925Y-3.6839
X6.4961Y-4.8701
X6.4985Y-4.1973
X6.5039Y-3.4134
X6.5059Y-3.5394
X6.5276Y-3.685
X6.5276Y-3.7697
X6.5335Y-3.3839
X6.5354Y-3.5098
X6.5386Y-4.1355
X6.561Y-3.3524
X6.561Y-3.4823
X6.5639Y-4.9323
X6.5669Y-3.6831
X6.5753Y-4.1761
X6.5768Y-3.7677
X6.5866Y-3.4567
X6.5906Y-3.3248
X6.5917Y-4.3835
X6.5945Y-3.6555
X6.596Y-4.151
X6.5967Y-4.129
X6.5984Y-4.686
X6.602Y-4.4155
X6.6053Y-3.9866
X6.6122Y-3.7618
X6.6201Y-3.4252
X6.622Y-3.2933
X6.626Y-3.622
X6.6437Y-3.7362
X6.6496Y-3.2638
X6.6555Y-3.3917
X6.657Y-4.2905
X6.6575Y-3.5925
X6.6623Y-4.2692
X6.6752Y-3.2402
X6.6772Y-3.7028
X6.6791Y-3.3661
X6.6909Y-3.2244
X6.6949Y-3.5531
X6.7047Y-3.3425
X6.7067Y-3.6732
X6.7185Y-3.1969
X6.7224Y-3.5236
X6.7323Y-3.315
X6.7382Y-3.6398
X6.7441Y-3.1673
X6.7453Y-4.1661
X6.7547Y-3.8645
X6.7559Y-3.4921
X6.7559Y-4.2165
X6.7598Y-3.2913
X6.7618Y-3.6161
X6.7618Y-4.376
X6.7657Y-4.5394
X6.7677Y-4.5079
X6.7697Y-4.4488
X6.7717Y-3.1437
X6.7835Y-3.5925
X6.7844Y-3.9966
X6.7874Y-3.4606
X6.7894Y-3.2618
X6.792Y-4.7105
X6.8012Y-3.1142
X6.8012Y-4.1732
X6.8035Y-4.1976
X6.8051Y-3.5709
X6.8169Y-3.4331
X6.817Y-4.4805
X6.8189Y-3.2323
X6.8202Y-4.2713
X6.8203Y-4.3111
X6.8213Y-4.572
X6.822Y-4.2455
X6.8268Y-3.0886
X6.8307Y-3.5472
X6.8353Y-4.0605
X6.8406Y-3.4075
X6.8459Y-4.2468
X6.8465Y-3.2047
X6.8504Y-3.065
X6.8504Y-4.4327
X6.8528Y-4.3705
X6.8563Y-3.5217
X6.8563Y-4.2933
X6.857Y-4.5405
X6.857Y-4.7445
X6.8629Y-4.1934
X6.863Y-3.9206
X6.874Y-3.0394
X6.874Y-3.1772
X6.878Y-3.5
X6.8818Y-4.1317
X6.8843Y-4.268
X6.887Y-4.193
X6.8878Y-3.3622
X6.8984Y-4.5551
X6.8987Y-4.3342
X6.8996Y-3.4783
X6.901Y-3.8838
X6.9016Y-3.0118
X6.9035Y-3.1496
X6.9173Y-3.3307
X6.9202Y-4.0402
X6.9213Y-3.4567
X6.9222Y-4.657
X6.9226Y-3.8795
X6.9253Y-4.3711
X6.9259Y-4.5246
X6.9272Y-3.126
X6.9331Y-2.9823
X6.9469Y-3.3012
X6.9481Y-4.6214
X6.9488Y-3.1004
X6.9488Y-3.4291
X6.9494Y-3.94
X6.9587Y-2.9587
X6.9603Y-4.5561
X6.9622Y-4.3717
X6.9638Y-4.5256
X6.9639Y-4.4475
X6.9653Y-4.2561
X6.9653Y-4.4811
X6.9663Y-4.2261
X6.9674Y-4.2863
X6.9695Y-4.6463
X6.9697Y-4.3378
X6.9705Y-3.4075
X6.9713Y-4.0942
X6.9724Y-3.2776
X6.9786Y-4.3051
X6.9803Y-3.0709
X6.9823Y-2.9331
X6.9829Y-3.913
X6.983Y-3.987
X6.9899Y-4.6722
X6.9961Y-3.3819
X6.998Y-3.2539
X7.0059Y-2.9114
X7.0059Y-3.0453
X7.0079Y-3.987
X7.017Y-4.5255
X7.023Y-4.0333
X7.0236Y-3.3563
X7.025Y-3.52
X7.025Y-4.2609
X7.0276Y-2.565
X7.0276Y-2.6063
X7.0276Y-2.8878
X7.0276Y-3.2224
X7.0353Y-4.4761
X7.0363Y-4.1311
X7.0374Y-4.4469
X7.0394Y-3.0118
X7.0403Y-4.3511
X7.0413Y-4.5866
X7.0423Y-3.9173
X7.0425Y-4.3827
X7.0432Y-3.9593
X7.0433Y-2.5413
X7.0453Y-2.6319
X7.0453Y-4.4161
X7.0453Y-4.6461
X7.0472Y-3.3346
X7.049Y-4.2222
X7.0492Y-4.3307
X7.0503Y-4.3061
X7.0512Y-4.8386
X7.052Y-4.5201
X7.0531Y-2.8602
X7.0591Y-3.1949
X7.065Y-2.9862
X7.069Y-4.022
X7.0728Y-2.8386
X7.0748Y-2.5295
X7.0768Y-2.6417
X7.0768Y-2.6713
X7.0768Y-2.7047
X7.0768Y-2.7382
X7.0768Y-2.7736
X7.0768Y-2.811
X7.0787Y-2.4429
X7.0787Y-2.4685
X7.0787Y-3.3031
X7.0807Y-2.4961
X7.0832Y-4.4928
X7.0832Y-4.2095
X7.0866Y-3.1693
X7.0867Y-4.1815
X7.0871Y-3.9956
X7.0884Y-4.5233
X7.0945Y-2.9567
X7.0953Y-4.6411
X7.1024Y-3.2795
X7.1043Y-2.5315
X7.1147Y-4.3707
X7.1165Y-4.1484
X7.1181Y-2.4272
X7.1181Y-3.1358
X7.1203Y-4.2161
X7.124Y-2.9272
X7.1252Y-4.6039
X7.128Y-3.2539
X7.1453Y-4.2361
X7.1476Y-3.1063
X7.1496Y-2.4272
X7.1496Y-2.9016
X7.1503Y-4.0111
X7.1503Y-4.5561
X7.1503Y-4.6961
X7.1535Y-3.2283
X7.1563Y-4.3205
X7.1575Y-2.5374
X7.1587Y-4.5276
X7.1591Y-4.4327
X7.1614Y-2.8169
X7.1614Y-2.8622
X7.1634Y-4.3957
X7.1654Y-2.7362
X7.1654Y-2.7756
X7.1677Y-4.1325
X7.1693Y-2.6929
X7.1713Y-2.6437
X7.1713Y-4.565
X7.1732Y-2.4488
X7.1732Y-3.0807
X7.1772Y-2.5157
X7.1811Y-3.2008
X7.182Y-4.3305
X7.1831Y-4.2047
X7.1988Y-3.0531
X7.2126Y-3.1713
X7.2165Y-4.3307
X7.2244Y-3.0256
X7.2421Y-3.1437
X7.2461Y-4.4449
X7.247Y-4.338
X7.2539Y-2.9961
X7.2717Y-3.1142
X7.2815Y-2.9685
X7.2992Y-3.0866
X7.311Y-2.9409
X7.313Y-2.689
X7.3248Y-3.061
X7.3307Y-2.5531
X7.3307Y-2.6181
X7.3327Y-2.9173
X7.3524Y-3.0315
X7.3583Y-2.6358
X7.3622Y-2.8917
X7.376Y-2.5276
X7.3819Y-3.002
X7.3898Y-2.6575
X7.3898Y-2.6969
X7.3898Y-2.7382
X7.3898Y-2.7795
X7.3898Y-2.8248
X7.3917Y-2.8642
X7.3996Y-2.439
X7.4075Y-2.9764
X7.437Y-2.9528
X7.4547Y-2.4331
X7.4646Y-2.5492
X7.4646Y-2.5846
X7.4646Y-2.9252
X7.4803Y-2.6181
X7.4803Y-2.6555
X7.4803Y-2.6929
X7.4803Y-2.7303
X7.4803Y-2.7677
X7.4803Y-2.8051
X7.4803Y-2.8484
X7.4803Y-2.8839
X7.4843Y-2.4783
X7.4843Y-2.5217
X7.6761Y-3.7295
T2
X4.11Y-3.1
X4.225Y-4.115
X4.235Y-3.095
X4.265Y-4.165
X4.295Y-3.095
X4.325Y-2.99
X4.365Y-2.945
X4.365Y-3.04
X4.4Y-3.075
X4.4Y-2.995
X4.405Y-3.165
X4.405Y-3.23
X4.405Y-3.29
X4.44Y-3.1086
X4.45Y-2.905
X4.47Y-3.3
X4.47Y-3.365
X4.49Y-2.88
X4.51Y-3.415
X4.525Y-3.1425
X4.53Y-2.895
X4.54Y-3.2
X4.54Y-3.245
X4.5423Y-3.3041
X4.5443Y-3.3671
X4.565Y-4.08
X4.5659Y-5.0405
X4.57Y-2.885
X4.57Y-3.94
X4.585Y-3.425
X4.62Y-2.93
X4.62Y-2.97
X4.62Y-3.005
X4.62Y-3.04
X4.635Y-3.365
X4.635Y-4.005
X4.64Y-3.305
X4.65Y-4.26
X4.655Y-3.075
X4.655Y-3.115
X4.655Y-3.155
X4.655Y-3.2
X4.655Y-3.245
X4.705Y-3.94
X4.705Y-4.07
X4.725Y-3.445
X4.73Y-4.26
X4.81Y-2.97
X4.835Y-3.33
X4.84Y-3.855
X4.865Y-3.89
X5.07Y-3.66
X5.1Y-3.77
X5.115Y-3.62
X5.13Y-3.8
X5.14Y-2.825
X5.1427Y-5.0701
X5.165Y-3.59
X5.184Y-4.45
X5.186Y-4.5071
X5.186Y-4.572
X5.2Y-2.635
X5.205Y-3.125
X5.22Y-3.915
X5.2391Y-4.3417
X5.2452Y-3.63
X5.25Y-2.9626
X5.2539Y-2.8957
X5.255Y-3.7
X5.255Y-3.7325
X5.255Y-3.7675
X5.265Y-3.87
X5.265Y-3.965
X5.28Y-3.58
X5.2864Y-4.574
X5.2883Y-4.45
X5.2883Y-4.5051
X5.3002Y-3.915
X5.32Y-3.625
X5.335Y-3.965
X5.355Y-3.73
X5.38Y-3.97
X5.43Y-3.9376
X5.43Y-4.015
X5.445Y-2.64
X5.495Y-3.995
X5.52Y-2.695
X5.545Y-3.88
X5.545Y-3.955
X5.5679Y-4.4421
X5.6683Y-4.639
X5.6879Y-4.5169
X5.87Y-2.375
X5.885Y-2.25
X5.93Y-4.415
X5.985Y-4.475
X5.99Y-4.36
X6.045Y-4.535
X6.0453Y-4.4161
X6.05Y-4.3
X6.105Y-4.355
X6.11Y-4.47
X6.165Y-4.415
X6.23Y-2.475
X6.285Y-3.21
X6.36Y-2.66
X6.38Y-4.8725
X6.4Y-4.8275
X6.415Y-2.7
X6.47Y-2.655
X6.785Y-2.705
X6.795Y-2.445
X6.83Y-2.665
X6.955Y-3.7
X6.955Y-3.775
X6.985Y-3.625
X6.9875Y-3.6625
X7.005Y-3.82
X7.025Y-3.445
X7.03Y-3.6
X7.055Y-3.78
X7.0738Y-3.4892
X7.075Y-3.405
X7.1Y-3.565
X7.11Y-3.655
X7.1192Y-3.719
X7.145Y-3.405
X7.16Y-3.745
X7.195Y-3.445
X7.2Y-3.6
X7.21Y-3.635
T3
X4.527Y-3.5605
X4.527Y-3.6105
X4.577Y-3.5605
X4.577Y-3.6105
X4.627Y-3.5605
X4.627Y-3.6105
X4.677Y-3.5605
X4.677Y-3.6105
X4.727Y-3.5605
X4.727Y-3.6105
X6.492Y-4.7555
X6.492Y-4.8055
X6.542Y-4.7555
X6.542Y-4.8055
X6.592Y-4.7555
X6.592Y-4.8055
X6.642Y-4.7555
X6.642Y-4.8055
X6.692Y-4.7555
X6.692Y-4.8055
T4
X4.037Y-2.9555
X4.037Y-3.0555
X4.037Y-3.1555
X4.037Y-3.2555
X4.037Y-3.3555
X4.037Y-3.4555
X4.037Y-3.5555
X4.037Y-3.6555
X4.037Y-3.7555
X4.037Y-3.8555
X4.037Y-4.1555
X4.037Y-4.2555
X4.037Y-4.3555
X4.037Y-4.4555
X4.037Y-4.5555
X4.037Y-4.6555
X4.037Y-4.7555
X4.037Y-4.8555
X4.037Y-4.9555
X4.037Y-5.0555
T5
X5.2559Y-2.2165
X5.2559Y-2.3228
X5.3543Y-2.2165
X5.3543Y-2.3228
X5.4331Y-2.2165
X5.4331Y-2.3228
X5.5315Y-2.2165
X5.5315Y-2.3228
X6.2008Y-2.2165
X6.2008Y-2.3228
X6.2992Y-2.2165
X6.2992Y-2.3228
X6.378Y-2.2165
X6.378Y-2.3228
X6.4764Y-2.2165
X6.4764Y-2.3228
X7.0051Y-2.1012
X7.0791Y-2.5843
X7.1051Y-2.0413
X7.1291Y-2.4843
X7.1791Y-2.5843
X7.2291Y-2.4843
X7.2791Y-2.5843
X7.3291Y-2.4843
X7.3791Y-2.5843
X7.4031Y-2.1012
X7.4291Y-2.4843
X7.5031Y-2.0413
T6
X4.037Y-2.1055
X4.037Y-2.2055
X4.037Y-2.3055
X4.037Y-2.4055
X4.037Y-2.5055
X4.037Y-2.6055
X4.037Y-2.7055
X4.037Y-2.8055
X4.137Y-2.1055
X4.137Y-2.2055
X4.137Y-2.3055
X4.137Y-2.4055
X4.137Y-2.5055
X4.137Y-2.6055
X4.137Y-2.7055
X4.137Y-2.8055
X4.472Y-4.788
X4.5488Y-4.4697
X4.5488Y-4.5697
X4.572Y-4.788
X4.647Y-4.9605
X4.6488Y-4.4697
X4.6488Y-4.5697
X4.672Y-4.788
X4.747Y-4.9605
X4.7488Y-4.4697
X4.7488Y-4.5697
X4.772Y-4.788
X4.847Y-4.9605
X4.8488Y-4.4697
X4.8488Y-4.5697
X4.872Y-4.788
X4.972Y-4.788
X4.987Y-4.9405
X5.072Y-4.788
X5.087Y-4.9405
X5.187Y-4.9405
X5.188Y-4.0386
X5.188Y-4.1386
X5.3219Y-4.0396
X5.3219Y-4.1396
X5.3535Y-4.8573
X5.4535Y-4.8573
X5.6457Y-3.5945
X5.7669Y-3.4449
X5.7795Y-3.5957
X5.7795Y-3.6957
X5.8669Y-3.4449
X5.8878Y-3.5957
X5.8878Y-3.6957
X6.9445Y-4.8905
X7.5Y-3.62
X7.5Y-3.72
X7.5Y-3.82
T7
X6.948Y-2.3543
X7.5591Y-2.3543
T8
X5.135Y-2.1161
X5.135Y-2.3398
X5.6524Y-2.1161
X5.6524Y-2.3398
X6.0799Y-2.1161
X6.0799Y-2.3398
X6.5972Y-2.1161
X6.5972Y-2.3398
T0
M30
